G04 (created by PCBNEW-RS274X (2012-apr-16-27)-stable) date Sunday 03,March,2013 08:17:15 AM SGT*
G01*
G70*
G90*
%MOIN*%
G04 Gerber Fmt 3.4, Leading zero omitted, Abs format*
%FSLAX34Y34*%
G04 APERTURE LIST*
%ADD10C,0.006000*%
%ADD11R,0.079100X0.079100*%
%ADD12C,0.079100*%
%ADD13R,0.080000X0.080000*%
%ADD14C,0.080000*%
%ADD15C,0.230000*%
G04 APERTURE END LIST*
G54D10*
G54D11*
X68050Y-44100D03*
G54D12*
X67050Y-44100D03*
G54D13*
X54630Y-39650D03*
G54D14*
X54470Y-38650D03*
X54630Y-37650D03*
X54470Y-36650D03*
X54630Y-35650D03*
X54470Y-34650D03*
G54D13*
X51050Y-29100D03*
G54D14*
X51050Y-28100D03*
X52050Y-29100D03*
X52050Y-28100D03*
X53050Y-29100D03*
X53050Y-28100D03*
X54050Y-29100D03*
X54050Y-28100D03*
X55050Y-29100D03*
X55050Y-28100D03*
X56050Y-29100D03*
X56050Y-28100D03*
X57050Y-29100D03*
X57050Y-28100D03*
X58050Y-29100D03*
X58050Y-28100D03*
X59050Y-29100D03*
X59050Y-28100D03*
X60050Y-29100D03*
X60050Y-28100D03*
X61050Y-29100D03*
X61050Y-28100D03*
X62050Y-29100D03*
X62050Y-28100D03*
X63050Y-29100D03*
X63050Y-28100D03*
G54D13*
X51550Y-35100D03*
G54D14*
X52550Y-35100D03*
X51550Y-36100D03*
X52550Y-36100D03*
X51550Y-37100D03*
X52550Y-37100D03*
X51550Y-38100D03*
X52550Y-38100D03*
X51550Y-39100D03*
X52550Y-39100D03*
X51550Y-40100D03*
X52550Y-40100D03*
X51550Y-41100D03*
X52550Y-41100D03*
X51550Y-42100D03*
X52550Y-42100D03*
X51550Y-43100D03*
X52550Y-43100D03*
X51550Y-44100D03*
X52550Y-44100D03*
G54D13*
X67550Y-40100D03*
G54D14*
X66550Y-40100D03*
X67550Y-39100D03*
X66550Y-39100D03*
X67550Y-38100D03*
X66550Y-38100D03*
X67550Y-37100D03*
X66550Y-37100D03*
X67550Y-36100D03*
X66550Y-36100D03*
G54D13*
X56550Y-45450D03*
G54D14*
X56550Y-44450D03*
X57550Y-45450D03*
X57550Y-44450D03*
X58550Y-45450D03*
X58550Y-44450D03*
X59550Y-45450D03*
X59550Y-44450D03*
X60550Y-45450D03*
X60550Y-44450D03*
X61550Y-45450D03*
X61550Y-44450D03*
X62550Y-45450D03*
X62550Y-44450D03*
X63550Y-45450D03*
X63550Y-44450D03*
G54D13*
X52550Y-32100D03*
G54D14*
X52550Y-31100D03*
X53550Y-32100D03*
X53550Y-31100D03*
X54550Y-32100D03*
X54550Y-31100D03*
X55550Y-32100D03*
X55550Y-31100D03*
G54D13*
X51050Y-31100D03*
G54D14*
X51050Y-30100D03*
G54D15*
X60145Y-41994D03*
M02*
