G04 (created by PCBNEW-RS274X (2012-apr-16-27)-stable) date Sunday 03,March,2013 08:17:15 AM SGT*
G01*
G70*
G90*
%MOIN*%
G04 Gerber Fmt 3.4, Leading zero omitted, Abs format*
%FSLAX34Y34*%
G04 APERTURE LIST*
%ADD10C,0.006000*%
%ADD11C,0.005000*%
%ADD12C,0.003000*%
%ADD13C,0.030000*%
%ADD14C,0.008000*%
%ADD15C,0.000100*%
%ADD16C,0.012000*%
%ADD17C,0.002600*%
%ADD18C,0.004000*%
G04 APERTURE END LIST*
G54D10*
G54D11*
X69550Y-46800D02*
X50050Y-46800D01*
X69550Y-32300D02*
X69550Y-46800D01*
X66250Y-32300D02*
X69550Y-32300D01*
X66250Y-27300D02*
X66250Y-32300D01*
X50050Y-27300D02*
X66250Y-27300D01*
X50050Y-46800D02*
X50050Y-27300D01*
X67424Y-33691D02*
X67324Y-33549D01*
X67252Y-33691D02*
X67252Y-33391D01*
X67367Y-33391D01*
X67395Y-33406D01*
X67410Y-33420D01*
X67424Y-33449D01*
X67424Y-33491D01*
X67410Y-33520D01*
X67395Y-33534D01*
X67367Y-33549D01*
X67252Y-33549D01*
X67667Y-33677D02*
X67638Y-33691D01*
X67581Y-33691D01*
X67552Y-33677D01*
X67538Y-33649D01*
X67538Y-33534D01*
X67552Y-33506D01*
X67581Y-33491D01*
X67638Y-33491D01*
X67667Y-33506D01*
X67681Y-33534D01*
X67681Y-33563D01*
X67538Y-33591D01*
X67781Y-33491D02*
X67852Y-33691D01*
X67924Y-33491D01*
X68253Y-33606D02*
X68396Y-33606D01*
X68225Y-33691D02*
X68325Y-33391D01*
X68425Y-33691D01*
X68682Y-33691D02*
X68510Y-33691D01*
X68596Y-33691D02*
X68596Y-33391D01*
X68567Y-33434D01*
X68539Y-33463D01*
X68510Y-33477D01*
G54D12*
X58987Y-37036D02*
X58958Y-37021D01*
X58915Y-37021D01*
X58872Y-37036D01*
X58844Y-37064D01*
X58829Y-37093D01*
X58815Y-37150D01*
X58815Y-37193D01*
X58829Y-37250D01*
X58844Y-37279D01*
X58872Y-37307D01*
X58915Y-37321D01*
X58944Y-37321D01*
X58987Y-37307D01*
X59001Y-37293D01*
X59001Y-37193D01*
X58944Y-37193D01*
X59129Y-37321D02*
X59129Y-37021D01*
X59244Y-37021D01*
X59272Y-37036D01*
X59287Y-37050D01*
X59301Y-37079D01*
X59301Y-37121D01*
X59287Y-37150D01*
X59272Y-37164D01*
X59244Y-37179D01*
X59129Y-37179D01*
X59716Y-37021D02*
X59773Y-37021D01*
X59801Y-37036D01*
X59830Y-37064D01*
X59844Y-37121D01*
X59844Y-37221D01*
X59830Y-37279D01*
X59801Y-37307D01*
X59773Y-37321D01*
X59716Y-37321D01*
X59687Y-37307D01*
X59658Y-37279D01*
X59644Y-37221D01*
X59644Y-37121D01*
X59658Y-37064D01*
X59687Y-37036D01*
X59716Y-37021D01*
X59972Y-37321D02*
X59972Y-37121D01*
X59972Y-37179D02*
X59987Y-37150D01*
X60001Y-37136D01*
X60030Y-37121D01*
X60058Y-37121D01*
X60287Y-37307D02*
X60258Y-37321D01*
X60201Y-37321D01*
X60173Y-37307D01*
X60158Y-37293D01*
X60144Y-37264D01*
X60144Y-37179D01*
X60158Y-37150D01*
X60173Y-37136D01*
X60201Y-37121D01*
X60258Y-37121D01*
X60287Y-37136D01*
X60544Y-37121D02*
X60544Y-37321D01*
X60415Y-37121D02*
X60415Y-37279D01*
X60430Y-37307D01*
X60458Y-37321D01*
X60501Y-37321D01*
X60530Y-37307D01*
X60544Y-37293D01*
X60729Y-37321D02*
X60701Y-37307D01*
X60686Y-37279D01*
X60686Y-37021D01*
X60886Y-37321D02*
X60858Y-37307D01*
X60843Y-37279D01*
X60843Y-37021D01*
X61043Y-37321D02*
X61015Y-37307D01*
X61000Y-37293D01*
X60986Y-37264D01*
X60986Y-37179D01*
X61000Y-37150D01*
X61015Y-37136D01*
X61043Y-37121D01*
X61086Y-37121D01*
X61115Y-37136D01*
X61129Y-37150D01*
X61143Y-37179D01*
X61143Y-37264D01*
X61129Y-37293D01*
X61115Y-37307D01*
X61086Y-37321D01*
X61043Y-37321D01*
X60113Y-37500D02*
X60127Y-37486D01*
X60156Y-37471D01*
X60227Y-37471D01*
X60256Y-37486D01*
X60270Y-37500D01*
X60285Y-37529D01*
X60285Y-37557D01*
X60270Y-37600D01*
X60099Y-37771D01*
X60285Y-37771D01*
X60471Y-37471D02*
X60499Y-37471D01*
X60528Y-37486D01*
X60542Y-37500D01*
X60556Y-37529D01*
X60571Y-37586D01*
X60571Y-37657D01*
X60556Y-37714D01*
X60542Y-37743D01*
X60528Y-37757D01*
X60499Y-37771D01*
X60471Y-37771D01*
X60442Y-37757D01*
X60428Y-37743D01*
X60413Y-37714D01*
X60399Y-37657D01*
X60399Y-37586D01*
X60413Y-37529D01*
X60428Y-37500D01*
X60442Y-37486D01*
X60471Y-37471D01*
X60857Y-37771D02*
X60685Y-37771D01*
X60771Y-37771D02*
X60771Y-37471D01*
X60742Y-37514D01*
X60714Y-37543D01*
X60685Y-37557D01*
X60957Y-37471D02*
X61143Y-37471D01*
X61043Y-37586D01*
X61085Y-37586D01*
X61114Y-37600D01*
X61128Y-37614D01*
X61143Y-37643D01*
X61143Y-37714D01*
X61128Y-37743D01*
X61114Y-37757D01*
X61085Y-37771D01*
X61000Y-37771D01*
X60971Y-37757D01*
X60957Y-37743D01*
G54D13*
X60583Y-32197D02*
X60583Y-30797D01*
X61040Y-30797D01*
X61154Y-30863D01*
X61211Y-30930D01*
X61268Y-31063D01*
X61268Y-31263D01*
X61211Y-31397D01*
X61154Y-31463D01*
X61040Y-31530D01*
X60583Y-31530D01*
X61783Y-32197D02*
X61783Y-30797D01*
X63039Y-32063D02*
X62982Y-32130D01*
X62811Y-32197D01*
X62697Y-32197D01*
X62525Y-32130D01*
X62411Y-31997D01*
X62354Y-31863D01*
X62297Y-31597D01*
X62297Y-31397D01*
X62354Y-31130D01*
X62411Y-30997D01*
X62525Y-30863D01*
X62697Y-30797D01*
X62811Y-30797D01*
X62982Y-30863D01*
X63039Y-30930D01*
X63554Y-31263D02*
X63554Y-32197D01*
X63554Y-31397D02*
X63611Y-31330D01*
X63725Y-31263D01*
X63897Y-31263D01*
X64011Y-31330D01*
X64068Y-31463D01*
X64068Y-32197D01*
X65154Y-32130D02*
X65040Y-32197D01*
X64811Y-32197D01*
X64697Y-32130D01*
X64640Y-32063D01*
X64583Y-31930D01*
X64583Y-31530D01*
X64640Y-31397D01*
X64697Y-31330D01*
X64811Y-31263D01*
X65040Y-31263D01*
X65154Y-31330D01*
G54D14*
X68550Y-43400D02*
X66550Y-43400D01*
X68550Y-42950D02*
X66550Y-42950D01*
X66550Y-42950D02*
X66550Y-45250D01*
X66550Y-45250D02*
X68550Y-45250D01*
X68550Y-45250D02*
X68550Y-42950D01*
G54D15*
G36*
X62971Y-42149D02*
X62983Y-42143D01*
X63008Y-42127D01*
X63045Y-42103D01*
X63088Y-42074D01*
X63132Y-42044D01*
X63167Y-42020D01*
X63192Y-42004D01*
X63203Y-41999D01*
X63208Y-42001D01*
X63229Y-42011D01*
X63259Y-42026D01*
X63276Y-42035D01*
X63304Y-42047D01*
X63317Y-42049D01*
X63320Y-42046D01*
X63330Y-42025D01*
X63345Y-41989D01*
X63366Y-41941D01*
X63390Y-41886D01*
X63415Y-41826D01*
X63441Y-41765D01*
X63465Y-41706D01*
X63486Y-41654D01*
X63503Y-41611D01*
X63515Y-41582D01*
X63519Y-41569D01*
X63518Y-41566D01*
X63504Y-41553D01*
X63480Y-41535D01*
X63428Y-41493D01*
X63377Y-41429D01*
X63346Y-41356D01*
X63335Y-41276D01*
X63344Y-41201D01*
X63374Y-41129D01*
X63424Y-41065D01*
X63484Y-41017D01*
X63555Y-40986D01*
X63635Y-40977D01*
X63711Y-40985D01*
X63784Y-41014D01*
X63849Y-41063D01*
X63876Y-41095D01*
X63914Y-41160D01*
X63935Y-41230D01*
X63938Y-41248D01*
X63934Y-41325D01*
X63912Y-41398D01*
X63871Y-41464D01*
X63815Y-41518D01*
X63808Y-41524D01*
X63781Y-41543D01*
X63764Y-41557D01*
X63750Y-41568D01*
X63848Y-41804D01*
X63864Y-41841D01*
X63891Y-41906D01*
X63914Y-41961D01*
X63933Y-42005D01*
X63946Y-42035D01*
X63952Y-42047D01*
X63953Y-42047D01*
X63961Y-42049D01*
X63979Y-42042D01*
X64012Y-42026D01*
X64034Y-42015D01*
X64059Y-42003D01*
X64070Y-41999D01*
X64080Y-42004D01*
X64104Y-42019D01*
X64139Y-42043D01*
X64181Y-42072D01*
X64221Y-42099D01*
X64258Y-42123D01*
X64285Y-42140D01*
X64298Y-42147D01*
X64300Y-42147D01*
X64312Y-42141D01*
X64333Y-42123D01*
X64365Y-42093D01*
X64411Y-42048D01*
X64418Y-42041D01*
X64455Y-42003D01*
X64485Y-41971D01*
X64506Y-41949D01*
X64513Y-41938D01*
X64513Y-41938D01*
X64506Y-41925D01*
X64489Y-41899D01*
X64465Y-41861D01*
X64435Y-41817D01*
X64357Y-41704D01*
X64400Y-41597D01*
X64413Y-41564D01*
X64430Y-41524D01*
X64442Y-41496D01*
X64448Y-41483D01*
X64460Y-41479D01*
X64489Y-41472D01*
X64532Y-41463D01*
X64583Y-41454D01*
X64631Y-41445D01*
X64674Y-41437D01*
X64706Y-41431D01*
X64720Y-41428D01*
X64724Y-41426D01*
X64726Y-41419D01*
X64728Y-41404D01*
X64729Y-41378D01*
X64730Y-41336D01*
X64730Y-41276D01*
X64730Y-41269D01*
X64729Y-41211D01*
X64728Y-41166D01*
X64727Y-41136D01*
X64725Y-41124D01*
X64725Y-41124D01*
X64711Y-41121D01*
X64680Y-41114D01*
X64637Y-41106D01*
X64585Y-41096D01*
X64581Y-41095D01*
X64530Y-41085D01*
X64486Y-41076D01*
X64456Y-41069D01*
X64443Y-41065D01*
X64440Y-41061D01*
X64430Y-41041D01*
X64415Y-41009D01*
X64398Y-40970D01*
X64381Y-40929D01*
X64366Y-40893D01*
X64356Y-40865D01*
X64353Y-40853D01*
X64354Y-40853D01*
X64361Y-40840D01*
X64379Y-40813D01*
X64404Y-40776D01*
X64435Y-40732D01*
X64437Y-40729D01*
X64467Y-40685D01*
X64491Y-40648D01*
X64507Y-40621D01*
X64513Y-40609D01*
X64513Y-40609D01*
X64503Y-40596D01*
X64481Y-40571D01*
X64449Y-40537D01*
X64410Y-40499D01*
X64398Y-40487D01*
X64356Y-40445D01*
X64326Y-40418D01*
X64308Y-40403D01*
X64299Y-40400D01*
X64298Y-40400D01*
X64285Y-40408D01*
X64258Y-40426D01*
X64220Y-40452D01*
X64176Y-40482D01*
X64173Y-40484D01*
X64129Y-40514D01*
X64092Y-40539D01*
X64066Y-40556D01*
X64055Y-40563D01*
X64053Y-40563D01*
X64035Y-40557D01*
X64004Y-40546D01*
X63966Y-40532D01*
X63925Y-40515D01*
X63889Y-40500D01*
X63861Y-40487D01*
X63848Y-40480D01*
X63848Y-40479D01*
X63843Y-40464D01*
X63835Y-40431D01*
X63826Y-40386D01*
X63816Y-40332D01*
X63814Y-40323D01*
X63804Y-40271D01*
X63796Y-40228D01*
X63790Y-40198D01*
X63787Y-40186D01*
X63779Y-40184D01*
X63754Y-40182D01*
X63715Y-40181D01*
X63668Y-40181D01*
X63619Y-40181D01*
X63570Y-40182D01*
X63529Y-40184D01*
X63499Y-40186D01*
X63487Y-40188D01*
X63487Y-40189D01*
X63482Y-40205D01*
X63475Y-40238D01*
X63466Y-40283D01*
X63455Y-40337D01*
X63453Y-40347D01*
X63444Y-40399D01*
X63435Y-40441D01*
X63429Y-40471D01*
X63425Y-40482D01*
X63421Y-40485D01*
X63399Y-40494D01*
X63364Y-40509D01*
X63321Y-40526D01*
X63221Y-40567D01*
X63098Y-40482D01*
X63086Y-40475D01*
X63042Y-40445D01*
X63006Y-40420D01*
X62981Y-40404D01*
X62970Y-40398D01*
X62969Y-40399D01*
X62957Y-40409D01*
X62933Y-40432D01*
X62899Y-40465D01*
X62861Y-40503D01*
X62832Y-40532D01*
X62798Y-40566D01*
X62777Y-40589D01*
X62765Y-40604D01*
X62761Y-40613D01*
X62762Y-40619D01*
X62770Y-40632D01*
X62788Y-40659D01*
X62813Y-40696D01*
X62843Y-40740D01*
X62868Y-40776D01*
X62894Y-40817D01*
X62912Y-40847D01*
X62918Y-40861D01*
X62916Y-40867D01*
X62908Y-40891D01*
X62893Y-40928D01*
X62875Y-40971D01*
X62832Y-41068D01*
X62768Y-41081D01*
X62729Y-41088D01*
X62675Y-41098D01*
X62624Y-41108D01*
X62543Y-41124D01*
X62540Y-41420D01*
X62552Y-41426D01*
X62564Y-41429D01*
X62594Y-41436D01*
X62637Y-41444D01*
X62687Y-41454D01*
X62730Y-41462D01*
X62774Y-41470D01*
X62805Y-41476D01*
X62819Y-41479D01*
X62822Y-41483D01*
X62833Y-41504D01*
X62848Y-41538D01*
X62865Y-41578D01*
X62883Y-41619D01*
X62898Y-41658D01*
X62909Y-41687D01*
X62913Y-41702D01*
X62907Y-41713D01*
X62890Y-41739D01*
X62866Y-41775D01*
X62837Y-41818D01*
X62808Y-41861D01*
X62783Y-41898D01*
X62766Y-41924D01*
X62758Y-41936D01*
X62762Y-41945D01*
X62779Y-41965D01*
X62812Y-41999D01*
X62860Y-42047D01*
X62868Y-42054D01*
X62906Y-42091D01*
X62939Y-42121D01*
X62961Y-42141D01*
X62971Y-42149D01*
X62971Y-42149D01*
G37*
G54D16*
X55050Y-40150D02*
X54050Y-40150D01*
X54050Y-40150D02*
X54050Y-34150D01*
X54050Y-34150D02*
X55050Y-34150D01*
X55050Y-34150D02*
X55050Y-40150D01*
X55050Y-39150D02*
X54050Y-39150D01*
G54D14*
X61168Y-34732D02*
X61165Y-34761D01*
X61156Y-34789D01*
X61142Y-34815D01*
X61124Y-34837D01*
X61101Y-34856D01*
X61076Y-34870D01*
X61048Y-34878D01*
X61019Y-34881D01*
X60990Y-34879D01*
X60962Y-34871D01*
X60936Y-34857D01*
X60914Y-34839D01*
X60895Y-34816D01*
X60881Y-34791D01*
X60872Y-34763D01*
X60869Y-34734D01*
X60871Y-34705D01*
X60879Y-34677D01*
X60892Y-34651D01*
X60911Y-34628D01*
X60933Y-34609D01*
X60958Y-34595D01*
X60986Y-34586D01*
X61015Y-34583D01*
X61044Y-34585D01*
X61072Y-34593D01*
X61098Y-34606D01*
X61121Y-34624D01*
X61140Y-34646D01*
X61155Y-34671D01*
X61164Y-34699D01*
X61167Y-34728D01*
X61168Y-34732D01*
X57418Y-38332D02*
X61418Y-38332D01*
X61418Y-38332D02*
X61418Y-34582D01*
X61418Y-34582D02*
X61168Y-34332D01*
X61168Y-34332D02*
X57418Y-34332D01*
X57418Y-34332D02*
X57418Y-38332D01*
X50550Y-29600D02*
X63550Y-29600D01*
X63550Y-27600D02*
X50550Y-27600D01*
X50550Y-27600D02*
X50550Y-29600D01*
X63550Y-29600D02*
X63550Y-27600D01*
G54D11*
X57450Y-31450D02*
X57450Y-30750D01*
X57450Y-30750D02*
X58650Y-30750D01*
X58650Y-30750D02*
X58650Y-31450D01*
X58650Y-31450D02*
X57450Y-31450D01*
X58500Y-32450D02*
X57600Y-32450D01*
X57600Y-32450D02*
X57600Y-31950D01*
X57600Y-31950D02*
X58500Y-31950D01*
X58500Y-31950D02*
X58500Y-32450D01*
X59400Y-30550D02*
X59400Y-31450D01*
X59400Y-31450D02*
X58900Y-31450D01*
X58900Y-31450D02*
X58900Y-30550D01*
X58900Y-30550D02*
X59400Y-30550D01*
X58740Y-33260D02*
X58740Y-33460D01*
X58740Y-33460D02*
X59040Y-33460D01*
X59040Y-33460D02*
X59040Y-33260D01*
X58740Y-33060D02*
X58740Y-32860D01*
X58740Y-32860D02*
X59040Y-32860D01*
X59040Y-32860D02*
X59040Y-33060D01*
X55500Y-38850D02*
X55500Y-38650D01*
X55500Y-38650D02*
X55200Y-38650D01*
X55200Y-38650D02*
X55200Y-38850D01*
X55500Y-39050D02*
X55500Y-39250D01*
X55500Y-39250D02*
X55200Y-39250D01*
X55200Y-39250D02*
X55200Y-39050D01*
X61600Y-33500D02*
X61600Y-33700D01*
X61600Y-33700D02*
X61900Y-33700D01*
X61900Y-33700D02*
X61900Y-33500D01*
X61600Y-33300D02*
X61600Y-33100D01*
X61600Y-33100D02*
X61900Y-33100D01*
X61900Y-33100D02*
X61900Y-33300D01*
X62050Y-33500D02*
X62050Y-33700D01*
X62050Y-33700D02*
X62350Y-33700D01*
X62350Y-33700D02*
X62350Y-33500D01*
X62050Y-33300D02*
X62050Y-33100D01*
X62050Y-33100D02*
X62350Y-33100D01*
X62350Y-33100D02*
X62350Y-33300D01*
X62500Y-33500D02*
X62500Y-33700D01*
X62500Y-33700D02*
X62800Y-33700D01*
X62800Y-33700D02*
X62800Y-33500D01*
X62500Y-33300D02*
X62500Y-33100D01*
X62500Y-33100D02*
X62800Y-33100D01*
X62800Y-33100D02*
X62800Y-33300D01*
X62950Y-33500D02*
X62950Y-33700D01*
X62950Y-33700D02*
X63250Y-33700D01*
X63250Y-33700D02*
X63250Y-33500D01*
X62950Y-33300D02*
X62950Y-33100D01*
X62950Y-33100D02*
X63250Y-33100D01*
X63250Y-33100D02*
X63250Y-33300D01*
X63400Y-33500D02*
X63400Y-33700D01*
X63400Y-33700D02*
X63700Y-33700D01*
X63700Y-33700D02*
X63700Y-33500D01*
X63400Y-33300D02*
X63400Y-33100D01*
X63400Y-33100D02*
X63700Y-33100D01*
X63700Y-33100D02*
X63700Y-33300D01*
X63850Y-33500D02*
X63850Y-33700D01*
X63850Y-33700D02*
X64150Y-33700D01*
X64150Y-33700D02*
X64150Y-33500D01*
X63850Y-33300D02*
X63850Y-33100D01*
X63850Y-33100D02*
X64150Y-33100D01*
X64150Y-33100D02*
X64150Y-33300D01*
X64300Y-33500D02*
X64300Y-33700D01*
X64300Y-33700D02*
X64600Y-33700D01*
X64600Y-33700D02*
X64600Y-33500D01*
X64300Y-33300D02*
X64300Y-33100D01*
X64300Y-33100D02*
X64600Y-33100D01*
X64600Y-33100D02*
X64600Y-33300D01*
X64750Y-33500D02*
X64750Y-33700D01*
X64750Y-33700D02*
X65050Y-33700D01*
X65050Y-33700D02*
X65050Y-33500D01*
X64750Y-33300D02*
X64750Y-33100D01*
X64750Y-33100D02*
X65050Y-33100D01*
X65050Y-33100D02*
X65050Y-33300D01*
X61190Y-40560D02*
X61190Y-40760D01*
X61190Y-40760D02*
X61490Y-40760D01*
X61490Y-40760D02*
X61490Y-40560D01*
X61190Y-40360D02*
X61190Y-40160D01*
X61190Y-40160D02*
X61490Y-40160D01*
X61490Y-40160D02*
X61490Y-40360D01*
X62850Y-36150D02*
X62650Y-36150D01*
X62650Y-36150D02*
X62650Y-36450D01*
X62650Y-36450D02*
X62850Y-36450D01*
X63050Y-36150D02*
X63250Y-36150D01*
X63250Y-36150D02*
X63250Y-36450D01*
X63250Y-36450D02*
X63050Y-36450D01*
X58290Y-39480D02*
X58490Y-39480D01*
X58490Y-39480D02*
X58490Y-39180D01*
X58490Y-39180D02*
X58290Y-39180D01*
X58090Y-39480D02*
X57890Y-39480D01*
X57890Y-39480D02*
X57890Y-39180D01*
X57890Y-39180D02*
X58090Y-39180D01*
X55550Y-36800D02*
X55550Y-37000D01*
X55550Y-37000D02*
X55850Y-37000D01*
X55850Y-37000D02*
X55850Y-36800D01*
X55550Y-36600D02*
X55550Y-36400D01*
X55550Y-36400D02*
X55850Y-36400D01*
X55850Y-36400D02*
X55850Y-36600D01*
X56120Y-35170D02*
X56320Y-35170D01*
X56320Y-35170D02*
X56320Y-34870D01*
X56320Y-34870D02*
X56120Y-34870D01*
X55920Y-35170D02*
X55720Y-35170D01*
X55720Y-35170D02*
X55720Y-34870D01*
X55720Y-34870D02*
X55920Y-34870D01*
G54D17*
X61477Y-39757D02*
X61123Y-39757D01*
X61123Y-39757D02*
X61123Y-39914D01*
X61477Y-39914D02*
X61123Y-39914D01*
X61477Y-39757D02*
X61477Y-39914D01*
X61477Y-39246D02*
X61123Y-39246D01*
X61123Y-39246D02*
X61123Y-39403D01*
X61477Y-39403D02*
X61123Y-39403D01*
X61477Y-39246D02*
X61477Y-39403D01*
X61477Y-39580D02*
X61418Y-39580D01*
X61418Y-39580D02*
X61418Y-39698D01*
X61477Y-39698D02*
X61418Y-39698D01*
X61477Y-39580D02*
X61477Y-39698D01*
X61182Y-39580D02*
X61123Y-39580D01*
X61123Y-39580D02*
X61123Y-39698D01*
X61182Y-39698D02*
X61123Y-39698D01*
X61182Y-39580D02*
X61182Y-39698D01*
X61359Y-39580D02*
X61241Y-39580D01*
X61241Y-39580D02*
X61241Y-39698D01*
X61359Y-39698D02*
X61241Y-39698D01*
X61359Y-39580D02*
X61359Y-39698D01*
G54D18*
X61457Y-39757D02*
X61457Y-39403D01*
X61143Y-39757D02*
X61143Y-39403D01*
G54D14*
X50500Y-38750D02*
X50300Y-38750D01*
X50500Y-40450D02*
X50300Y-40450D01*
X50500Y-40450D02*
X50500Y-38750D01*
X53800Y-33100D02*
X50300Y-33100D01*
X53800Y-46100D02*
X50300Y-46100D01*
X50300Y-33100D02*
X50300Y-46100D01*
X53800Y-46100D02*
X53800Y-33100D01*
X68800Y-34100D02*
X68800Y-42100D01*
X65300Y-42100D02*
X65300Y-34100D01*
X68600Y-38950D02*
X68800Y-38950D01*
X68600Y-37250D02*
X68800Y-37250D01*
X68600Y-37250D02*
X68600Y-38950D01*
X65300Y-42100D02*
X68800Y-42100D01*
X65300Y-34100D02*
X68800Y-34100D01*
G54D11*
X63050Y-36550D02*
X63950Y-36550D01*
X63950Y-36550D02*
X63950Y-37050D01*
X63950Y-37050D02*
X63050Y-37050D01*
X63050Y-37050D02*
X63050Y-36550D01*
G54D14*
X65550Y-46700D02*
X54550Y-46700D01*
X54550Y-43200D02*
X65550Y-43200D01*
X59200Y-46500D02*
X59200Y-46700D01*
X60900Y-46500D02*
X60900Y-46700D01*
X60900Y-46500D02*
X59200Y-46500D01*
X54550Y-43200D02*
X54550Y-46700D01*
X65550Y-43200D02*
X65550Y-46700D01*
G54D16*
X52050Y-30600D02*
X56050Y-30600D01*
X56050Y-30600D02*
X56050Y-32600D01*
X56050Y-32600D02*
X52050Y-32600D01*
X52050Y-32600D02*
X52050Y-30600D01*
G54D10*
X51550Y-31600D02*
X50550Y-31600D01*
X50550Y-31600D02*
X50550Y-29600D01*
X50550Y-29600D02*
X51550Y-29600D01*
X51550Y-29600D02*
X51550Y-31600D01*
G54D14*
X66605Y-45862D02*
X66605Y-45462D01*
X66758Y-45462D01*
X66796Y-45481D01*
X66815Y-45500D01*
X66834Y-45538D01*
X66834Y-45595D01*
X66815Y-45633D01*
X66796Y-45652D01*
X66758Y-45671D01*
X66605Y-45671D01*
X67062Y-45633D02*
X67024Y-45614D01*
X67005Y-45595D01*
X66986Y-45557D01*
X66986Y-45538D01*
X67005Y-45500D01*
X67024Y-45481D01*
X67062Y-45462D01*
X67139Y-45462D01*
X67177Y-45481D01*
X67196Y-45500D01*
X67215Y-45538D01*
X67215Y-45557D01*
X67196Y-45595D01*
X67177Y-45614D01*
X67139Y-45633D01*
X67062Y-45633D01*
X67024Y-45652D01*
X67005Y-45671D01*
X66986Y-45710D01*
X66986Y-45786D01*
X67005Y-45824D01*
X67024Y-45843D01*
X67062Y-45862D01*
X67139Y-45862D01*
X67177Y-45843D01*
X67196Y-45824D01*
X67215Y-45786D01*
X67215Y-45710D01*
X67196Y-45671D01*
X67177Y-45652D01*
X67139Y-45633D01*
G54D11*
X62286Y-42648D02*
X62272Y-42662D01*
X62229Y-42676D01*
X62200Y-42676D01*
X62157Y-42662D01*
X62129Y-42634D01*
X62114Y-42605D01*
X62100Y-42548D01*
X62100Y-42505D01*
X62114Y-42448D01*
X62129Y-42419D01*
X62157Y-42391D01*
X62200Y-42376D01*
X62229Y-42376D01*
X62272Y-42391D01*
X62286Y-42405D01*
X62586Y-42648D02*
X62572Y-42662D01*
X62529Y-42676D01*
X62500Y-42676D01*
X62457Y-42662D01*
X62429Y-42634D01*
X62414Y-42605D01*
X62400Y-42548D01*
X62400Y-42505D01*
X62414Y-42448D01*
X62429Y-42419D01*
X62457Y-42391D01*
X62500Y-42376D01*
X62529Y-42376D01*
X62572Y-42391D01*
X62586Y-42405D01*
X63043Y-42519D02*
X63086Y-42534D01*
X63101Y-42548D01*
X63115Y-42576D01*
X63115Y-42619D01*
X63101Y-42648D01*
X63086Y-42662D01*
X63058Y-42676D01*
X62943Y-42676D01*
X62943Y-42376D01*
X63043Y-42376D01*
X63072Y-42391D01*
X63086Y-42405D01*
X63101Y-42434D01*
X63101Y-42462D01*
X63086Y-42491D01*
X63072Y-42505D01*
X63043Y-42519D01*
X62943Y-42519D01*
X63301Y-42534D02*
X63301Y-42676D01*
X63201Y-42376D02*
X63301Y-42534D01*
X63401Y-42376D01*
X63500Y-42562D02*
X63729Y-42562D01*
X63857Y-42662D02*
X63900Y-42676D01*
X63971Y-42676D01*
X64000Y-42662D01*
X64014Y-42648D01*
X64029Y-42619D01*
X64029Y-42591D01*
X64014Y-42562D01*
X64000Y-42548D01*
X63971Y-42534D01*
X63914Y-42519D01*
X63886Y-42505D01*
X63871Y-42491D01*
X63857Y-42462D01*
X63857Y-42434D01*
X63871Y-42405D01*
X63886Y-42391D01*
X63914Y-42376D01*
X63986Y-42376D01*
X64029Y-42391D01*
X64143Y-42591D02*
X64286Y-42591D01*
X64115Y-42676D02*
X64215Y-42376D01*
X64315Y-42676D01*
X64615Y-42376D02*
X64801Y-42376D01*
X64701Y-42491D01*
X64743Y-42491D01*
X64772Y-42505D01*
X64786Y-42519D01*
X64801Y-42548D01*
X64801Y-42619D01*
X64786Y-42648D01*
X64772Y-42662D01*
X64743Y-42676D01*
X64658Y-42676D01*
X64629Y-42662D01*
X64615Y-42648D01*
X64929Y-42648D02*
X64944Y-42662D01*
X64929Y-42676D01*
X64915Y-42662D01*
X64929Y-42648D01*
X64929Y-42676D01*
X65130Y-42376D02*
X65158Y-42376D01*
X65187Y-42391D01*
X65201Y-42405D01*
X65215Y-42434D01*
X65230Y-42491D01*
X65230Y-42562D01*
X65215Y-42619D01*
X65201Y-42648D01*
X65187Y-42662D01*
X65158Y-42676D01*
X65130Y-42676D01*
X65101Y-42662D01*
X65087Y-42648D01*
X65072Y-42619D01*
X65058Y-42562D01*
X65058Y-42491D01*
X65072Y-42434D01*
X65087Y-42405D01*
X65101Y-42391D01*
X65130Y-42376D01*
G54D14*
X54185Y-40772D02*
X54185Y-40372D01*
X54338Y-40372D01*
X54376Y-40391D01*
X54395Y-40410D01*
X54414Y-40448D01*
X54414Y-40505D01*
X54395Y-40543D01*
X54376Y-40562D01*
X54338Y-40581D01*
X54185Y-40581D01*
X54776Y-40372D02*
X54585Y-40372D01*
X54566Y-40562D01*
X54585Y-40543D01*
X54623Y-40524D01*
X54719Y-40524D01*
X54757Y-40543D01*
X54776Y-40562D01*
X54795Y-40600D01*
X54795Y-40696D01*
X54776Y-40734D01*
X54757Y-40753D01*
X54719Y-40772D01*
X54623Y-40772D01*
X54585Y-40753D01*
X54566Y-40734D01*
X62045Y-38162D02*
X62045Y-38486D01*
X62064Y-38524D01*
X62083Y-38543D01*
X62121Y-38562D01*
X62198Y-38562D01*
X62236Y-38543D01*
X62255Y-38524D01*
X62274Y-38486D01*
X62274Y-38162D01*
X62674Y-38562D02*
X62445Y-38562D01*
X62559Y-38562D02*
X62559Y-38162D01*
X62521Y-38219D01*
X62483Y-38257D01*
X62445Y-38276D01*
X63705Y-29562D02*
X63705Y-29162D01*
X63858Y-29162D01*
X63896Y-29181D01*
X63915Y-29200D01*
X63934Y-29238D01*
X63934Y-29295D01*
X63915Y-29333D01*
X63896Y-29352D01*
X63858Y-29371D01*
X63705Y-29371D01*
X64315Y-29562D02*
X64086Y-29562D01*
X64200Y-29562D02*
X64200Y-29162D01*
X64162Y-29219D01*
X64124Y-29257D01*
X64086Y-29276D01*
X56695Y-30662D02*
X56695Y-30986D01*
X56714Y-31024D01*
X56733Y-31043D01*
X56771Y-31062D01*
X56848Y-31062D01*
X56886Y-31043D01*
X56905Y-31024D01*
X56924Y-30986D01*
X56924Y-30662D01*
X57095Y-30700D02*
X57114Y-30681D01*
X57152Y-30662D01*
X57248Y-30662D01*
X57286Y-30681D01*
X57305Y-30700D01*
X57324Y-30738D01*
X57324Y-30776D01*
X57305Y-30833D01*
X57076Y-31062D01*
X57324Y-31062D01*
G54D11*
X57750Y-32893D02*
X57736Y-32907D01*
X57693Y-32921D01*
X57664Y-32921D01*
X57621Y-32907D01*
X57593Y-32879D01*
X57578Y-32850D01*
X57564Y-32793D01*
X57564Y-32750D01*
X57578Y-32693D01*
X57593Y-32664D01*
X57621Y-32636D01*
X57664Y-32621D01*
X57693Y-32621D01*
X57736Y-32636D01*
X57750Y-32650D01*
X57850Y-32621D02*
X58050Y-32621D01*
X57921Y-32921D01*
X59050Y-30393D02*
X59036Y-30407D01*
X58993Y-30421D01*
X58964Y-30421D01*
X58921Y-30407D01*
X58893Y-30379D01*
X58878Y-30350D01*
X58864Y-30293D01*
X58864Y-30250D01*
X58878Y-30193D01*
X58893Y-30164D01*
X58921Y-30136D01*
X58964Y-30121D01*
X58993Y-30121D01*
X59036Y-30136D01*
X59050Y-30150D01*
X59221Y-30250D02*
X59193Y-30236D01*
X59178Y-30221D01*
X59164Y-30193D01*
X59164Y-30179D01*
X59178Y-30150D01*
X59193Y-30136D01*
X59221Y-30121D01*
X59278Y-30121D01*
X59307Y-30136D01*
X59321Y-30150D01*
X59336Y-30179D01*
X59336Y-30193D01*
X59321Y-30221D01*
X59307Y-30236D01*
X59278Y-30250D01*
X59221Y-30250D01*
X59193Y-30264D01*
X59178Y-30279D01*
X59164Y-30307D01*
X59164Y-30364D01*
X59178Y-30393D01*
X59193Y-30407D01*
X59221Y-30421D01*
X59278Y-30421D01*
X59307Y-30407D01*
X59321Y-30393D01*
X59336Y-30364D01*
X59336Y-30307D01*
X59321Y-30279D01*
X59307Y-30264D01*
X59278Y-30250D01*
X59350Y-33093D02*
X59336Y-33107D01*
X59293Y-33121D01*
X59264Y-33121D01*
X59221Y-33107D01*
X59193Y-33079D01*
X59178Y-33050D01*
X59164Y-32993D01*
X59164Y-32950D01*
X59178Y-32893D01*
X59193Y-32864D01*
X59221Y-32836D01*
X59264Y-32821D01*
X59293Y-32821D01*
X59336Y-32836D01*
X59350Y-32850D01*
X59636Y-33121D02*
X59464Y-33121D01*
X59550Y-33121D02*
X59550Y-32821D01*
X59521Y-32864D01*
X59493Y-32893D01*
X59464Y-32907D01*
X55807Y-39021D02*
X55707Y-38879D01*
X55635Y-39021D02*
X55635Y-38721D01*
X55750Y-38721D01*
X55778Y-38736D01*
X55793Y-38750D01*
X55807Y-38779D01*
X55807Y-38821D01*
X55793Y-38850D01*
X55778Y-38864D01*
X55750Y-38879D01*
X55635Y-38879D01*
X56093Y-39021D02*
X55921Y-39021D01*
X56007Y-39021D02*
X56007Y-38721D01*
X55978Y-38764D01*
X55950Y-38793D01*
X55921Y-38807D01*
X56279Y-38721D02*
X56307Y-38721D01*
X56336Y-38736D01*
X56350Y-38750D01*
X56364Y-38779D01*
X56379Y-38836D01*
X56379Y-38907D01*
X56364Y-38964D01*
X56350Y-38993D01*
X56336Y-39007D01*
X56307Y-39021D01*
X56279Y-39021D01*
X56250Y-39007D01*
X56236Y-38993D01*
X56221Y-38964D01*
X56207Y-38907D01*
X56207Y-38836D01*
X56221Y-38779D01*
X56236Y-38750D01*
X56250Y-38736D01*
X56279Y-38721D01*
X61871Y-34300D02*
X61729Y-34400D01*
X61871Y-34472D02*
X61571Y-34472D01*
X61571Y-34357D01*
X61586Y-34329D01*
X61600Y-34314D01*
X61629Y-34300D01*
X61671Y-34300D01*
X61700Y-34314D01*
X61714Y-34329D01*
X61729Y-34357D01*
X61729Y-34472D01*
X61871Y-34157D02*
X61871Y-34100D01*
X61857Y-34072D01*
X61843Y-34057D01*
X61800Y-34029D01*
X61743Y-34014D01*
X61629Y-34014D01*
X61600Y-34029D01*
X61586Y-34043D01*
X61571Y-34072D01*
X61571Y-34129D01*
X61586Y-34157D01*
X61600Y-34172D01*
X61629Y-34186D01*
X61700Y-34186D01*
X61729Y-34172D01*
X61743Y-34157D01*
X61757Y-34129D01*
X61757Y-34072D01*
X61743Y-34043D01*
X61729Y-34029D01*
X61700Y-34014D01*
X62321Y-34300D02*
X62179Y-34400D01*
X62321Y-34472D02*
X62021Y-34472D01*
X62021Y-34357D01*
X62036Y-34329D01*
X62050Y-34314D01*
X62079Y-34300D01*
X62121Y-34300D01*
X62150Y-34314D01*
X62164Y-34329D01*
X62179Y-34357D01*
X62179Y-34472D01*
X62150Y-34129D02*
X62136Y-34157D01*
X62121Y-34172D01*
X62093Y-34186D01*
X62079Y-34186D01*
X62050Y-34172D01*
X62036Y-34157D01*
X62021Y-34129D01*
X62021Y-34072D01*
X62036Y-34043D01*
X62050Y-34029D01*
X62079Y-34014D01*
X62093Y-34014D01*
X62121Y-34029D01*
X62136Y-34043D01*
X62150Y-34072D01*
X62150Y-34129D01*
X62164Y-34157D01*
X62179Y-34172D01*
X62207Y-34186D01*
X62264Y-34186D01*
X62293Y-34172D01*
X62307Y-34157D01*
X62321Y-34129D01*
X62321Y-34072D01*
X62307Y-34043D01*
X62293Y-34029D01*
X62264Y-34014D01*
X62207Y-34014D01*
X62179Y-34029D01*
X62164Y-34043D01*
X62150Y-34072D01*
X62771Y-34300D02*
X62629Y-34400D01*
X62771Y-34472D02*
X62471Y-34472D01*
X62471Y-34357D01*
X62486Y-34329D01*
X62500Y-34314D01*
X62529Y-34300D01*
X62571Y-34300D01*
X62600Y-34314D01*
X62614Y-34329D01*
X62629Y-34357D01*
X62629Y-34472D01*
X62471Y-34200D02*
X62471Y-34000D01*
X62771Y-34129D01*
X63221Y-34300D02*
X63079Y-34400D01*
X63221Y-34472D02*
X62921Y-34472D01*
X62921Y-34357D01*
X62936Y-34329D01*
X62950Y-34314D01*
X62979Y-34300D01*
X63021Y-34300D01*
X63050Y-34314D01*
X63064Y-34329D01*
X63079Y-34357D01*
X63079Y-34472D01*
X62921Y-34043D02*
X62921Y-34100D01*
X62936Y-34129D01*
X62950Y-34143D01*
X62993Y-34172D01*
X63050Y-34186D01*
X63164Y-34186D01*
X63193Y-34172D01*
X63207Y-34157D01*
X63221Y-34129D01*
X63221Y-34072D01*
X63207Y-34043D01*
X63193Y-34029D01*
X63164Y-34014D01*
X63093Y-34014D01*
X63064Y-34029D01*
X63050Y-34043D01*
X63036Y-34072D01*
X63036Y-34129D01*
X63050Y-34157D01*
X63064Y-34172D01*
X63093Y-34186D01*
X63671Y-34300D02*
X63529Y-34400D01*
X63671Y-34472D02*
X63371Y-34472D01*
X63371Y-34357D01*
X63386Y-34329D01*
X63400Y-34314D01*
X63429Y-34300D01*
X63471Y-34300D01*
X63500Y-34314D01*
X63514Y-34329D01*
X63529Y-34357D01*
X63529Y-34472D01*
X63371Y-34029D02*
X63371Y-34172D01*
X63514Y-34186D01*
X63500Y-34172D01*
X63486Y-34143D01*
X63486Y-34072D01*
X63500Y-34043D01*
X63514Y-34029D01*
X63543Y-34014D01*
X63614Y-34014D01*
X63643Y-34029D01*
X63657Y-34043D01*
X63671Y-34072D01*
X63671Y-34143D01*
X63657Y-34172D01*
X63643Y-34186D01*
X64121Y-34300D02*
X63979Y-34400D01*
X64121Y-34472D02*
X63821Y-34472D01*
X63821Y-34357D01*
X63836Y-34329D01*
X63850Y-34314D01*
X63879Y-34300D01*
X63921Y-34300D01*
X63950Y-34314D01*
X63964Y-34329D01*
X63979Y-34357D01*
X63979Y-34472D01*
X63921Y-34043D02*
X64121Y-34043D01*
X63807Y-34114D02*
X64021Y-34186D01*
X64021Y-34000D01*
X64571Y-34300D02*
X64429Y-34400D01*
X64571Y-34472D02*
X64271Y-34472D01*
X64271Y-34357D01*
X64286Y-34329D01*
X64300Y-34314D01*
X64329Y-34300D01*
X64371Y-34300D01*
X64400Y-34314D01*
X64414Y-34329D01*
X64429Y-34357D01*
X64429Y-34472D01*
X64271Y-34200D02*
X64271Y-34014D01*
X64386Y-34114D01*
X64386Y-34072D01*
X64400Y-34043D01*
X64414Y-34029D01*
X64443Y-34014D01*
X64514Y-34014D01*
X64543Y-34029D01*
X64557Y-34043D01*
X64571Y-34072D01*
X64571Y-34157D01*
X64557Y-34186D01*
X64543Y-34200D01*
X65021Y-34300D02*
X64879Y-34400D01*
X65021Y-34472D02*
X64721Y-34472D01*
X64721Y-34357D01*
X64736Y-34329D01*
X64750Y-34314D01*
X64779Y-34300D01*
X64821Y-34300D01*
X64850Y-34314D01*
X64864Y-34329D01*
X64879Y-34357D01*
X64879Y-34472D01*
X64750Y-34186D02*
X64736Y-34172D01*
X64721Y-34143D01*
X64721Y-34072D01*
X64736Y-34043D01*
X64750Y-34029D01*
X64779Y-34014D01*
X64807Y-34014D01*
X64850Y-34029D01*
X65021Y-34200D01*
X65021Y-34014D01*
X61350Y-41221D02*
X61250Y-41079D01*
X61178Y-41221D02*
X61178Y-40921D01*
X61293Y-40921D01*
X61321Y-40936D01*
X61336Y-40950D01*
X61350Y-40979D01*
X61350Y-41021D01*
X61336Y-41050D01*
X61321Y-41064D01*
X61293Y-41079D01*
X61178Y-41079D01*
X61636Y-41221D02*
X61464Y-41221D01*
X61550Y-41221D02*
X61550Y-40921D01*
X61521Y-40964D01*
X61493Y-40993D01*
X61464Y-41007D01*
X63650Y-36393D02*
X63636Y-36407D01*
X63593Y-36421D01*
X63564Y-36421D01*
X63521Y-36407D01*
X63493Y-36379D01*
X63478Y-36350D01*
X63464Y-36293D01*
X63464Y-36250D01*
X63478Y-36193D01*
X63493Y-36164D01*
X63521Y-36136D01*
X63564Y-36121D01*
X63593Y-36121D01*
X63636Y-36136D01*
X63650Y-36150D01*
X63921Y-36121D02*
X63778Y-36121D01*
X63764Y-36264D01*
X63778Y-36250D01*
X63807Y-36236D01*
X63878Y-36236D01*
X63907Y-36250D01*
X63921Y-36264D01*
X63936Y-36293D01*
X63936Y-36364D01*
X63921Y-36393D01*
X63907Y-36407D01*
X63878Y-36421D01*
X63807Y-36421D01*
X63778Y-36407D01*
X63764Y-36393D01*
X58850Y-39493D02*
X58836Y-39507D01*
X58793Y-39521D01*
X58764Y-39521D01*
X58721Y-39507D01*
X58693Y-39479D01*
X58678Y-39450D01*
X58664Y-39393D01*
X58664Y-39350D01*
X58678Y-39293D01*
X58693Y-39264D01*
X58721Y-39236D01*
X58764Y-39221D01*
X58793Y-39221D01*
X58836Y-39236D01*
X58850Y-39250D01*
X59107Y-39321D02*
X59107Y-39521D01*
X59036Y-39207D02*
X58964Y-39421D01*
X59150Y-39421D01*
X55650Y-37393D02*
X55636Y-37407D01*
X55593Y-37421D01*
X55564Y-37421D01*
X55521Y-37407D01*
X55493Y-37379D01*
X55478Y-37350D01*
X55464Y-37293D01*
X55464Y-37250D01*
X55478Y-37193D01*
X55493Y-37164D01*
X55521Y-37136D01*
X55564Y-37121D01*
X55593Y-37121D01*
X55636Y-37136D01*
X55650Y-37150D01*
X55750Y-37121D02*
X55936Y-37121D01*
X55836Y-37236D01*
X55878Y-37236D01*
X55907Y-37250D01*
X55921Y-37264D01*
X55936Y-37293D01*
X55936Y-37364D01*
X55921Y-37393D01*
X55907Y-37407D01*
X55878Y-37421D01*
X55793Y-37421D01*
X55764Y-37407D01*
X55750Y-37393D01*
X55950Y-35593D02*
X55936Y-35607D01*
X55893Y-35621D01*
X55864Y-35621D01*
X55821Y-35607D01*
X55793Y-35579D01*
X55778Y-35550D01*
X55764Y-35493D01*
X55764Y-35450D01*
X55778Y-35393D01*
X55793Y-35364D01*
X55821Y-35336D01*
X55864Y-35321D01*
X55893Y-35321D01*
X55936Y-35336D01*
X55950Y-35350D01*
X56064Y-35350D02*
X56078Y-35336D01*
X56107Y-35321D01*
X56178Y-35321D01*
X56207Y-35336D01*
X56221Y-35350D01*
X56236Y-35379D01*
X56236Y-35407D01*
X56221Y-35450D01*
X56050Y-35621D01*
X56236Y-35621D01*
G54D14*
X55326Y-41712D02*
X55593Y-42112D01*
X55593Y-41712D02*
X55326Y-42112D01*
X55955Y-42112D02*
X55726Y-42112D01*
X55840Y-42112D02*
X55840Y-41712D01*
X55802Y-41769D01*
X55764Y-41807D01*
X55726Y-41826D01*
G54D11*
X61678Y-39421D02*
X61678Y-39121D01*
X61750Y-39121D01*
X61793Y-39136D01*
X61821Y-39164D01*
X61836Y-39193D01*
X61850Y-39250D01*
X61850Y-39293D01*
X61836Y-39350D01*
X61821Y-39379D01*
X61793Y-39407D01*
X61750Y-39421D01*
X61678Y-39421D01*
X62136Y-39421D02*
X61964Y-39421D01*
X62050Y-39421D02*
X62050Y-39121D01*
X62021Y-39164D01*
X61993Y-39193D01*
X61964Y-39207D01*
G54D14*
X50355Y-32862D02*
X50355Y-32462D01*
X50508Y-32462D01*
X50546Y-32481D01*
X50565Y-32500D01*
X50584Y-32538D01*
X50584Y-32595D01*
X50565Y-32633D01*
X50546Y-32652D01*
X50508Y-32671D01*
X50355Y-32671D01*
X50717Y-32462D02*
X50965Y-32462D01*
X50831Y-32614D01*
X50889Y-32614D01*
X50927Y-32633D01*
X50946Y-32652D01*
X50965Y-32690D01*
X50965Y-32786D01*
X50946Y-32824D01*
X50927Y-32843D01*
X50889Y-32862D01*
X50774Y-32862D01*
X50736Y-32843D01*
X50717Y-32824D01*
X68185Y-42652D02*
X68185Y-42252D01*
X68338Y-42252D01*
X68376Y-42271D01*
X68395Y-42290D01*
X68414Y-42328D01*
X68414Y-42385D01*
X68395Y-42423D01*
X68376Y-42442D01*
X68338Y-42461D01*
X68185Y-42461D01*
X68566Y-42290D02*
X68585Y-42271D01*
X68623Y-42252D01*
X68719Y-42252D01*
X68757Y-42271D01*
X68776Y-42290D01*
X68795Y-42328D01*
X68795Y-42366D01*
X68776Y-42423D01*
X68547Y-42652D01*
X68795Y-42652D01*
G54D11*
X64350Y-36993D02*
X64336Y-37007D01*
X64293Y-37021D01*
X64264Y-37021D01*
X64221Y-37007D01*
X64193Y-36979D01*
X64178Y-36950D01*
X64164Y-36893D01*
X64164Y-36850D01*
X64178Y-36793D01*
X64193Y-36764D01*
X64221Y-36736D01*
X64264Y-36721D01*
X64293Y-36721D01*
X64336Y-36736D01*
X64350Y-36750D01*
X64607Y-36721D02*
X64550Y-36721D01*
X64521Y-36736D01*
X64507Y-36750D01*
X64478Y-36793D01*
X64464Y-36850D01*
X64464Y-36964D01*
X64478Y-36993D01*
X64493Y-37007D01*
X64521Y-37021D01*
X64578Y-37021D01*
X64607Y-37007D01*
X64621Y-36993D01*
X64636Y-36964D01*
X64636Y-36893D01*
X64621Y-36864D01*
X64607Y-36850D01*
X64578Y-36836D01*
X64521Y-36836D01*
X64493Y-36850D01*
X64478Y-36864D01*
X64464Y-36893D01*
G54D14*
X65755Y-46612D02*
X65755Y-46212D01*
X65908Y-46212D01*
X65946Y-46231D01*
X65965Y-46250D01*
X65984Y-46288D01*
X65984Y-46345D01*
X65965Y-46383D01*
X65946Y-46402D01*
X65908Y-46421D01*
X65755Y-46421D01*
X66327Y-46345D02*
X66327Y-46612D01*
X66231Y-46193D02*
X66136Y-46479D01*
X66384Y-46479D01*
X56205Y-32612D02*
X56205Y-32212D01*
X56358Y-32212D01*
X56396Y-32231D01*
X56415Y-32250D01*
X56434Y-32288D01*
X56434Y-32345D01*
X56415Y-32383D01*
X56396Y-32402D01*
X56358Y-32421D01*
X56205Y-32421D01*
X56777Y-32212D02*
X56700Y-32212D01*
X56662Y-32231D01*
X56643Y-32250D01*
X56605Y-32307D01*
X56586Y-32383D01*
X56586Y-32536D01*
X56605Y-32574D01*
X56624Y-32593D01*
X56662Y-32612D01*
X56739Y-32612D01*
X56777Y-32593D01*
X56796Y-32574D01*
X56815Y-32536D01*
X56815Y-32440D01*
X56796Y-32402D01*
X56777Y-32383D01*
X56739Y-32364D01*
X56662Y-32364D01*
X56624Y-32383D01*
X56605Y-32402D01*
X56586Y-32440D01*
X51705Y-30162D02*
X51705Y-29762D01*
X51858Y-29762D01*
X51896Y-29781D01*
X51915Y-29800D01*
X51934Y-29838D01*
X51934Y-29895D01*
X51915Y-29933D01*
X51896Y-29952D01*
X51858Y-29971D01*
X51705Y-29971D01*
X52067Y-29762D02*
X52334Y-29762D01*
X52162Y-30162D01*
M02*
