G04 (created by PCBNEW-RS274X (2012-apr-16-27)-stable) date Friday 15,March,2013 10:09:25 PM SGT*
G01*
G70*
G90*
%MOIN*%
G04 Gerber Fmt 3.4, Leading zero omitted, Abs format*
%FSLAX34Y34*%
G04 APERTURE LIST*
%ADD10C,0.006000*%
%ADD11C,0.005000*%
%ADD12C,0.017500*%
%ADD13C,0.008000*%
%ADD14C,0.010000*%
%ADD15C,0.015000*%
%ADD16C,0.000100*%
%ADD17C,0.012000*%
%ADD18C,0.004000*%
%ADD19C,0.007500*%
G04 APERTURE END LIST*
G54D10*
X75000Y-32170D02*
X74998Y-32127D01*
X74992Y-32084D01*
X74982Y-32041D01*
X74969Y-31999D01*
X74953Y-31959D01*
X74933Y-31921D01*
X74909Y-31884D01*
X74883Y-31849D01*
X74853Y-31817D01*
X74821Y-31787D01*
X74786Y-31761D01*
X74750Y-31737D01*
X74711Y-31717D01*
X74671Y-31701D01*
X74629Y-31688D01*
X74586Y-31678D01*
X74543Y-31672D01*
X74500Y-31670D01*
X74500Y-51170D02*
X74543Y-51168D01*
X74586Y-51162D01*
X74629Y-51152D01*
X74671Y-51139D01*
X74711Y-51123D01*
X74750Y-51103D01*
X74786Y-51079D01*
X74821Y-51053D01*
X74853Y-51023D01*
X74883Y-50991D01*
X74909Y-50956D01*
X74933Y-50919D01*
X74953Y-50881D01*
X74969Y-50841D01*
X74982Y-50799D01*
X74992Y-50756D01*
X74998Y-50713D01*
X75000Y-50670D01*
X35700Y-50670D02*
X35700Y-32170D01*
X35700Y-50670D02*
X35702Y-50713D01*
X35708Y-50756D01*
X35718Y-50799D01*
X35731Y-50841D01*
X35747Y-50881D01*
X35767Y-50919D01*
X35791Y-50956D01*
X35817Y-50991D01*
X35847Y-51023D01*
X35879Y-51053D01*
X35914Y-51079D01*
X35951Y-51103D01*
X35989Y-51123D01*
X36029Y-51139D01*
X36071Y-51152D01*
X36114Y-51162D01*
X36157Y-51168D01*
X36200Y-51170D01*
X74500Y-51170D02*
X36200Y-51170D01*
X36200Y-31670D02*
X36157Y-31672D01*
X36114Y-31678D01*
X36071Y-31688D01*
X36029Y-31701D01*
X35989Y-31717D01*
X35951Y-31737D01*
X35914Y-31761D01*
X35879Y-31787D01*
X35847Y-31817D01*
X35817Y-31849D01*
X35791Y-31884D01*
X35767Y-31921D01*
X35747Y-31959D01*
X35731Y-31999D01*
X35718Y-32041D01*
X35708Y-32084D01*
X35702Y-32127D01*
X35700Y-32170D01*
G54D11*
X68155Y-43633D02*
X68132Y-43621D01*
X68096Y-43621D01*
X68060Y-43633D01*
X68036Y-43657D01*
X68025Y-43681D01*
X68013Y-43728D01*
X68013Y-43764D01*
X68025Y-43812D01*
X68036Y-43835D01*
X68060Y-43859D01*
X68096Y-43871D01*
X68120Y-43871D01*
X68155Y-43859D01*
X68167Y-43847D01*
X68167Y-43764D01*
X68120Y-43764D01*
X68275Y-43871D02*
X68275Y-43621D01*
X68370Y-43621D01*
X68394Y-43633D01*
X68405Y-43645D01*
X68417Y-43669D01*
X68417Y-43705D01*
X68405Y-43728D01*
X68394Y-43740D01*
X68370Y-43752D01*
X68275Y-43752D01*
X68762Y-43621D02*
X68810Y-43621D01*
X68834Y-43633D01*
X68857Y-43657D01*
X68869Y-43705D01*
X68869Y-43788D01*
X68857Y-43835D01*
X68834Y-43859D01*
X68810Y-43871D01*
X68762Y-43871D01*
X68738Y-43859D01*
X68715Y-43835D01*
X68703Y-43788D01*
X68703Y-43705D01*
X68715Y-43657D01*
X68738Y-43633D01*
X68762Y-43621D01*
X68977Y-43871D02*
X68977Y-43705D01*
X68977Y-43752D02*
X68988Y-43728D01*
X69000Y-43716D01*
X69024Y-43705D01*
X69048Y-43705D01*
X69239Y-43859D02*
X69215Y-43871D01*
X69167Y-43871D01*
X69143Y-43859D01*
X69132Y-43847D01*
X69120Y-43824D01*
X69120Y-43752D01*
X69132Y-43728D01*
X69143Y-43716D01*
X69167Y-43705D01*
X69215Y-43705D01*
X69239Y-43716D01*
X69453Y-43705D02*
X69453Y-43871D01*
X69346Y-43705D02*
X69346Y-43835D01*
X69357Y-43859D01*
X69381Y-43871D01*
X69417Y-43871D01*
X69441Y-43859D01*
X69453Y-43847D01*
X69607Y-43871D02*
X69583Y-43859D01*
X69572Y-43835D01*
X69572Y-43621D01*
X69738Y-43871D02*
X69714Y-43859D01*
X69703Y-43835D01*
X69703Y-43621D01*
X69869Y-43871D02*
X69845Y-43859D01*
X69834Y-43847D01*
X69822Y-43824D01*
X69822Y-43752D01*
X69834Y-43728D01*
X69845Y-43716D01*
X69869Y-43705D01*
X69905Y-43705D01*
X69929Y-43716D01*
X69941Y-43728D01*
X69953Y-43752D01*
X69953Y-43824D01*
X69941Y-43847D01*
X69929Y-43859D01*
X69905Y-43871D01*
X69869Y-43871D01*
X69096Y-44045D02*
X69108Y-44033D01*
X69131Y-44021D01*
X69191Y-44021D01*
X69215Y-44033D01*
X69227Y-44045D01*
X69238Y-44069D01*
X69238Y-44093D01*
X69227Y-44128D01*
X69084Y-44271D01*
X69238Y-44271D01*
X69393Y-44021D02*
X69417Y-44021D01*
X69441Y-44033D01*
X69453Y-44045D01*
X69465Y-44069D01*
X69476Y-44116D01*
X69476Y-44176D01*
X69465Y-44224D01*
X69453Y-44247D01*
X69441Y-44259D01*
X69417Y-44271D01*
X69393Y-44271D01*
X69369Y-44259D01*
X69357Y-44247D01*
X69346Y-44224D01*
X69334Y-44176D01*
X69334Y-44116D01*
X69346Y-44069D01*
X69357Y-44045D01*
X69369Y-44033D01*
X69393Y-44021D01*
X69714Y-44271D02*
X69572Y-44271D01*
X69643Y-44271D02*
X69643Y-44021D01*
X69619Y-44057D01*
X69595Y-44081D01*
X69572Y-44093D01*
X69798Y-44021D02*
X69952Y-44021D01*
X69869Y-44116D01*
X69905Y-44116D01*
X69929Y-44128D01*
X69941Y-44140D01*
X69952Y-44164D01*
X69952Y-44224D01*
X69941Y-44247D01*
X69929Y-44259D01*
X69905Y-44271D01*
X69833Y-44271D01*
X69810Y-44259D01*
X69798Y-44247D01*
X66264Y-47291D02*
X66164Y-47149D01*
X66092Y-47291D02*
X66092Y-46991D01*
X66207Y-46991D01*
X66235Y-47006D01*
X66250Y-47020D01*
X66264Y-47049D01*
X66264Y-47091D01*
X66250Y-47120D01*
X66235Y-47134D01*
X66207Y-47149D01*
X66092Y-47149D01*
X66507Y-47277D02*
X66478Y-47291D01*
X66421Y-47291D01*
X66392Y-47277D01*
X66378Y-47249D01*
X66378Y-47134D01*
X66392Y-47106D01*
X66421Y-47091D01*
X66478Y-47091D01*
X66507Y-47106D01*
X66521Y-47134D01*
X66521Y-47163D01*
X66378Y-47191D01*
X66621Y-47091D02*
X66692Y-47291D01*
X66764Y-47091D01*
X67093Y-47206D02*
X67236Y-47206D01*
X67065Y-47291D02*
X67165Y-46991D01*
X67265Y-47291D01*
X67422Y-46991D02*
X67450Y-46991D01*
X67479Y-47006D01*
X67493Y-47020D01*
X67507Y-47049D01*
X67522Y-47106D01*
X67522Y-47177D01*
X67507Y-47234D01*
X67493Y-47263D01*
X67479Y-47277D01*
X67450Y-47291D01*
X67422Y-47291D01*
X67393Y-47277D01*
X67379Y-47263D01*
X67364Y-47234D01*
X67350Y-47177D01*
X67350Y-47106D01*
X67364Y-47049D01*
X67379Y-47020D01*
X67393Y-47006D01*
X67422Y-46991D01*
G54D12*
X63217Y-46744D02*
X63217Y-45944D01*
X63483Y-45944D01*
X63550Y-45982D01*
X63583Y-46020D01*
X63617Y-46096D01*
X63617Y-46210D01*
X63583Y-46287D01*
X63550Y-46325D01*
X63483Y-46363D01*
X63217Y-46363D01*
X63917Y-46744D02*
X63917Y-45944D01*
X64650Y-46668D02*
X64616Y-46706D01*
X64516Y-46744D01*
X64450Y-46744D01*
X64350Y-46706D01*
X64283Y-46630D01*
X64250Y-46553D01*
X64216Y-46401D01*
X64216Y-46287D01*
X64250Y-46134D01*
X64283Y-46058D01*
X64350Y-45982D01*
X64450Y-45944D01*
X64516Y-45944D01*
X64616Y-45982D01*
X64650Y-46020D01*
X64950Y-46210D02*
X64950Y-46744D01*
X64950Y-46287D02*
X64983Y-46249D01*
X65050Y-46210D01*
X65150Y-46210D01*
X65216Y-46249D01*
X65250Y-46325D01*
X65250Y-46744D01*
X65883Y-46706D02*
X65816Y-46744D01*
X65683Y-46744D01*
X65616Y-46706D01*
X65583Y-46668D01*
X65549Y-46591D01*
X65549Y-46363D01*
X65583Y-46287D01*
X65616Y-46249D01*
X65683Y-46210D01*
X65816Y-46210D01*
X65883Y-46249D01*
X66916Y-45944D02*
X66916Y-46515D01*
X66882Y-46630D01*
X66816Y-46706D01*
X66716Y-46744D01*
X66649Y-46744D01*
X67249Y-46744D02*
X67249Y-46210D01*
X67249Y-46363D02*
X67282Y-46287D01*
X67315Y-46249D01*
X67382Y-46210D01*
X67449Y-46210D01*
G54D13*
X40757Y-44085D02*
X40757Y-43799D01*
X40471Y-43770D01*
X40500Y-43799D01*
X40529Y-43856D01*
X40529Y-43999D01*
X40500Y-44056D01*
X40471Y-44085D01*
X40414Y-44113D01*
X40271Y-44113D01*
X40214Y-44085D01*
X40186Y-44056D01*
X40157Y-43999D01*
X40157Y-43856D01*
X40186Y-43799D01*
X40214Y-43770D01*
X40557Y-44313D02*
X40157Y-44456D01*
X40557Y-44598D01*
X38229Y-47613D02*
X38257Y-47556D01*
X38257Y-47470D01*
X38229Y-47385D01*
X38171Y-47327D01*
X38114Y-47299D01*
X38000Y-47270D01*
X37914Y-47270D01*
X37800Y-47299D01*
X37743Y-47327D01*
X37686Y-47385D01*
X37657Y-47470D01*
X37657Y-47527D01*
X37686Y-47613D01*
X37714Y-47642D01*
X37914Y-47642D01*
X37914Y-47527D01*
X37657Y-47899D02*
X38257Y-47899D01*
X37657Y-48242D01*
X38257Y-48242D01*
X37657Y-48528D02*
X38257Y-48528D01*
X38257Y-48671D01*
X38229Y-48756D01*
X38171Y-48814D01*
X38114Y-48842D01*
X38000Y-48871D01*
X37914Y-48871D01*
X37800Y-48842D01*
X37743Y-48814D01*
X37686Y-48756D01*
X37657Y-48671D01*
X37657Y-48528D01*
X37757Y-39928D02*
X37757Y-39585D01*
X37757Y-39757D02*
X38357Y-39757D01*
X38271Y-39700D01*
X38214Y-39642D01*
X38186Y-39585D01*
X38300Y-40156D02*
X38329Y-40185D01*
X38357Y-40242D01*
X38357Y-40385D01*
X38329Y-40442D01*
X38300Y-40471D01*
X38243Y-40499D01*
X38186Y-40499D01*
X38100Y-40471D01*
X37757Y-40128D01*
X37757Y-40499D01*
X38157Y-40699D02*
X37757Y-40842D01*
X38157Y-40984D01*
G54D10*
X75000Y-32170D02*
X75000Y-50670D01*
X36200Y-31670D02*
X74500Y-31670D01*
G54D14*
X41300Y-34570D02*
X42500Y-34570D01*
X42500Y-34570D02*
X42500Y-41570D01*
X42500Y-41570D02*
X41300Y-41570D01*
X41300Y-41570D02*
X41300Y-34570D01*
X40100Y-34570D02*
X41300Y-34570D01*
X41300Y-34570D02*
X41300Y-41570D01*
X41300Y-41570D02*
X40100Y-41570D01*
X40100Y-41570D02*
X40100Y-34570D01*
G54D13*
X74300Y-39170D02*
X71300Y-39170D01*
X71300Y-37170D02*
X74300Y-37170D01*
X74300Y-37170D02*
X74300Y-39170D01*
X71300Y-39170D02*
X71300Y-37170D01*
X66500Y-39170D02*
X63500Y-39170D01*
X63500Y-37170D02*
X66500Y-37170D01*
X66500Y-37170D02*
X66500Y-39170D01*
X63500Y-39170D02*
X63500Y-37170D01*
X58500Y-39170D02*
X55500Y-39170D01*
X55500Y-37170D02*
X58500Y-37170D01*
X58500Y-37170D02*
X58500Y-39170D01*
X55500Y-39170D02*
X55500Y-37170D01*
X50500Y-39170D02*
X47500Y-39170D01*
X47500Y-37170D02*
X50500Y-37170D01*
X50500Y-37170D02*
X50500Y-39170D01*
X47500Y-39170D02*
X47500Y-37170D01*
G54D15*
X40000Y-38670D02*
X40000Y-38920D01*
X40000Y-38920D02*
X36000Y-38920D01*
X36000Y-38920D02*
X36000Y-38670D01*
X40000Y-37170D02*
X40000Y-38670D01*
X40000Y-38670D02*
X36000Y-38670D01*
X36000Y-38670D02*
X36000Y-37170D01*
X36000Y-37170D02*
X40000Y-37170D01*
X40000Y-36670D02*
X40000Y-36920D01*
X40000Y-36920D02*
X36000Y-36920D01*
X36000Y-36920D02*
X36000Y-36670D01*
X40000Y-35170D02*
X40000Y-36670D01*
X40000Y-36670D02*
X36000Y-36670D01*
X36000Y-36670D02*
X36000Y-35170D01*
X36000Y-35170D02*
X40000Y-35170D01*
G54D16*
G36*
X72836Y-48354D02*
X72848Y-48348D01*
X72873Y-48332D01*
X72910Y-48308D01*
X72953Y-48279D01*
X72997Y-48249D01*
X73032Y-48225D01*
X73057Y-48209D01*
X73068Y-48204D01*
X73073Y-48206D01*
X73094Y-48216D01*
X73124Y-48231D01*
X73141Y-48240D01*
X73169Y-48252D01*
X73182Y-48254D01*
X73185Y-48251D01*
X73195Y-48230D01*
X73210Y-48194D01*
X73231Y-48146D01*
X73255Y-48091D01*
X73280Y-48031D01*
X73306Y-47970D01*
X73330Y-47911D01*
X73351Y-47859D01*
X73368Y-47816D01*
X73380Y-47787D01*
X73384Y-47774D01*
X73383Y-47771D01*
X73369Y-47758D01*
X73345Y-47740D01*
X73293Y-47698D01*
X73242Y-47634D01*
X73211Y-47561D01*
X73200Y-47481D01*
X73209Y-47406D01*
X73239Y-47334D01*
X73289Y-47270D01*
X73349Y-47222D01*
X73420Y-47191D01*
X73500Y-47182D01*
X73576Y-47190D01*
X73649Y-47219D01*
X73714Y-47268D01*
X73741Y-47300D01*
X73779Y-47365D01*
X73800Y-47435D01*
X73803Y-47453D01*
X73799Y-47530D01*
X73777Y-47603D01*
X73736Y-47669D01*
X73680Y-47723D01*
X73673Y-47729D01*
X73646Y-47748D01*
X73629Y-47762D01*
X73615Y-47773D01*
X73713Y-48009D01*
X73729Y-48046D01*
X73756Y-48111D01*
X73779Y-48166D01*
X73798Y-48210D01*
X73811Y-48240D01*
X73817Y-48252D01*
X73818Y-48252D01*
X73826Y-48254D01*
X73844Y-48247D01*
X73877Y-48231D01*
X73899Y-48220D01*
X73924Y-48208D01*
X73935Y-48204D01*
X73945Y-48209D01*
X73969Y-48224D01*
X74004Y-48248D01*
X74046Y-48277D01*
X74086Y-48304D01*
X74123Y-48328D01*
X74150Y-48345D01*
X74163Y-48352D01*
X74165Y-48352D01*
X74177Y-48346D01*
X74198Y-48328D01*
X74230Y-48298D01*
X74276Y-48253D01*
X74283Y-48246D01*
X74320Y-48208D01*
X74350Y-48176D01*
X74371Y-48154D01*
X74378Y-48143D01*
X74378Y-48143D01*
X74371Y-48130D01*
X74354Y-48104D01*
X74330Y-48066D01*
X74300Y-48022D01*
X74222Y-47909D01*
X74265Y-47802D01*
X74278Y-47769D01*
X74295Y-47729D01*
X74307Y-47701D01*
X74313Y-47688D01*
X74325Y-47684D01*
X74354Y-47677D01*
X74397Y-47668D01*
X74448Y-47659D01*
X74496Y-47650D01*
X74539Y-47642D01*
X74571Y-47636D01*
X74585Y-47633D01*
X74589Y-47631D01*
X74591Y-47624D01*
X74593Y-47609D01*
X74594Y-47583D01*
X74595Y-47541D01*
X74595Y-47481D01*
X74595Y-47474D01*
X74594Y-47416D01*
X74593Y-47371D01*
X74592Y-47341D01*
X74590Y-47329D01*
X74590Y-47329D01*
X74576Y-47326D01*
X74545Y-47319D01*
X74502Y-47311D01*
X74450Y-47301D01*
X74446Y-47300D01*
X74395Y-47290D01*
X74351Y-47281D01*
X74321Y-47274D01*
X74308Y-47270D01*
X74305Y-47266D01*
X74295Y-47246D01*
X74280Y-47214D01*
X74263Y-47175D01*
X74246Y-47134D01*
X74231Y-47098D01*
X74221Y-47070D01*
X74218Y-47058D01*
X74219Y-47058D01*
X74226Y-47045D01*
X74244Y-47018D01*
X74269Y-46981D01*
X74300Y-46937D01*
X74302Y-46934D01*
X74332Y-46890D01*
X74356Y-46853D01*
X74372Y-46826D01*
X74378Y-46814D01*
X74378Y-46814D01*
X74368Y-46801D01*
X74346Y-46776D01*
X74314Y-46742D01*
X74275Y-46704D01*
X74263Y-46692D01*
X74221Y-46650D01*
X74191Y-46623D01*
X74173Y-46608D01*
X74164Y-46605D01*
X74163Y-46605D01*
X74150Y-46613D01*
X74123Y-46631D01*
X74085Y-46657D01*
X74041Y-46687D01*
X74038Y-46689D01*
X73994Y-46719D01*
X73957Y-46744D01*
X73931Y-46761D01*
X73920Y-46768D01*
X73918Y-46768D01*
X73900Y-46762D01*
X73869Y-46751D01*
X73831Y-46737D01*
X73790Y-46720D01*
X73754Y-46705D01*
X73726Y-46692D01*
X73713Y-46685D01*
X73713Y-46684D01*
X73708Y-46669D01*
X73700Y-46636D01*
X73691Y-46591D01*
X73681Y-46537D01*
X73679Y-46528D01*
X73669Y-46476D01*
X73661Y-46433D01*
X73655Y-46403D01*
X73652Y-46391D01*
X73644Y-46389D01*
X73619Y-46387D01*
X73580Y-46386D01*
X73533Y-46386D01*
X73484Y-46386D01*
X73435Y-46387D01*
X73394Y-46389D01*
X73364Y-46391D01*
X73352Y-46393D01*
X73352Y-46394D01*
X73347Y-46410D01*
X73340Y-46443D01*
X73331Y-46488D01*
X73320Y-46542D01*
X73318Y-46552D01*
X73309Y-46604D01*
X73300Y-46646D01*
X73294Y-46676D01*
X73290Y-46687D01*
X73286Y-46690D01*
X73264Y-46699D01*
X73229Y-46714D01*
X73186Y-46731D01*
X73086Y-46772D01*
X72963Y-46687D01*
X72951Y-46680D01*
X72907Y-46650D01*
X72871Y-46625D01*
X72846Y-46609D01*
X72835Y-46603D01*
X72834Y-46604D01*
X72822Y-46614D01*
X72798Y-46637D01*
X72764Y-46670D01*
X72726Y-46708D01*
X72697Y-46737D01*
X72663Y-46771D01*
X72642Y-46794D01*
X72630Y-46809D01*
X72626Y-46818D01*
X72627Y-46824D01*
X72635Y-46837D01*
X72653Y-46864D01*
X72678Y-46901D01*
X72708Y-46945D01*
X72733Y-46981D01*
X72759Y-47022D01*
X72777Y-47052D01*
X72783Y-47066D01*
X72781Y-47072D01*
X72773Y-47096D01*
X72758Y-47133D01*
X72740Y-47176D01*
X72697Y-47273D01*
X72633Y-47286D01*
X72594Y-47293D01*
X72540Y-47303D01*
X72489Y-47313D01*
X72408Y-47329D01*
X72405Y-47625D01*
X72417Y-47631D01*
X72429Y-47634D01*
X72459Y-47641D01*
X72502Y-47649D01*
X72552Y-47659D01*
X72595Y-47667D01*
X72639Y-47675D01*
X72670Y-47681D01*
X72684Y-47684D01*
X72687Y-47688D01*
X72698Y-47709D01*
X72713Y-47743D01*
X72730Y-47783D01*
X72748Y-47824D01*
X72763Y-47863D01*
X72774Y-47892D01*
X72778Y-47907D01*
X72772Y-47918D01*
X72755Y-47944D01*
X72731Y-47980D01*
X72702Y-48023D01*
X72673Y-48066D01*
X72648Y-48103D01*
X72631Y-48129D01*
X72623Y-48141D01*
X72627Y-48150D01*
X72644Y-48170D01*
X72677Y-48204D01*
X72725Y-48252D01*
X72733Y-48259D01*
X72771Y-48296D01*
X72804Y-48326D01*
X72826Y-48346D01*
X72836Y-48354D01*
X72836Y-48354D01*
G37*
G54D14*
X52500Y-34420D02*
X52700Y-34420D01*
X56500Y-34420D02*
X56300Y-34420D01*
X56500Y-32170D02*
X52500Y-32170D01*
X56500Y-33920D02*
X56500Y-34420D01*
X52500Y-32420D02*
X52500Y-31920D01*
X52500Y-31920D02*
X56500Y-31920D01*
X56500Y-31920D02*
X56500Y-32420D01*
X52500Y-34420D02*
X52500Y-33920D01*
X38500Y-34420D02*
X38700Y-34420D01*
X42500Y-34420D02*
X42350Y-34420D01*
X42350Y-34420D02*
X42300Y-34420D01*
X42500Y-32170D02*
X38500Y-32170D01*
X42500Y-33920D02*
X42500Y-34420D01*
X38500Y-32420D02*
X38500Y-31920D01*
X38500Y-31920D02*
X42500Y-31920D01*
X42500Y-31920D02*
X42500Y-32420D01*
X38500Y-34420D02*
X38500Y-33920D01*
X42750Y-34420D02*
X42950Y-34420D01*
X46750Y-34420D02*
X46550Y-34420D01*
X46750Y-32170D02*
X42750Y-32170D01*
X46750Y-33920D02*
X46750Y-34420D01*
X42750Y-32420D02*
X42750Y-31920D01*
X42750Y-31920D02*
X46750Y-31920D01*
X46750Y-31920D02*
X46750Y-32420D01*
X42750Y-34420D02*
X42750Y-33920D01*
X47000Y-34420D02*
X47200Y-34420D01*
X51000Y-34420D02*
X50800Y-34420D01*
X51000Y-32170D02*
X47000Y-32170D01*
X51000Y-33920D02*
X51000Y-34420D01*
X47000Y-32420D02*
X47000Y-31920D01*
X47000Y-31920D02*
X51000Y-31920D01*
X51000Y-31920D02*
X51000Y-32420D01*
X47000Y-34420D02*
X47000Y-33920D01*
X68000Y-34420D02*
X68200Y-34420D01*
X72000Y-34420D02*
X71800Y-34420D01*
X72000Y-32170D02*
X68000Y-32170D01*
X72000Y-33920D02*
X72000Y-34420D01*
X68000Y-32420D02*
X68000Y-31920D01*
X68000Y-31920D02*
X72000Y-31920D01*
X72000Y-31920D02*
X72000Y-32420D01*
X68000Y-34420D02*
X68000Y-33920D01*
X64500Y-34420D02*
X64300Y-34420D01*
X60500Y-34420D02*
X60700Y-34420D01*
X64500Y-32170D02*
X60500Y-32170D01*
X64500Y-33920D02*
X64500Y-34420D01*
X60500Y-32420D02*
X60500Y-31920D01*
X60500Y-31920D02*
X64500Y-31920D01*
X64500Y-31920D02*
X64500Y-32420D01*
X60500Y-34420D02*
X60500Y-33920D01*
X66600Y-36870D02*
X67000Y-36870D01*
X67000Y-36870D02*
X67000Y-38470D01*
X67000Y-38470D02*
X66600Y-38470D01*
G54D17*
X66600Y-40570D02*
X66600Y-34770D01*
X66600Y-34770D02*
X74400Y-34770D01*
X74400Y-34770D02*
X74400Y-40570D01*
X74400Y-40570D02*
X66600Y-40570D01*
G54D14*
X58600Y-36870D02*
X59000Y-36870D01*
X59000Y-36870D02*
X59000Y-38470D01*
X59000Y-38470D02*
X58600Y-38470D01*
G54D17*
X58600Y-40570D02*
X58600Y-34770D01*
X58600Y-34770D02*
X66400Y-34770D01*
X66400Y-34770D02*
X66400Y-40570D01*
X66400Y-40570D02*
X58600Y-40570D01*
G54D14*
X50600Y-36870D02*
X51000Y-36870D01*
X51000Y-36870D02*
X51000Y-38470D01*
X51000Y-38470D02*
X50600Y-38470D01*
G54D17*
X50600Y-40570D02*
X50600Y-34770D01*
X50600Y-34770D02*
X58400Y-34770D01*
X58400Y-34770D02*
X58400Y-40570D01*
X58400Y-40570D02*
X50600Y-40570D01*
G54D14*
X42600Y-36870D02*
X43000Y-36870D01*
X43000Y-36870D02*
X43000Y-38470D01*
X43000Y-38470D02*
X42600Y-38470D01*
G54D17*
X42600Y-40570D02*
X42600Y-34770D01*
X42600Y-34770D02*
X50400Y-34770D01*
X50400Y-34770D02*
X50400Y-40570D01*
X50400Y-40570D02*
X42600Y-40570D01*
G54D14*
X46500Y-46050D02*
X46500Y-46190D01*
X46380Y-46050D02*
X46500Y-46290D01*
X46460Y-46390D02*
X46600Y-46070D01*
X46720Y-46510D02*
X46280Y-46510D01*
X46720Y-46030D02*
X46280Y-46030D01*
X46280Y-46030D02*
X46500Y-46510D01*
X46500Y-46510D02*
X46720Y-46030D01*
X70030Y-46420D02*
X70170Y-46420D01*
X70030Y-46540D02*
X70270Y-46420D01*
X70370Y-46460D02*
X70050Y-46320D01*
X70490Y-46200D02*
X70490Y-46640D01*
X70010Y-46200D02*
X70010Y-46640D01*
X70010Y-46640D02*
X70490Y-46420D01*
X70490Y-46420D02*
X70010Y-46200D01*
G54D13*
X63100Y-50720D02*
X63100Y-50920D01*
X64800Y-50720D02*
X64800Y-50920D01*
X64800Y-50720D02*
X63100Y-50720D01*
X56000Y-47420D02*
X56000Y-50920D01*
X72000Y-47420D02*
X72000Y-50920D01*
X56000Y-50920D02*
X72000Y-50920D01*
X72000Y-47420D02*
X56000Y-47420D01*
G54D17*
X39124Y-43186D02*
X39124Y-41217D01*
X36604Y-43264D02*
X36604Y-41217D01*
X35974Y-43186D02*
X35974Y-41217D01*
X35974Y-41217D02*
X39990Y-41217D01*
X39990Y-41217D02*
X39990Y-43186D01*
X39124Y-43185D02*
X39124Y-47123D01*
X36604Y-47123D02*
X36604Y-43185D01*
X35974Y-47123D02*
X35974Y-43185D01*
X39990Y-43185D02*
X39990Y-47123D01*
X39990Y-47123D02*
X35974Y-47123D01*
X56000Y-47170D02*
X56000Y-46170D01*
X56000Y-46170D02*
X62000Y-46170D01*
X62000Y-46170D02*
X62000Y-47170D01*
X62000Y-47170D02*
X56000Y-47170D01*
X57000Y-47170D02*
X57000Y-46170D01*
G54D13*
X42900Y-44020D02*
X41700Y-44020D01*
X41700Y-44020D02*
X41700Y-46820D01*
X41700Y-46820D02*
X42900Y-46820D01*
X44100Y-44020D02*
X44400Y-44020D01*
X44400Y-44020D02*
X45300Y-44620D01*
X45300Y-44620D02*
X45300Y-46220D01*
X45300Y-46220D02*
X44400Y-46820D01*
X44400Y-46820D02*
X44100Y-46820D01*
X47100Y-44470D02*
X50900Y-44470D01*
X50900Y-44470D02*
X50900Y-45970D01*
X50900Y-45970D02*
X47100Y-45970D01*
X47100Y-45970D02*
X47100Y-44470D01*
X47100Y-44970D02*
X47400Y-44970D01*
X47400Y-44970D02*
X47400Y-45370D01*
X47400Y-45370D02*
X47100Y-45370D01*
G54D11*
X41350Y-46970D02*
X41350Y-47870D01*
X41350Y-47870D02*
X42000Y-47870D01*
X42700Y-46970D02*
X43350Y-46970D01*
X43350Y-46970D02*
X43350Y-47870D01*
X43350Y-47870D02*
X42700Y-47870D01*
X42000Y-46970D02*
X41350Y-46970D01*
X41400Y-42970D02*
X41400Y-43870D01*
X41400Y-43870D02*
X42050Y-43870D01*
X42750Y-42970D02*
X43400Y-42970D01*
X43400Y-42970D02*
X43400Y-43870D01*
X43400Y-43870D02*
X42750Y-43870D01*
X42050Y-42970D02*
X41400Y-42970D01*
X63680Y-40680D02*
X63680Y-41580D01*
X63680Y-41580D02*
X64330Y-41580D01*
X65030Y-40680D02*
X65680Y-40680D01*
X65680Y-40680D02*
X65680Y-41580D01*
X65680Y-41580D02*
X65030Y-41580D01*
X64330Y-40680D02*
X63680Y-40680D01*
X48500Y-48170D02*
X48499Y-48179D01*
X48496Y-48189D01*
X48491Y-48197D01*
X48485Y-48205D01*
X48477Y-48211D01*
X48469Y-48216D01*
X48460Y-48218D01*
X48450Y-48219D01*
X48441Y-48219D01*
X48432Y-48216D01*
X48423Y-48211D01*
X48416Y-48205D01*
X48409Y-48198D01*
X48405Y-48189D01*
X48402Y-48180D01*
X48401Y-48170D01*
X48401Y-48161D01*
X48404Y-48152D01*
X48408Y-48143D01*
X48415Y-48136D01*
X48422Y-48129D01*
X48430Y-48125D01*
X48440Y-48122D01*
X48449Y-48121D01*
X48458Y-48121D01*
X48468Y-48124D01*
X48476Y-48128D01*
X48484Y-48134D01*
X48490Y-48142D01*
X48495Y-48150D01*
X48498Y-48159D01*
X48499Y-48169D01*
X48500Y-48170D01*
X48900Y-48170D02*
X48500Y-48170D01*
X48500Y-48170D02*
X48500Y-47570D01*
X48500Y-47570D02*
X48900Y-47570D01*
X49300Y-47570D02*
X49700Y-47570D01*
X49700Y-47570D02*
X49700Y-48170D01*
X49700Y-48170D02*
X49300Y-48170D01*
X47400Y-42970D02*
X47399Y-42979D01*
X47396Y-42989D01*
X47391Y-42997D01*
X47385Y-43005D01*
X47377Y-43011D01*
X47369Y-43016D01*
X47360Y-43018D01*
X47350Y-43019D01*
X47341Y-43019D01*
X47332Y-43016D01*
X47323Y-43011D01*
X47316Y-43005D01*
X47309Y-42998D01*
X47305Y-42989D01*
X47302Y-42980D01*
X47301Y-42970D01*
X47301Y-42961D01*
X47304Y-42952D01*
X47308Y-42943D01*
X47315Y-42936D01*
X47322Y-42929D01*
X47330Y-42925D01*
X47340Y-42922D01*
X47349Y-42921D01*
X47358Y-42921D01*
X47368Y-42924D01*
X47376Y-42928D01*
X47384Y-42934D01*
X47390Y-42942D01*
X47395Y-42950D01*
X47398Y-42959D01*
X47399Y-42969D01*
X47400Y-42970D01*
X47800Y-42970D02*
X47400Y-42970D01*
X47400Y-42970D02*
X47400Y-42370D01*
X47400Y-42370D02*
X47800Y-42370D01*
X48200Y-42370D02*
X48600Y-42370D01*
X48600Y-42370D02*
X48600Y-42970D01*
X48600Y-42970D02*
X48200Y-42970D01*
X47400Y-43720D02*
X47399Y-43729D01*
X47396Y-43739D01*
X47391Y-43747D01*
X47385Y-43755D01*
X47377Y-43761D01*
X47369Y-43766D01*
X47360Y-43768D01*
X47350Y-43769D01*
X47341Y-43769D01*
X47332Y-43766D01*
X47323Y-43761D01*
X47316Y-43755D01*
X47309Y-43748D01*
X47305Y-43739D01*
X47302Y-43730D01*
X47301Y-43720D01*
X47301Y-43711D01*
X47304Y-43702D01*
X47308Y-43693D01*
X47315Y-43686D01*
X47322Y-43679D01*
X47330Y-43675D01*
X47340Y-43672D01*
X47349Y-43671D01*
X47358Y-43671D01*
X47368Y-43674D01*
X47376Y-43678D01*
X47384Y-43684D01*
X47390Y-43692D01*
X47395Y-43700D01*
X47398Y-43709D01*
X47399Y-43719D01*
X47400Y-43720D01*
X47800Y-43720D02*
X47400Y-43720D01*
X47400Y-43720D02*
X47400Y-43120D01*
X47400Y-43120D02*
X47800Y-43120D01*
X48200Y-43120D02*
X48600Y-43120D01*
X48600Y-43120D02*
X48600Y-43720D01*
X48600Y-43720D02*
X48200Y-43720D01*
X45450Y-46320D02*
X45449Y-46329D01*
X45446Y-46339D01*
X45441Y-46347D01*
X45435Y-46355D01*
X45427Y-46361D01*
X45419Y-46366D01*
X45410Y-46368D01*
X45400Y-46369D01*
X45391Y-46369D01*
X45382Y-46366D01*
X45373Y-46361D01*
X45366Y-46355D01*
X45359Y-46348D01*
X45355Y-46339D01*
X45352Y-46330D01*
X45351Y-46320D01*
X45351Y-46311D01*
X45354Y-46302D01*
X45358Y-46293D01*
X45365Y-46286D01*
X45372Y-46279D01*
X45380Y-46275D01*
X45390Y-46272D01*
X45399Y-46271D01*
X45408Y-46271D01*
X45418Y-46274D01*
X45426Y-46278D01*
X45434Y-46284D01*
X45440Y-46292D01*
X45445Y-46300D01*
X45448Y-46309D01*
X45449Y-46319D01*
X45450Y-46320D01*
X45400Y-46770D02*
X45400Y-46370D01*
X45400Y-46370D02*
X46000Y-46370D01*
X46000Y-46370D02*
X46000Y-46770D01*
X46000Y-47170D02*
X46000Y-47570D01*
X46000Y-47570D02*
X45400Y-47570D01*
X45400Y-47570D02*
X45400Y-47170D01*
X71000Y-44270D02*
X70999Y-44279D01*
X70996Y-44289D01*
X70991Y-44297D01*
X70985Y-44305D01*
X70977Y-44311D01*
X70969Y-44316D01*
X70960Y-44318D01*
X70950Y-44319D01*
X70941Y-44319D01*
X70932Y-44316D01*
X70923Y-44311D01*
X70916Y-44305D01*
X70909Y-44298D01*
X70905Y-44289D01*
X70902Y-44280D01*
X70901Y-44270D01*
X70901Y-44261D01*
X70904Y-44252D01*
X70908Y-44243D01*
X70915Y-44236D01*
X70922Y-44229D01*
X70930Y-44225D01*
X70940Y-44222D01*
X70949Y-44221D01*
X70958Y-44221D01*
X70968Y-44224D01*
X70976Y-44228D01*
X70984Y-44234D01*
X70990Y-44242D01*
X70995Y-44250D01*
X70998Y-44259D01*
X70999Y-44269D01*
X71000Y-44270D01*
X70950Y-44720D02*
X70950Y-44320D01*
X70950Y-44320D02*
X71550Y-44320D01*
X71550Y-44320D02*
X71550Y-44720D01*
X71550Y-45120D02*
X71550Y-45520D01*
X71550Y-45520D02*
X70950Y-45520D01*
X70950Y-45520D02*
X70950Y-45120D01*
G54D15*
X55500Y-42670D02*
X70500Y-42670D01*
X70500Y-42670D02*
X70500Y-44670D01*
X70500Y-44670D02*
X55500Y-44670D01*
X55500Y-44670D02*
X55500Y-42670D01*
X55500Y-43170D02*
X56000Y-43170D01*
X56000Y-43170D02*
X56000Y-44170D01*
X56000Y-44170D02*
X55500Y-44170D01*
G54D14*
X47000Y-43670D02*
X47000Y-41170D01*
X44000Y-43670D02*
X44000Y-41170D01*
X44000Y-42920D02*
X47000Y-42920D01*
X47000Y-43670D02*
X44000Y-43670D01*
X44000Y-41170D02*
X47000Y-41170D01*
X49500Y-48420D02*
X49500Y-50920D01*
X52500Y-48420D02*
X52500Y-50920D01*
X52500Y-49170D02*
X49500Y-49170D01*
X49500Y-48420D02*
X52500Y-48420D01*
X52500Y-50920D02*
X49500Y-50920D01*
X39000Y-48420D02*
X39000Y-50920D01*
X42000Y-48420D02*
X42000Y-50920D01*
X42000Y-49170D02*
X39000Y-49170D01*
X39000Y-48420D02*
X42000Y-48420D01*
X42000Y-50920D02*
X39000Y-50920D01*
X42500Y-48420D02*
X42500Y-50920D01*
X45500Y-48420D02*
X45500Y-50920D01*
X45500Y-49170D02*
X42500Y-49170D01*
X42500Y-48420D02*
X45500Y-48420D01*
X45500Y-50920D02*
X42500Y-50920D01*
X46000Y-48420D02*
X46000Y-50920D01*
X49000Y-48420D02*
X49000Y-50920D01*
X49000Y-49170D02*
X46000Y-49170D01*
X46000Y-48420D02*
X49000Y-48420D01*
X49000Y-50920D02*
X46000Y-50920D01*
X53750Y-43920D02*
X53750Y-41920D01*
X52000Y-43920D02*
X52000Y-41920D01*
X54500Y-41920D02*
X54500Y-43920D01*
X54500Y-41920D02*
X52000Y-41920D01*
X54500Y-43920D02*
X52000Y-43920D01*
X53750Y-46170D02*
X53750Y-44170D01*
X52000Y-46170D02*
X52000Y-44170D01*
X54500Y-44170D02*
X54500Y-46170D01*
X54500Y-44170D02*
X52000Y-44170D01*
X54500Y-46170D02*
X52000Y-46170D01*
G54D10*
X54500Y-50670D02*
X53500Y-50670D01*
X53500Y-50670D02*
X53500Y-48670D01*
X53500Y-48670D02*
X54500Y-48670D01*
X54500Y-48670D02*
X54500Y-50670D01*
G54D11*
X46300Y-38070D02*
X46300Y-37270D01*
X46250Y-37120D02*
X46250Y-38220D01*
X46200Y-38320D02*
X46200Y-37020D01*
X46150Y-36920D02*
X46150Y-38420D01*
X46100Y-36870D02*
X46100Y-38470D01*
X46050Y-38570D02*
X46050Y-36770D01*
X46350Y-37670D02*
X46320Y-37971D01*
X46233Y-38260D01*
X46091Y-38527D01*
X45899Y-38762D01*
X45666Y-38955D01*
X45400Y-39098D01*
X45111Y-39188D01*
X44810Y-39219D01*
X44510Y-39192D01*
X44220Y-39107D01*
X43952Y-38966D01*
X43716Y-38777D01*
X43522Y-38545D01*
X43376Y-38280D01*
X43284Y-37992D01*
X43251Y-37691D01*
X43276Y-37391D01*
X43359Y-37100D01*
X43498Y-36831D01*
X43686Y-36594D01*
X43916Y-36398D01*
X44180Y-36250D01*
X44468Y-36157D01*
X44768Y-36121D01*
X45069Y-36144D01*
X45360Y-36225D01*
X45630Y-36362D01*
X45868Y-36548D01*
X46066Y-36777D01*
X46215Y-37040D01*
X46311Y-37327D01*
X46349Y-37627D01*
X46350Y-37670D01*
X46450Y-39320D02*
X46450Y-36020D01*
X46450Y-36020D02*
X43450Y-36020D01*
X43450Y-36020D02*
X43150Y-36320D01*
X43150Y-36320D02*
X43150Y-39020D01*
X43150Y-39020D02*
X43450Y-39320D01*
X43450Y-39320D02*
X46450Y-39320D01*
X43350Y-37670D02*
X43650Y-37670D01*
X43500Y-37820D02*
X43500Y-37520D01*
X54300Y-38070D02*
X54300Y-37270D01*
X54250Y-37120D02*
X54250Y-38220D01*
X54200Y-38320D02*
X54200Y-37020D01*
X54150Y-36920D02*
X54150Y-38420D01*
X54100Y-36870D02*
X54100Y-38470D01*
X54050Y-38570D02*
X54050Y-36770D01*
X54350Y-37670D02*
X54320Y-37971D01*
X54233Y-38260D01*
X54091Y-38527D01*
X53899Y-38762D01*
X53666Y-38955D01*
X53400Y-39098D01*
X53111Y-39188D01*
X52810Y-39219D01*
X52510Y-39192D01*
X52220Y-39107D01*
X51952Y-38966D01*
X51716Y-38777D01*
X51522Y-38545D01*
X51376Y-38280D01*
X51284Y-37992D01*
X51251Y-37691D01*
X51276Y-37391D01*
X51359Y-37100D01*
X51498Y-36831D01*
X51686Y-36594D01*
X51916Y-36398D01*
X52180Y-36250D01*
X52468Y-36157D01*
X52768Y-36121D01*
X53069Y-36144D01*
X53360Y-36225D01*
X53630Y-36362D01*
X53868Y-36548D01*
X54066Y-36777D01*
X54215Y-37040D01*
X54311Y-37327D01*
X54349Y-37627D01*
X54350Y-37670D01*
X54450Y-39320D02*
X54450Y-36020D01*
X54450Y-36020D02*
X51450Y-36020D01*
X51450Y-36020D02*
X51150Y-36320D01*
X51150Y-36320D02*
X51150Y-39020D01*
X51150Y-39020D02*
X51450Y-39320D01*
X51450Y-39320D02*
X54450Y-39320D01*
X51350Y-37670D02*
X51650Y-37670D01*
X51500Y-37820D02*
X51500Y-37520D01*
X62300Y-38070D02*
X62300Y-37270D01*
X62250Y-37120D02*
X62250Y-38220D01*
X62200Y-38320D02*
X62200Y-37020D01*
X62150Y-36920D02*
X62150Y-38420D01*
X62100Y-36870D02*
X62100Y-38470D01*
X62050Y-38570D02*
X62050Y-36770D01*
X62350Y-37670D02*
X62320Y-37971D01*
X62233Y-38260D01*
X62091Y-38527D01*
X61899Y-38762D01*
X61666Y-38955D01*
X61400Y-39098D01*
X61111Y-39188D01*
X60810Y-39219D01*
X60510Y-39192D01*
X60220Y-39107D01*
X59952Y-38966D01*
X59716Y-38777D01*
X59522Y-38545D01*
X59376Y-38280D01*
X59284Y-37992D01*
X59251Y-37691D01*
X59276Y-37391D01*
X59359Y-37100D01*
X59498Y-36831D01*
X59686Y-36594D01*
X59916Y-36398D01*
X60180Y-36250D01*
X60468Y-36157D01*
X60768Y-36121D01*
X61069Y-36144D01*
X61360Y-36225D01*
X61630Y-36362D01*
X61868Y-36548D01*
X62066Y-36777D01*
X62215Y-37040D01*
X62311Y-37327D01*
X62349Y-37627D01*
X62350Y-37670D01*
X62450Y-39320D02*
X62450Y-36020D01*
X62450Y-36020D02*
X59450Y-36020D01*
X59450Y-36020D02*
X59150Y-36320D01*
X59150Y-36320D02*
X59150Y-39020D01*
X59150Y-39020D02*
X59450Y-39320D01*
X59450Y-39320D02*
X62450Y-39320D01*
X59350Y-37670D02*
X59650Y-37670D01*
X59500Y-37820D02*
X59500Y-37520D01*
X70300Y-38070D02*
X70300Y-37270D01*
X70250Y-37120D02*
X70250Y-38220D01*
X70200Y-38320D02*
X70200Y-37020D01*
X70150Y-36920D02*
X70150Y-38420D01*
X70100Y-36870D02*
X70100Y-38470D01*
X70050Y-38570D02*
X70050Y-36770D01*
X70350Y-37670D02*
X70320Y-37971D01*
X70233Y-38260D01*
X70091Y-38527D01*
X69899Y-38762D01*
X69666Y-38955D01*
X69400Y-39098D01*
X69111Y-39188D01*
X68810Y-39219D01*
X68510Y-39192D01*
X68220Y-39107D01*
X67952Y-38966D01*
X67716Y-38777D01*
X67522Y-38545D01*
X67376Y-38280D01*
X67284Y-37992D01*
X67251Y-37691D01*
X67276Y-37391D01*
X67359Y-37100D01*
X67498Y-36831D01*
X67686Y-36594D01*
X67916Y-36398D01*
X68180Y-36250D01*
X68468Y-36157D01*
X68768Y-36121D01*
X69069Y-36144D01*
X69360Y-36225D01*
X69630Y-36362D01*
X69868Y-36548D01*
X70066Y-36777D01*
X70215Y-37040D01*
X70311Y-37327D01*
X70349Y-37627D01*
X70350Y-37670D01*
X70450Y-39320D02*
X70450Y-36020D01*
X70450Y-36020D02*
X67450Y-36020D01*
X67450Y-36020D02*
X67150Y-36320D01*
X67150Y-36320D02*
X67150Y-39020D01*
X67150Y-39020D02*
X67450Y-39320D01*
X67450Y-39320D02*
X70450Y-39320D01*
X67350Y-37670D02*
X67650Y-37670D01*
X67500Y-37820D02*
X67500Y-37520D01*
G54D17*
X72000Y-46170D02*
X72000Y-42170D01*
X72000Y-42170D02*
X74000Y-42170D01*
X74000Y-42170D02*
X74000Y-46170D01*
X74000Y-46170D02*
X72000Y-46170D01*
G54D11*
X55350Y-41220D02*
X55349Y-41229D01*
X55346Y-41239D01*
X55341Y-41247D01*
X55335Y-41255D01*
X55327Y-41261D01*
X55319Y-41266D01*
X55310Y-41268D01*
X55300Y-41269D01*
X55291Y-41269D01*
X55282Y-41266D01*
X55273Y-41261D01*
X55266Y-41255D01*
X55259Y-41248D01*
X55255Y-41239D01*
X55252Y-41230D01*
X55251Y-41220D01*
X55251Y-41211D01*
X55254Y-41202D01*
X55258Y-41193D01*
X55265Y-41186D01*
X55272Y-41179D01*
X55280Y-41175D01*
X55290Y-41172D01*
X55299Y-41171D01*
X55308Y-41171D01*
X55318Y-41174D01*
X55326Y-41178D01*
X55334Y-41184D01*
X55340Y-41192D01*
X55345Y-41200D01*
X55348Y-41209D01*
X55349Y-41219D01*
X55350Y-41220D01*
X55300Y-41670D02*
X55300Y-41270D01*
X55300Y-41270D02*
X55900Y-41270D01*
X55900Y-41270D02*
X55900Y-41670D01*
X55900Y-42070D02*
X55900Y-42470D01*
X55900Y-42470D02*
X55300Y-42470D01*
X55300Y-42470D02*
X55300Y-42070D01*
X46250Y-43770D02*
X46249Y-43779D01*
X46246Y-43789D01*
X46241Y-43797D01*
X46235Y-43805D01*
X46227Y-43811D01*
X46219Y-43816D01*
X46210Y-43818D01*
X46200Y-43819D01*
X46191Y-43819D01*
X46182Y-43816D01*
X46173Y-43811D01*
X46166Y-43805D01*
X46159Y-43798D01*
X46155Y-43789D01*
X46152Y-43780D01*
X46151Y-43770D01*
X46151Y-43761D01*
X46154Y-43752D01*
X46158Y-43743D01*
X46165Y-43736D01*
X46172Y-43729D01*
X46180Y-43725D01*
X46190Y-43722D01*
X46199Y-43721D01*
X46208Y-43721D01*
X46218Y-43724D01*
X46226Y-43728D01*
X46234Y-43734D01*
X46240Y-43742D01*
X46245Y-43750D01*
X46248Y-43759D01*
X46249Y-43769D01*
X46250Y-43770D01*
X46200Y-44220D02*
X46200Y-43820D01*
X46200Y-43820D02*
X46800Y-43820D01*
X46800Y-43820D02*
X46800Y-44220D01*
X46800Y-44620D02*
X46800Y-45020D01*
X46800Y-45020D02*
X46200Y-45020D01*
X46200Y-45020D02*
X46200Y-44620D01*
X41800Y-41034D02*
X41700Y-41034D01*
X41700Y-41191D02*
X41700Y-40891D01*
X41843Y-40891D01*
X41943Y-40920D02*
X41957Y-40906D01*
X41986Y-40891D01*
X42057Y-40891D01*
X42086Y-40906D01*
X42100Y-40920D01*
X42115Y-40949D01*
X42115Y-40977D01*
X42100Y-41020D01*
X41929Y-41191D01*
X42115Y-41191D01*
X40700Y-41034D02*
X40600Y-41034D01*
X40600Y-41191D02*
X40600Y-40891D01*
X40743Y-40891D01*
X41015Y-41191D02*
X40843Y-41191D01*
X40929Y-41191D02*
X40929Y-40891D01*
X40900Y-40934D01*
X40872Y-40963D01*
X40843Y-40977D01*
X73921Y-37056D02*
X73621Y-37056D01*
X73836Y-36956D01*
X73621Y-36856D01*
X73921Y-36856D01*
X73907Y-36727D02*
X73921Y-36684D01*
X73921Y-36613D01*
X73907Y-36584D01*
X73893Y-36570D01*
X73864Y-36555D01*
X73836Y-36555D01*
X73807Y-36570D01*
X73793Y-36584D01*
X73779Y-36613D01*
X73764Y-36670D01*
X73750Y-36698D01*
X73736Y-36713D01*
X73707Y-36727D01*
X73679Y-36727D01*
X73650Y-36713D01*
X73636Y-36698D01*
X73621Y-36670D01*
X73621Y-36598D01*
X73636Y-36555D01*
X73621Y-36455D02*
X73621Y-36269D01*
X73736Y-36369D01*
X73736Y-36327D01*
X73750Y-36298D01*
X73764Y-36284D01*
X73793Y-36269D01*
X73864Y-36269D01*
X73893Y-36284D01*
X73907Y-36298D01*
X73921Y-36327D01*
X73921Y-36412D01*
X73907Y-36441D01*
X73893Y-36455D01*
X72921Y-37056D02*
X72621Y-37056D01*
X72836Y-36956D01*
X72621Y-36856D01*
X72921Y-36856D01*
X72907Y-36727D02*
X72921Y-36684D01*
X72921Y-36613D01*
X72907Y-36584D01*
X72893Y-36570D01*
X72864Y-36555D01*
X72836Y-36555D01*
X72807Y-36570D01*
X72793Y-36584D01*
X72779Y-36613D01*
X72764Y-36670D01*
X72750Y-36698D01*
X72736Y-36713D01*
X72707Y-36727D01*
X72679Y-36727D01*
X72650Y-36713D01*
X72636Y-36698D01*
X72621Y-36670D01*
X72621Y-36598D01*
X72636Y-36555D01*
X72650Y-36441D02*
X72636Y-36427D01*
X72621Y-36398D01*
X72621Y-36327D01*
X72636Y-36298D01*
X72650Y-36284D01*
X72679Y-36269D01*
X72707Y-36269D01*
X72750Y-36284D01*
X72921Y-36455D01*
X72921Y-36269D01*
X71921Y-37056D02*
X71621Y-37056D01*
X71836Y-36956D01*
X71621Y-36856D01*
X71921Y-36856D01*
X71907Y-36727D02*
X71921Y-36684D01*
X71921Y-36613D01*
X71907Y-36584D01*
X71893Y-36570D01*
X71864Y-36555D01*
X71836Y-36555D01*
X71807Y-36570D01*
X71793Y-36584D01*
X71779Y-36613D01*
X71764Y-36670D01*
X71750Y-36698D01*
X71736Y-36713D01*
X71707Y-36727D01*
X71679Y-36727D01*
X71650Y-36713D01*
X71636Y-36698D01*
X71621Y-36670D01*
X71621Y-36598D01*
X71636Y-36555D01*
X71921Y-36269D02*
X71921Y-36441D01*
X71921Y-36355D02*
X71621Y-36355D01*
X71664Y-36384D01*
X71693Y-36412D01*
X71707Y-36441D01*
X66121Y-37056D02*
X65821Y-37056D01*
X66036Y-36956D01*
X65821Y-36856D01*
X66121Y-36856D01*
X66107Y-36727D02*
X66121Y-36684D01*
X66121Y-36613D01*
X66107Y-36584D01*
X66093Y-36570D01*
X66064Y-36555D01*
X66036Y-36555D01*
X66007Y-36570D01*
X65993Y-36584D01*
X65979Y-36613D01*
X65964Y-36670D01*
X65950Y-36698D01*
X65936Y-36713D01*
X65907Y-36727D01*
X65879Y-36727D01*
X65850Y-36713D01*
X65836Y-36698D01*
X65821Y-36670D01*
X65821Y-36598D01*
X65836Y-36555D01*
X65821Y-36455D02*
X65821Y-36269D01*
X65936Y-36369D01*
X65936Y-36327D01*
X65950Y-36298D01*
X65964Y-36284D01*
X65993Y-36269D01*
X66064Y-36269D01*
X66093Y-36284D01*
X66107Y-36298D01*
X66121Y-36327D01*
X66121Y-36412D01*
X66107Y-36441D01*
X66093Y-36455D01*
X65121Y-37056D02*
X64821Y-37056D01*
X65036Y-36956D01*
X64821Y-36856D01*
X65121Y-36856D01*
X65107Y-36727D02*
X65121Y-36684D01*
X65121Y-36613D01*
X65107Y-36584D01*
X65093Y-36570D01*
X65064Y-36555D01*
X65036Y-36555D01*
X65007Y-36570D01*
X64993Y-36584D01*
X64979Y-36613D01*
X64964Y-36670D01*
X64950Y-36698D01*
X64936Y-36713D01*
X64907Y-36727D01*
X64879Y-36727D01*
X64850Y-36713D01*
X64836Y-36698D01*
X64821Y-36670D01*
X64821Y-36598D01*
X64836Y-36555D01*
X64850Y-36441D02*
X64836Y-36427D01*
X64821Y-36398D01*
X64821Y-36327D01*
X64836Y-36298D01*
X64850Y-36284D01*
X64879Y-36269D01*
X64907Y-36269D01*
X64950Y-36284D01*
X65121Y-36455D01*
X65121Y-36269D01*
X64121Y-37056D02*
X63821Y-37056D01*
X64036Y-36956D01*
X63821Y-36856D01*
X64121Y-36856D01*
X64107Y-36727D02*
X64121Y-36684D01*
X64121Y-36613D01*
X64107Y-36584D01*
X64093Y-36570D01*
X64064Y-36555D01*
X64036Y-36555D01*
X64007Y-36570D01*
X63993Y-36584D01*
X63979Y-36613D01*
X63964Y-36670D01*
X63950Y-36698D01*
X63936Y-36713D01*
X63907Y-36727D01*
X63879Y-36727D01*
X63850Y-36713D01*
X63836Y-36698D01*
X63821Y-36670D01*
X63821Y-36598D01*
X63836Y-36555D01*
X64121Y-36269D02*
X64121Y-36441D01*
X64121Y-36355D02*
X63821Y-36355D01*
X63864Y-36384D01*
X63893Y-36412D01*
X63907Y-36441D01*
X58121Y-37056D02*
X57821Y-37056D01*
X58036Y-36956D01*
X57821Y-36856D01*
X58121Y-36856D01*
X58107Y-36727D02*
X58121Y-36684D01*
X58121Y-36613D01*
X58107Y-36584D01*
X58093Y-36570D01*
X58064Y-36555D01*
X58036Y-36555D01*
X58007Y-36570D01*
X57993Y-36584D01*
X57979Y-36613D01*
X57964Y-36670D01*
X57950Y-36698D01*
X57936Y-36713D01*
X57907Y-36727D01*
X57879Y-36727D01*
X57850Y-36713D01*
X57836Y-36698D01*
X57821Y-36670D01*
X57821Y-36598D01*
X57836Y-36555D01*
X57821Y-36455D02*
X57821Y-36269D01*
X57936Y-36369D01*
X57936Y-36327D01*
X57950Y-36298D01*
X57964Y-36284D01*
X57993Y-36269D01*
X58064Y-36269D01*
X58093Y-36284D01*
X58107Y-36298D01*
X58121Y-36327D01*
X58121Y-36412D01*
X58107Y-36441D01*
X58093Y-36455D01*
X57121Y-37056D02*
X56821Y-37056D01*
X57036Y-36956D01*
X56821Y-36856D01*
X57121Y-36856D01*
X57107Y-36727D02*
X57121Y-36684D01*
X57121Y-36613D01*
X57107Y-36584D01*
X57093Y-36570D01*
X57064Y-36555D01*
X57036Y-36555D01*
X57007Y-36570D01*
X56993Y-36584D01*
X56979Y-36613D01*
X56964Y-36670D01*
X56950Y-36698D01*
X56936Y-36713D01*
X56907Y-36727D01*
X56879Y-36727D01*
X56850Y-36713D01*
X56836Y-36698D01*
X56821Y-36670D01*
X56821Y-36598D01*
X56836Y-36555D01*
X56850Y-36441D02*
X56836Y-36427D01*
X56821Y-36398D01*
X56821Y-36327D01*
X56836Y-36298D01*
X56850Y-36284D01*
X56879Y-36269D01*
X56907Y-36269D01*
X56950Y-36284D01*
X57121Y-36455D01*
X57121Y-36269D01*
X56121Y-37056D02*
X55821Y-37056D01*
X56036Y-36956D01*
X55821Y-36856D01*
X56121Y-36856D01*
X56107Y-36727D02*
X56121Y-36684D01*
X56121Y-36613D01*
X56107Y-36584D01*
X56093Y-36570D01*
X56064Y-36555D01*
X56036Y-36555D01*
X56007Y-36570D01*
X55993Y-36584D01*
X55979Y-36613D01*
X55964Y-36670D01*
X55950Y-36698D01*
X55936Y-36713D01*
X55907Y-36727D01*
X55879Y-36727D01*
X55850Y-36713D01*
X55836Y-36698D01*
X55821Y-36670D01*
X55821Y-36598D01*
X55836Y-36555D01*
X56121Y-36269D02*
X56121Y-36441D01*
X56121Y-36355D02*
X55821Y-36355D01*
X55864Y-36384D01*
X55893Y-36412D01*
X55907Y-36441D01*
X50121Y-37056D02*
X49821Y-37056D01*
X50036Y-36956D01*
X49821Y-36856D01*
X50121Y-36856D01*
X50107Y-36727D02*
X50121Y-36684D01*
X50121Y-36613D01*
X50107Y-36584D01*
X50093Y-36570D01*
X50064Y-36555D01*
X50036Y-36555D01*
X50007Y-36570D01*
X49993Y-36584D01*
X49979Y-36613D01*
X49964Y-36670D01*
X49950Y-36698D01*
X49936Y-36713D01*
X49907Y-36727D01*
X49879Y-36727D01*
X49850Y-36713D01*
X49836Y-36698D01*
X49821Y-36670D01*
X49821Y-36598D01*
X49836Y-36555D01*
X49821Y-36455D02*
X49821Y-36269D01*
X49936Y-36369D01*
X49936Y-36327D01*
X49950Y-36298D01*
X49964Y-36284D01*
X49993Y-36269D01*
X50064Y-36269D01*
X50093Y-36284D01*
X50107Y-36298D01*
X50121Y-36327D01*
X50121Y-36412D01*
X50107Y-36441D01*
X50093Y-36455D01*
X49121Y-37056D02*
X48821Y-37056D01*
X49036Y-36956D01*
X48821Y-36856D01*
X49121Y-36856D01*
X49107Y-36727D02*
X49121Y-36684D01*
X49121Y-36613D01*
X49107Y-36584D01*
X49093Y-36570D01*
X49064Y-36555D01*
X49036Y-36555D01*
X49007Y-36570D01*
X48993Y-36584D01*
X48979Y-36613D01*
X48964Y-36670D01*
X48950Y-36698D01*
X48936Y-36713D01*
X48907Y-36727D01*
X48879Y-36727D01*
X48850Y-36713D01*
X48836Y-36698D01*
X48821Y-36670D01*
X48821Y-36598D01*
X48836Y-36555D01*
X48850Y-36441D02*
X48836Y-36427D01*
X48821Y-36398D01*
X48821Y-36327D01*
X48836Y-36298D01*
X48850Y-36284D01*
X48879Y-36269D01*
X48907Y-36269D01*
X48950Y-36284D01*
X49121Y-36455D01*
X49121Y-36269D01*
X48121Y-37056D02*
X47821Y-37056D01*
X48036Y-36956D01*
X47821Y-36856D01*
X48121Y-36856D01*
X48107Y-36727D02*
X48121Y-36684D01*
X48121Y-36613D01*
X48107Y-36584D01*
X48093Y-36570D01*
X48064Y-36555D01*
X48036Y-36555D01*
X48007Y-36570D01*
X47993Y-36584D01*
X47979Y-36613D01*
X47964Y-36670D01*
X47950Y-36698D01*
X47936Y-36713D01*
X47907Y-36727D01*
X47879Y-36727D01*
X47850Y-36713D01*
X47836Y-36698D01*
X47821Y-36670D01*
X47821Y-36598D01*
X47836Y-36555D01*
X48121Y-36269D02*
X48121Y-36441D01*
X48121Y-36355D02*
X47821Y-36355D01*
X47864Y-36384D01*
X47893Y-36412D01*
X47907Y-36441D01*
X37971Y-39370D02*
X37943Y-39356D01*
X37914Y-39327D01*
X37871Y-39284D01*
X37843Y-39270D01*
X37814Y-39270D01*
X37829Y-39341D02*
X37800Y-39327D01*
X37771Y-39299D01*
X37757Y-39241D01*
X37757Y-39141D01*
X37771Y-39084D01*
X37800Y-39056D01*
X37829Y-39041D01*
X37886Y-39041D01*
X37914Y-39056D01*
X37943Y-39084D01*
X37957Y-39141D01*
X37957Y-39241D01*
X37943Y-39299D01*
X37914Y-39327D01*
X37886Y-39341D01*
X37829Y-39341D01*
X38243Y-39341D02*
X38071Y-39341D01*
X38157Y-39341D02*
X38157Y-39041D01*
X38128Y-39084D01*
X38100Y-39113D01*
X38071Y-39127D01*
X37971Y-35020D02*
X37943Y-35006D01*
X37914Y-34977D01*
X37871Y-34934D01*
X37843Y-34920D01*
X37814Y-34920D01*
X37829Y-34991D02*
X37800Y-34977D01*
X37771Y-34949D01*
X37757Y-34891D01*
X37757Y-34791D01*
X37771Y-34734D01*
X37800Y-34706D01*
X37829Y-34691D01*
X37886Y-34691D01*
X37914Y-34706D01*
X37943Y-34734D01*
X37957Y-34791D01*
X37957Y-34891D01*
X37943Y-34949D01*
X37914Y-34977D01*
X37886Y-34991D01*
X37829Y-34991D01*
X38071Y-34720D02*
X38085Y-34706D01*
X38114Y-34691D01*
X38185Y-34691D01*
X38214Y-34706D01*
X38228Y-34720D01*
X38243Y-34749D01*
X38243Y-34777D01*
X38228Y-34820D01*
X38057Y-34991D01*
X38243Y-34991D01*
G54D18*
X72583Y-48647D02*
X72573Y-48659D01*
X72545Y-48671D01*
X72526Y-48671D01*
X72497Y-48659D01*
X72478Y-48635D01*
X72469Y-48612D01*
X72459Y-48564D01*
X72459Y-48528D01*
X72469Y-48481D01*
X72478Y-48457D01*
X72497Y-48433D01*
X72526Y-48421D01*
X72545Y-48421D01*
X72573Y-48433D01*
X72583Y-48445D01*
X72783Y-48647D02*
X72773Y-48659D01*
X72745Y-48671D01*
X72726Y-48671D01*
X72697Y-48659D01*
X72678Y-48635D01*
X72669Y-48612D01*
X72659Y-48564D01*
X72659Y-48528D01*
X72669Y-48481D01*
X72678Y-48457D01*
X72697Y-48433D01*
X72726Y-48421D01*
X72745Y-48421D01*
X72773Y-48433D01*
X72783Y-48445D01*
X73087Y-48540D02*
X73116Y-48552D01*
X73125Y-48564D01*
X73135Y-48588D01*
X73135Y-48624D01*
X73125Y-48647D01*
X73116Y-48659D01*
X73097Y-48671D01*
X73021Y-48671D01*
X73021Y-48421D01*
X73087Y-48421D01*
X73106Y-48433D01*
X73116Y-48445D01*
X73125Y-48469D01*
X73125Y-48493D01*
X73116Y-48516D01*
X73106Y-48528D01*
X73087Y-48540D01*
X73021Y-48540D01*
X73259Y-48552D02*
X73259Y-48671D01*
X73192Y-48421D02*
X73259Y-48552D01*
X73325Y-48421D01*
X73392Y-48576D02*
X73544Y-48576D01*
X73630Y-48659D02*
X73659Y-48671D01*
X73706Y-48671D01*
X73725Y-48659D01*
X73735Y-48647D01*
X73744Y-48624D01*
X73744Y-48600D01*
X73735Y-48576D01*
X73725Y-48564D01*
X73706Y-48552D01*
X73668Y-48540D01*
X73649Y-48528D01*
X73640Y-48516D01*
X73630Y-48493D01*
X73630Y-48469D01*
X73640Y-48445D01*
X73649Y-48433D01*
X73668Y-48421D01*
X73716Y-48421D01*
X73744Y-48433D01*
X73820Y-48600D02*
X73915Y-48600D01*
X73801Y-48671D02*
X73868Y-48421D01*
X73934Y-48671D01*
X74134Y-48421D02*
X74257Y-48421D01*
X74191Y-48516D01*
X74219Y-48516D01*
X74238Y-48528D01*
X74248Y-48540D01*
X74257Y-48564D01*
X74257Y-48624D01*
X74248Y-48647D01*
X74238Y-48659D01*
X74219Y-48671D01*
X74162Y-48671D01*
X74143Y-48659D01*
X74134Y-48647D01*
X74343Y-48647D02*
X74352Y-48659D01*
X74343Y-48671D01*
X74333Y-48659D01*
X74343Y-48647D01*
X74343Y-48671D01*
X74476Y-48421D02*
X74495Y-48421D01*
X74514Y-48433D01*
X74523Y-48445D01*
X74533Y-48469D01*
X74542Y-48516D01*
X74542Y-48576D01*
X74533Y-48624D01*
X74523Y-48647D01*
X74514Y-48659D01*
X74495Y-48671D01*
X74476Y-48671D01*
X74457Y-48659D01*
X74447Y-48647D01*
X74438Y-48624D01*
X74428Y-48576D01*
X74428Y-48516D01*
X74438Y-48469D01*
X74447Y-48445D01*
X74457Y-48433D01*
X74476Y-48421D01*
G54D13*
X53357Y-34472D02*
X53357Y-33972D01*
X53524Y-34330D01*
X53690Y-33972D01*
X53690Y-34472D01*
X54023Y-33972D02*
X54119Y-33972D01*
X54166Y-33996D01*
X54214Y-34044D01*
X54238Y-34139D01*
X54238Y-34306D01*
X54214Y-34401D01*
X54166Y-34449D01*
X54119Y-34472D01*
X54023Y-34472D01*
X53976Y-34449D01*
X53928Y-34401D01*
X53904Y-34306D01*
X53904Y-34139D01*
X53928Y-34044D01*
X53976Y-33996D01*
X54023Y-33972D01*
X54381Y-33972D02*
X54666Y-33972D01*
X54523Y-34472D02*
X54523Y-33972D01*
X54833Y-34282D02*
X55214Y-34282D01*
X55547Y-34234D02*
X55547Y-34472D01*
X55381Y-33972D02*
X55547Y-34234D01*
X55714Y-33972D01*
X40060Y-34210D02*
X40131Y-34234D01*
X40155Y-34258D01*
X40179Y-34306D01*
X40179Y-34377D01*
X40155Y-34425D01*
X40131Y-34449D01*
X40084Y-34472D01*
X39893Y-34472D01*
X39893Y-33972D01*
X40060Y-33972D01*
X40107Y-33996D01*
X40131Y-34020D01*
X40155Y-34068D01*
X40155Y-34115D01*
X40131Y-34163D01*
X40107Y-34187D01*
X40060Y-34210D01*
X39893Y-34210D01*
X40393Y-34210D02*
X40560Y-34210D01*
X40631Y-34472D02*
X40393Y-34472D01*
X40393Y-33972D01*
X40631Y-33972D01*
X40845Y-34472D02*
X40845Y-33972D01*
X40964Y-33972D01*
X41036Y-33996D01*
X41083Y-34044D01*
X41107Y-34091D01*
X41131Y-34187D01*
X41131Y-34258D01*
X41107Y-34353D01*
X41083Y-34401D01*
X41036Y-34449D01*
X40964Y-34472D01*
X40845Y-34472D01*
X44239Y-33972D02*
X44524Y-33972D01*
X44381Y-34472D02*
X44381Y-33972D01*
X44691Y-34472D02*
X44691Y-33972D01*
X44929Y-34472D02*
X44929Y-33972D01*
X45120Y-33972D01*
X45167Y-33996D01*
X45191Y-34020D01*
X45215Y-34068D01*
X45215Y-34139D01*
X45191Y-34187D01*
X45167Y-34210D01*
X45120Y-34234D01*
X44929Y-34234D01*
X47834Y-34472D02*
X47834Y-33972D01*
X48001Y-34330D01*
X48167Y-33972D01*
X48167Y-34472D01*
X48500Y-33972D02*
X48596Y-33972D01*
X48643Y-33996D01*
X48691Y-34044D01*
X48715Y-34139D01*
X48715Y-34306D01*
X48691Y-34401D01*
X48643Y-34449D01*
X48596Y-34472D01*
X48500Y-34472D01*
X48453Y-34449D01*
X48405Y-34401D01*
X48381Y-34306D01*
X48381Y-34139D01*
X48405Y-34044D01*
X48453Y-33996D01*
X48500Y-33972D01*
X48858Y-33972D02*
X49143Y-33972D01*
X49000Y-34472D02*
X49000Y-33972D01*
X49310Y-34282D02*
X49691Y-34282D01*
X49881Y-33972D02*
X50215Y-34472D01*
X50215Y-33972D02*
X49881Y-34472D01*
X68857Y-34472D02*
X68857Y-33972D01*
X69024Y-34330D01*
X69190Y-33972D01*
X69190Y-34472D01*
X69523Y-33972D02*
X69619Y-33972D01*
X69666Y-33996D01*
X69714Y-34044D01*
X69738Y-34139D01*
X69738Y-34306D01*
X69714Y-34401D01*
X69666Y-34449D01*
X69619Y-34472D01*
X69523Y-34472D01*
X69476Y-34449D01*
X69428Y-34401D01*
X69404Y-34306D01*
X69404Y-34139D01*
X69428Y-34044D01*
X69476Y-33996D01*
X69523Y-33972D01*
X69881Y-33972D02*
X70166Y-33972D01*
X70023Y-34472D02*
X70023Y-33972D01*
X70333Y-34282D02*
X70714Y-34282D01*
X70928Y-34330D02*
X71166Y-34330D01*
X70881Y-34472D02*
X71047Y-33972D01*
X71214Y-34472D01*
X57934Y-33372D02*
X57934Y-32872D01*
X58101Y-33230D01*
X58267Y-32872D01*
X58267Y-33372D01*
X58600Y-32872D02*
X58696Y-32872D01*
X58743Y-32896D01*
X58791Y-32944D01*
X58815Y-33039D01*
X58815Y-33206D01*
X58791Y-33301D01*
X58743Y-33349D01*
X58696Y-33372D01*
X58600Y-33372D01*
X58553Y-33349D01*
X58505Y-33301D01*
X58481Y-33206D01*
X58481Y-33039D01*
X58505Y-32944D01*
X58553Y-32896D01*
X58600Y-32872D01*
X58958Y-32872D02*
X59243Y-32872D01*
X59100Y-33372D02*
X59100Y-32872D01*
X59410Y-33182D02*
X59791Y-33182D01*
X59981Y-32872D02*
X60315Y-32872D01*
X59981Y-33372D01*
X60315Y-33372D01*
G54D11*
X71224Y-36032D02*
X71224Y-35632D01*
X71377Y-35632D01*
X71415Y-35651D01*
X71434Y-35670D01*
X71453Y-35708D01*
X71453Y-35765D01*
X71434Y-35803D01*
X71415Y-35822D01*
X71377Y-35841D01*
X71224Y-35841D01*
X71700Y-35632D02*
X71777Y-35632D01*
X71815Y-35651D01*
X71853Y-35689D01*
X71872Y-35765D01*
X71872Y-35899D01*
X71853Y-35975D01*
X71815Y-36013D01*
X71777Y-36032D01*
X71700Y-36032D01*
X71662Y-36013D01*
X71624Y-35975D01*
X71605Y-35899D01*
X71605Y-35765D01*
X71624Y-35689D01*
X71662Y-35651D01*
X71700Y-35632D01*
X72234Y-36032D02*
X72043Y-36032D01*
X72043Y-35632D01*
X72443Y-35632D02*
X72520Y-35632D01*
X72558Y-35651D01*
X72596Y-35689D01*
X72615Y-35765D01*
X72615Y-35899D01*
X72596Y-35975D01*
X72558Y-36013D01*
X72520Y-36032D01*
X72443Y-36032D01*
X72405Y-36013D01*
X72367Y-35975D01*
X72348Y-35899D01*
X72348Y-35765D01*
X72367Y-35689D01*
X72405Y-35651D01*
X72443Y-35632D01*
X72977Y-36032D02*
X72786Y-36032D01*
X72786Y-35632D01*
X73110Y-35632D02*
X73110Y-35956D01*
X73129Y-35994D01*
X73148Y-36013D01*
X73186Y-36032D01*
X73263Y-36032D01*
X73301Y-36013D01*
X73320Y-35994D01*
X73339Y-35956D01*
X73339Y-35632D01*
X73529Y-35880D02*
X73834Y-35880D01*
X74005Y-35918D02*
X74196Y-35918D01*
X73967Y-36032D02*
X74100Y-35632D01*
X74234Y-36032D01*
X63205Y-36032D02*
X63205Y-35632D01*
X63358Y-35632D01*
X63396Y-35651D01*
X63415Y-35670D01*
X63434Y-35708D01*
X63434Y-35765D01*
X63415Y-35803D01*
X63396Y-35822D01*
X63358Y-35841D01*
X63205Y-35841D01*
X63681Y-35632D02*
X63758Y-35632D01*
X63796Y-35651D01*
X63834Y-35689D01*
X63853Y-35765D01*
X63853Y-35899D01*
X63834Y-35975D01*
X63796Y-36013D01*
X63758Y-36032D01*
X63681Y-36032D01*
X63643Y-36013D01*
X63605Y-35975D01*
X63586Y-35899D01*
X63586Y-35765D01*
X63605Y-35689D01*
X63643Y-35651D01*
X63681Y-35632D01*
X64215Y-36032D02*
X64024Y-36032D01*
X64024Y-35632D01*
X64424Y-35632D02*
X64501Y-35632D01*
X64539Y-35651D01*
X64577Y-35689D01*
X64596Y-35765D01*
X64596Y-35899D01*
X64577Y-35975D01*
X64539Y-36013D01*
X64501Y-36032D01*
X64424Y-36032D01*
X64386Y-36013D01*
X64348Y-35975D01*
X64329Y-35899D01*
X64329Y-35765D01*
X64348Y-35689D01*
X64386Y-35651D01*
X64424Y-35632D01*
X64958Y-36032D02*
X64767Y-36032D01*
X64767Y-35632D01*
X65091Y-35632D02*
X65091Y-35956D01*
X65110Y-35994D01*
X65129Y-36013D01*
X65167Y-36032D01*
X65244Y-36032D01*
X65282Y-36013D01*
X65301Y-35994D01*
X65320Y-35956D01*
X65320Y-35632D01*
X65510Y-35880D02*
X65815Y-35880D01*
X65967Y-35632D02*
X66234Y-35632D01*
X65967Y-36032D01*
X66234Y-36032D01*
X55224Y-36032D02*
X55224Y-35632D01*
X55377Y-35632D01*
X55415Y-35651D01*
X55434Y-35670D01*
X55453Y-35708D01*
X55453Y-35765D01*
X55434Y-35803D01*
X55415Y-35822D01*
X55377Y-35841D01*
X55224Y-35841D01*
X55700Y-35632D02*
X55777Y-35632D01*
X55815Y-35651D01*
X55853Y-35689D01*
X55872Y-35765D01*
X55872Y-35899D01*
X55853Y-35975D01*
X55815Y-36013D01*
X55777Y-36032D01*
X55700Y-36032D01*
X55662Y-36013D01*
X55624Y-35975D01*
X55605Y-35899D01*
X55605Y-35765D01*
X55624Y-35689D01*
X55662Y-35651D01*
X55700Y-35632D01*
X56234Y-36032D02*
X56043Y-36032D01*
X56043Y-35632D01*
X56443Y-35632D02*
X56520Y-35632D01*
X56558Y-35651D01*
X56596Y-35689D01*
X56615Y-35765D01*
X56615Y-35899D01*
X56596Y-35975D01*
X56558Y-36013D01*
X56520Y-36032D01*
X56443Y-36032D01*
X56405Y-36013D01*
X56367Y-35975D01*
X56348Y-35899D01*
X56348Y-35765D01*
X56367Y-35689D01*
X56405Y-35651D01*
X56443Y-35632D01*
X56977Y-36032D02*
X56786Y-36032D01*
X56786Y-35632D01*
X57110Y-35632D02*
X57110Y-35956D01*
X57129Y-35994D01*
X57148Y-36013D01*
X57186Y-36032D01*
X57263Y-36032D01*
X57301Y-36013D01*
X57320Y-35994D01*
X57339Y-35956D01*
X57339Y-35632D01*
X57529Y-35880D02*
X57834Y-35880D01*
X58100Y-35841D02*
X58100Y-36032D01*
X57967Y-35632D02*
X58100Y-35841D01*
X58234Y-35632D01*
X47205Y-36032D02*
X47205Y-35632D01*
X47358Y-35632D01*
X47396Y-35651D01*
X47415Y-35670D01*
X47434Y-35708D01*
X47434Y-35765D01*
X47415Y-35803D01*
X47396Y-35822D01*
X47358Y-35841D01*
X47205Y-35841D01*
X47681Y-35632D02*
X47758Y-35632D01*
X47796Y-35651D01*
X47834Y-35689D01*
X47853Y-35765D01*
X47853Y-35899D01*
X47834Y-35975D01*
X47796Y-36013D01*
X47758Y-36032D01*
X47681Y-36032D01*
X47643Y-36013D01*
X47605Y-35975D01*
X47586Y-35899D01*
X47586Y-35765D01*
X47605Y-35689D01*
X47643Y-35651D01*
X47681Y-35632D01*
X48215Y-36032D02*
X48024Y-36032D01*
X48024Y-35632D01*
X48424Y-35632D02*
X48501Y-35632D01*
X48539Y-35651D01*
X48577Y-35689D01*
X48596Y-35765D01*
X48596Y-35899D01*
X48577Y-35975D01*
X48539Y-36013D01*
X48501Y-36032D01*
X48424Y-36032D01*
X48386Y-36013D01*
X48348Y-35975D01*
X48329Y-35899D01*
X48329Y-35765D01*
X48348Y-35689D01*
X48386Y-35651D01*
X48424Y-35632D01*
X48958Y-36032D02*
X48767Y-36032D01*
X48767Y-35632D01*
X49091Y-35632D02*
X49091Y-35956D01*
X49110Y-35994D01*
X49129Y-36013D01*
X49167Y-36032D01*
X49244Y-36032D01*
X49282Y-36013D01*
X49301Y-35994D01*
X49320Y-35956D01*
X49320Y-35632D01*
X49510Y-35880D02*
X49815Y-35880D01*
X49967Y-35632D02*
X50234Y-36032D01*
X50234Y-35632D02*
X49967Y-36032D01*
X46978Y-47191D02*
X46978Y-46891D01*
X47050Y-46891D01*
X47093Y-46906D01*
X47121Y-46934D01*
X47136Y-46963D01*
X47150Y-47020D01*
X47150Y-47063D01*
X47136Y-47120D01*
X47121Y-47149D01*
X47093Y-47177D01*
X47050Y-47191D01*
X46978Y-47191D01*
X47436Y-47191D02*
X47264Y-47191D01*
X47350Y-47191D02*
X47350Y-46891D01*
X47321Y-46934D01*
X47293Y-46963D01*
X47264Y-46977D01*
X71428Y-46541D02*
X71428Y-46241D01*
X71500Y-46241D01*
X71543Y-46256D01*
X71571Y-46284D01*
X71586Y-46313D01*
X71600Y-46370D01*
X71600Y-46413D01*
X71586Y-46470D01*
X71571Y-46499D01*
X71543Y-46527D01*
X71500Y-46541D01*
X71428Y-46541D01*
X71714Y-46270D02*
X71728Y-46256D01*
X71757Y-46241D01*
X71828Y-46241D01*
X71857Y-46256D01*
X71871Y-46270D01*
X71886Y-46299D01*
X71886Y-46327D01*
X71871Y-46370D01*
X71700Y-46541D01*
X71886Y-46541D01*
X70835Y-47991D02*
X70835Y-47691D01*
X70950Y-47691D01*
X70978Y-47706D01*
X70993Y-47720D01*
X71007Y-47749D01*
X71007Y-47791D01*
X70993Y-47820D01*
X70978Y-47834D01*
X70950Y-47849D01*
X70835Y-47849D01*
X71293Y-47991D02*
X71121Y-47991D01*
X71207Y-47991D02*
X71207Y-47691D01*
X71178Y-47734D01*
X71150Y-47763D01*
X71121Y-47777D01*
X71564Y-47691D02*
X71421Y-47691D01*
X71407Y-47834D01*
X71421Y-47820D01*
X71450Y-47806D01*
X71521Y-47806D01*
X71550Y-47820D01*
X71564Y-47834D01*
X71579Y-47863D01*
X71579Y-47934D01*
X71564Y-47963D01*
X71550Y-47977D01*
X71521Y-47991D01*
X71450Y-47991D01*
X71421Y-47977D01*
X71407Y-47963D01*
G54D13*
X39843Y-45556D02*
X39243Y-45556D01*
X39243Y-45328D01*
X39271Y-45270D01*
X39300Y-45242D01*
X39357Y-45213D01*
X39443Y-45213D01*
X39500Y-45242D01*
X39529Y-45270D01*
X39557Y-45328D01*
X39557Y-45556D01*
X39243Y-44842D02*
X39243Y-44728D01*
X39271Y-44670D01*
X39329Y-44613D01*
X39443Y-44585D01*
X39643Y-44585D01*
X39757Y-44613D01*
X39814Y-44670D01*
X39843Y-44728D01*
X39843Y-44842D01*
X39814Y-44899D01*
X39757Y-44956D01*
X39643Y-44985D01*
X39443Y-44985D01*
X39329Y-44956D01*
X39271Y-44899D01*
X39243Y-44842D01*
X39243Y-44384D02*
X39843Y-44241D01*
X39414Y-44127D01*
X39843Y-44013D01*
X39243Y-43870D01*
X39529Y-43641D02*
X39529Y-43441D01*
X39843Y-43355D02*
X39843Y-43641D01*
X39243Y-43641D01*
X39243Y-43355D01*
X39843Y-42755D02*
X39557Y-42955D01*
X39843Y-43098D02*
X39243Y-43098D01*
X39243Y-42870D01*
X39271Y-42812D01*
X39300Y-42784D01*
X39357Y-42755D01*
X39443Y-42755D01*
X39500Y-42784D01*
X39529Y-42812D01*
X39557Y-42870D01*
X39557Y-43098D01*
G54D11*
X54907Y-47091D02*
X54907Y-46791D01*
X55222Y-47063D02*
X55208Y-47077D01*
X55165Y-47091D01*
X55136Y-47091D01*
X55093Y-47077D01*
X55065Y-47049D01*
X55050Y-47020D01*
X55036Y-46963D01*
X55036Y-46920D01*
X55050Y-46863D01*
X55065Y-46834D01*
X55093Y-46806D01*
X55136Y-46791D01*
X55165Y-46791D01*
X55208Y-46806D01*
X55222Y-46820D01*
X55336Y-47077D02*
X55379Y-47091D01*
X55450Y-47091D01*
X55479Y-47077D01*
X55493Y-47063D01*
X55508Y-47034D01*
X55508Y-47006D01*
X55493Y-46977D01*
X55479Y-46963D01*
X55450Y-46949D01*
X55393Y-46934D01*
X55365Y-46920D01*
X55350Y-46906D01*
X55336Y-46877D01*
X55336Y-46849D01*
X55350Y-46820D01*
X55365Y-46806D01*
X55393Y-46791D01*
X55465Y-46791D01*
X55508Y-46806D01*
X55636Y-47091D02*
X55636Y-46791D01*
X55751Y-46791D01*
X55779Y-46806D01*
X55794Y-46820D01*
X55808Y-46849D01*
X55808Y-46891D01*
X55794Y-46920D01*
X55779Y-46934D01*
X55751Y-46949D01*
X55636Y-46949D01*
X41021Y-46391D02*
X41021Y-46634D01*
X41036Y-46663D01*
X41050Y-46677D01*
X41079Y-46691D01*
X41136Y-46691D01*
X41164Y-46677D01*
X41179Y-46663D01*
X41193Y-46634D01*
X41193Y-46391D01*
X41307Y-46391D02*
X41493Y-46391D01*
X41393Y-46506D01*
X41435Y-46506D01*
X41464Y-46520D01*
X41478Y-46534D01*
X41493Y-46563D01*
X41493Y-46634D01*
X41478Y-46663D01*
X41464Y-46677D01*
X41435Y-46691D01*
X41350Y-46691D01*
X41321Y-46677D01*
X41307Y-46663D01*
G54D19*
X43387Y-46528D02*
X43387Y-46671D01*
X42987Y-46671D01*
X43387Y-46428D02*
X42987Y-46428D01*
X42987Y-46356D01*
X43006Y-46313D01*
X43044Y-46285D01*
X43082Y-46270D01*
X43158Y-46256D01*
X43215Y-46256D01*
X43292Y-46270D01*
X43330Y-46285D01*
X43368Y-46313D01*
X43387Y-46356D01*
X43387Y-46428D01*
X43387Y-45970D02*
X43387Y-46142D01*
X43387Y-46056D02*
X42987Y-46056D01*
X43044Y-46085D01*
X43082Y-46113D01*
X43101Y-46142D01*
X43387Y-45684D02*
X43387Y-45856D01*
X43387Y-45770D02*
X42987Y-45770D01*
X43044Y-45799D01*
X43082Y-45827D01*
X43101Y-45856D01*
X43387Y-45398D02*
X43387Y-45570D01*
X43387Y-45484D02*
X42987Y-45484D01*
X43044Y-45513D01*
X43082Y-45541D01*
X43101Y-45570D01*
X42987Y-45298D02*
X42987Y-45098D01*
X43387Y-45227D01*
X43368Y-44998D02*
X43387Y-44955D01*
X43387Y-44884D01*
X43368Y-44855D01*
X43349Y-44841D01*
X43311Y-44826D01*
X43273Y-44826D01*
X43235Y-44841D01*
X43215Y-44855D01*
X43196Y-44884D01*
X43177Y-44941D01*
X43158Y-44969D01*
X43139Y-44984D01*
X43101Y-44998D01*
X43063Y-44998D01*
X43025Y-44984D01*
X43006Y-44969D01*
X42987Y-44941D01*
X42987Y-44869D01*
X43006Y-44826D01*
X42987Y-44726D02*
X42987Y-44540D01*
X43139Y-44640D01*
X43139Y-44598D01*
X43158Y-44569D01*
X43177Y-44555D01*
X43215Y-44540D01*
X43311Y-44540D01*
X43349Y-44555D01*
X43368Y-44569D01*
X43387Y-44598D01*
X43387Y-44683D01*
X43368Y-44712D01*
X43349Y-44726D01*
X42987Y-44440D02*
X42987Y-44254D01*
X43139Y-44354D01*
X43139Y-44312D01*
X43158Y-44283D01*
X43177Y-44269D01*
X43215Y-44254D01*
X43311Y-44254D01*
X43349Y-44269D01*
X43368Y-44283D01*
X43387Y-44312D01*
X43387Y-44397D01*
X43368Y-44426D01*
X43349Y-44440D01*
G54D11*
X51021Y-44991D02*
X51021Y-45234D01*
X51036Y-45263D01*
X51050Y-45277D01*
X51079Y-45291D01*
X51136Y-45291D01*
X51164Y-45277D01*
X51179Y-45263D01*
X51193Y-45234D01*
X51193Y-44991D01*
X51493Y-45291D02*
X51321Y-45291D01*
X51407Y-45291D02*
X51407Y-44991D01*
X51378Y-45034D01*
X51350Y-45063D01*
X51321Y-45077D01*
G54D19*
X47507Y-45363D02*
X47550Y-45382D01*
X47621Y-45382D01*
X47650Y-45363D01*
X47664Y-45344D01*
X47679Y-45306D01*
X47679Y-45268D01*
X47664Y-45230D01*
X47650Y-45210D01*
X47621Y-45191D01*
X47564Y-45172D01*
X47536Y-45153D01*
X47521Y-45134D01*
X47507Y-45096D01*
X47507Y-45058D01*
X47521Y-45020D01*
X47536Y-45001D01*
X47564Y-44982D01*
X47636Y-44982D01*
X47679Y-45001D01*
X47807Y-45382D02*
X47807Y-44982D01*
X47979Y-45382D01*
X47979Y-44982D01*
X48093Y-44982D02*
X48293Y-44982D01*
X48164Y-45382D01*
X48536Y-45115D02*
X48536Y-45382D01*
X48465Y-44963D02*
X48393Y-45249D01*
X48579Y-45249D01*
X48836Y-45382D02*
X48693Y-45382D01*
X48693Y-44982D01*
X48894Y-44982D02*
X48994Y-45382D01*
X49094Y-44982D01*
X49365Y-45344D02*
X49351Y-45363D01*
X49308Y-45382D01*
X49279Y-45382D01*
X49236Y-45363D01*
X49208Y-45325D01*
X49193Y-45287D01*
X49179Y-45210D01*
X49179Y-45153D01*
X49193Y-45077D01*
X49208Y-45039D01*
X49236Y-45001D01*
X49279Y-44982D01*
X49308Y-44982D01*
X49351Y-45001D01*
X49365Y-45020D01*
X49551Y-44982D02*
X49579Y-44982D01*
X49608Y-45001D01*
X49622Y-45020D01*
X49636Y-45058D01*
X49651Y-45134D01*
X49651Y-45230D01*
X49636Y-45306D01*
X49622Y-45344D01*
X49608Y-45363D01*
X49579Y-45382D01*
X49551Y-45382D01*
X49522Y-45363D01*
X49508Y-45344D01*
X49493Y-45306D01*
X49479Y-45230D01*
X49479Y-45134D01*
X49493Y-45058D01*
X49508Y-45020D01*
X49522Y-45001D01*
X49551Y-44982D01*
X49751Y-44982D02*
X49951Y-44982D01*
X49822Y-45382D01*
X50051Y-45268D02*
X50194Y-45268D01*
X50023Y-45382D02*
X50123Y-44982D01*
X50223Y-45382D01*
X50322Y-45382D02*
X50322Y-44982D01*
X50394Y-44982D01*
X50437Y-45001D01*
X50465Y-45039D01*
X50480Y-45077D01*
X50494Y-45153D01*
X50494Y-45210D01*
X50480Y-45287D01*
X50465Y-45325D01*
X50437Y-45363D01*
X50394Y-45382D01*
X50322Y-45382D01*
G54D11*
X40900Y-47513D02*
X40886Y-47527D01*
X40843Y-47541D01*
X40814Y-47541D01*
X40771Y-47527D01*
X40743Y-47499D01*
X40728Y-47470D01*
X40714Y-47413D01*
X40714Y-47370D01*
X40728Y-47313D01*
X40743Y-47284D01*
X40771Y-47256D01*
X40814Y-47241D01*
X40843Y-47241D01*
X40886Y-47256D01*
X40900Y-47270D01*
X41157Y-47341D02*
X41157Y-47541D01*
X41086Y-47227D02*
X41014Y-47441D01*
X41200Y-47441D01*
X42350Y-42713D02*
X42336Y-42727D01*
X42293Y-42741D01*
X42264Y-42741D01*
X42221Y-42727D01*
X42193Y-42699D01*
X42178Y-42670D01*
X42164Y-42613D01*
X42164Y-42570D01*
X42178Y-42513D01*
X42193Y-42484D01*
X42221Y-42456D01*
X42264Y-42441D01*
X42293Y-42441D01*
X42336Y-42456D01*
X42350Y-42470D01*
X42621Y-42441D02*
X42478Y-42441D01*
X42464Y-42584D01*
X42478Y-42570D01*
X42507Y-42556D01*
X42578Y-42556D01*
X42607Y-42570D01*
X42621Y-42584D01*
X42636Y-42613D01*
X42636Y-42684D01*
X42621Y-42713D01*
X42607Y-42727D01*
X42578Y-42741D01*
X42507Y-42741D01*
X42478Y-42727D01*
X42464Y-42713D01*
X66150Y-41263D02*
X66136Y-41277D01*
X66093Y-41291D01*
X66064Y-41291D01*
X66021Y-41277D01*
X65993Y-41249D01*
X65978Y-41220D01*
X65964Y-41163D01*
X65964Y-41120D01*
X65978Y-41063D01*
X65993Y-41034D01*
X66021Y-41006D01*
X66064Y-40991D01*
X66093Y-40991D01*
X66136Y-41006D01*
X66150Y-41020D01*
X66436Y-41291D02*
X66264Y-41291D01*
X66350Y-41291D02*
X66350Y-40991D01*
X66321Y-41034D01*
X66293Y-41063D01*
X66264Y-41077D01*
X49050Y-47441D02*
X48950Y-47299D01*
X48878Y-47441D02*
X48878Y-47141D01*
X48993Y-47141D01*
X49021Y-47156D01*
X49036Y-47170D01*
X49050Y-47199D01*
X49050Y-47241D01*
X49036Y-47270D01*
X49021Y-47284D01*
X48993Y-47299D01*
X48878Y-47299D01*
X49193Y-47441D02*
X49250Y-47441D01*
X49278Y-47427D01*
X49293Y-47413D01*
X49321Y-47370D01*
X49336Y-47313D01*
X49336Y-47199D01*
X49321Y-47170D01*
X49307Y-47156D01*
X49278Y-47141D01*
X49221Y-47141D01*
X49193Y-47156D01*
X49178Y-47170D01*
X49164Y-47199D01*
X49164Y-47270D01*
X49178Y-47299D01*
X49193Y-47313D01*
X49221Y-47327D01*
X49278Y-47327D01*
X49307Y-47313D01*
X49321Y-47299D01*
X49336Y-47270D01*
X48950Y-42791D02*
X48850Y-42649D01*
X48778Y-42791D02*
X48778Y-42491D01*
X48893Y-42491D01*
X48921Y-42506D01*
X48936Y-42520D01*
X48950Y-42549D01*
X48950Y-42591D01*
X48936Y-42620D01*
X48921Y-42634D01*
X48893Y-42649D01*
X48778Y-42649D01*
X49064Y-42520D02*
X49078Y-42506D01*
X49107Y-42491D01*
X49178Y-42491D01*
X49207Y-42506D01*
X49221Y-42520D01*
X49236Y-42549D01*
X49236Y-42577D01*
X49221Y-42620D01*
X49050Y-42791D01*
X49236Y-42791D01*
X48950Y-43491D02*
X48850Y-43349D01*
X48778Y-43491D02*
X48778Y-43191D01*
X48893Y-43191D01*
X48921Y-43206D01*
X48936Y-43220D01*
X48950Y-43249D01*
X48950Y-43291D01*
X48936Y-43320D01*
X48921Y-43334D01*
X48893Y-43349D01*
X48778Y-43349D01*
X49236Y-43491D02*
X49064Y-43491D01*
X49150Y-43491D02*
X49150Y-43191D01*
X49121Y-43234D01*
X49093Y-43263D01*
X49064Y-43277D01*
X44607Y-47241D02*
X44507Y-47099D01*
X44435Y-47241D02*
X44435Y-46941D01*
X44550Y-46941D01*
X44578Y-46956D01*
X44593Y-46970D01*
X44607Y-46999D01*
X44607Y-47041D01*
X44593Y-47070D01*
X44578Y-47084D01*
X44550Y-47099D01*
X44435Y-47099D01*
X44893Y-47241D02*
X44721Y-47241D01*
X44807Y-47241D02*
X44807Y-46941D01*
X44778Y-46984D01*
X44750Y-47013D01*
X44721Y-47027D01*
X45164Y-46941D02*
X45021Y-46941D01*
X45007Y-47084D01*
X45021Y-47070D01*
X45050Y-47056D01*
X45121Y-47056D01*
X45150Y-47070D01*
X45164Y-47084D01*
X45179Y-47113D01*
X45179Y-47184D01*
X45164Y-47213D01*
X45150Y-47227D01*
X45121Y-47241D01*
X45050Y-47241D01*
X45021Y-47227D01*
X45007Y-47213D01*
X71057Y-44091D02*
X70957Y-43949D01*
X70885Y-44091D02*
X70885Y-43791D01*
X71000Y-43791D01*
X71028Y-43806D01*
X71043Y-43820D01*
X71057Y-43849D01*
X71057Y-43891D01*
X71043Y-43920D01*
X71028Y-43934D01*
X71000Y-43949D01*
X70885Y-43949D01*
X71343Y-44091D02*
X71171Y-44091D01*
X71257Y-44091D02*
X71257Y-43791D01*
X71228Y-43834D01*
X71200Y-43863D01*
X71171Y-43877D01*
X71600Y-43791D02*
X71543Y-43791D01*
X71514Y-43806D01*
X71500Y-43820D01*
X71471Y-43863D01*
X71457Y-43920D01*
X71457Y-44034D01*
X71471Y-44063D01*
X71486Y-44077D01*
X71514Y-44091D01*
X71571Y-44091D01*
X71600Y-44077D01*
X71614Y-44063D01*
X71629Y-44034D01*
X71629Y-43963D01*
X71614Y-43934D01*
X71600Y-43920D01*
X71571Y-43906D01*
X71514Y-43906D01*
X71486Y-43920D01*
X71471Y-43934D01*
X71457Y-43963D01*
X54821Y-43441D02*
X54821Y-43684D01*
X54836Y-43713D01*
X54850Y-43727D01*
X54879Y-43741D01*
X54936Y-43741D01*
X54964Y-43727D01*
X54979Y-43713D01*
X54993Y-43684D01*
X54993Y-43441D01*
X55121Y-43470D02*
X55135Y-43456D01*
X55164Y-43441D01*
X55235Y-43441D01*
X55264Y-43456D01*
X55278Y-43470D01*
X55293Y-43499D01*
X55293Y-43527D01*
X55278Y-43570D01*
X55107Y-43741D01*
X55293Y-43741D01*
G54D13*
X56345Y-43913D02*
X56345Y-43313D01*
X56517Y-43313D01*
X56559Y-43341D01*
X56581Y-43370D01*
X56602Y-43427D01*
X56602Y-43513D01*
X56581Y-43570D01*
X56559Y-43599D01*
X56517Y-43627D01*
X56345Y-43627D01*
X56795Y-43913D02*
X56795Y-43313D01*
X57266Y-43856D02*
X57245Y-43884D01*
X57181Y-43913D01*
X57138Y-43913D01*
X57073Y-43884D01*
X57031Y-43827D01*
X57009Y-43770D01*
X56988Y-43656D01*
X56988Y-43570D01*
X57009Y-43456D01*
X57031Y-43399D01*
X57073Y-43341D01*
X57138Y-43313D01*
X57181Y-43313D01*
X57245Y-43341D01*
X57266Y-43370D01*
X57416Y-43313D02*
X57695Y-43313D01*
X57545Y-43541D01*
X57609Y-43541D01*
X57652Y-43570D01*
X57673Y-43599D01*
X57695Y-43656D01*
X57695Y-43799D01*
X57673Y-43856D01*
X57652Y-43884D01*
X57609Y-43913D01*
X57481Y-43913D01*
X57438Y-43884D01*
X57416Y-43856D01*
X57867Y-43370D02*
X57888Y-43341D01*
X57931Y-43313D01*
X58038Y-43313D01*
X58081Y-43341D01*
X58102Y-43370D01*
X58124Y-43427D01*
X58124Y-43484D01*
X58102Y-43570D01*
X57845Y-43913D01*
X58124Y-43913D01*
X58317Y-43913D02*
X58317Y-43313D01*
X58467Y-43741D01*
X58617Y-43313D01*
X58617Y-43913D01*
X58788Y-43313D02*
X59088Y-43913D01*
X59088Y-43313D02*
X58788Y-43913D01*
X59496Y-43913D02*
X59239Y-43913D01*
X59367Y-43913D02*
X59367Y-43313D01*
X59324Y-43399D01*
X59282Y-43456D01*
X59239Y-43484D01*
X59903Y-43313D02*
X59689Y-43313D01*
X59668Y-43599D01*
X59689Y-43570D01*
X59732Y-43541D01*
X59839Y-43541D01*
X59882Y-43570D01*
X59903Y-43599D01*
X59925Y-43656D01*
X59925Y-43799D01*
X59903Y-43856D01*
X59882Y-43884D01*
X59839Y-43913D01*
X59732Y-43913D01*
X59689Y-43884D01*
X59668Y-43856D01*
X60204Y-43313D02*
X60247Y-43313D01*
X60290Y-43341D01*
X60311Y-43370D01*
X60332Y-43427D01*
X60354Y-43541D01*
X60354Y-43684D01*
X60332Y-43799D01*
X60311Y-43856D01*
X60290Y-43884D01*
X60247Y-43913D01*
X60204Y-43913D01*
X60161Y-43884D01*
X60140Y-43856D01*
X60118Y-43799D01*
X60097Y-43684D01*
X60097Y-43541D01*
X60118Y-43427D01*
X60140Y-43370D01*
X60161Y-43341D01*
X60204Y-43313D01*
X60697Y-43599D02*
X60547Y-43599D01*
X60547Y-43913D02*
X60547Y-43313D01*
X60761Y-43313D01*
X61169Y-43913D02*
X60912Y-43913D01*
X61040Y-43913D02*
X61040Y-43313D01*
X60997Y-43399D01*
X60955Y-43456D01*
X60912Y-43484D01*
X61341Y-43370D02*
X61362Y-43341D01*
X61405Y-43313D01*
X61512Y-43313D01*
X61555Y-43341D01*
X61576Y-43370D01*
X61598Y-43427D01*
X61598Y-43484D01*
X61576Y-43570D01*
X61319Y-43913D01*
X61598Y-43913D01*
X61855Y-43570D02*
X61813Y-43541D01*
X61791Y-43513D01*
X61770Y-43456D01*
X61770Y-43427D01*
X61791Y-43370D01*
X61813Y-43341D01*
X61855Y-43313D01*
X61941Y-43313D01*
X61984Y-43341D01*
X62005Y-43370D01*
X62027Y-43427D01*
X62027Y-43456D01*
X62005Y-43513D01*
X61984Y-43541D01*
X61941Y-43570D01*
X61855Y-43570D01*
X61813Y-43599D01*
X61791Y-43627D01*
X61770Y-43684D01*
X61770Y-43799D01*
X61791Y-43856D01*
X61813Y-43884D01*
X61855Y-43913D01*
X61941Y-43913D01*
X61984Y-43884D01*
X62005Y-43856D01*
X62027Y-43799D01*
X62027Y-43684D01*
X62005Y-43627D01*
X61984Y-43599D01*
X61941Y-43570D01*
X62370Y-43599D02*
X62434Y-43627D01*
X62456Y-43656D01*
X62477Y-43713D01*
X62477Y-43799D01*
X62456Y-43856D01*
X62434Y-43884D01*
X62392Y-43913D01*
X62220Y-43913D01*
X62220Y-43313D01*
X62370Y-43313D01*
X62413Y-43341D01*
X62434Y-43370D01*
X62456Y-43427D01*
X62456Y-43484D01*
X62434Y-43541D01*
X62413Y-43570D01*
X62370Y-43599D01*
X62220Y-43599D01*
X47300Y-41313D02*
X47414Y-41313D01*
X47472Y-41341D01*
X47529Y-41399D01*
X47557Y-41513D01*
X47557Y-41713D01*
X47529Y-41827D01*
X47472Y-41884D01*
X47414Y-41913D01*
X47300Y-41913D01*
X47243Y-41884D01*
X47186Y-41827D01*
X47157Y-41713D01*
X47157Y-41513D01*
X47186Y-41399D01*
X47243Y-41341D01*
X47300Y-41313D01*
X47815Y-41313D02*
X47815Y-41799D01*
X47843Y-41856D01*
X47872Y-41884D01*
X47929Y-41913D01*
X48043Y-41913D01*
X48101Y-41884D01*
X48129Y-41856D01*
X48158Y-41799D01*
X48158Y-41313D01*
X48358Y-41313D02*
X48701Y-41313D01*
X48530Y-41913D02*
X48530Y-41313D01*
X48901Y-41913D02*
X48901Y-41313D01*
X49129Y-41313D01*
X49187Y-41341D01*
X49215Y-41370D01*
X49244Y-41427D01*
X49244Y-41513D01*
X49215Y-41570D01*
X49187Y-41599D01*
X49129Y-41627D01*
X48901Y-41627D01*
X50043Y-47999D02*
X50243Y-47999D01*
X50329Y-48313D02*
X50043Y-48313D01*
X50043Y-47713D01*
X50329Y-47713D01*
X50557Y-48284D02*
X50643Y-48313D01*
X50786Y-48313D01*
X50843Y-48284D01*
X50872Y-48256D01*
X50900Y-48199D01*
X50900Y-48141D01*
X50872Y-48084D01*
X50843Y-48056D01*
X50786Y-48027D01*
X50672Y-47999D01*
X50614Y-47970D01*
X50586Y-47941D01*
X50557Y-47884D01*
X50557Y-47827D01*
X50586Y-47770D01*
X50614Y-47741D01*
X50672Y-47713D01*
X50814Y-47713D01*
X50900Y-47741D01*
X51071Y-47713D02*
X51414Y-47713D01*
X51243Y-48313D02*
X51243Y-47713D01*
X51728Y-47713D02*
X51842Y-47713D01*
X51900Y-47741D01*
X51957Y-47799D01*
X51985Y-47913D01*
X51985Y-48113D01*
X51957Y-48227D01*
X51900Y-48284D01*
X51842Y-48313D01*
X51728Y-48313D01*
X51671Y-48284D01*
X51614Y-48227D01*
X51585Y-48113D01*
X51585Y-47913D01*
X51614Y-47799D01*
X51671Y-47741D01*
X51728Y-47713D01*
X52243Y-48313D02*
X52243Y-47713D01*
X52471Y-47713D01*
X52529Y-47741D01*
X52557Y-47770D01*
X52586Y-47827D01*
X52586Y-47913D01*
X52557Y-47970D01*
X52529Y-47999D01*
X52471Y-48027D01*
X52243Y-48027D01*
X39286Y-48313D02*
X39000Y-48313D01*
X39000Y-47713D01*
X39486Y-48313D02*
X39486Y-47713D01*
X39772Y-48313D02*
X39772Y-47713D01*
X39972Y-48141D01*
X40172Y-47713D01*
X40172Y-48313D01*
X40315Y-48370D02*
X40772Y-48370D01*
X40858Y-47713D02*
X41258Y-48313D01*
X41258Y-47713D02*
X40858Y-48313D01*
X43715Y-48313D02*
X43429Y-48313D01*
X43429Y-47713D01*
X43915Y-48313D02*
X43915Y-47713D01*
X44201Y-48313D02*
X44201Y-47713D01*
X44401Y-48141D01*
X44601Y-47713D01*
X44601Y-48313D01*
X44744Y-48370D02*
X45201Y-48370D01*
X45458Y-48027D02*
X45458Y-48313D01*
X45258Y-47713D02*
X45458Y-48027D01*
X45658Y-47713D01*
X46286Y-48313D02*
X46000Y-48313D01*
X46000Y-47713D01*
X46486Y-48313D02*
X46486Y-47713D01*
X46772Y-48313D02*
X46772Y-47713D01*
X46972Y-48141D01*
X47172Y-47713D01*
X47172Y-48313D01*
X47315Y-48370D02*
X47772Y-48370D01*
X47858Y-47713D02*
X48258Y-47713D01*
X47858Y-48313D01*
X48258Y-48313D01*
X51614Y-41113D02*
X51957Y-41113D01*
X51786Y-41713D02*
X51786Y-41113D01*
X52157Y-41713D02*
X52157Y-41113D01*
X52157Y-41399D02*
X52500Y-41399D01*
X52500Y-41713D02*
X52500Y-41113D01*
X52643Y-41770D02*
X53100Y-41770D01*
X53443Y-41399D02*
X53529Y-41427D01*
X53557Y-41456D01*
X53586Y-41513D01*
X53586Y-41599D01*
X53557Y-41656D01*
X53529Y-41684D01*
X53471Y-41713D01*
X53243Y-41713D01*
X53243Y-41113D01*
X53443Y-41113D01*
X53500Y-41141D01*
X53529Y-41170D01*
X53557Y-41227D01*
X53557Y-41284D01*
X53529Y-41341D01*
X53500Y-41370D01*
X53443Y-41399D01*
X53243Y-41399D01*
X53843Y-41399D02*
X54043Y-41399D01*
X54129Y-41713D02*
X53843Y-41713D01*
X53843Y-41113D01*
X54129Y-41113D01*
X54386Y-41713D02*
X54386Y-41113D01*
X54529Y-41113D01*
X54614Y-41141D01*
X54672Y-41199D01*
X54700Y-41256D01*
X54729Y-41370D01*
X54729Y-41456D01*
X54700Y-41570D01*
X54672Y-41627D01*
X54614Y-41684D01*
X54529Y-41713D01*
X54386Y-41713D01*
X51814Y-46313D02*
X52157Y-46313D01*
X51986Y-46913D02*
X51986Y-46313D01*
X52357Y-46913D02*
X52357Y-46313D01*
X52357Y-46599D02*
X52700Y-46599D01*
X52700Y-46913D02*
X52700Y-46313D01*
X52843Y-46970D02*
X53300Y-46970D01*
X53357Y-46313D02*
X53700Y-46313D01*
X53529Y-46913D02*
X53529Y-46313D01*
X53900Y-46913D02*
X53900Y-46313D01*
X54186Y-46913D02*
X54186Y-46313D01*
X54414Y-46313D01*
X54472Y-46341D01*
X54500Y-46370D01*
X54529Y-46427D01*
X54529Y-46513D01*
X54500Y-46570D01*
X54472Y-46599D01*
X54414Y-46627D01*
X54186Y-46627D01*
G54D11*
X54635Y-50541D02*
X54635Y-50241D01*
X54750Y-50241D01*
X54778Y-50256D01*
X54793Y-50270D01*
X54807Y-50299D01*
X54807Y-50341D01*
X54793Y-50370D01*
X54778Y-50384D01*
X54750Y-50399D01*
X54635Y-50399D01*
X54921Y-50270D02*
X54935Y-50256D01*
X54964Y-50241D01*
X55035Y-50241D01*
X55064Y-50256D01*
X55078Y-50270D01*
X55093Y-50299D01*
X55093Y-50327D01*
X55078Y-50370D01*
X54907Y-50541D01*
X55093Y-50541D01*
X55379Y-50541D02*
X55207Y-50541D01*
X55293Y-50541D02*
X55293Y-50241D01*
X55264Y-50284D01*
X55236Y-50313D01*
X55207Y-50327D01*
X46800Y-39263D02*
X46786Y-39277D01*
X46743Y-39291D01*
X46714Y-39291D01*
X46671Y-39277D01*
X46643Y-39249D01*
X46628Y-39220D01*
X46614Y-39163D01*
X46614Y-39120D01*
X46628Y-39063D01*
X46643Y-39034D01*
X46671Y-39006D01*
X46714Y-38991D01*
X46743Y-38991D01*
X46786Y-39006D01*
X46800Y-39020D01*
X46943Y-39291D02*
X47000Y-39291D01*
X47028Y-39277D01*
X47043Y-39263D01*
X47071Y-39220D01*
X47086Y-39163D01*
X47086Y-39049D01*
X47071Y-39020D01*
X47057Y-39006D01*
X47028Y-38991D01*
X46971Y-38991D01*
X46943Y-39006D01*
X46928Y-39020D01*
X46914Y-39049D01*
X46914Y-39120D01*
X46928Y-39149D01*
X46943Y-39163D01*
X46971Y-39177D01*
X47028Y-39177D01*
X47057Y-39163D01*
X47071Y-39149D01*
X47086Y-39120D01*
X54757Y-39263D02*
X54743Y-39277D01*
X54700Y-39291D01*
X54671Y-39291D01*
X54628Y-39277D01*
X54600Y-39249D01*
X54585Y-39220D01*
X54571Y-39163D01*
X54571Y-39120D01*
X54585Y-39063D01*
X54600Y-39034D01*
X54628Y-39006D01*
X54671Y-38991D01*
X54700Y-38991D01*
X54743Y-39006D01*
X54757Y-39020D01*
X55043Y-39291D02*
X54871Y-39291D01*
X54957Y-39291D02*
X54957Y-38991D01*
X54928Y-39034D01*
X54900Y-39063D01*
X54871Y-39077D01*
X55229Y-38991D02*
X55257Y-38991D01*
X55286Y-39006D01*
X55300Y-39020D01*
X55314Y-39049D01*
X55329Y-39106D01*
X55329Y-39177D01*
X55314Y-39234D01*
X55300Y-39263D01*
X55286Y-39277D01*
X55257Y-39291D01*
X55229Y-39291D01*
X55200Y-39277D01*
X55186Y-39263D01*
X55171Y-39234D01*
X55157Y-39177D01*
X55157Y-39106D01*
X55171Y-39049D01*
X55186Y-39020D01*
X55200Y-39006D01*
X55229Y-38991D01*
X62757Y-39263D02*
X62743Y-39277D01*
X62700Y-39291D01*
X62671Y-39291D01*
X62628Y-39277D01*
X62600Y-39249D01*
X62585Y-39220D01*
X62571Y-39163D01*
X62571Y-39120D01*
X62585Y-39063D01*
X62600Y-39034D01*
X62628Y-39006D01*
X62671Y-38991D01*
X62700Y-38991D01*
X62743Y-39006D01*
X62757Y-39020D01*
X63043Y-39291D02*
X62871Y-39291D01*
X62957Y-39291D02*
X62957Y-38991D01*
X62928Y-39034D01*
X62900Y-39063D01*
X62871Y-39077D01*
X63329Y-39291D02*
X63157Y-39291D01*
X63243Y-39291D02*
X63243Y-38991D01*
X63214Y-39034D01*
X63186Y-39063D01*
X63157Y-39077D01*
X70757Y-39263D02*
X70743Y-39277D01*
X70700Y-39291D01*
X70671Y-39291D01*
X70628Y-39277D01*
X70600Y-39249D01*
X70585Y-39220D01*
X70571Y-39163D01*
X70571Y-39120D01*
X70585Y-39063D01*
X70600Y-39034D01*
X70628Y-39006D01*
X70671Y-38991D01*
X70700Y-38991D01*
X70743Y-39006D01*
X70757Y-39020D01*
X71043Y-39291D02*
X70871Y-39291D01*
X70957Y-39291D02*
X70957Y-38991D01*
X70928Y-39034D01*
X70900Y-39063D01*
X70871Y-39077D01*
X71157Y-39020D02*
X71171Y-39006D01*
X71200Y-38991D01*
X71271Y-38991D01*
X71300Y-39006D01*
X71314Y-39020D01*
X71329Y-39049D01*
X71329Y-39077D01*
X71314Y-39120D01*
X71143Y-39291D01*
X71329Y-39291D01*
X74521Y-44535D02*
X74221Y-44535D01*
X74221Y-44420D01*
X74236Y-44392D01*
X74250Y-44377D01*
X74279Y-44363D01*
X74321Y-44363D01*
X74350Y-44377D01*
X74364Y-44392D01*
X74379Y-44420D01*
X74379Y-44535D01*
X74250Y-44249D02*
X74236Y-44235D01*
X74221Y-44206D01*
X74221Y-44135D01*
X74236Y-44106D01*
X74250Y-44092D01*
X74279Y-44077D01*
X74307Y-44077D01*
X74350Y-44092D01*
X74521Y-44263D01*
X74521Y-44077D01*
X74250Y-43963D02*
X74236Y-43949D01*
X74221Y-43920D01*
X74221Y-43849D01*
X74236Y-43820D01*
X74250Y-43806D01*
X74279Y-43791D01*
X74307Y-43791D01*
X74350Y-43806D01*
X74521Y-43977D01*
X74521Y-43791D01*
X55407Y-41091D02*
X55307Y-40949D01*
X55235Y-41091D02*
X55235Y-40791D01*
X55350Y-40791D01*
X55378Y-40806D01*
X55393Y-40820D01*
X55407Y-40849D01*
X55407Y-40891D01*
X55393Y-40920D01*
X55378Y-40934D01*
X55350Y-40949D01*
X55235Y-40949D01*
X55693Y-41091D02*
X55521Y-41091D01*
X55607Y-41091D02*
X55607Y-40791D01*
X55578Y-40834D01*
X55550Y-40863D01*
X55521Y-40877D01*
X55836Y-41091D02*
X55893Y-41091D01*
X55921Y-41077D01*
X55936Y-41063D01*
X55964Y-41020D01*
X55979Y-40963D01*
X55979Y-40849D01*
X55964Y-40820D01*
X55950Y-40806D01*
X55921Y-40791D01*
X55864Y-40791D01*
X55836Y-40806D01*
X55821Y-40820D01*
X55807Y-40849D01*
X55807Y-40920D01*
X55821Y-40949D01*
X55836Y-40963D01*
X55864Y-40977D01*
X55921Y-40977D01*
X55950Y-40963D01*
X55964Y-40949D01*
X55979Y-40920D01*
X45507Y-44513D02*
X45493Y-44527D01*
X45450Y-44541D01*
X45421Y-44541D01*
X45378Y-44527D01*
X45350Y-44499D01*
X45335Y-44470D01*
X45321Y-44413D01*
X45321Y-44370D01*
X45335Y-44313D01*
X45350Y-44284D01*
X45378Y-44256D01*
X45421Y-44241D01*
X45450Y-44241D01*
X45493Y-44256D01*
X45507Y-44270D01*
X45793Y-44541D02*
X45621Y-44541D01*
X45707Y-44541D02*
X45707Y-44241D01*
X45678Y-44284D01*
X45650Y-44313D01*
X45621Y-44327D01*
X45893Y-44241D02*
X46079Y-44241D01*
X45979Y-44356D01*
X46021Y-44356D01*
X46050Y-44370D01*
X46064Y-44384D01*
X46079Y-44413D01*
X46079Y-44484D01*
X46064Y-44513D01*
X46050Y-44527D01*
X46021Y-44541D01*
X45936Y-44541D01*
X45907Y-44527D01*
X45893Y-44513D01*
M02*
