M48
;DRILL file {Pcbnew (2012-apr-16-27)-stable} date Sunday 03,March,2013 08:17:28 AM SGT
;FORMAT={-:-/ absolute / inch / decimal}
FMAT,2
INCH,TZ
T1C0.012
T2C0.032
T3C0.032
T4C0.040
T5C0.120
%
G90
G05
M72
T1
X5.370Y-3.585
X5.520Y-3.645
X5.530Y-3.465
X5.535Y-3.500
X5.545Y-3.560
X5.649Y-3.774
X5.650Y-3.810
X5.700Y-3.150
X5.700Y-3.175
X5.700Y-3.200
X5.700Y-3.225
X5.700Y-3.250
X5.700Y-3.275
X5.700Y-3.300
X5.725Y-3.125
X5.725Y-3.150
X5.725Y-3.175
X5.725Y-3.200
X5.725Y-3.225
X5.725Y-3.250
X5.725Y-3.275
X5.725Y-3.300
X5.762Y-3.908
X5.770Y-3.522
X5.772Y-3.658
X5.815Y-3.785
X5.825Y-3.600
X5.825Y-3.625
X5.825Y-3.650
X5.825Y-3.675
X5.825Y-3.700
X5.850Y-3.625
X5.850Y-3.650
X5.850Y-3.675
X5.850Y-3.700
X5.850Y-3.725
X5.860Y-3.785
X5.890Y-3.185
X5.890Y-3.210
X5.890Y-3.235
X5.890Y-3.260
X5.915Y-3.185
X5.915Y-3.210
X5.915Y-3.235
X5.915Y-3.260
X5.925Y-3.600
X5.925Y-3.625
X5.925Y-3.650
X5.925Y-3.675
X5.940Y-3.185
X5.940Y-3.210
X5.940Y-3.235
X5.940Y-3.260
X5.950Y-3.600
X5.950Y-3.625
X5.950Y-3.650
X5.950Y-3.675
X5.963Y-3.343
X5.974Y-3.451
X5.974Y-4.047
X5.975Y-3.600
X5.975Y-3.625
X5.975Y-3.650
X5.975Y-3.675
X5.988Y-3.323
X6.000Y-3.600
X6.000Y-3.625
X6.000Y-3.650
X6.000Y-3.675
X6.000Y-4.072
X6.006Y-3.451
X6.019Y-3.996
X6.039Y-3.451
X6.045Y-4.022
X6.059Y-3.933
X6.086Y-3.810
X6.088Y-3.016
X6.117Y-2.999
X6.150Y-3.815
X6.150Y-3.840
X6.150Y-3.865
X6.175Y-3.390
X6.175Y-3.815
X6.175Y-3.840
X6.175Y-3.865
X6.175Y-3.890
X6.208Y-4.047
X6.220Y-3.390
X6.226Y-4.091
X6.231Y-4.135
X6.265Y-3.390
X6.310Y-3.390
X6.355Y-3.390
X6.400Y-3.390
X6.445Y-3.390
T2
X6.705Y-4.410
X6.805Y-4.410
T3
X5.105Y-2.910
X5.155Y-3.510
X5.655Y-4.545
X6.755Y-4.010
T4
X5.105Y-2.810
X5.105Y-3.010
X5.105Y-3.110
X5.155Y-3.610
X5.155Y-3.710
X5.155Y-3.810
X5.155Y-3.910
X5.155Y-4.010
X5.155Y-4.110
X5.155Y-4.210
X5.155Y-4.310
X5.155Y-4.410
X5.205Y-2.810
X5.205Y-2.910
X5.255Y-3.110
X5.255Y-3.210
X5.255Y-3.510
X5.255Y-3.610
X5.255Y-3.710
X5.255Y-3.810
X5.255Y-3.910
X5.255Y-4.010
X5.255Y-4.110
X5.255Y-4.210
X5.255Y-4.310
X5.255Y-4.410
X5.305Y-2.810
X5.305Y-2.910
X5.355Y-3.110
X5.355Y-3.210
X5.405Y-2.810
X5.405Y-2.910
X5.447Y-3.465
X5.447Y-3.665
X5.447Y-3.865
X5.455Y-3.110
X5.455Y-3.210
X5.463Y-3.565
X5.463Y-3.765
X5.463Y-3.965
X5.505Y-2.810
X5.505Y-2.910
X5.555Y-3.110
X5.555Y-3.210
X5.605Y-2.810
X5.605Y-2.910
X5.655Y-4.445
X5.705Y-2.810
X5.705Y-2.910
X5.755Y-4.445
X5.755Y-4.545
X5.805Y-2.810
X5.805Y-2.910
X5.855Y-4.445
X5.855Y-4.545
X5.905Y-2.810
X5.905Y-2.910
X5.955Y-4.445
X5.955Y-4.545
X6.005Y-2.810
X6.005Y-2.910
X6.055Y-4.445
X6.055Y-4.545
X6.105Y-2.810
X6.105Y-2.910
X6.155Y-4.445
X6.155Y-4.545
X6.205Y-2.810
X6.205Y-2.910
X6.255Y-4.445
X6.255Y-4.545
X6.305Y-2.810
X6.305Y-2.910
X6.355Y-4.445
X6.355Y-4.545
X6.655Y-3.610
X6.655Y-3.710
X6.655Y-3.810
X6.655Y-3.910
X6.655Y-4.010
X6.755Y-3.610
X6.755Y-3.710
X6.755Y-3.810
X6.755Y-3.910
T5
X6.014Y-4.199
T0
M30
