G04 (created by PCBNEW-RS274X (2012-apr-16-27)-stable) date Saturday 02,March,2013 04:06:52 PM SGT*
G01*
G70*
G90*
%MOIN*%
G04 Gerber Fmt 3.4, Leading zero omitted, Abs format*
%FSLAX34Y34*%
G04 APERTURE LIST*
%ADD10C,0.006000*%
%ADD11R,0.059100X0.059100*%
%ADD12C,0.059100*%
%ADD13R,0.060000X0.060000*%
%ADD14C,0.060000*%
%ADD15C,0.180000*%
%ADD16C,0.024000*%
%ADD17C,0.010000*%
%ADD18C,0.020000*%
G04 APERTURE END LIST*
G54D10*
G54D11*
X68050Y-44100D03*
G54D12*
X67050Y-44100D03*
G54D13*
X54630Y-39650D03*
G54D14*
X54470Y-38650D03*
X54630Y-37650D03*
X54470Y-36650D03*
X54630Y-35650D03*
X54470Y-34650D03*
G54D13*
X51050Y-29100D03*
G54D14*
X51050Y-28100D03*
X52050Y-29100D03*
X52050Y-28100D03*
X53050Y-29100D03*
X53050Y-28100D03*
X54050Y-29100D03*
X54050Y-28100D03*
X55050Y-29100D03*
X55050Y-28100D03*
X56050Y-29100D03*
X56050Y-28100D03*
X57050Y-29100D03*
X57050Y-28100D03*
X58050Y-29100D03*
X58050Y-28100D03*
X59050Y-29100D03*
X59050Y-28100D03*
X60050Y-29100D03*
X60050Y-28100D03*
X61050Y-29100D03*
X61050Y-28100D03*
X62050Y-29100D03*
X62050Y-28100D03*
X63050Y-29100D03*
X63050Y-28100D03*
G54D13*
X51550Y-35100D03*
G54D14*
X52550Y-35100D03*
X51550Y-36100D03*
X52550Y-36100D03*
X51550Y-37100D03*
X52550Y-37100D03*
X51550Y-38100D03*
X52550Y-38100D03*
X51550Y-39100D03*
X52550Y-39100D03*
X51550Y-40100D03*
X52550Y-40100D03*
X51550Y-41100D03*
X52550Y-41100D03*
X51550Y-42100D03*
X52550Y-42100D03*
X51550Y-43100D03*
X52550Y-43100D03*
X51550Y-44100D03*
X52550Y-44100D03*
G54D13*
X67550Y-40100D03*
G54D14*
X66550Y-40100D03*
X67550Y-39100D03*
X66550Y-39100D03*
X67550Y-38100D03*
X66550Y-38100D03*
X67550Y-37100D03*
X66550Y-37100D03*
X67550Y-36100D03*
X66550Y-36100D03*
G54D13*
X56550Y-45450D03*
G54D14*
X56550Y-44450D03*
X57550Y-45450D03*
X57550Y-44450D03*
X58550Y-45450D03*
X58550Y-44450D03*
X59550Y-45450D03*
X59550Y-44450D03*
X60550Y-45450D03*
X60550Y-44450D03*
X61550Y-45450D03*
X61550Y-44450D03*
X62550Y-45450D03*
X62550Y-44450D03*
X63550Y-45450D03*
X63550Y-44450D03*
G54D13*
X52550Y-32100D03*
G54D14*
X52550Y-31100D03*
X53550Y-32100D03*
X53550Y-31100D03*
X54550Y-32100D03*
X54550Y-31100D03*
X55550Y-32100D03*
X55550Y-31100D03*
G54D13*
X51050Y-31100D03*
G54D14*
X51050Y-30100D03*
G54D15*
X60145Y-41994D03*
G54D16*
X57700Y-35225D03*
X57725Y-36575D03*
X64450Y-33900D03*
X53700Y-35850D03*
X55300Y-34650D03*
X55350Y-35000D03*
X55450Y-35600D03*
X55200Y-36450D03*
X60860Y-38100D03*
X59625Y-33425D03*
X60590Y-39335D03*
X62080Y-40470D03*
X62260Y-40910D03*
X62305Y-41345D03*
X59745Y-40470D03*
X60000Y-40725D03*
X60195Y-39955D03*
X60450Y-40215D03*
X57620Y-39080D03*
X59740Y-34510D03*
X59875Y-33225D03*
X60880Y-30160D03*
X60060Y-34510D03*
X58150Y-37850D03*
X58600Y-37850D03*
X56500Y-38100D03*
X60390Y-34510D03*
X61170Y-29990D03*
X56490Y-37740D03*
X61750Y-33900D03*
X62200Y-33900D03*
X62650Y-33900D03*
X63100Y-33900D03*
X63550Y-33900D03*
X64000Y-33900D03*
X58250Y-36250D03*
X58500Y-37000D03*
X59400Y-32350D03*
X57250Y-31750D03*
X58250Y-36750D03*
X57000Y-32250D03*
X58500Y-36500D03*
X59750Y-36000D03*
X61500Y-38150D03*
X57250Y-31500D03*
X59500Y-36750D03*
X58500Y-36250D03*
X60000Y-36750D03*
X60000Y-36250D03*
X57250Y-33000D03*
X59250Y-36250D03*
X59400Y-32100D03*
X60000Y-36000D03*
X57000Y-32500D03*
X57000Y-32000D03*
X58900Y-31850D03*
X59400Y-31850D03*
X58500Y-36750D03*
X58250Y-37000D03*
X59250Y-36000D03*
X57250Y-32750D03*
X59750Y-36750D03*
X59250Y-36500D03*
X58500Y-37250D03*
X57000Y-33000D03*
X58250Y-36000D03*
X59150Y-32600D03*
X61750Y-38650D03*
X61750Y-38900D03*
X57250Y-32250D03*
X61750Y-38400D03*
X58250Y-36500D03*
X59250Y-36750D03*
X59750Y-36250D03*
X58900Y-32350D03*
X61500Y-38400D03*
X61500Y-38650D03*
X61750Y-38150D03*
X59400Y-32600D03*
X57250Y-32000D03*
X59150Y-32100D03*
X58900Y-32100D03*
X59500Y-36500D03*
X59500Y-36000D03*
X57000Y-31500D03*
X57250Y-32500D03*
X58900Y-32600D03*
X57000Y-32750D03*
X57000Y-31750D03*
X59150Y-32350D03*
X59500Y-36250D03*
X59150Y-31850D03*
X60000Y-36500D03*
X57250Y-31250D03*
X59750Y-36500D03*
G54D17*
X57700Y-36550D02*
X57700Y-35225D01*
X57725Y-36575D02*
X57700Y-36550D01*
X64450Y-33900D02*
X64450Y-35054D01*
X65496Y-36100D02*
X66550Y-36100D01*
X64450Y-35054D02*
X65496Y-36100D01*
X51550Y-35100D02*
X52050Y-35600D01*
X53450Y-35600D02*
X53700Y-35850D01*
X52050Y-35600D02*
X53450Y-35600D01*
X52868Y-35418D02*
X53668Y-35418D01*
X53900Y-35650D02*
X54630Y-35650D01*
X53668Y-35418D02*
X53900Y-35650D01*
X52550Y-35100D02*
X52868Y-35418D01*
X51550Y-38058D02*
X50918Y-37426D01*
X50918Y-34624D02*
X51342Y-34200D01*
X54850Y-34200D02*
X55300Y-34650D01*
X50918Y-37426D02*
X50918Y-34624D01*
X51550Y-38100D02*
X51550Y-38058D01*
X51342Y-34200D02*
X54850Y-34200D01*
X51350Y-37600D02*
X52050Y-37600D01*
X51100Y-34700D02*
X51100Y-37350D01*
X52050Y-37600D02*
X52550Y-38100D01*
X51100Y-37350D02*
X51350Y-37600D01*
X55350Y-35000D02*
X55200Y-35150D01*
X53400Y-35150D02*
X52800Y-34550D01*
X51250Y-34550D02*
X51100Y-34700D01*
X55200Y-35150D02*
X53400Y-35150D01*
X52800Y-34550D02*
X51250Y-34550D01*
X55450Y-35600D02*
X54900Y-36150D01*
X53050Y-36600D02*
X53050Y-38600D01*
X53050Y-38600D02*
X52550Y-39100D01*
X54900Y-36150D02*
X53500Y-36150D01*
X53500Y-36150D02*
X53050Y-36600D01*
X53625Y-37150D02*
X53232Y-37543D01*
X54700Y-37150D02*
X53625Y-37150D01*
X53232Y-39418D02*
X52550Y-40100D01*
X53232Y-37543D02*
X53232Y-39418D01*
X54925Y-36925D02*
X54700Y-37150D01*
X55200Y-36450D02*
X54925Y-36725D01*
X54925Y-36725D02*
X54925Y-36925D01*
X59360Y-33326D02*
X59786Y-32900D01*
X59360Y-34798D02*
X59360Y-33326D01*
X60860Y-38100D02*
X60860Y-36298D01*
X60550Y-28600D02*
X61050Y-28100D01*
X59786Y-32900D02*
X59786Y-30106D01*
X60860Y-36298D02*
X59360Y-34798D01*
X59786Y-30106D02*
X60550Y-29342D01*
X60550Y-29342D02*
X60550Y-28600D01*
X59975Y-33500D02*
X60150Y-33325D01*
X60150Y-33325D02*
X60150Y-30258D01*
X60866Y-29542D02*
X60150Y-30258D01*
X61358Y-29542D02*
X60866Y-29542D01*
X59625Y-33425D02*
X59700Y-33500D01*
X61550Y-29350D02*
X61550Y-28600D01*
X61550Y-29350D02*
X61358Y-29542D01*
X62050Y-28100D02*
X61550Y-28600D01*
X59700Y-33500D02*
X59975Y-33500D01*
X52050Y-29100D02*
X52050Y-31600D01*
X52050Y-31600D02*
X52550Y-32100D01*
X53050Y-29100D02*
X53050Y-31600D01*
X53050Y-31600D02*
X53550Y-32100D01*
X55550Y-32100D02*
X56050Y-31600D01*
X56050Y-31600D02*
X56050Y-29100D01*
X54050Y-29100D02*
X54050Y-31600D01*
X54050Y-31600D02*
X54550Y-32100D01*
X56035Y-44935D02*
X56035Y-44240D01*
X56517Y-43758D02*
X57727Y-43758D01*
X59914Y-39336D02*
X60589Y-39336D01*
X56550Y-45450D02*
X56035Y-44935D01*
X58516Y-40733D02*
X58517Y-40733D01*
X60589Y-39336D02*
X60590Y-39335D01*
X58517Y-40733D02*
X59914Y-39336D01*
X57727Y-43758D02*
X58516Y-42969D01*
X56035Y-44240D02*
X56517Y-43758D01*
X58516Y-42969D02*
X58516Y-40733D01*
X56985Y-45965D02*
X56095Y-45965D01*
X58334Y-42894D02*
X58334Y-40659D01*
X58334Y-40659D02*
X59923Y-39070D01*
X57065Y-45885D02*
X56985Y-45965D01*
X60690Y-39070D02*
X62080Y-40460D01*
X56441Y-43576D02*
X57652Y-43576D01*
X59923Y-39070D02*
X60690Y-39070D01*
X57652Y-43576D02*
X58334Y-42894D01*
X62080Y-40460D02*
X62080Y-40470D01*
X55853Y-45723D02*
X55853Y-44164D01*
X56095Y-45965D02*
X55853Y-45723D01*
X55853Y-44164D02*
X56441Y-43576D01*
X57065Y-44965D02*
X57065Y-45885D01*
X57065Y-44965D02*
X56550Y-44450D01*
X58698Y-43044D02*
X58698Y-40809D01*
X58698Y-40809D02*
X59989Y-39518D01*
X59989Y-39518D02*
X60381Y-39518D01*
X57550Y-45165D02*
X57550Y-45450D01*
X60827Y-39587D02*
X62150Y-40910D01*
X57335Y-43940D02*
X57802Y-43940D01*
X57045Y-44230D02*
X57053Y-44222D01*
X60450Y-39587D02*
X60827Y-39587D01*
X57053Y-44668D02*
X57550Y-45165D01*
X57053Y-44222D02*
X57053Y-44668D01*
X60450Y-39587D02*
X60454Y-39591D01*
X57802Y-43940D02*
X58698Y-43044D01*
X62150Y-40910D02*
X62260Y-40910D01*
X57053Y-44222D02*
X57335Y-43940D01*
X60381Y-39518D02*
X60450Y-39587D01*
X58880Y-43120D02*
X57550Y-44450D01*
X58880Y-40885D02*
X60065Y-39700D01*
X62305Y-41323D02*
X62305Y-41345D01*
X60305Y-39700D02*
X60378Y-39773D01*
X60378Y-39773D02*
X60755Y-39773D01*
X60755Y-39773D02*
X62305Y-41323D01*
X58880Y-43120D02*
X58880Y-40885D01*
X60065Y-39700D02*
X60305Y-39700D01*
X60550Y-45450D02*
X61050Y-44950D01*
X61686Y-43573D02*
X61686Y-41478D01*
X61050Y-44950D02*
X61050Y-44209D01*
X60678Y-40470D02*
X59745Y-40470D01*
X61686Y-41478D02*
X60678Y-40470D01*
X61050Y-44209D02*
X61686Y-43573D01*
X60000Y-40725D02*
X60675Y-40725D01*
X61504Y-41554D02*
X61504Y-43496D01*
X60675Y-40725D02*
X61504Y-41554D01*
X60550Y-44450D02*
X61504Y-43496D01*
X62050Y-44950D02*
X62050Y-41326D01*
X62050Y-44950D02*
X61550Y-45450D01*
X60679Y-39955D02*
X62050Y-41326D01*
X60195Y-39955D02*
X60679Y-39955D01*
X61550Y-44450D02*
X61868Y-44132D01*
X60681Y-40215D02*
X60450Y-40215D01*
X61868Y-44132D02*
X61868Y-41402D01*
X61868Y-41402D02*
X60681Y-40215D01*
X60766Y-38888D02*
X62088Y-40210D01*
X63045Y-44945D02*
X63550Y-45450D01*
X62088Y-40210D02*
X62185Y-40210D01*
X59656Y-39080D02*
X59848Y-38888D01*
X57620Y-39080D02*
X59656Y-39080D01*
X62560Y-40585D02*
X62560Y-43695D01*
X62185Y-40210D02*
X62560Y-40585D01*
X62560Y-43695D02*
X63045Y-44180D01*
X63045Y-44180D02*
X63045Y-44945D01*
X59848Y-38888D02*
X60766Y-38888D01*
X59740Y-34920D02*
X61120Y-36300D01*
X60332Y-33401D02*
X60332Y-30335D01*
X62550Y-29375D02*
X62201Y-29724D01*
X59740Y-34510D02*
X59740Y-34920D01*
X62550Y-29375D02*
X62550Y-28600D01*
X60940Y-38440D02*
X57400Y-38440D01*
X57400Y-38440D02*
X56190Y-39650D01*
X59740Y-33993D02*
X60332Y-33401D01*
X61120Y-36300D02*
X61120Y-38260D01*
X56190Y-39650D02*
X54630Y-39650D01*
X61120Y-38260D02*
X60940Y-38440D01*
X60943Y-29724D02*
X60332Y-30335D01*
X59740Y-34510D02*
X59740Y-33993D01*
X62201Y-29724D02*
X60943Y-29724D01*
X63050Y-28100D02*
X62550Y-28600D01*
X59968Y-30182D02*
X61050Y-29100D01*
X59875Y-33225D02*
X59968Y-33132D01*
X59968Y-33132D02*
X59968Y-30182D01*
X60060Y-34510D02*
X60060Y-33932D01*
X60060Y-33932D02*
X60520Y-33472D01*
X60520Y-33472D02*
X60520Y-30520D01*
X60520Y-30520D02*
X60880Y-30160D01*
X57450Y-37850D02*
X56854Y-37254D01*
X56330Y-28100D02*
X56050Y-28100D01*
X56854Y-37254D02*
X56854Y-33698D01*
X58150Y-37850D02*
X57450Y-37850D01*
X56500Y-29850D02*
X56500Y-33344D01*
X57270Y-29610D02*
X56740Y-29610D01*
X57350Y-28600D02*
X57540Y-28790D01*
X56854Y-33698D02*
X56500Y-33344D01*
X56830Y-28600D02*
X57350Y-28600D01*
X57540Y-29340D02*
X57270Y-29610D01*
X57540Y-28790D02*
X57540Y-29340D01*
X56740Y-29610D02*
X56500Y-29850D01*
X56330Y-28100D02*
X56830Y-28600D01*
X57358Y-37500D02*
X57040Y-37182D01*
X58550Y-28600D02*
X58550Y-29340D01*
X57040Y-33626D02*
X57040Y-37182D01*
X58250Y-37500D02*
X57358Y-37500D01*
X58550Y-28600D02*
X58050Y-28100D01*
X56700Y-29946D02*
X56700Y-33286D01*
X56700Y-33286D02*
X57040Y-33626D01*
X58280Y-29610D02*
X57528Y-29610D01*
X56854Y-29792D02*
X56700Y-29946D01*
X57528Y-29610D02*
X57346Y-29792D01*
X57346Y-29792D02*
X56854Y-29792D01*
X58600Y-37850D02*
X58250Y-37500D01*
X58550Y-29340D02*
X58280Y-29610D01*
X56550Y-28800D02*
X56550Y-29490D01*
X55330Y-28100D02*
X55830Y-28600D01*
X56350Y-28600D02*
X56550Y-28800D01*
X56232Y-29808D02*
X56232Y-33334D01*
X56550Y-29490D02*
X56232Y-29808D01*
X55330Y-28100D02*
X55050Y-28100D01*
X56750Y-37640D02*
X56750Y-37850D01*
X56672Y-33774D02*
X56672Y-37562D01*
X56232Y-33334D02*
X56672Y-33774D01*
X55830Y-28600D02*
X56350Y-28600D01*
X56750Y-37850D02*
X56500Y-38100D01*
X56672Y-37562D02*
X56750Y-37640D01*
X60390Y-34510D02*
X60390Y-33860D01*
X60390Y-33860D02*
X60702Y-33548D01*
X60702Y-33548D02*
X60702Y-30788D01*
X61170Y-30320D02*
X61170Y-29990D01*
X60702Y-30788D02*
X61170Y-30320D01*
X55050Y-30850D02*
X55050Y-32410D01*
X54550Y-30350D02*
X55050Y-30850D01*
X54050Y-28100D02*
X54550Y-28600D01*
X54550Y-28600D02*
X54550Y-30350D01*
X55050Y-32410D02*
X56490Y-33850D01*
X56490Y-37740D02*
X56490Y-33850D01*
G54D18*
X52050Y-28100D02*
X51550Y-28600D01*
X51050Y-28100D02*
X51550Y-28600D01*
X51550Y-29600D02*
X51050Y-30100D01*
X52050Y-28100D02*
X51050Y-28100D01*
X51550Y-28600D02*
X51550Y-29600D01*
G54D17*
X65924Y-38074D02*
X65924Y-38474D01*
X65924Y-38474D02*
X66550Y-39100D01*
X61750Y-33900D02*
X65924Y-38074D01*
X66428Y-38600D02*
X67050Y-38600D01*
X62210Y-33900D02*
X62200Y-33900D01*
X62200Y-34092D02*
X66106Y-37998D01*
X66106Y-37998D02*
X66106Y-38278D01*
X66106Y-38278D02*
X66428Y-38600D01*
X67050Y-38600D02*
X67550Y-39100D01*
X62200Y-33900D02*
X62200Y-34092D01*
X62650Y-34284D02*
X66466Y-38100D01*
X66466Y-38100D02*
X66550Y-38100D01*
X62650Y-33900D02*
X62650Y-34284D01*
X63100Y-34476D02*
X66226Y-37602D01*
X67550Y-38100D02*
X67052Y-37602D01*
X66226Y-37602D02*
X67052Y-37602D01*
X63100Y-33900D02*
X63100Y-34476D01*
X67052Y-37602D02*
X67050Y-37600D01*
X63550Y-34670D02*
X65980Y-37100D01*
X65980Y-37100D02*
X66550Y-37100D01*
X63550Y-33900D02*
X63550Y-34670D01*
X64000Y-34862D02*
X65738Y-36600D01*
X65738Y-36600D02*
X67050Y-36600D01*
X67050Y-36600D02*
X67550Y-37100D01*
X64000Y-33900D02*
X64000Y-34862D01*
X57250Y-32000D02*
X57250Y-32250D01*
X59150Y-32350D02*
X59150Y-32100D01*
X58500Y-36500D02*
X58500Y-36750D01*
X59150Y-31850D02*
X58900Y-31850D01*
X58900Y-32100D02*
X58900Y-32350D01*
X59500Y-36500D02*
X59750Y-36500D01*
X59750Y-36750D02*
X59500Y-36750D01*
X58250Y-37000D02*
X58500Y-37250D01*
X58750Y-36000D02*
X59250Y-36000D01*
X58500Y-36250D02*
X58750Y-36000D01*
X59250Y-36750D02*
X59250Y-36500D01*
X60000Y-36000D02*
X60000Y-36250D01*
X57000Y-31750D02*
X57000Y-32000D01*
X61750Y-38400D02*
X61750Y-38150D01*
X58250Y-36000D02*
X58500Y-36250D01*
X61350Y-38800D02*
X61300Y-38800D01*
X61500Y-38650D02*
X61350Y-38800D01*
X55050Y-29100D02*
X55550Y-29600D01*
X60000Y-36500D02*
X60000Y-36750D01*
X57000Y-32250D02*
X57000Y-32500D01*
X61500Y-38150D02*
X61500Y-38400D01*
X59400Y-32350D02*
X59400Y-32600D01*
X58900Y-32600D02*
X59150Y-32600D01*
X58250Y-36500D02*
X58250Y-36250D01*
X58500Y-37000D02*
X58250Y-36750D01*
X59400Y-31850D02*
X59400Y-32100D01*
X57000Y-32750D02*
X57000Y-33000D01*
X61750Y-38900D02*
X61750Y-38650D01*
X57250Y-31500D02*
X57250Y-31750D01*
X57000Y-31500D02*
X57250Y-31250D01*
X59500Y-36000D02*
X59750Y-36000D01*
X57250Y-32500D02*
X57250Y-32750D01*
X55550Y-29600D02*
X55550Y-31100D01*
X59750Y-36250D02*
X59500Y-36250D01*
G54D10*
G36*
X55621Y-31100D02*
X55550Y-31171D01*
X55479Y-31100D01*
X55550Y-31029D01*
X55621Y-31100D01*
X55621Y-31100D01*
G37*
G54D17*
X55621Y-31100D02*
X55550Y-31171D01*
X55479Y-31100D01*
X55550Y-31029D01*
X55621Y-31100D01*
G54D10*
G36*
X55830Y-30627D02*
X55629Y-30557D01*
X55416Y-30568D01*
X55269Y-30628D01*
X55257Y-30666D01*
X55225Y-30634D01*
X55185Y-30673D01*
X54770Y-30258D01*
X54770Y-29572D01*
X54971Y-29643D01*
X55184Y-29632D01*
X55331Y-29572D01*
X55358Y-29478D01*
X55085Y-29206D01*
X55050Y-29171D01*
X54979Y-29100D01*
X55050Y-29029D01*
X55085Y-28994D01*
X55358Y-28722D01*
X55331Y-28628D01*
X55153Y-28565D01*
X55316Y-28499D01*
X55366Y-28448D01*
X55672Y-28753D01*
X55674Y-28756D01*
X55707Y-28777D01*
X55652Y-28833D01*
X55583Y-28997D01*
X55582Y-28966D01*
X55522Y-28819D01*
X55428Y-28792D01*
X55121Y-29100D01*
X55428Y-29408D01*
X55522Y-29381D01*
X55584Y-29203D01*
X55651Y-29366D01*
X55783Y-29498D01*
X55830Y-29517D01*
X55830Y-30627D01*
X55830Y-30627D01*
G37*
G54D17*
X55830Y-30627D02*
X55629Y-30557D01*
X55416Y-30568D01*
X55269Y-30628D01*
X55257Y-30666D01*
X55225Y-30634D01*
X55185Y-30673D01*
X54770Y-30258D01*
X54770Y-29572D01*
X54971Y-29643D01*
X55184Y-29632D01*
X55331Y-29572D01*
X55358Y-29478D01*
X55085Y-29206D01*
X55050Y-29171D01*
X54979Y-29100D01*
X55050Y-29029D01*
X55085Y-28994D01*
X55358Y-28722D01*
X55331Y-28628D01*
X55153Y-28565D01*
X55316Y-28499D01*
X55366Y-28448D01*
X55672Y-28753D01*
X55674Y-28756D01*
X55707Y-28777D01*
X55652Y-28833D01*
X55583Y-28997D01*
X55582Y-28966D01*
X55522Y-28819D01*
X55428Y-28792D01*
X55121Y-29100D01*
X55428Y-29408D01*
X55522Y-29381D01*
X55584Y-29203D01*
X55651Y-29366D01*
X55783Y-29498D01*
X55830Y-29517D01*
X55830Y-30627D01*
G54D10*
G36*
X69300Y-46550D02*
X68515Y-46550D01*
X68515Y-44429D01*
X68515Y-44361D01*
X68515Y-43771D01*
X68489Y-43709D01*
X68441Y-43661D01*
X68379Y-43635D01*
X68311Y-43635D01*
X68020Y-43635D01*
X68020Y-40434D01*
X68020Y-40366D01*
X68020Y-39766D01*
X68020Y-39194D01*
X68020Y-39007D01*
X67949Y-38834D01*
X67817Y-38702D01*
X67644Y-38630D01*
X67457Y-38630D01*
X67410Y-38649D01*
X67206Y-38444D01*
X67134Y-38397D01*
X67050Y-38379D01*
X67045Y-38380D01*
X66935Y-38380D01*
X66948Y-38367D01*
X67020Y-38194D01*
X67020Y-38007D01*
X66949Y-37834D01*
X66937Y-37822D01*
X66960Y-37822D01*
X67098Y-37960D01*
X67080Y-38006D01*
X67080Y-38193D01*
X67151Y-38366D01*
X67283Y-38498D01*
X67456Y-38570D01*
X67643Y-38570D01*
X67816Y-38499D01*
X67948Y-38367D01*
X68020Y-38194D01*
X68020Y-38007D01*
X67949Y-37834D01*
X67817Y-37702D01*
X67644Y-37630D01*
X67457Y-37630D01*
X67410Y-37649D01*
X67208Y-37446D01*
X67206Y-37445D01*
X67206Y-37444D01*
X67134Y-37397D01*
X67050Y-37379D01*
X67036Y-37382D01*
X66933Y-37382D01*
X66948Y-37367D01*
X67020Y-37194D01*
X67020Y-37007D01*
X66949Y-36834D01*
X66935Y-36820D01*
X66958Y-36820D01*
X67098Y-36960D01*
X67080Y-37006D01*
X67080Y-37193D01*
X67151Y-37366D01*
X67283Y-37498D01*
X67456Y-37570D01*
X67643Y-37570D01*
X67816Y-37499D01*
X67948Y-37367D01*
X68020Y-37194D01*
X68020Y-37007D01*
X68020Y-36194D01*
X68020Y-36007D01*
X67949Y-35834D01*
X67817Y-35702D01*
X67644Y-35630D01*
X67457Y-35630D01*
X67284Y-35701D01*
X67152Y-35833D01*
X67080Y-36006D01*
X67080Y-36193D01*
X67151Y-36366D01*
X67283Y-36498D01*
X67456Y-36570D01*
X67643Y-36570D01*
X67816Y-36499D01*
X67948Y-36367D01*
X68020Y-36194D01*
X68020Y-37007D01*
X67949Y-36834D01*
X67817Y-36702D01*
X67644Y-36630D01*
X67457Y-36630D01*
X67410Y-36649D01*
X67206Y-36444D01*
X67134Y-36397D01*
X67050Y-36379D01*
X67045Y-36380D01*
X66935Y-36380D01*
X66948Y-36367D01*
X67020Y-36194D01*
X67020Y-36007D01*
X66949Y-35834D01*
X66817Y-35702D01*
X66644Y-35630D01*
X66457Y-35630D01*
X66284Y-35701D01*
X66152Y-35833D01*
X66132Y-35880D01*
X65587Y-35880D01*
X64670Y-34962D01*
X64670Y-34088D01*
X64695Y-34064D01*
X64739Y-33958D01*
X64739Y-33843D01*
X64695Y-33737D01*
X64614Y-33655D01*
X64508Y-33611D01*
X64393Y-33611D01*
X64287Y-33655D01*
X64224Y-33716D01*
X64164Y-33655D01*
X64058Y-33611D01*
X63943Y-33611D01*
X63837Y-33655D01*
X63774Y-33716D01*
X63714Y-33655D01*
X63608Y-33611D01*
X63593Y-33611D01*
X63593Y-29179D01*
X63582Y-28966D01*
X63522Y-28819D01*
X63520Y-28818D01*
X63520Y-28194D01*
X63520Y-28007D01*
X63449Y-27834D01*
X63317Y-27702D01*
X63144Y-27630D01*
X62957Y-27630D01*
X62784Y-27701D01*
X62652Y-27833D01*
X62580Y-28006D01*
X62580Y-28193D01*
X62599Y-28239D01*
X62394Y-28444D01*
X62347Y-28516D01*
X62329Y-28600D01*
X62330Y-28604D01*
X62330Y-28715D01*
X62317Y-28702D01*
X62144Y-28630D01*
X61957Y-28630D01*
X61784Y-28701D01*
X61770Y-28715D01*
X61770Y-28691D01*
X61910Y-28551D01*
X61956Y-28570D01*
X62143Y-28570D01*
X62316Y-28499D01*
X62448Y-28367D01*
X62520Y-28194D01*
X62520Y-28007D01*
X62449Y-27834D01*
X62317Y-27702D01*
X62144Y-27630D01*
X61957Y-27630D01*
X61784Y-27701D01*
X61652Y-27833D01*
X61580Y-28006D01*
X61580Y-28193D01*
X61599Y-28239D01*
X61394Y-28444D01*
X61347Y-28516D01*
X61329Y-28600D01*
X61330Y-28604D01*
X61330Y-28715D01*
X61317Y-28702D01*
X61144Y-28630D01*
X60957Y-28630D01*
X60784Y-28701D01*
X60770Y-28715D01*
X60770Y-28691D01*
X60910Y-28551D01*
X60956Y-28570D01*
X61143Y-28570D01*
X61316Y-28499D01*
X61448Y-28367D01*
X61520Y-28194D01*
X61520Y-28007D01*
X61449Y-27834D01*
X61317Y-27702D01*
X61144Y-27630D01*
X60957Y-27630D01*
X60784Y-27701D01*
X60652Y-27833D01*
X60583Y-27997D01*
X60582Y-27966D01*
X60522Y-27819D01*
X60428Y-27792D01*
X60358Y-27862D01*
X60358Y-27722D01*
X60331Y-27628D01*
X60129Y-27557D01*
X59916Y-27568D01*
X59769Y-27628D01*
X59742Y-27722D01*
X60050Y-28029D01*
X60358Y-27722D01*
X60358Y-27862D01*
X60121Y-28100D01*
X60050Y-28171D01*
X59979Y-28241D01*
X59979Y-28100D01*
X59672Y-27792D01*
X59578Y-27819D01*
X59515Y-27996D01*
X59449Y-27834D01*
X59317Y-27702D01*
X59144Y-27630D01*
X58957Y-27630D01*
X58784Y-27701D01*
X58652Y-27833D01*
X58580Y-28006D01*
X58580Y-28193D01*
X58651Y-28366D01*
X58783Y-28498D01*
X58956Y-28570D01*
X59143Y-28570D01*
X59316Y-28499D01*
X59448Y-28367D01*
X59516Y-28202D01*
X59518Y-28234D01*
X59578Y-28381D01*
X59672Y-28408D01*
X59979Y-28100D01*
X59979Y-28241D01*
X59742Y-28478D01*
X59769Y-28572D01*
X59946Y-28634D01*
X59784Y-28701D01*
X59652Y-28833D01*
X59580Y-29006D01*
X59580Y-29193D01*
X59651Y-29366D01*
X59783Y-29498D01*
X59956Y-29570D01*
X60010Y-29570D01*
X59630Y-29950D01*
X59583Y-30022D01*
X59565Y-30106D01*
X59566Y-30110D01*
X59566Y-32808D01*
X59520Y-32854D01*
X59520Y-29194D01*
X59520Y-29007D01*
X59449Y-28834D01*
X59317Y-28702D01*
X59144Y-28630D01*
X58957Y-28630D01*
X58784Y-28701D01*
X58770Y-28715D01*
X58770Y-28604D01*
X58770Y-28600D01*
X58771Y-28600D01*
X58753Y-28516D01*
X58706Y-28444D01*
X58703Y-28442D01*
X58501Y-28239D01*
X58520Y-28194D01*
X58520Y-28007D01*
X58449Y-27834D01*
X58317Y-27702D01*
X58144Y-27630D01*
X57957Y-27630D01*
X57784Y-27701D01*
X57652Y-27833D01*
X57583Y-27997D01*
X57582Y-27966D01*
X57522Y-27819D01*
X57428Y-27792D01*
X57358Y-27862D01*
X57358Y-27722D01*
X57331Y-27628D01*
X57129Y-27557D01*
X56916Y-27568D01*
X56769Y-27628D01*
X56742Y-27722D01*
X57050Y-28029D01*
X57358Y-27722D01*
X57358Y-27862D01*
X57121Y-28100D01*
X57050Y-28171D01*
X56979Y-28100D01*
X56944Y-28065D01*
X56672Y-27792D01*
X56578Y-27819D01*
X56521Y-27979D01*
X56499Y-27957D01*
X56449Y-27834D01*
X56317Y-27702D01*
X56144Y-27630D01*
X55957Y-27630D01*
X55784Y-27701D01*
X55652Y-27833D01*
X55580Y-28006D01*
X55580Y-28038D01*
X55499Y-27957D01*
X55449Y-27834D01*
X55317Y-27702D01*
X55144Y-27630D01*
X54957Y-27630D01*
X54784Y-27701D01*
X54652Y-27833D01*
X54580Y-28006D01*
X54580Y-28193D01*
X54651Y-28366D01*
X54783Y-28498D01*
X54947Y-28566D01*
X54916Y-28568D01*
X54770Y-28627D01*
X54770Y-28604D01*
X54770Y-28600D01*
X54771Y-28600D01*
X54753Y-28516D01*
X54706Y-28444D01*
X54703Y-28442D01*
X54501Y-28239D01*
X54520Y-28194D01*
X54520Y-28007D01*
X54449Y-27834D01*
X54317Y-27702D01*
X54144Y-27630D01*
X53957Y-27630D01*
X53784Y-27701D01*
X53652Y-27833D01*
X53583Y-27997D01*
X53582Y-27966D01*
X53522Y-27819D01*
X53428Y-27792D01*
X53358Y-27862D01*
X53358Y-27722D01*
X53331Y-27628D01*
X53129Y-27557D01*
X52916Y-27568D01*
X52769Y-27628D01*
X52742Y-27722D01*
X53050Y-28029D01*
X53358Y-27722D01*
X53358Y-27862D01*
X53121Y-28100D01*
X53428Y-28408D01*
X53522Y-28381D01*
X53584Y-28203D01*
X53651Y-28366D01*
X53783Y-28498D01*
X53956Y-28570D01*
X54143Y-28570D01*
X54189Y-28550D01*
X54330Y-28691D01*
X54330Y-28715D01*
X54317Y-28702D01*
X54144Y-28630D01*
X53957Y-28630D01*
X53784Y-28701D01*
X53652Y-28833D01*
X53580Y-29006D01*
X53580Y-29193D01*
X53651Y-29366D01*
X53783Y-29498D01*
X53830Y-29517D01*
X53830Y-30715D01*
X53817Y-30702D01*
X53644Y-30630D01*
X53457Y-30630D01*
X53284Y-30701D01*
X53270Y-30715D01*
X53270Y-29517D01*
X53316Y-29499D01*
X53448Y-29367D01*
X53520Y-29194D01*
X53520Y-29007D01*
X53449Y-28834D01*
X53317Y-28702D01*
X53152Y-28633D01*
X53184Y-28632D01*
X53331Y-28572D01*
X53358Y-28478D01*
X53050Y-28171D01*
X52742Y-28478D01*
X52769Y-28572D01*
X52946Y-28634D01*
X52784Y-28701D01*
X52652Y-28833D01*
X52580Y-29006D01*
X52580Y-29193D01*
X52651Y-29366D01*
X52783Y-29498D01*
X52830Y-29517D01*
X52830Y-30715D01*
X52817Y-30702D01*
X52644Y-30630D01*
X52457Y-30630D01*
X52284Y-30701D01*
X52270Y-30715D01*
X52270Y-29517D01*
X52316Y-29499D01*
X52448Y-29367D01*
X52520Y-29194D01*
X52520Y-29007D01*
X52449Y-28834D01*
X52317Y-28702D01*
X52144Y-28630D01*
X51957Y-28630D01*
X51863Y-28668D01*
X51962Y-28570D01*
X52143Y-28570D01*
X52316Y-28499D01*
X52448Y-28367D01*
X52516Y-28202D01*
X52518Y-28234D01*
X52578Y-28381D01*
X52672Y-28408D01*
X52979Y-28100D01*
X52672Y-27792D01*
X52578Y-27819D01*
X52515Y-27996D01*
X52449Y-27834D01*
X52317Y-27702D01*
X52144Y-27630D01*
X51957Y-27630D01*
X51784Y-27701D01*
X51655Y-27830D01*
X51445Y-27830D01*
X51317Y-27702D01*
X51144Y-27630D01*
X50957Y-27630D01*
X50784Y-27701D01*
X50652Y-27833D01*
X50580Y-28006D01*
X50580Y-28193D01*
X50651Y-28366D01*
X50783Y-28498D01*
X50956Y-28570D01*
X51138Y-28570D01*
X51198Y-28630D01*
X50716Y-28630D01*
X50654Y-28656D01*
X50606Y-28704D01*
X50580Y-28766D01*
X50580Y-28834D01*
X50580Y-29434D01*
X50606Y-29496D01*
X50654Y-29544D01*
X50716Y-29570D01*
X50784Y-29570D01*
X51198Y-29570D01*
X51138Y-29630D01*
X50957Y-29630D01*
X50784Y-29701D01*
X50652Y-29833D01*
X50580Y-30006D01*
X50580Y-30193D01*
X50651Y-30366D01*
X50783Y-30498D01*
X50956Y-30570D01*
X51143Y-30570D01*
X51316Y-30499D01*
X51448Y-30367D01*
X51520Y-30194D01*
X51520Y-30012D01*
X51741Y-29791D01*
X51799Y-29703D01*
X51820Y-29600D01*
X51820Y-29513D01*
X51830Y-29517D01*
X51830Y-31595D01*
X51829Y-31600D01*
X51847Y-31684D01*
X51894Y-31756D01*
X52080Y-31941D01*
X52080Y-32434D01*
X52106Y-32496D01*
X52154Y-32544D01*
X52216Y-32570D01*
X52284Y-32570D01*
X52884Y-32570D01*
X52946Y-32544D01*
X52994Y-32496D01*
X53020Y-32434D01*
X53020Y-32366D01*
X53020Y-31881D01*
X53098Y-31960D01*
X53080Y-32006D01*
X53080Y-32193D01*
X53151Y-32366D01*
X53283Y-32498D01*
X53456Y-32570D01*
X53643Y-32570D01*
X53816Y-32499D01*
X53948Y-32367D01*
X54020Y-32194D01*
X54020Y-32007D01*
X53949Y-31834D01*
X53817Y-31702D01*
X53644Y-31630D01*
X53457Y-31630D01*
X53410Y-31649D01*
X53270Y-31508D01*
X53270Y-31485D01*
X53283Y-31498D01*
X53456Y-31570D01*
X53643Y-31570D01*
X53816Y-31499D01*
X53830Y-31485D01*
X53830Y-31595D01*
X53829Y-31600D01*
X53847Y-31684D01*
X53894Y-31756D01*
X54098Y-31960D01*
X54080Y-32006D01*
X54080Y-32193D01*
X54151Y-32366D01*
X54283Y-32498D01*
X54456Y-32570D01*
X54643Y-32570D01*
X54816Y-32499D01*
X54842Y-32472D01*
X54847Y-32494D01*
X54894Y-32566D01*
X56270Y-33941D01*
X56270Y-37551D01*
X56245Y-37576D01*
X56201Y-37682D01*
X56201Y-37797D01*
X56245Y-37903D01*
X56266Y-37924D01*
X56255Y-37936D01*
X56211Y-38042D01*
X56211Y-38157D01*
X56255Y-38263D01*
X56336Y-38345D01*
X56442Y-38389D01*
X56557Y-38389D01*
X56663Y-38345D01*
X56745Y-38264D01*
X56789Y-38158D01*
X56789Y-38122D01*
X56903Y-38007D01*
X56905Y-38006D01*
X56906Y-38006D01*
X56934Y-37963D01*
X56953Y-37935D01*
X56953Y-37934D01*
X56970Y-37850D01*
X56970Y-37681D01*
X57292Y-38003D01*
X57294Y-38006D01*
X57365Y-38052D01*
X57366Y-38053D01*
X57432Y-38066D01*
X57449Y-38070D01*
X57449Y-38069D01*
X57450Y-38070D01*
X57961Y-38070D01*
X57986Y-38095D01*
X58092Y-38139D01*
X58207Y-38139D01*
X58313Y-38095D01*
X58375Y-38033D01*
X58436Y-38095D01*
X58542Y-38139D01*
X58657Y-38139D01*
X58763Y-38095D01*
X58845Y-38014D01*
X58889Y-37908D01*
X58889Y-37793D01*
X58845Y-37687D01*
X58764Y-37605D01*
X58658Y-37561D01*
X58622Y-37561D01*
X58406Y-37344D01*
X58334Y-37297D01*
X58250Y-37279D01*
X58245Y-37280D01*
X58014Y-37280D01*
X58014Y-36633D01*
X58014Y-36518D01*
X57970Y-36412D01*
X57920Y-36361D01*
X57920Y-35413D01*
X57945Y-35389D01*
X57989Y-35283D01*
X57989Y-35168D01*
X57945Y-35062D01*
X57864Y-34980D01*
X57758Y-34936D01*
X57643Y-34936D01*
X57537Y-34980D01*
X57455Y-35061D01*
X57411Y-35167D01*
X57411Y-35282D01*
X57455Y-35388D01*
X57480Y-35413D01*
X57480Y-36411D01*
X57436Y-36517D01*
X57436Y-36632D01*
X57480Y-36738D01*
X57561Y-36820D01*
X57667Y-36864D01*
X57782Y-36864D01*
X57888Y-36820D01*
X57970Y-36739D01*
X58014Y-36633D01*
X58014Y-37280D01*
X57449Y-37280D01*
X57260Y-37090D01*
X57260Y-33626D01*
X57259Y-33625D01*
X57260Y-33625D01*
X57256Y-33608D01*
X57243Y-33542D01*
X57242Y-33541D01*
X57196Y-33470D01*
X57193Y-33468D01*
X56920Y-33194D01*
X56920Y-30037D01*
X56945Y-30012D01*
X57341Y-30012D01*
X57346Y-30013D01*
X57346Y-30012D01*
X57430Y-29995D01*
X57502Y-29948D01*
X57619Y-29830D01*
X58275Y-29830D01*
X58280Y-29831D01*
X58280Y-29830D01*
X58364Y-29813D01*
X58436Y-29766D01*
X58703Y-29497D01*
X58705Y-29496D01*
X58706Y-29496D01*
X58735Y-29450D01*
X58783Y-29498D01*
X58956Y-29570D01*
X59143Y-29570D01*
X59316Y-29499D01*
X59448Y-29367D01*
X59520Y-29194D01*
X59520Y-32854D01*
X59204Y-33170D01*
X59157Y-33242D01*
X59139Y-33326D01*
X59140Y-33330D01*
X59140Y-34793D01*
X59139Y-34798D01*
X59157Y-34882D01*
X59204Y-34954D01*
X60640Y-36389D01*
X60640Y-37911D01*
X60615Y-37936D01*
X60571Y-38042D01*
X60571Y-38157D01*
X60597Y-38220D01*
X57400Y-38220D01*
X57316Y-38237D01*
X57244Y-38284D01*
X57242Y-38286D01*
X56098Y-39430D01*
X55739Y-39430D01*
X55739Y-35658D01*
X55739Y-35543D01*
X55695Y-35437D01*
X55614Y-35355D01*
X55508Y-35311D01*
X55393Y-35311D01*
X55287Y-35355D01*
X55205Y-35436D01*
X55161Y-35542D01*
X55161Y-35577D01*
X55100Y-35638D01*
X55100Y-35557D01*
X55029Y-35384D01*
X55015Y-35370D01*
X55195Y-35370D01*
X55200Y-35371D01*
X55200Y-35370D01*
X55284Y-35353D01*
X55356Y-35306D01*
X55372Y-35289D01*
X55407Y-35289D01*
X55513Y-35245D01*
X55595Y-35164D01*
X55639Y-35058D01*
X55639Y-34943D01*
X55595Y-34837D01*
X55553Y-34794D01*
X55589Y-34708D01*
X55589Y-34593D01*
X55545Y-34487D01*
X55464Y-34405D01*
X55358Y-34361D01*
X55322Y-34361D01*
X55006Y-34044D01*
X54934Y-33997D01*
X54850Y-33979D01*
X54845Y-33980D01*
X51520Y-33980D01*
X51520Y-31434D01*
X51520Y-31366D01*
X51520Y-30766D01*
X51494Y-30704D01*
X51446Y-30656D01*
X51384Y-30630D01*
X51316Y-30630D01*
X50716Y-30630D01*
X50654Y-30656D01*
X50606Y-30704D01*
X50580Y-30766D01*
X50580Y-30834D01*
X50580Y-31434D01*
X50606Y-31496D01*
X50654Y-31544D01*
X50716Y-31570D01*
X50784Y-31570D01*
X51384Y-31570D01*
X51446Y-31544D01*
X51494Y-31496D01*
X51520Y-31434D01*
X51520Y-33980D01*
X51342Y-33980D01*
X51258Y-33997D01*
X51186Y-34044D01*
X51184Y-34046D01*
X50762Y-34468D01*
X50715Y-34540D01*
X50697Y-34624D01*
X50698Y-34628D01*
X50698Y-37421D01*
X50697Y-37426D01*
X50715Y-37510D01*
X50762Y-37582D01*
X51111Y-37930D01*
X51080Y-38006D01*
X51080Y-38193D01*
X51151Y-38366D01*
X51283Y-38498D01*
X51456Y-38570D01*
X51643Y-38570D01*
X51816Y-38499D01*
X51948Y-38367D01*
X52020Y-38194D01*
X52020Y-38007D01*
X51949Y-37834D01*
X51935Y-37820D01*
X51958Y-37820D01*
X52098Y-37960D01*
X52080Y-38006D01*
X52080Y-38193D01*
X52151Y-38366D01*
X52283Y-38498D01*
X52456Y-38570D01*
X52643Y-38570D01*
X52816Y-38499D01*
X52830Y-38485D01*
X52830Y-38508D01*
X52689Y-38648D01*
X52644Y-38630D01*
X52457Y-38630D01*
X52284Y-38701D01*
X52152Y-38833D01*
X52080Y-39006D01*
X52080Y-39193D01*
X52151Y-39366D01*
X52283Y-39498D01*
X52456Y-39570D01*
X52643Y-39570D01*
X52816Y-39499D01*
X52948Y-39367D01*
X53012Y-39213D01*
X53012Y-39326D01*
X52689Y-39648D01*
X52644Y-39630D01*
X52457Y-39630D01*
X52284Y-39701D01*
X52152Y-39833D01*
X52080Y-40006D01*
X52080Y-40193D01*
X52151Y-40366D01*
X52283Y-40498D01*
X52456Y-40570D01*
X52643Y-40570D01*
X52816Y-40499D01*
X52948Y-40367D01*
X53020Y-40194D01*
X53020Y-40007D01*
X53000Y-39960D01*
X53385Y-39575D01*
X53387Y-39574D01*
X53388Y-39574D01*
X53435Y-39502D01*
X53452Y-39418D01*
X53452Y-37634D01*
X53716Y-37370D01*
X54157Y-37370D01*
X54087Y-37571D01*
X54098Y-37784D01*
X54158Y-37931D01*
X54252Y-37958D01*
X54524Y-37685D01*
X54559Y-37650D01*
X54630Y-37579D01*
X54665Y-37544D01*
X54938Y-37272D01*
X54927Y-37234D01*
X55078Y-37082D01*
X55080Y-37081D01*
X55081Y-37081D01*
X55128Y-37009D01*
X55145Y-36925D01*
X55145Y-36816D01*
X55222Y-36739D01*
X55257Y-36739D01*
X55363Y-36695D01*
X55445Y-36614D01*
X55489Y-36508D01*
X55489Y-36393D01*
X55445Y-36287D01*
X55364Y-36205D01*
X55258Y-36161D01*
X55200Y-36161D01*
X55472Y-35889D01*
X55507Y-35889D01*
X55613Y-35845D01*
X55695Y-35764D01*
X55739Y-35658D01*
X55739Y-39430D01*
X55173Y-39430D01*
X55173Y-37729D01*
X55162Y-37516D01*
X55102Y-37369D01*
X55008Y-37342D01*
X54701Y-37650D01*
X55008Y-37958D01*
X55102Y-37931D01*
X55173Y-37729D01*
X55173Y-39430D01*
X55100Y-39430D01*
X55100Y-39316D01*
X55074Y-39254D01*
X55026Y-39206D01*
X54964Y-39180D01*
X54940Y-39180D01*
X54940Y-38744D01*
X54940Y-38557D01*
X54869Y-38384D01*
X54737Y-38252D01*
X54590Y-38190D01*
X54764Y-38182D01*
X54911Y-38122D01*
X54938Y-38028D01*
X54630Y-37721D01*
X54322Y-38028D01*
X54349Y-38122D01*
X54514Y-38180D01*
X54377Y-38180D01*
X54204Y-38251D01*
X54072Y-38383D01*
X54000Y-38556D01*
X54000Y-38743D01*
X54071Y-38916D01*
X54203Y-39048D01*
X54376Y-39120D01*
X54563Y-39120D01*
X54736Y-39049D01*
X54868Y-38917D01*
X54940Y-38744D01*
X54940Y-39180D01*
X54896Y-39180D01*
X54296Y-39180D01*
X54234Y-39206D01*
X54186Y-39254D01*
X54160Y-39316D01*
X54160Y-39384D01*
X54160Y-39984D01*
X54186Y-40046D01*
X54234Y-40094D01*
X54296Y-40120D01*
X54364Y-40120D01*
X54964Y-40120D01*
X55026Y-40094D01*
X55074Y-40046D01*
X55100Y-39984D01*
X55100Y-39916D01*
X55100Y-39870D01*
X56185Y-39870D01*
X56190Y-39871D01*
X56190Y-39870D01*
X56274Y-39853D01*
X56346Y-39806D01*
X57491Y-38660D01*
X60935Y-38660D01*
X60940Y-38661D01*
X60940Y-38660D01*
X61024Y-38643D01*
X61096Y-38596D01*
X61273Y-38417D01*
X61275Y-38416D01*
X61276Y-38416D01*
X61304Y-38373D01*
X61323Y-38345D01*
X61323Y-38344D01*
X61340Y-38260D01*
X61340Y-36300D01*
X61323Y-36216D01*
X61323Y-36215D01*
X61304Y-36186D01*
X61276Y-36144D01*
X61273Y-36142D01*
X59960Y-34828D01*
X59960Y-34781D01*
X60002Y-34799D01*
X60117Y-34799D01*
X60223Y-34755D01*
X60224Y-34753D01*
X60226Y-34755D01*
X60332Y-34799D01*
X60447Y-34799D01*
X60553Y-34755D01*
X60635Y-34674D01*
X60679Y-34568D01*
X60679Y-34453D01*
X60635Y-34347D01*
X60610Y-34321D01*
X60610Y-33951D01*
X60855Y-33705D01*
X60857Y-33704D01*
X60858Y-33704D01*
X60905Y-33632D01*
X60922Y-33548D01*
X60922Y-30879D01*
X61323Y-30477D01*
X61325Y-30476D01*
X61326Y-30476D01*
X61372Y-30405D01*
X61373Y-30404D01*
X61386Y-30338D01*
X61390Y-30321D01*
X61389Y-30320D01*
X61390Y-30320D01*
X61390Y-30178D01*
X61415Y-30154D01*
X61459Y-30048D01*
X61459Y-29944D01*
X62196Y-29944D01*
X62201Y-29945D01*
X62201Y-29944D01*
X62285Y-29927D01*
X62357Y-29880D01*
X62697Y-29538D01*
X62725Y-29566D01*
X62757Y-29533D01*
X62769Y-29572D01*
X62971Y-29643D01*
X63184Y-29632D01*
X63331Y-29572D01*
X63358Y-29478D01*
X63085Y-29206D01*
X63050Y-29171D01*
X62979Y-29100D01*
X63050Y-29029D01*
X63085Y-28994D01*
X63358Y-28722D01*
X63331Y-28628D01*
X63153Y-28565D01*
X63316Y-28499D01*
X63448Y-28367D01*
X63520Y-28194D01*
X63520Y-28818D01*
X63428Y-28792D01*
X63121Y-29100D01*
X63428Y-29408D01*
X63522Y-29381D01*
X63593Y-29179D01*
X63593Y-33611D01*
X63493Y-33611D01*
X63387Y-33655D01*
X63358Y-33683D01*
X63324Y-33716D01*
X63264Y-33655D01*
X63158Y-33611D01*
X63043Y-33611D01*
X62937Y-33655D01*
X62874Y-33716D01*
X62814Y-33655D01*
X62708Y-33611D01*
X62593Y-33611D01*
X62487Y-33655D01*
X62424Y-33716D01*
X62364Y-33655D01*
X62258Y-33611D01*
X62143Y-33611D01*
X62037Y-33655D01*
X61974Y-33716D01*
X61914Y-33655D01*
X61808Y-33611D01*
X61693Y-33611D01*
X61587Y-33655D01*
X61505Y-33736D01*
X61461Y-33842D01*
X61461Y-33957D01*
X61505Y-34063D01*
X61586Y-34145D01*
X61692Y-34189D01*
X61727Y-34189D01*
X65704Y-38165D01*
X65704Y-38469D01*
X65703Y-38474D01*
X65721Y-38558D01*
X65768Y-38630D01*
X66098Y-38960D01*
X66080Y-39006D01*
X66080Y-39193D01*
X66151Y-39366D01*
X66283Y-39498D01*
X66447Y-39566D01*
X66416Y-39568D01*
X66269Y-39628D01*
X66242Y-39722D01*
X66550Y-40029D01*
X66858Y-39722D01*
X66831Y-39628D01*
X66653Y-39565D01*
X66816Y-39499D01*
X66948Y-39367D01*
X67020Y-39194D01*
X67020Y-39007D01*
X66949Y-38834D01*
X66935Y-38820D01*
X66958Y-38820D01*
X67098Y-38960D01*
X67080Y-39006D01*
X67080Y-39193D01*
X67151Y-39366D01*
X67283Y-39498D01*
X67456Y-39570D01*
X67643Y-39570D01*
X67816Y-39499D01*
X67948Y-39367D01*
X68020Y-39194D01*
X68020Y-39766D01*
X67994Y-39704D01*
X67946Y-39656D01*
X67884Y-39630D01*
X67816Y-39630D01*
X67216Y-39630D01*
X67154Y-39656D01*
X67106Y-39704D01*
X67080Y-39766D01*
X67080Y-39834D01*
X67080Y-39961D01*
X67022Y-39819D01*
X66928Y-39792D01*
X66621Y-40100D01*
X66928Y-40408D01*
X67022Y-40381D01*
X67080Y-40215D01*
X67080Y-40434D01*
X67106Y-40496D01*
X67154Y-40544D01*
X67216Y-40570D01*
X67284Y-40570D01*
X67884Y-40570D01*
X67946Y-40544D01*
X67994Y-40496D01*
X68020Y-40434D01*
X68020Y-43635D01*
X67721Y-43635D01*
X67659Y-43661D01*
X67611Y-43709D01*
X67585Y-43771D01*
X67585Y-43839D01*
X67585Y-44089D01*
X67578Y-43966D01*
X67518Y-43821D01*
X67425Y-43796D01*
X67354Y-43867D01*
X67354Y-43725D01*
X67329Y-43632D01*
X67128Y-43560D01*
X66916Y-43572D01*
X66858Y-43596D01*
X66858Y-40478D01*
X66550Y-40171D01*
X66479Y-40241D01*
X66479Y-40100D01*
X66172Y-39792D01*
X66078Y-39819D01*
X66007Y-40021D01*
X66018Y-40234D01*
X66078Y-40381D01*
X66172Y-40408D01*
X66479Y-40100D01*
X66479Y-40241D01*
X66242Y-40478D01*
X66269Y-40572D01*
X66471Y-40643D01*
X66684Y-40632D01*
X66831Y-40572D01*
X66858Y-40478D01*
X66858Y-43596D01*
X66771Y-43632D01*
X66746Y-43725D01*
X67050Y-44029D01*
X67354Y-43725D01*
X67354Y-43867D01*
X67121Y-44100D01*
X67425Y-44404D01*
X67518Y-44379D01*
X67585Y-44191D01*
X67585Y-44429D01*
X67611Y-44491D01*
X67659Y-44539D01*
X67721Y-44565D01*
X67789Y-44565D01*
X68379Y-44565D01*
X68441Y-44539D01*
X68489Y-44491D01*
X68515Y-44429D01*
X68515Y-46550D01*
X67354Y-46550D01*
X67354Y-44475D01*
X67050Y-44171D01*
X66979Y-44242D01*
X66979Y-44100D01*
X66675Y-43796D01*
X66582Y-43821D01*
X66510Y-44022D01*
X66522Y-44234D01*
X66582Y-44379D01*
X66675Y-44404D01*
X66979Y-44100D01*
X66979Y-44242D01*
X66746Y-44475D01*
X66771Y-44568D01*
X66972Y-44640D01*
X67184Y-44628D01*
X67329Y-44568D01*
X67354Y-44475D01*
X67354Y-46550D01*
X64093Y-46550D01*
X64093Y-44529D01*
X64082Y-44316D01*
X64022Y-44169D01*
X63928Y-44142D01*
X63858Y-44212D01*
X63621Y-44450D01*
X63928Y-44758D01*
X64022Y-44731D01*
X64093Y-44529D01*
X64093Y-46550D01*
X64020Y-46550D01*
X64020Y-45544D01*
X64020Y-45357D01*
X63949Y-45184D01*
X63817Y-45052D01*
X63652Y-44983D01*
X63684Y-44982D01*
X63831Y-44922D01*
X63858Y-44828D01*
X63585Y-44556D01*
X63550Y-44521D01*
X63479Y-44450D01*
X63550Y-44379D01*
X63585Y-44344D01*
X63858Y-44072D01*
X63831Y-43978D01*
X63629Y-43907D01*
X63416Y-43918D01*
X63269Y-43978D01*
X63257Y-44016D01*
X63225Y-43984D01*
X63192Y-44016D01*
X62780Y-43603D01*
X62780Y-40585D01*
X62763Y-40501D01*
X62716Y-40429D01*
X62713Y-40427D01*
X62341Y-40054D01*
X62269Y-40007D01*
X62185Y-39989D01*
X62180Y-39990D01*
X62179Y-39990D01*
X60922Y-38732D01*
X60850Y-38685D01*
X60766Y-38667D01*
X60761Y-38668D01*
X59848Y-38668D01*
X59763Y-38685D01*
X59734Y-38703D01*
X59692Y-38732D01*
X59690Y-38734D01*
X59564Y-38860D01*
X57808Y-38860D01*
X57784Y-38835D01*
X57678Y-38791D01*
X57563Y-38791D01*
X57457Y-38835D01*
X57375Y-38916D01*
X57331Y-39022D01*
X57331Y-39137D01*
X57375Y-39243D01*
X57456Y-39325D01*
X57562Y-39369D01*
X57677Y-39369D01*
X57783Y-39325D01*
X57808Y-39300D01*
X59381Y-39300D01*
X58178Y-40503D01*
X58131Y-40575D01*
X58113Y-40659D01*
X58114Y-40663D01*
X58114Y-42802D01*
X57560Y-43356D01*
X56441Y-43356D01*
X56356Y-43373D01*
X56327Y-43391D01*
X56285Y-43420D01*
X56283Y-43422D01*
X55697Y-44008D01*
X55650Y-44080D01*
X55632Y-44164D01*
X55633Y-44168D01*
X55633Y-45718D01*
X55632Y-45723D01*
X55650Y-45807D01*
X55697Y-45879D01*
X55937Y-46118D01*
X55939Y-46121D01*
X56011Y-46168D01*
X56095Y-46185D01*
X56980Y-46185D01*
X56985Y-46186D01*
X56985Y-46185D01*
X57069Y-46168D01*
X57141Y-46121D01*
X57218Y-46042D01*
X57220Y-46041D01*
X57221Y-46041D01*
X57268Y-45969D01*
X57285Y-45885D01*
X57286Y-45885D01*
X57285Y-45880D01*
X57285Y-45848D01*
X57456Y-45920D01*
X57643Y-45920D01*
X57816Y-45849D01*
X57948Y-45717D01*
X58020Y-45544D01*
X58020Y-45357D01*
X57949Y-45184D01*
X57817Y-45052D01*
X57698Y-45002D01*
X57616Y-44920D01*
X57643Y-44920D01*
X57816Y-44849D01*
X57948Y-44717D01*
X58020Y-44544D01*
X58020Y-44357D01*
X58001Y-44310D01*
X59033Y-43277D01*
X59035Y-43276D01*
X59036Y-43276D01*
X59082Y-43205D01*
X59083Y-43204D01*
X59096Y-43138D01*
X59100Y-43121D01*
X59099Y-43120D01*
X59100Y-43120D01*
X59100Y-42607D01*
X59127Y-42673D01*
X59465Y-43011D01*
X59906Y-43194D01*
X60383Y-43194D01*
X60824Y-43012D01*
X61162Y-42674D01*
X61284Y-42380D01*
X61284Y-43404D01*
X60689Y-43998D01*
X60644Y-43980D01*
X60457Y-43980D01*
X60284Y-44051D01*
X60152Y-44183D01*
X60080Y-44356D01*
X60080Y-44543D01*
X60151Y-44716D01*
X60283Y-44848D01*
X60456Y-44920D01*
X60643Y-44920D01*
X60816Y-44849D01*
X60830Y-44835D01*
X60830Y-44858D01*
X60689Y-44998D01*
X60644Y-44980D01*
X60457Y-44980D01*
X60284Y-45051D01*
X60152Y-45183D01*
X60080Y-45356D01*
X60080Y-45543D01*
X60151Y-45716D01*
X60283Y-45848D01*
X60456Y-45920D01*
X60643Y-45920D01*
X60816Y-45849D01*
X60948Y-45717D01*
X61020Y-45544D01*
X61020Y-45357D01*
X61000Y-45310D01*
X61203Y-45107D01*
X61205Y-45106D01*
X61206Y-45106D01*
X61253Y-45034D01*
X61270Y-44950D01*
X61271Y-44950D01*
X61270Y-44945D01*
X61270Y-44835D01*
X61283Y-44848D01*
X61456Y-44920D01*
X61643Y-44920D01*
X61816Y-44849D01*
X61830Y-44835D01*
X61830Y-44858D01*
X61689Y-44998D01*
X61644Y-44980D01*
X61457Y-44980D01*
X61284Y-45051D01*
X61152Y-45183D01*
X61080Y-45356D01*
X61080Y-45543D01*
X61151Y-45716D01*
X61283Y-45848D01*
X61456Y-45920D01*
X61643Y-45920D01*
X61816Y-45849D01*
X61948Y-45717D01*
X62020Y-45544D01*
X62020Y-45357D01*
X62000Y-45310D01*
X62203Y-45107D01*
X62205Y-45106D01*
X62206Y-45106D01*
X62253Y-45034D01*
X62270Y-44950D01*
X62271Y-44950D01*
X62270Y-44945D01*
X62270Y-44835D01*
X62283Y-44848D01*
X62456Y-44920D01*
X62643Y-44920D01*
X62816Y-44849D01*
X62825Y-44840D01*
X62825Y-44940D01*
X62824Y-44945D01*
X62842Y-45029D01*
X62889Y-45101D01*
X63098Y-45310D01*
X63080Y-45356D01*
X63080Y-45543D01*
X63151Y-45716D01*
X63283Y-45848D01*
X63456Y-45920D01*
X63643Y-45920D01*
X63816Y-45849D01*
X63948Y-45717D01*
X64020Y-45544D01*
X64020Y-46550D01*
X63020Y-46550D01*
X63020Y-45544D01*
X63020Y-45357D01*
X62949Y-45184D01*
X62817Y-45052D01*
X62644Y-44980D01*
X62457Y-44980D01*
X62284Y-45051D01*
X62152Y-45183D01*
X62080Y-45356D01*
X62080Y-45543D01*
X62151Y-45716D01*
X62283Y-45848D01*
X62456Y-45920D01*
X62643Y-45920D01*
X62816Y-45849D01*
X62948Y-45717D01*
X63020Y-45544D01*
X63020Y-46550D01*
X60020Y-46550D01*
X60020Y-45544D01*
X60020Y-45357D01*
X60020Y-44544D01*
X60020Y-44357D01*
X59949Y-44184D01*
X59817Y-44052D01*
X59644Y-43980D01*
X59457Y-43980D01*
X59284Y-44051D01*
X59152Y-44183D01*
X59080Y-44356D01*
X59080Y-44543D01*
X59151Y-44716D01*
X59283Y-44848D01*
X59456Y-44920D01*
X59643Y-44920D01*
X59816Y-44849D01*
X59948Y-44717D01*
X60020Y-44544D01*
X60020Y-45357D01*
X59949Y-45184D01*
X59817Y-45052D01*
X59644Y-44980D01*
X59457Y-44980D01*
X59284Y-45051D01*
X59152Y-45183D01*
X59080Y-45356D01*
X59080Y-45543D01*
X59151Y-45716D01*
X59283Y-45848D01*
X59456Y-45920D01*
X59643Y-45920D01*
X59816Y-45849D01*
X59948Y-45717D01*
X60020Y-45544D01*
X60020Y-46550D01*
X59020Y-46550D01*
X59020Y-45544D01*
X59020Y-45357D01*
X59020Y-44544D01*
X59020Y-44357D01*
X58949Y-44184D01*
X58817Y-44052D01*
X58644Y-43980D01*
X58457Y-43980D01*
X58284Y-44051D01*
X58152Y-44183D01*
X58080Y-44356D01*
X58080Y-44543D01*
X58151Y-44716D01*
X58283Y-44848D01*
X58456Y-44920D01*
X58643Y-44920D01*
X58816Y-44849D01*
X58948Y-44717D01*
X59020Y-44544D01*
X59020Y-45357D01*
X58949Y-45184D01*
X58817Y-45052D01*
X58644Y-44980D01*
X58457Y-44980D01*
X58284Y-45051D01*
X58152Y-45183D01*
X58080Y-45356D01*
X58080Y-45543D01*
X58151Y-45716D01*
X58283Y-45848D01*
X58456Y-45920D01*
X58643Y-45920D01*
X58816Y-45849D01*
X58948Y-45717D01*
X59020Y-45544D01*
X59020Y-46550D01*
X53093Y-46550D01*
X53093Y-44179D01*
X53093Y-43179D01*
X53082Y-42966D01*
X53022Y-42819D01*
X53020Y-42818D01*
X53020Y-42194D01*
X53020Y-42007D01*
X53020Y-41194D01*
X53020Y-41007D01*
X52949Y-40834D01*
X52817Y-40702D01*
X52644Y-40630D01*
X52457Y-40630D01*
X52284Y-40701D01*
X52152Y-40833D01*
X52080Y-41006D01*
X52080Y-41193D01*
X52151Y-41366D01*
X52283Y-41498D01*
X52456Y-41570D01*
X52643Y-41570D01*
X52816Y-41499D01*
X52948Y-41367D01*
X53020Y-41194D01*
X53020Y-42007D01*
X52949Y-41834D01*
X52817Y-41702D01*
X52644Y-41630D01*
X52457Y-41630D01*
X52284Y-41701D01*
X52152Y-41833D01*
X52080Y-42006D01*
X52080Y-42193D01*
X52151Y-42366D01*
X52283Y-42498D01*
X52447Y-42566D01*
X52416Y-42568D01*
X52269Y-42628D01*
X52242Y-42722D01*
X52550Y-43029D01*
X52858Y-42722D01*
X52831Y-42628D01*
X52653Y-42565D01*
X52816Y-42499D01*
X52948Y-42367D01*
X53020Y-42194D01*
X53020Y-42818D01*
X52928Y-42792D01*
X52621Y-43100D01*
X52928Y-43408D01*
X53022Y-43381D01*
X53093Y-43179D01*
X53093Y-44179D01*
X53082Y-43966D01*
X53022Y-43819D01*
X52928Y-43792D01*
X52858Y-43862D01*
X52858Y-43722D01*
X52831Y-43628D01*
X52757Y-43602D01*
X52831Y-43572D01*
X52858Y-43478D01*
X52550Y-43171D01*
X52479Y-43241D01*
X52479Y-43100D01*
X52172Y-42792D01*
X52078Y-42819D01*
X52052Y-42892D01*
X52022Y-42819D01*
X52020Y-42818D01*
X52020Y-42194D01*
X52020Y-42007D01*
X52020Y-41194D01*
X52020Y-41007D01*
X52020Y-40194D01*
X52020Y-40007D01*
X52020Y-39194D01*
X52020Y-39007D01*
X51949Y-38834D01*
X51817Y-38702D01*
X51644Y-38630D01*
X51457Y-38630D01*
X51284Y-38701D01*
X51152Y-38833D01*
X51080Y-39006D01*
X51080Y-39193D01*
X51151Y-39366D01*
X51283Y-39498D01*
X51456Y-39570D01*
X51643Y-39570D01*
X51816Y-39499D01*
X51948Y-39367D01*
X52020Y-39194D01*
X52020Y-40007D01*
X51949Y-39834D01*
X51817Y-39702D01*
X51644Y-39630D01*
X51457Y-39630D01*
X51284Y-39701D01*
X51152Y-39833D01*
X51080Y-40006D01*
X51080Y-40193D01*
X51151Y-40366D01*
X51283Y-40498D01*
X51456Y-40570D01*
X51643Y-40570D01*
X51816Y-40499D01*
X51948Y-40367D01*
X52020Y-40194D01*
X52020Y-41007D01*
X51949Y-40834D01*
X51817Y-40702D01*
X51644Y-40630D01*
X51457Y-40630D01*
X51284Y-40701D01*
X51152Y-40833D01*
X51080Y-41006D01*
X51080Y-41193D01*
X51151Y-41366D01*
X51283Y-41498D01*
X51456Y-41570D01*
X51643Y-41570D01*
X51816Y-41499D01*
X51948Y-41367D01*
X52020Y-41194D01*
X52020Y-42007D01*
X51949Y-41834D01*
X51817Y-41702D01*
X51644Y-41630D01*
X51457Y-41630D01*
X51284Y-41701D01*
X51152Y-41833D01*
X51080Y-42006D01*
X51080Y-42193D01*
X51151Y-42366D01*
X51283Y-42498D01*
X51447Y-42566D01*
X51416Y-42568D01*
X51269Y-42628D01*
X51242Y-42722D01*
X51550Y-43029D01*
X51858Y-42722D01*
X51831Y-42628D01*
X51653Y-42565D01*
X51816Y-42499D01*
X51948Y-42367D01*
X52020Y-42194D01*
X52020Y-42818D01*
X51928Y-42792D01*
X51621Y-43100D01*
X51928Y-43408D01*
X52022Y-43381D01*
X52047Y-43307D01*
X52078Y-43381D01*
X52172Y-43408D01*
X52479Y-43100D01*
X52479Y-43241D01*
X52242Y-43478D01*
X52269Y-43572D01*
X52342Y-43597D01*
X52269Y-43628D01*
X52242Y-43722D01*
X52550Y-44029D01*
X52858Y-43722D01*
X52858Y-43862D01*
X52621Y-44100D01*
X52928Y-44408D01*
X53022Y-44381D01*
X53093Y-44179D01*
X53093Y-46550D01*
X52858Y-46550D01*
X52858Y-44478D01*
X52550Y-44171D01*
X52479Y-44241D01*
X52479Y-44100D01*
X52172Y-43792D01*
X52078Y-43819D01*
X52052Y-43892D01*
X52022Y-43819D01*
X51928Y-43792D01*
X51858Y-43862D01*
X51858Y-43722D01*
X51831Y-43628D01*
X51757Y-43602D01*
X51831Y-43572D01*
X51858Y-43478D01*
X51550Y-43171D01*
X51479Y-43241D01*
X51479Y-43100D01*
X51172Y-42792D01*
X51078Y-42819D01*
X51007Y-43021D01*
X51018Y-43234D01*
X51078Y-43381D01*
X51172Y-43408D01*
X51479Y-43100D01*
X51479Y-43241D01*
X51242Y-43478D01*
X51269Y-43572D01*
X51342Y-43597D01*
X51269Y-43628D01*
X51242Y-43722D01*
X51550Y-44029D01*
X51858Y-43722D01*
X51858Y-43862D01*
X51621Y-44100D01*
X51928Y-44408D01*
X52022Y-44381D01*
X52047Y-44307D01*
X52078Y-44381D01*
X52172Y-44408D01*
X52479Y-44100D01*
X52479Y-44241D01*
X52242Y-44478D01*
X52269Y-44572D01*
X52471Y-44643D01*
X52684Y-44632D01*
X52831Y-44572D01*
X52858Y-44478D01*
X52858Y-46550D01*
X51858Y-46550D01*
X51858Y-44478D01*
X51550Y-44171D01*
X51479Y-44241D01*
X51479Y-44100D01*
X51172Y-43792D01*
X51078Y-43819D01*
X51007Y-44021D01*
X51018Y-44234D01*
X51078Y-44381D01*
X51172Y-44408D01*
X51479Y-44100D01*
X51479Y-44241D01*
X51242Y-44478D01*
X51269Y-44572D01*
X51471Y-44643D01*
X51684Y-44632D01*
X51831Y-44572D01*
X51858Y-44478D01*
X51858Y-46550D01*
X50300Y-46550D01*
X50300Y-27550D01*
X66000Y-27550D01*
X66000Y-32550D01*
X69300Y-32550D01*
X69300Y-46550D01*
X69300Y-46550D01*
G37*
G54D17*
X69300Y-46550D02*
X68515Y-46550D01*
X68515Y-44429D01*
X68515Y-44361D01*
X68515Y-43771D01*
X68489Y-43709D01*
X68441Y-43661D01*
X68379Y-43635D01*
X68311Y-43635D01*
X68020Y-43635D01*
X68020Y-40434D01*
X68020Y-40366D01*
X68020Y-39766D01*
X68020Y-39194D01*
X68020Y-39007D01*
X67949Y-38834D01*
X67817Y-38702D01*
X67644Y-38630D01*
X67457Y-38630D01*
X67410Y-38649D01*
X67206Y-38444D01*
X67134Y-38397D01*
X67050Y-38379D01*
X67045Y-38380D01*
X66935Y-38380D01*
X66948Y-38367D01*
X67020Y-38194D01*
X67020Y-38007D01*
X66949Y-37834D01*
X66937Y-37822D01*
X66960Y-37822D01*
X67098Y-37960D01*
X67080Y-38006D01*
X67080Y-38193D01*
X67151Y-38366D01*
X67283Y-38498D01*
X67456Y-38570D01*
X67643Y-38570D01*
X67816Y-38499D01*
X67948Y-38367D01*
X68020Y-38194D01*
X68020Y-38007D01*
X67949Y-37834D01*
X67817Y-37702D01*
X67644Y-37630D01*
X67457Y-37630D01*
X67410Y-37649D01*
X67208Y-37446D01*
X67206Y-37445D01*
X67206Y-37444D01*
X67134Y-37397D01*
X67050Y-37379D01*
X67036Y-37382D01*
X66933Y-37382D01*
X66948Y-37367D01*
X67020Y-37194D01*
X67020Y-37007D01*
X66949Y-36834D01*
X66935Y-36820D01*
X66958Y-36820D01*
X67098Y-36960D01*
X67080Y-37006D01*
X67080Y-37193D01*
X67151Y-37366D01*
X67283Y-37498D01*
X67456Y-37570D01*
X67643Y-37570D01*
X67816Y-37499D01*
X67948Y-37367D01*
X68020Y-37194D01*
X68020Y-37007D01*
X68020Y-36194D01*
X68020Y-36007D01*
X67949Y-35834D01*
X67817Y-35702D01*
X67644Y-35630D01*
X67457Y-35630D01*
X67284Y-35701D01*
X67152Y-35833D01*
X67080Y-36006D01*
X67080Y-36193D01*
X67151Y-36366D01*
X67283Y-36498D01*
X67456Y-36570D01*
X67643Y-36570D01*
X67816Y-36499D01*
X67948Y-36367D01*
X68020Y-36194D01*
X68020Y-37007D01*
X67949Y-36834D01*
X67817Y-36702D01*
X67644Y-36630D01*
X67457Y-36630D01*
X67410Y-36649D01*
X67206Y-36444D01*
X67134Y-36397D01*
X67050Y-36379D01*
X67045Y-36380D01*
X66935Y-36380D01*
X66948Y-36367D01*
X67020Y-36194D01*
X67020Y-36007D01*
X66949Y-35834D01*
X66817Y-35702D01*
X66644Y-35630D01*
X66457Y-35630D01*
X66284Y-35701D01*
X66152Y-35833D01*
X66132Y-35880D01*
X65587Y-35880D01*
X64670Y-34962D01*
X64670Y-34088D01*
X64695Y-34064D01*
X64739Y-33958D01*
X64739Y-33843D01*
X64695Y-33737D01*
X64614Y-33655D01*
X64508Y-33611D01*
X64393Y-33611D01*
X64287Y-33655D01*
X64224Y-33716D01*
X64164Y-33655D01*
X64058Y-33611D01*
X63943Y-33611D01*
X63837Y-33655D01*
X63774Y-33716D01*
X63714Y-33655D01*
X63608Y-33611D01*
X63593Y-33611D01*
X63593Y-29179D01*
X63582Y-28966D01*
X63522Y-28819D01*
X63520Y-28818D01*
X63520Y-28194D01*
X63520Y-28007D01*
X63449Y-27834D01*
X63317Y-27702D01*
X63144Y-27630D01*
X62957Y-27630D01*
X62784Y-27701D01*
X62652Y-27833D01*
X62580Y-28006D01*
X62580Y-28193D01*
X62599Y-28239D01*
X62394Y-28444D01*
X62347Y-28516D01*
X62329Y-28600D01*
X62330Y-28604D01*
X62330Y-28715D01*
X62317Y-28702D01*
X62144Y-28630D01*
X61957Y-28630D01*
X61784Y-28701D01*
X61770Y-28715D01*
X61770Y-28691D01*
X61910Y-28551D01*
X61956Y-28570D01*
X62143Y-28570D01*
X62316Y-28499D01*
X62448Y-28367D01*
X62520Y-28194D01*
X62520Y-28007D01*
X62449Y-27834D01*
X62317Y-27702D01*
X62144Y-27630D01*
X61957Y-27630D01*
X61784Y-27701D01*
X61652Y-27833D01*
X61580Y-28006D01*
X61580Y-28193D01*
X61599Y-28239D01*
X61394Y-28444D01*
X61347Y-28516D01*
X61329Y-28600D01*
X61330Y-28604D01*
X61330Y-28715D01*
X61317Y-28702D01*
X61144Y-28630D01*
X60957Y-28630D01*
X60784Y-28701D01*
X60770Y-28715D01*
X60770Y-28691D01*
X60910Y-28551D01*
X60956Y-28570D01*
X61143Y-28570D01*
X61316Y-28499D01*
X61448Y-28367D01*
X61520Y-28194D01*
X61520Y-28007D01*
X61449Y-27834D01*
X61317Y-27702D01*
X61144Y-27630D01*
X60957Y-27630D01*
X60784Y-27701D01*
X60652Y-27833D01*
X60583Y-27997D01*
X60582Y-27966D01*
X60522Y-27819D01*
X60428Y-27792D01*
X60358Y-27862D01*
X60358Y-27722D01*
X60331Y-27628D01*
X60129Y-27557D01*
X59916Y-27568D01*
X59769Y-27628D01*
X59742Y-27722D01*
X60050Y-28029D01*
X60358Y-27722D01*
X60358Y-27862D01*
X60121Y-28100D01*
X60050Y-28171D01*
X59979Y-28241D01*
X59979Y-28100D01*
X59672Y-27792D01*
X59578Y-27819D01*
X59515Y-27996D01*
X59449Y-27834D01*
X59317Y-27702D01*
X59144Y-27630D01*
X58957Y-27630D01*
X58784Y-27701D01*
X58652Y-27833D01*
X58580Y-28006D01*
X58580Y-28193D01*
X58651Y-28366D01*
X58783Y-28498D01*
X58956Y-28570D01*
X59143Y-28570D01*
X59316Y-28499D01*
X59448Y-28367D01*
X59516Y-28202D01*
X59518Y-28234D01*
X59578Y-28381D01*
X59672Y-28408D01*
X59979Y-28100D01*
X59979Y-28241D01*
X59742Y-28478D01*
X59769Y-28572D01*
X59946Y-28634D01*
X59784Y-28701D01*
X59652Y-28833D01*
X59580Y-29006D01*
X59580Y-29193D01*
X59651Y-29366D01*
X59783Y-29498D01*
X59956Y-29570D01*
X60010Y-29570D01*
X59630Y-29950D01*
X59583Y-30022D01*
X59565Y-30106D01*
X59566Y-30110D01*
X59566Y-32808D01*
X59520Y-32854D01*
X59520Y-29194D01*
X59520Y-29007D01*
X59449Y-28834D01*
X59317Y-28702D01*
X59144Y-28630D01*
X58957Y-28630D01*
X58784Y-28701D01*
X58770Y-28715D01*
X58770Y-28604D01*
X58770Y-28600D01*
X58771Y-28600D01*
X58753Y-28516D01*
X58706Y-28444D01*
X58703Y-28442D01*
X58501Y-28239D01*
X58520Y-28194D01*
X58520Y-28007D01*
X58449Y-27834D01*
X58317Y-27702D01*
X58144Y-27630D01*
X57957Y-27630D01*
X57784Y-27701D01*
X57652Y-27833D01*
X57583Y-27997D01*
X57582Y-27966D01*
X57522Y-27819D01*
X57428Y-27792D01*
X57358Y-27862D01*
X57358Y-27722D01*
X57331Y-27628D01*
X57129Y-27557D01*
X56916Y-27568D01*
X56769Y-27628D01*
X56742Y-27722D01*
X57050Y-28029D01*
X57358Y-27722D01*
X57358Y-27862D01*
X57121Y-28100D01*
X57050Y-28171D01*
X56979Y-28100D01*
X56944Y-28065D01*
X56672Y-27792D01*
X56578Y-27819D01*
X56521Y-27979D01*
X56499Y-27957D01*
X56449Y-27834D01*
X56317Y-27702D01*
X56144Y-27630D01*
X55957Y-27630D01*
X55784Y-27701D01*
X55652Y-27833D01*
X55580Y-28006D01*
X55580Y-28038D01*
X55499Y-27957D01*
X55449Y-27834D01*
X55317Y-27702D01*
X55144Y-27630D01*
X54957Y-27630D01*
X54784Y-27701D01*
X54652Y-27833D01*
X54580Y-28006D01*
X54580Y-28193D01*
X54651Y-28366D01*
X54783Y-28498D01*
X54947Y-28566D01*
X54916Y-28568D01*
X54770Y-28627D01*
X54770Y-28604D01*
X54770Y-28600D01*
X54771Y-28600D01*
X54753Y-28516D01*
X54706Y-28444D01*
X54703Y-28442D01*
X54501Y-28239D01*
X54520Y-28194D01*
X54520Y-28007D01*
X54449Y-27834D01*
X54317Y-27702D01*
X54144Y-27630D01*
X53957Y-27630D01*
X53784Y-27701D01*
X53652Y-27833D01*
X53583Y-27997D01*
X53582Y-27966D01*
X53522Y-27819D01*
X53428Y-27792D01*
X53358Y-27862D01*
X53358Y-27722D01*
X53331Y-27628D01*
X53129Y-27557D01*
X52916Y-27568D01*
X52769Y-27628D01*
X52742Y-27722D01*
X53050Y-28029D01*
X53358Y-27722D01*
X53358Y-27862D01*
X53121Y-28100D01*
X53428Y-28408D01*
X53522Y-28381D01*
X53584Y-28203D01*
X53651Y-28366D01*
X53783Y-28498D01*
X53956Y-28570D01*
X54143Y-28570D01*
X54189Y-28550D01*
X54330Y-28691D01*
X54330Y-28715D01*
X54317Y-28702D01*
X54144Y-28630D01*
X53957Y-28630D01*
X53784Y-28701D01*
X53652Y-28833D01*
X53580Y-29006D01*
X53580Y-29193D01*
X53651Y-29366D01*
X53783Y-29498D01*
X53830Y-29517D01*
X53830Y-30715D01*
X53817Y-30702D01*
X53644Y-30630D01*
X53457Y-30630D01*
X53284Y-30701D01*
X53270Y-30715D01*
X53270Y-29517D01*
X53316Y-29499D01*
X53448Y-29367D01*
X53520Y-29194D01*
X53520Y-29007D01*
X53449Y-28834D01*
X53317Y-28702D01*
X53152Y-28633D01*
X53184Y-28632D01*
X53331Y-28572D01*
X53358Y-28478D01*
X53050Y-28171D01*
X52742Y-28478D01*
X52769Y-28572D01*
X52946Y-28634D01*
X52784Y-28701D01*
X52652Y-28833D01*
X52580Y-29006D01*
X52580Y-29193D01*
X52651Y-29366D01*
X52783Y-29498D01*
X52830Y-29517D01*
X52830Y-30715D01*
X52817Y-30702D01*
X52644Y-30630D01*
X52457Y-30630D01*
X52284Y-30701D01*
X52270Y-30715D01*
X52270Y-29517D01*
X52316Y-29499D01*
X52448Y-29367D01*
X52520Y-29194D01*
X52520Y-29007D01*
X52449Y-28834D01*
X52317Y-28702D01*
X52144Y-28630D01*
X51957Y-28630D01*
X51863Y-28668D01*
X51962Y-28570D01*
X52143Y-28570D01*
X52316Y-28499D01*
X52448Y-28367D01*
X52516Y-28202D01*
X52518Y-28234D01*
X52578Y-28381D01*
X52672Y-28408D01*
X52979Y-28100D01*
X52672Y-27792D01*
X52578Y-27819D01*
X52515Y-27996D01*
X52449Y-27834D01*
X52317Y-27702D01*
X52144Y-27630D01*
X51957Y-27630D01*
X51784Y-27701D01*
X51655Y-27830D01*
X51445Y-27830D01*
X51317Y-27702D01*
X51144Y-27630D01*
X50957Y-27630D01*
X50784Y-27701D01*
X50652Y-27833D01*
X50580Y-28006D01*
X50580Y-28193D01*
X50651Y-28366D01*
X50783Y-28498D01*
X50956Y-28570D01*
X51138Y-28570D01*
X51198Y-28630D01*
X50716Y-28630D01*
X50654Y-28656D01*
X50606Y-28704D01*
X50580Y-28766D01*
X50580Y-28834D01*
X50580Y-29434D01*
X50606Y-29496D01*
X50654Y-29544D01*
X50716Y-29570D01*
X50784Y-29570D01*
X51198Y-29570D01*
X51138Y-29630D01*
X50957Y-29630D01*
X50784Y-29701D01*
X50652Y-29833D01*
X50580Y-30006D01*
X50580Y-30193D01*
X50651Y-30366D01*
X50783Y-30498D01*
X50956Y-30570D01*
X51143Y-30570D01*
X51316Y-30499D01*
X51448Y-30367D01*
X51520Y-30194D01*
X51520Y-30012D01*
X51741Y-29791D01*
X51799Y-29703D01*
X51820Y-29600D01*
X51820Y-29513D01*
X51830Y-29517D01*
X51830Y-31595D01*
X51829Y-31600D01*
X51847Y-31684D01*
X51894Y-31756D01*
X52080Y-31941D01*
X52080Y-32434D01*
X52106Y-32496D01*
X52154Y-32544D01*
X52216Y-32570D01*
X52284Y-32570D01*
X52884Y-32570D01*
X52946Y-32544D01*
X52994Y-32496D01*
X53020Y-32434D01*
X53020Y-32366D01*
X53020Y-31881D01*
X53098Y-31960D01*
X53080Y-32006D01*
X53080Y-32193D01*
X53151Y-32366D01*
X53283Y-32498D01*
X53456Y-32570D01*
X53643Y-32570D01*
X53816Y-32499D01*
X53948Y-32367D01*
X54020Y-32194D01*
X54020Y-32007D01*
X53949Y-31834D01*
X53817Y-31702D01*
X53644Y-31630D01*
X53457Y-31630D01*
X53410Y-31649D01*
X53270Y-31508D01*
X53270Y-31485D01*
X53283Y-31498D01*
X53456Y-31570D01*
X53643Y-31570D01*
X53816Y-31499D01*
X53830Y-31485D01*
X53830Y-31595D01*
X53829Y-31600D01*
X53847Y-31684D01*
X53894Y-31756D01*
X54098Y-31960D01*
X54080Y-32006D01*
X54080Y-32193D01*
X54151Y-32366D01*
X54283Y-32498D01*
X54456Y-32570D01*
X54643Y-32570D01*
X54816Y-32499D01*
X54842Y-32472D01*
X54847Y-32494D01*
X54894Y-32566D01*
X56270Y-33941D01*
X56270Y-37551D01*
X56245Y-37576D01*
X56201Y-37682D01*
X56201Y-37797D01*
X56245Y-37903D01*
X56266Y-37924D01*
X56255Y-37936D01*
X56211Y-38042D01*
X56211Y-38157D01*
X56255Y-38263D01*
X56336Y-38345D01*
X56442Y-38389D01*
X56557Y-38389D01*
X56663Y-38345D01*
X56745Y-38264D01*
X56789Y-38158D01*
X56789Y-38122D01*
X56903Y-38007D01*
X56905Y-38006D01*
X56906Y-38006D01*
X56934Y-37963D01*
X56953Y-37935D01*
X56953Y-37934D01*
X56970Y-37850D01*
X56970Y-37681D01*
X57292Y-38003D01*
X57294Y-38006D01*
X57365Y-38052D01*
X57366Y-38053D01*
X57432Y-38066D01*
X57449Y-38070D01*
X57449Y-38069D01*
X57450Y-38070D01*
X57961Y-38070D01*
X57986Y-38095D01*
X58092Y-38139D01*
X58207Y-38139D01*
X58313Y-38095D01*
X58375Y-38033D01*
X58436Y-38095D01*
X58542Y-38139D01*
X58657Y-38139D01*
X58763Y-38095D01*
X58845Y-38014D01*
X58889Y-37908D01*
X58889Y-37793D01*
X58845Y-37687D01*
X58764Y-37605D01*
X58658Y-37561D01*
X58622Y-37561D01*
X58406Y-37344D01*
X58334Y-37297D01*
X58250Y-37279D01*
X58245Y-37280D01*
X58014Y-37280D01*
X58014Y-36633D01*
X58014Y-36518D01*
X57970Y-36412D01*
X57920Y-36361D01*
X57920Y-35413D01*
X57945Y-35389D01*
X57989Y-35283D01*
X57989Y-35168D01*
X57945Y-35062D01*
X57864Y-34980D01*
X57758Y-34936D01*
X57643Y-34936D01*
X57537Y-34980D01*
X57455Y-35061D01*
X57411Y-35167D01*
X57411Y-35282D01*
X57455Y-35388D01*
X57480Y-35413D01*
X57480Y-36411D01*
X57436Y-36517D01*
X57436Y-36632D01*
X57480Y-36738D01*
X57561Y-36820D01*
X57667Y-36864D01*
X57782Y-36864D01*
X57888Y-36820D01*
X57970Y-36739D01*
X58014Y-36633D01*
X58014Y-37280D01*
X57449Y-37280D01*
X57260Y-37090D01*
X57260Y-33626D01*
X57259Y-33625D01*
X57260Y-33625D01*
X57256Y-33608D01*
X57243Y-33542D01*
X57242Y-33541D01*
X57196Y-33470D01*
X57193Y-33468D01*
X56920Y-33194D01*
X56920Y-30037D01*
X56945Y-30012D01*
X57341Y-30012D01*
X57346Y-30013D01*
X57346Y-30012D01*
X57430Y-29995D01*
X57502Y-29948D01*
X57619Y-29830D01*
X58275Y-29830D01*
X58280Y-29831D01*
X58280Y-29830D01*
X58364Y-29813D01*
X58436Y-29766D01*
X58703Y-29497D01*
X58705Y-29496D01*
X58706Y-29496D01*
X58735Y-29450D01*
X58783Y-29498D01*
X58956Y-29570D01*
X59143Y-29570D01*
X59316Y-29499D01*
X59448Y-29367D01*
X59520Y-29194D01*
X59520Y-32854D01*
X59204Y-33170D01*
X59157Y-33242D01*
X59139Y-33326D01*
X59140Y-33330D01*
X59140Y-34793D01*
X59139Y-34798D01*
X59157Y-34882D01*
X59204Y-34954D01*
X60640Y-36389D01*
X60640Y-37911D01*
X60615Y-37936D01*
X60571Y-38042D01*
X60571Y-38157D01*
X60597Y-38220D01*
X57400Y-38220D01*
X57316Y-38237D01*
X57244Y-38284D01*
X57242Y-38286D01*
X56098Y-39430D01*
X55739Y-39430D01*
X55739Y-35658D01*
X55739Y-35543D01*
X55695Y-35437D01*
X55614Y-35355D01*
X55508Y-35311D01*
X55393Y-35311D01*
X55287Y-35355D01*
X55205Y-35436D01*
X55161Y-35542D01*
X55161Y-35577D01*
X55100Y-35638D01*
X55100Y-35557D01*
X55029Y-35384D01*
X55015Y-35370D01*
X55195Y-35370D01*
X55200Y-35371D01*
X55200Y-35370D01*
X55284Y-35353D01*
X55356Y-35306D01*
X55372Y-35289D01*
X55407Y-35289D01*
X55513Y-35245D01*
X55595Y-35164D01*
X55639Y-35058D01*
X55639Y-34943D01*
X55595Y-34837D01*
X55553Y-34794D01*
X55589Y-34708D01*
X55589Y-34593D01*
X55545Y-34487D01*
X55464Y-34405D01*
X55358Y-34361D01*
X55322Y-34361D01*
X55006Y-34044D01*
X54934Y-33997D01*
X54850Y-33979D01*
X54845Y-33980D01*
X51520Y-33980D01*
X51520Y-31434D01*
X51520Y-31366D01*
X51520Y-30766D01*
X51494Y-30704D01*
X51446Y-30656D01*
X51384Y-30630D01*
X51316Y-30630D01*
X50716Y-30630D01*
X50654Y-30656D01*
X50606Y-30704D01*
X50580Y-30766D01*
X50580Y-30834D01*
X50580Y-31434D01*
X50606Y-31496D01*
X50654Y-31544D01*
X50716Y-31570D01*
X50784Y-31570D01*
X51384Y-31570D01*
X51446Y-31544D01*
X51494Y-31496D01*
X51520Y-31434D01*
X51520Y-33980D01*
X51342Y-33980D01*
X51258Y-33997D01*
X51186Y-34044D01*
X51184Y-34046D01*
X50762Y-34468D01*
X50715Y-34540D01*
X50697Y-34624D01*
X50698Y-34628D01*
X50698Y-37421D01*
X50697Y-37426D01*
X50715Y-37510D01*
X50762Y-37582D01*
X51111Y-37930D01*
X51080Y-38006D01*
X51080Y-38193D01*
X51151Y-38366D01*
X51283Y-38498D01*
X51456Y-38570D01*
X51643Y-38570D01*
X51816Y-38499D01*
X51948Y-38367D01*
X52020Y-38194D01*
X52020Y-38007D01*
X51949Y-37834D01*
X51935Y-37820D01*
X51958Y-37820D01*
X52098Y-37960D01*
X52080Y-38006D01*
X52080Y-38193D01*
X52151Y-38366D01*
X52283Y-38498D01*
X52456Y-38570D01*
X52643Y-38570D01*
X52816Y-38499D01*
X52830Y-38485D01*
X52830Y-38508D01*
X52689Y-38648D01*
X52644Y-38630D01*
X52457Y-38630D01*
X52284Y-38701D01*
X52152Y-38833D01*
X52080Y-39006D01*
X52080Y-39193D01*
X52151Y-39366D01*
X52283Y-39498D01*
X52456Y-39570D01*
X52643Y-39570D01*
X52816Y-39499D01*
X52948Y-39367D01*
X53012Y-39213D01*
X53012Y-39326D01*
X52689Y-39648D01*
X52644Y-39630D01*
X52457Y-39630D01*
X52284Y-39701D01*
X52152Y-39833D01*
X52080Y-40006D01*
X52080Y-40193D01*
X52151Y-40366D01*
X52283Y-40498D01*
X52456Y-40570D01*
X52643Y-40570D01*
X52816Y-40499D01*
X52948Y-40367D01*
X53020Y-40194D01*
X53020Y-40007D01*
X53000Y-39960D01*
X53385Y-39575D01*
X53387Y-39574D01*
X53388Y-39574D01*
X53435Y-39502D01*
X53452Y-39418D01*
X53452Y-37634D01*
X53716Y-37370D01*
X54157Y-37370D01*
X54087Y-37571D01*
X54098Y-37784D01*
X54158Y-37931D01*
X54252Y-37958D01*
X54524Y-37685D01*
X54559Y-37650D01*
X54630Y-37579D01*
X54665Y-37544D01*
X54938Y-37272D01*
X54927Y-37234D01*
X55078Y-37082D01*
X55080Y-37081D01*
X55081Y-37081D01*
X55128Y-37009D01*
X55145Y-36925D01*
X55145Y-36816D01*
X55222Y-36739D01*
X55257Y-36739D01*
X55363Y-36695D01*
X55445Y-36614D01*
X55489Y-36508D01*
X55489Y-36393D01*
X55445Y-36287D01*
X55364Y-36205D01*
X55258Y-36161D01*
X55200Y-36161D01*
X55472Y-35889D01*
X55507Y-35889D01*
X55613Y-35845D01*
X55695Y-35764D01*
X55739Y-35658D01*
X55739Y-39430D01*
X55173Y-39430D01*
X55173Y-37729D01*
X55162Y-37516D01*
X55102Y-37369D01*
X55008Y-37342D01*
X54701Y-37650D01*
X55008Y-37958D01*
X55102Y-37931D01*
X55173Y-37729D01*
X55173Y-39430D01*
X55100Y-39430D01*
X55100Y-39316D01*
X55074Y-39254D01*
X55026Y-39206D01*
X54964Y-39180D01*
X54940Y-39180D01*
X54940Y-38744D01*
X54940Y-38557D01*
X54869Y-38384D01*
X54737Y-38252D01*
X54590Y-38190D01*
X54764Y-38182D01*
X54911Y-38122D01*
X54938Y-38028D01*
X54630Y-37721D01*
X54322Y-38028D01*
X54349Y-38122D01*
X54514Y-38180D01*
X54377Y-38180D01*
X54204Y-38251D01*
X54072Y-38383D01*
X54000Y-38556D01*
X54000Y-38743D01*
X54071Y-38916D01*
X54203Y-39048D01*
X54376Y-39120D01*
X54563Y-39120D01*
X54736Y-39049D01*
X54868Y-38917D01*
X54940Y-38744D01*
X54940Y-39180D01*
X54896Y-39180D01*
X54296Y-39180D01*
X54234Y-39206D01*
X54186Y-39254D01*
X54160Y-39316D01*
X54160Y-39384D01*
X54160Y-39984D01*
X54186Y-40046D01*
X54234Y-40094D01*
X54296Y-40120D01*
X54364Y-40120D01*
X54964Y-40120D01*
X55026Y-40094D01*
X55074Y-40046D01*
X55100Y-39984D01*
X55100Y-39916D01*
X55100Y-39870D01*
X56185Y-39870D01*
X56190Y-39871D01*
X56190Y-39870D01*
X56274Y-39853D01*
X56346Y-39806D01*
X57491Y-38660D01*
X60935Y-38660D01*
X60940Y-38661D01*
X60940Y-38660D01*
X61024Y-38643D01*
X61096Y-38596D01*
X61273Y-38417D01*
X61275Y-38416D01*
X61276Y-38416D01*
X61304Y-38373D01*
X61323Y-38345D01*
X61323Y-38344D01*
X61340Y-38260D01*
X61340Y-36300D01*
X61323Y-36216D01*
X61323Y-36215D01*
X61304Y-36186D01*
X61276Y-36144D01*
X61273Y-36142D01*
X59960Y-34828D01*
X59960Y-34781D01*
X60002Y-34799D01*
X60117Y-34799D01*
X60223Y-34755D01*
X60224Y-34753D01*
X60226Y-34755D01*
X60332Y-34799D01*
X60447Y-34799D01*
X60553Y-34755D01*
X60635Y-34674D01*
X60679Y-34568D01*
X60679Y-34453D01*
X60635Y-34347D01*
X60610Y-34321D01*
X60610Y-33951D01*
X60855Y-33705D01*
X60857Y-33704D01*
X60858Y-33704D01*
X60905Y-33632D01*
X60922Y-33548D01*
X60922Y-30879D01*
X61323Y-30477D01*
X61325Y-30476D01*
X61326Y-30476D01*
X61372Y-30405D01*
X61373Y-30404D01*
X61386Y-30338D01*
X61390Y-30321D01*
X61389Y-30320D01*
X61390Y-30320D01*
X61390Y-30178D01*
X61415Y-30154D01*
X61459Y-30048D01*
X61459Y-29944D01*
X62196Y-29944D01*
X62201Y-29945D01*
X62201Y-29944D01*
X62285Y-29927D01*
X62357Y-29880D01*
X62697Y-29538D01*
X62725Y-29566D01*
X62757Y-29533D01*
X62769Y-29572D01*
X62971Y-29643D01*
X63184Y-29632D01*
X63331Y-29572D01*
X63358Y-29478D01*
X63085Y-29206D01*
X63050Y-29171D01*
X62979Y-29100D01*
X63050Y-29029D01*
X63085Y-28994D01*
X63358Y-28722D01*
X63331Y-28628D01*
X63153Y-28565D01*
X63316Y-28499D01*
X63448Y-28367D01*
X63520Y-28194D01*
X63520Y-28818D01*
X63428Y-28792D01*
X63121Y-29100D01*
X63428Y-29408D01*
X63522Y-29381D01*
X63593Y-29179D01*
X63593Y-33611D01*
X63493Y-33611D01*
X63387Y-33655D01*
X63358Y-33683D01*
X63324Y-33716D01*
X63264Y-33655D01*
X63158Y-33611D01*
X63043Y-33611D01*
X62937Y-33655D01*
X62874Y-33716D01*
X62814Y-33655D01*
X62708Y-33611D01*
X62593Y-33611D01*
X62487Y-33655D01*
X62424Y-33716D01*
X62364Y-33655D01*
X62258Y-33611D01*
X62143Y-33611D01*
X62037Y-33655D01*
X61974Y-33716D01*
X61914Y-33655D01*
X61808Y-33611D01*
X61693Y-33611D01*
X61587Y-33655D01*
X61505Y-33736D01*
X61461Y-33842D01*
X61461Y-33957D01*
X61505Y-34063D01*
X61586Y-34145D01*
X61692Y-34189D01*
X61727Y-34189D01*
X65704Y-38165D01*
X65704Y-38469D01*
X65703Y-38474D01*
X65721Y-38558D01*
X65768Y-38630D01*
X66098Y-38960D01*
X66080Y-39006D01*
X66080Y-39193D01*
X66151Y-39366D01*
X66283Y-39498D01*
X66447Y-39566D01*
X66416Y-39568D01*
X66269Y-39628D01*
X66242Y-39722D01*
X66550Y-40029D01*
X66858Y-39722D01*
X66831Y-39628D01*
X66653Y-39565D01*
X66816Y-39499D01*
X66948Y-39367D01*
X67020Y-39194D01*
X67020Y-39007D01*
X66949Y-38834D01*
X66935Y-38820D01*
X66958Y-38820D01*
X67098Y-38960D01*
X67080Y-39006D01*
X67080Y-39193D01*
X67151Y-39366D01*
X67283Y-39498D01*
X67456Y-39570D01*
X67643Y-39570D01*
X67816Y-39499D01*
X67948Y-39367D01*
X68020Y-39194D01*
X68020Y-39766D01*
X67994Y-39704D01*
X67946Y-39656D01*
X67884Y-39630D01*
X67816Y-39630D01*
X67216Y-39630D01*
X67154Y-39656D01*
X67106Y-39704D01*
X67080Y-39766D01*
X67080Y-39834D01*
X67080Y-39961D01*
X67022Y-39819D01*
X66928Y-39792D01*
X66621Y-40100D01*
X66928Y-40408D01*
X67022Y-40381D01*
X67080Y-40215D01*
X67080Y-40434D01*
X67106Y-40496D01*
X67154Y-40544D01*
X67216Y-40570D01*
X67284Y-40570D01*
X67884Y-40570D01*
X67946Y-40544D01*
X67994Y-40496D01*
X68020Y-40434D01*
X68020Y-43635D01*
X67721Y-43635D01*
X67659Y-43661D01*
X67611Y-43709D01*
X67585Y-43771D01*
X67585Y-43839D01*
X67585Y-44089D01*
X67578Y-43966D01*
X67518Y-43821D01*
X67425Y-43796D01*
X67354Y-43867D01*
X67354Y-43725D01*
X67329Y-43632D01*
X67128Y-43560D01*
X66916Y-43572D01*
X66858Y-43596D01*
X66858Y-40478D01*
X66550Y-40171D01*
X66479Y-40241D01*
X66479Y-40100D01*
X66172Y-39792D01*
X66078Y-39819D01*
X66007Y-40021D01*
X66018Y-40234D01*
X66078Y-40381D01*
X66172Y-40408D01*
X66479Y-40100D01*
X66479Y-40241D01*
X66242Y-40478D01*
X66269Y-40572D01*
X66471Y-40643D01*
X66684Y-40632D01*
X66831Y-40572D01*
X66858Y-40478D01*
X66858Y-43596D01*
X66771Y-43632D01*
X66746Y-43725D01*
X67050Y-44029D01*
X67354Y-43725D01*
X67354Y-43867D01*
X67121Y-44100D01*
X67425Y-44404D01*
X67518Y-44379D01*
X67585Y-44191D01*
X67585Y-44429D01*
X67611Y-44491D01*
X67659Y-44539D01*
X67721Y-44565D01*
X67789Y-44565D01*
X68379Y-44565D01*
X68441Y-44539D01*
X68489Y-44491D01*
X68515Y-44429D01*
X68515Y-46550D01*
X67354Y-46550D01*
X67354Y-44475D01*
X67050Y-44171D01*
X66979Y-44242D01*
X66979Y-44100D01*
X66675Y-43796D01*
X66582Y-43821D01*
X66510Y-44022D01*
X66522Y-44234D01*
X66582Y-44379D01*
X66675Y-44404D01*
X66979Y-44100D01*
X66979Y-44242D01*
X66746Y-44475D01*
X66771Y-44568D01*
X66972Y-44640D01*
X67184Y-44628D01*
X67329Y-44568D01*
X67354Y-44475D01*
X67354Y-46550D01*
X64093Y-46550D01*
X64093Y-44529D01*
X64082Y-44316D01*
X64022Y-44169D01*
X63928Y-44142D01*
X63858Y-44212D01*
X63621Y-44450D01*
X63928Y-44758D01*
X64022Y-44731D01*
X64093Y-44529D01*
X64093Y-46550D01*
X64020Y-46550D01*
X64020Y-45544D01*
X64020Y-45357D01*
X63949Y-45184D01*
X63817Y-45052D01*
X63652Y-44983D01*
X63684Y-44982D01*
X63831Y-44922D01*
X63858Y-44828D01*
X63585Y-44556D01*
X63550Y-44521D01*
X63479Y-44450D01*
X63550Y-44379D01*
X63585Y-44344D01*
X63858Y-44072D01*
X63831Y-43978D01*
X63629Y-43907D01*
X63416Y-43918D01*
X63269Y-43978D01*
X63257Y-44016D01*
X63225Y-43984D01*
X63192Y-44016D01*
X62780Y-43603D01*
X62780Y-40585D01*
X62763Y-40501D01*
X62716Y-40429D01*
X62713Y-40427D01*
X62341Y-40054D01*
X62269Y-40007D01*
X62185Y-39989D01*
X62180Y-39990D01*
X62179Y-39990D01*
X60922Y-38732D01*
X60850Y-38685D01*
X60766Y-38667D01*
X60761Y-38668D01*
X59848Y-38668D01*
X59763Y-38685D01*
X59734Y-38703D01*
X59692Y-38732D01*
X59690Y-38734D01*
X59564Y-38860D01*
X57808Y-38860D01*
X57784Y-38835D01*
X57678Y-38791D01*
X57563Y-38791D01*
X57457Y-38835D01*
X57375Y-38916D01*
X57331Y-39022D01*
X57331Y-39137D01*
X57375Y-39243D01*
X57456Y-39325D01*
X57562Y-39369D01*
X57677Y-39369D01*
X57783Y-39325D01*
X57808Y-39300D01*
X59381Y-39300D01*
X58178Y-40503D01*
X58131Y-40575D01*
X58113Y-40659D01*
X58114Y-40663D01*
X58114Y-42802D01*
X57560Y-43356D01*
X56441Y-43356D01*
X56356Y-43373D01*
X56327Y-43391D01*
X56285Y-43420D01*
X56283Y-43422D01*
X55697Y-44008D01*
X55650Y-44080D01*
X55632Y-44164D01*
X55633Y-44168D01*
X55633Y-45718D01*
X55632Y-45723D01*
X55650Y-45807D01*
X55697Y-45879D01*
X55937Y-46118D01*
X55939Y-46121D01*
X56011Y-46168D01*
X56095Y-46185D01*
X56980Y-46185D01*
X56985Y-46186D01*
X56985Y-46185D01*
X57069Y-46168D01*
X57141Y-46121D01*
X57218Y-46042D01*
X57220Y-46041D01*
X57221Y-46041D01*
X57268Y-45969D01*
X57285Y-45885D01*
X57286Y-45885D01*
X57285Y-45880D01*
X57285Y-45848D01*
X57456Y-45920D01*
X57643Y-45920D01*
X57816Y-45849D01*
X57948Y-45717D01*
X58020Y-45544D01*
X58020Y-45357D01*
X57949Y-45184D01*
X57817Y-45052D01*
X57698Y-45002D01*
X57616Y-44920D01*
X57643Y-44920D01*
X57816Y-44849D01*
X57948Y-44717D01*
X58020Y-44544D01*
X58020Y-44357D01*
X58001Y-44310D01*
X59033Y-43277D01*
X59035Y-43276D01*
X59036Y-43276D01*
X59082Y-43205D01*
X59083Y-43204D01*
X59096Y-43138D01*
X59100Y-43121D01*
X59099Y-43120D01*
X59100Y-43120D01*
X59100Y-42607D01*
X59127Y-42673D01*
X59465Y-43011D01*
X59906Y-43194D01*
X60383Y-43194D01*
X60824Y-43012D01*
X61162Y-42674D01*
X61284Y-42380D01*
X61284Y-43404D01*
X60689Y-43998D01*
X60644Y-43980D01*
X60457Y-43980D01*
X60284Y-44051D01*
X60152Y-44183D01*
X60080Y-44356D01*
X60080Y-44543D01*
X60151Y-44716D01*
X60283Y-44848D01*
X60456Y-44920D01*
X60643Y-44920D01*
X60816Y-44849D01*
X60830Y-44835D01*
X60830Y-44858D01*
X60689Y-44998D01*
X60644Y-44980D01*
X60457Y-44980D01*
X60284Y-45051D01*
X60152Y-45183D01*
X60080Y-45356D01*
X60080Y-45543D01*
X60151Y-45716D01*
X60283Y-45848D01*
X60456Y-45920D01*
X60643Y-45920D01*
X60816Y-45849D01*
X60948Y-45717D01*
X61020Y-45544D01*
X61020Y-45357D01*
X61000Y-45310D01*
X61203Y-45107D01*
X61205Y-45106D01*
X61206Y-45106D01*
X61253Y-45034D01*
X61270Y-44950D01*
X61271Y-44950D01*
X61270Y-44945D01*
X61270Y-44835D01*
X61283Y-44848D01*
X61456Y-44920D01*
X61643Y-44920D01*
X61816Y-44849D01*
X61830Y-44835D01*
X61830Y-44858D01*
X61689Y-44998D01*
X61644Y-44980D01*
X61457Y-44980D01*
X61284Y-45051D01*
X61152Y-45183D01*
X61080Y-45356D01*
X61080Y-45543D01*
X61151Y-45716D01*
X61283Y-45848D01*
X61456Y-45920D01*
X61643Y-45920D01*
X61816Y-45849D01*
X61948Y-45717D01*
X62020Y-45544D01*
X62020Y-45357D01*
X62000Y-45310D01*
X62203Y-45107D01*
X62205Y-45106D01*
X62206Y-45106D01*
X62253Y-45034D01*
X62270Y-44950D01*
X62271Y-44950D01*
X62270Y-44945D01*
X62270Y-44835D01*
X62283Y-44848D01*
X62456Y-44920D01*
X62643Y-44920D01*
X62816Y-44849D01*
X62825Y-44840D01*
X62825Y-44940D01*
X62824Y-44945D01*
X62842Y-45029D01*
X62889Y-45101D01*
X63098Y-45310D01*
X63080Y-45356D01*
X63080Y-45543D01*
X63151Y-45716D01*
X63283Y-45848D01*
X63456Y-45920D01*
X63643Y-45920D01*
X63816Y-45849D01*
X63948Y-45717D01*
X64020Y-45544D01*
X64020Y-46550D01*
X63020Y-46550D01*
X63020Y-45544D01*
X63020Y-45357D01*
X62949Y-45184D01*
X62817Y-45052D01*
X62644Y-44980D01*
X62457Y-44980D01*
X62284Y-45051D01*
X62152Y-45183D01*
X62080Y-45356D01*
X62080Y-45543D01*
X62151Y-45716D01*
X62283Y-45848D01*
X62456Y-45920D01*
X62643Y-45920D01*
X62816Y-45849D01*
X62948Y-45717D01*
X63020Y-45544D01*
X63020Y-46550D01*
X60020Y-46550D01*
X60020Y-45544D01*
X60020Y-45357D01*
X60020Y-44544D01*
X60020Y-44357D01*
X59949Y-44184D01*
X59817Y-44052D01*
X59644Y-43980D01*
X59457Y-43980D01*
X59284Y-44051D01*
X59152Y-44183D01*
X59080Y-44356D01*
X59080Y-44543D01*
X59151Y-44716D01*
X59283Y-44848D01*
X59456Y-44920D01*
X59643Y-44920D01*
X59816Y-44849D01*
X59948Y-44717D01*
X60020Y-44544D01*
X60020Y-45357D01*
X59949Y-45184D01*
X59817Y-45052D01*
X59644Y-44980D01*
X59457Y-44980D01*
X59284Y-45051D01*
X59152Y-45183D01*
X59080Y-45356D01*
X59080Y-45543D01*
X59151Y-45716D01*
X59283Y-45848D01*
X59456Y-45920D01*
X59643Y-45920D01*
X59816Y-45849D01*
X59948Y-45717D01*
X60020Y-45544D01*
X60020Y-46550D01*
X59020Y-46550D01*
X59020Y-45544D01*
X59020Y-45357D01*
X59020Y-44544D01*
X59020Y-44357D01*
X58949Y-44184D01*
X58817Y-44052D01*
X58644Y-43980D01*
X58457Y-43980D01*
X58284Y-44051D01*
X58152Y-44183D01*
X58080Y-44356D01*
X58080Y-44543D01*
X58151Y-44716D01*
X58283Y-44848D01*
X58456Y-44920D01*
X58643Y-44920D01*
X58816Y-44849D01*
X58948Y-44717D01*
X59020Y-44544D01*
X59020Y-45357D01*
X58949Y-45184D01*
X58817Y-45052D01*
X58644Y-44980D01*
X58457Y-44980D01*
X58284Y-45051D01*
X58152Y-45183D01*
X58080Y-45356D01*
X58080Y-45543D01*
X58151Y-45716D01*
X58283Y-45848D01*
X58456Y-45920D01*
X58643Y-45920D01*
X58816Y-45849D01*
X58948Y-45717D01*
X59020Y-45544D01*
X59020Y-46550D01*
X53093Y-46550D01*
X53093Y-44179D01*
X53093Y-43179D01*
X53082Y-42966D01*
X53022Y-42819D01*
X53020Y-42818D01*
X53020Y-42194D01*
X53020Y-42007D01*
X53020Y-41194D01*
X53020Y-41007D01*
X52949Y-40834D01*
X52817Y-40702D01*
X52644Y-40630D01*
X52457Y-40630D01*
X52284Y-40701D01*
X52152Y-40833D01*
X52080Y-41006D01*
X52080Y-41193D01*
X52151Y-41366D01*
X52283Y-41498D01*
X52456Y-41570D01*
X52643Y-41570D01*
X52816Y-41499D01*
X52948Y-41367D01*
X53020Y-41194D01*
X53020Y-42007D01*
X52949Y-41834D01*
X52817Y-41702D01*
X52644Y-41630D01*
X52457Y-41630D01*
X52284Y-41701D01*
X52152Y-41833D01*
X52080Y-42006D01*
X52080Y-42193D01*
X52151Y-42366D01*
X52283Y-42498D01*
X52447Y-42566D01*
X52416Y-42568D01*
X52269Y-42628D01*
X52242Y-42722D01*
X52550Y-43029D01*
X52858Y-42722D01*
X52831Y-42628D01*
X52653Y-42565D01*
X52816Y-42499D01*
X52948Y-42367D01*
X53020Y-42194D01*
X53020Y-42818D01*
X52928Y-42792D01*
X52621Y-43100D01*
X52928Y-43408D01*
X53022Y-43381D01*
X53093Y-43179D01*
X53093Y-44179D01*
X53082Y-43966D01*
X53022Y-43819D01*
X52928Y-43792D01*
X52858Y-43862D01*
X52858Y-43722D01*
X52831Y-43628D01*
X52757Y-43602D01*
X52831Y-43572D01*
X52858Y-43478D01*
X52550Y-43171D01*
X52479Y-43241D01*
X52479Y-43100D01*
X52172Y-42792D01*
X52078Y-42819D01*
X52052Y-42892D01*
X52022Y-42819D01*
X52020Y-42818D01*
X52020Y-42194D01*
X52020Y-42007D01*
X52020Y-41194D01*
X52020Y-41007D01*
X52020Y-40194D01*
X52020Y-40007D01*
X52020Y-39194D01*
X52020Y-39007D01*
X51949Y-38834D01*
X51817Y-38702D01*
X51644Y-38630D01*
X51457Y-38630D01*
X51284Y-38701D01*
X51152Y-38833D01*
X51080Y-39006D01*
X51080Y-39193D01*
X51151Y-39366D01*
X51283Y-39498D01*
X51456Y-39570D01*
X51643Y-39570D01*
X51816Y-39499D01*
X51948Y-39367D01*
X52020Y-39194D01*
X52020Y-40007D01*
X51949Y-39834D01*
X51817Y-39702D01*
X51644Y-39630D01*
X51457Y-39630D01*
X51284Y-39701D01*
X51152Y-39833D01*
X51080Y-40006D01*
X51080Y-40193D01*
X51151Y-40366D01*
X51283Y-40498D01*
X51456Y-40570D01*
X51643Y-40570D01*
X51816Y-40499D01*
X51948Y-40367D01*
X52020Y-40194D01*
X52020Y-41007D01*
X51949Y-40834D01*
X51817Y-40702D01*
X51644Y-40630D01*
X51457Y-40630D01*
X51284Y-40701D01*
X51152Y-40833D01*
X51080Y-41006D01*
X51080Y-41193D01*
X51151Y-41366D01*
X51283Y-41498D01*
X51456Y-41570D01*
X51643Y-41570D01*
X51816Y-41499D01*
X51948Y-41367D01*
X52020Y-41194D01*
X52020Y-42007D01*
X51949Y-41834D01*
X51817Y-41702D01*
X51644Y-41630D01*
X51457Y-41630D01*
X51284Y-41701D01*
X51152Y-41833D01*
X51080Y-42006D01*
X51080Y-42193D01*
X51151Y-42366D01*
X51283Y-42498D01*
X51447Y-42566D01*
X51416Y-42568D01*
X51269Y-42628D01*
X51242Y-42722D01*
X51550Y-43029D01*
X51858Y-42722D01*
X51831Y-42628D01*
X51653Y-42565D01*
X51816Y-42499D01*
X51948Y-42367D01*
X52020Y-42194D01*
X52020Y-42818D01*
X51928Y-42792D01*
X51621Y-43100D01*
X51928Y-43408D01*
X52022Y-43381D01*
X52047Y-43307D01*
X52078Y-43381D01*
X52172Y-43408D01*
X52479Y-43100D01*
X52479Y-43241D01*
X52242Y-43478D01*
X52269Y-43572D01*
X52342Y-43597D01*
X52269Y-43628D01*
X52242Y-43722D01*
X52550Y-44029D01*
X52858Y-43722D01*
X52858Y-43862D01*
X52621Y-44100D01*
X52928Y-44408D01*
X53022Y-44381D01*
X53093Y-44179D01*
X53093Y-46550D01*
X52858Y-46550D01*
X52858Y-44478D01*
X52550Y-44171D01*
X52479Y-44241D01*
X52479Y-44100D01*
X52172Y-43792D01*
X52078Y-43819D01*
X52052Y-43892D01*
X52022Y-43819D01*
X51928Y-43792D01*
X51858Y-43862D01*
X51858Y-43722D01*
X51831Y-43628D01*
X51757Y-43602D01*
X51831Y-43572D01*
X51858Y-43478D01*
X51550Y-43171D01*
X51479Y-43241D01*
X51479Y-43100D01*
X51172Y-42792D01*
X51078Y-42819D01*
X51007Y-43021D01*
X51018Y-43234D01*
X51078Y-43381D01*
X51172Y-43408D01*
X51479Y-43100D01*
X51479Y-43241D01*
X51242Y-43478D01*
X51269Y-43572D01*
X51342Y-43597D01*
X51269Y-43628D01*
X51242Y-43722D01*
X51550Y-44029D01*
X51858Y-43722D01*
X51858Y-43862D01*
X51621Y-44100D01*
X51928Y-44408D01*
X52022Y-44381D01*
X52047Y-44307D01*
X52078Y-44381D01*
X52172Y-44408D01*
X52479Y-44100D01*
X52479Y-44241D01*
X52242Y-44478D01*
X52269Y-44572D01*
X52471Y-44643D01*
X52684Y-44632D01*
X52831Y-44572D01*
X52858Y-44478D01*
X52858Y-46550D01*
X51858Y-46550D01*
X51858Y-44478D01*
X51550Y-44171D01*
X51479Y-44241D01*
X51479Y-44100D01*
X51172Y-43792D01*
X51078Y-43819D01*
X51007Y-44021D01*
X51018Y-44234D01*
X51078Y-44381D01*
X51172Y-44408D01*
X51479Y-44100D01*
X51479Y-44241D01*
X51242Y-44478D01*
X51269Y-44572D01*
X51471Y-44643D01*
X51684Y-44632D01*
X51831Y-44572D01*
X51858Y-44478D01*
X51858Y-46550D01*
X50300Y-46550D01*
X50300Y-27550D01*
X66000Y-27550D01*
X66000Y-32550D01*
X69300Y-32550D01*
X69300Y-46550D01*
M02*
