G04 (created by PCBNEW-RS274X (2012-apr-16-27)-stable) date Sunday 03,March,2013 08:17:15 AM SGT*
G01*
G70*
G90*
%MOIN*%
G04 Gerber Fmt 3.4, Leading zero omitted, Abs format*
%FSLAX34Y34*%
G04 APERTURE LIST*
%ADD10C,0.006000*%
%ADD11R,0.079100X0.079100*%
%ADD12C,0.079100*%
%ADD13R,0.080000X0.080000*%
%ADD14C,0.080000*%
%ADD15R,0.029800X0.080000*%
%ADD16O,0.029800X0.080000*%
%ADD17O,0.080000X0.029800*%
%ADD18R,0.040000X0.050000*%
%ADD19R,0.045000X0.065000*%
%ADD20R,0.065000X0.045000*%
%ADD21R,0.043600X0.035700*%
%ADD22R,0.035700X0.043600*%
%ADD23R,0.075100X0.194800*%
%ADD24R,0.051400X0.051400*%
%ADD25C,0.230000*%
G04 APERTURE END LIST*
G54D10*
G54D11*
X68050Y-44100D03*
G54D12*
X67050Y-44100D03*
G54D13*
X54630Y-39650D03*
G54D14*
X54470Y-38650D03*
X54630Y-37650D03*
X54470Y-36650D03*
X54630Y-35650D03*
X54470Y-34650D03*
G54D15*
X60926Y-33989D03*
G54D16*
X60729Y-33989D03*
X60532Y-33989D03*
X60335Y-33989D03*
X60138Y-33989D03*
X59942Y-33989D03*
X59745Y-33989D03*
X59548Y-33989D03*
X59351Y-33989D03*
X59154Y-33989D03*
X58957Y-33989D03*
X58761Y-33989D03*
X58564Y-33989D03*
X58367Y-33989D03*
X58170Y-33989D03*
X57973Y-33989D03*
G54D17*
X57075Y-34824D03*
X57075Y-35021D03*
X57075Y-35218D03*
X57075Y-35415D03*
X57075Y-35612D03*
X57075Y-35808D03*
X57075Y-36005D03*
X57075Y-36202D03*
X57075Y-36399D03*
X57075Y-36596D03*
X57075Y-36793D03*
X57075Y-36989D03*
X57075Y-37186D03*
X57075Y-37383D03*
X57075Y-37580D03*
X57075Y-37777D03*
G54D16*
X57973Y-38675D03*
X58170Y-38675D03*
X58367Y-38675D03*
X58564Y-38675D03*
X58761Y-38675D03*
X58957Y-38675D03*
X59154Y-38675D03*
X59351Y-38675D03*
X59548Y-38675D03*
X59745Y-38675D03*
X59942Y-38675D03*
X60138Y-38675D03*
X60335Y-38675D03*
X60532Y-38675D03*
X60729Y-38675D03*
X60926Y-38675D03*
G54D17*
X61761Y-37777D03*
X61761Y-37580D03*
X61761Y-37186D03*
X61768Y-37383D03*
X61761Y-36989D03*
X61761Y-36793D03*
X61761Y-36596D03*
X61761Y-36399D03*
X61761Y-36202D03*
X61761Y-36005D03*
X61761Y-35811D03*
X61761Y-35614D03*
X61761Y-35417D03*
X61761Y-35220D03*
X61761Y-35024D03*
X61761Y-34827D03*
G54D13*
X51050Y-29100D03*
G54D14*
X51050Y-28100D03*
X52050Y-29100D03*
X52050Y-28100D03*
X53050Y-29100D03*
X53050Y-28100D03*
X54050Y-29100D03*
X54050Y-28100D03*
X55050Y-29100D03*
X55050Y-28100D03*
X56050Y-29100D03*
X56050Y-28100D03*
X57050Y-29100D03*
X57050Y-28100D03*
X58050Y-29100D03*
X58050Y-28100D03*
X59050Y-29100D03*
X59050Y-28100D03*
X60050Y-29100D03*
X60050Y-28100D03*
X61050Y-29100D03*
X61050Y-28100D03*
X62050Y-29100D03*
X62050Y-28100D03*
X63050Y-29100D03*
X63050Y-28100D03*
G54D18*
X58425Y-30600D03*
X57675Y-30600D03*
X58425Y-31600D03*
X58050Y-30600D03*
X57675Y-31600D03*
G54D19*
X58350Y-32200D03*
X57750Y-32200D03*
G54D20*
X59150Y-30700D03*
X59150Y-31300D03*
G54D21*
X58890Y-33337D03*
X58890Y-32983D03*
X55350Y-38773D03*
X55350Y-39127D03*
X61750Y-33577D03*
X61750Y-33223D03*
X62200Y-33577D03*
X62200Y-33223D03*
X62650Y-33577D03*
X62650Y-33223D03*
X63100Y-33577D03*
X63100Y-33223D03*
X63550Y-33577D03*
X63550Y-33223D03*
X64000Y-33577D03*
X64000Y-33223D03*
X64450Y-33577D03*
X64450Y-33223D03*
X64900Y-33577D03*
X64900Y-33223D03*
X61340Y-40637D03*
X61340Y-40283D03*
G54D22*
X62773Y-36300D03*
X63127Y-36300D03*
X58367Y-39330D03*
X58013Y-39330D03*
G54D21*
X55700Y-36877D03*
X55700Y-36523D03*
G54D22*
X56197Y-35020D03*
X55843Y-35020D03*
G54D23*
X57450Y-41200D03*
X58434Y-41200D03*
X56466Y-41200D03*
G54D24*
X61300Y-39285D03*
X61300Y-39875D03*
G54D13*
X51550Y-35100D03*
G54D14*
X52550Y-35100D03*
X51550Y-36100D03*
X52550Y-36100D03*
X51550Y-37100D03*
X52550Y-37100D03*
X51550Y-38100D03*
X52550Y-38100D03*
X51550Y-39100D03*
X52550Y-39100D03*
X51550Y-40100D03*
X52550Y-40100D03*
X51550Y-41100D03*
X52550Y-41100D03*
X51550Y-42100D03*
X52550Y-42100D03*
X51550Y-43100D03*
X52550Y-43100D03*
X51550Y-44100D03*
X52550Y-44100D03*
G54D13*
X67550Y-40100D03*
G54D14*
X66550Y-40100D03*
X67550Y-39100D03*
X66550Y-39100D03*
X67550Y-38100D03*
X66550Y-38100D03*
X67550Y-37100D03*
X66550Y-37100D03*
X67550Y-36100D03*
X66550Y-36100D03*
G54D19*
X63200Y-36800D03*
X63800Y-36800D03*
G54D13*
X56550Y-45450D03*
G54D14*
X56550Y-44450D03*
X57550Y-45450D03*
X57550Y-44450D03*
X58550Y-45450D03*
X58550Y-44450D03*
X59550Y-45450D03*
X59550Y-44450D03*
X60550Y-45450D03*
X60550Y-44450D03*
X61550Y-45450D03*
X61550Y-44450D03*
X62550Y-45450D03*
X62550Y-44450D03*
X63550Y-45450D03*
X63550Y-44450D03*
G54D13*
X52550Y-32100D03*
G54D14*
X52550Y-31100D03*
X53550Y-32100D03*
X53550Y-31100D03*
X54550Y-32100D03*
X54550Y-31100D03*
X55550Y-32100D03*
X55550Y-31100D03*
G54D13*
X51050Y-31100D03*
G54D14*
X51050Y-30100D03*
G54D25*
X60145Y-41994D03*
M02*
