M48
;DRILL file {Pcbnew (2012-apr-16-27)-stable} date Friday 15,March,2013 10:09:29 PM SGT
;FORMAT={-:-/ absolute / inch / decimal}
FMAT,2
INCH,TZ
T1C0.012
T2C0.032
T3C0.039
T4C0.040
T5C0.047
T6C0.059
T7C0.106
%
G90
G05
M72
T1
X3.960Y-4.027
X3.960Y-4.067
X3.972Y-3.748
X4.100Y-4.357
X4.100Y-4.377
X4.100Y-4.397
X4.100Y-4.417
X4.100Y-4.437
X4.100Y-4.457
X4.100Y-4.477
X4.100Y-4.497
X4.100Y-4.517
X4.355Y-4.487
X4.355Y-4.507
X4.355Y-4.527
X4.355Y-4.547
X4.355Y-4.567
X4.355Y-4.587
X4.355Y-4.607
X4.375Y-4.487
X4.375Y-4.507
X4.375Y-4.527
X4.375Y-4.547
X4.375Y-4.567
X4.375Y-4.587
X4.375Y-4.607
X4.395Y-4.487
X4.395Y-4.507
X4.395Y-4.527
X4.395Y-4.547
X4.395Y-4.567
X4.395Y-4.587
X4.395Y-4.607
X4.750Y-4.467
X4.800Y-4.677
X4.850Y-4.467
X4.900Y-4.677
X5.000Y-4.677
X5.515Y-4.227
X5.672Y-4.793
X5.678Y-4.747
X5.710Y-4.813
X5.746Y-4.835
X6.101Y-4.586
X7.098Y-5.045
T2
X4.070Y-3.707
X4.070Y-3.907
X4.190Y-3.707
X4.190Y-3.907
X5.650Y-4.217
X5.650Y-4.517
X5.750Y-4.217
X5.750Y-4.517
X5.800Y-4.967
X5.850Y-4.217
X5.850Y-4.517
X5.950Y-4.217
X5.950Y-4.517
X6.050Y-4.217
X6.050Y-4.517
X6.150Y-4.217
X6.150Y-4.517
X6.250Y-4.217
X6.250Y-4.517
X6.350Y-4.217
X6.350Y-4.517
X6.450Y-4.217
X6.450Y-4.517
X6.550Y-4.217
X6.550Y-4.517
X6.650Y-4.217
X6.650Y-4.517
X6.750Y-4.217
X6.750Y-4.517
X6.850Y-4.217
X6.850Y-4.517
X6.950Y-4.217
X6.950Y-4.517
T3
X3.950Y-4.967
X4.050Y-4.967
X4.150Y-4.967
X4.300Y-4.967
X4.400Y-4.967
X4.450Y-4.242
X4.500Y-4.967
X4.550Y-4.242
X4.650Y-4.242
X4.650Y-4.967
X4.750Y-4.967
X4.850Y-4.967
X5.000Y-4.967
X5.100Y-4.967
X5.200Y-4.967
X5.325Y-4.242
X5.325Y-4.342
X5.325Y-4.467
X5.325Y-4.567
T4
X3.700Y-3.592
X3.700Y-3.792
X3.800Y-3.592
X3.800Y-3.792
X3.900Y-3.592
X3.900Y-3.792
X4.300Y-3.517
X4.300Y-4.017
X4.400Y-3.517
X4.400Y-4.017
X4.500Y-3.517
X4.500Y-4.017
X4.600Y-3.517
X4.600Y-4.017
X4.700Y-3.517
X4.700Y-4.017
X4.800Y-3.517
X4.800Y-3.767
X4.800Y-3.867
X4.800Y-4.017
X4.900Y-3.517
X4.900Y-3.767
X4.900Y-3.867
X4.900Y-4.017
X5.000Y-3.517
X5.000Y-3.767
X5.000Y-3.867
X5.000Y-4.017
X5.100Y-3.517
X5.100Y-4.017
X5.200Y-3.517
X5.200Y-4.017
X5.300Y-3.517
X5.300Y-4.017
X5.400Y-3.517
X5.400Y-4.017
X5.400Y-4.917
X5.400Y-5.017
X5.500Y-3.517
X5.500Y-4.017
X5.600Y-3.517
X5.600Y-3.767
X5.600Y-3.867
X5.600Y-4.017
X5.650Y-4.675
X5.700Y-3.517
X5.700Y-3.767
X5.700Y-3.867
X5.700Y-4.017
X5.750Y-4.659
X5.800Y-3.517
X5.800Y-3.767
X5.800Y-3.867
X5.800Y-4.017
X5.800Y-4.867
X5.850Y-4.675
X5.900Y-3.517
X5.900Y-4.017
X5.900Y-4.867
X5.900Y-4.967
X5.950Y-4.659
X6.000Y-3.517
X6.000Y-4.017
X6.000Y-4.867
X6.000Y-4.967
X6.050Y-4.675
X6.100Y-3.418
X6.100Y-3.517
X6.100Y-4.017
X6.100Y-4.867
X6.100Y-4.967
X6.150Y-4.659
X6.200Y-3.418
X6.200Y-3.517
X6.200Y-4.017
X6.200Y-4.867
X6.200Y-4.967
X6.300Y-3.418
X6.300Y-3.517
X6.300Y-4.017
X6.300Y-4.867
X6.300Y-4.967
X6.400Y-3.418
X6.400Y-3.517
X6.400Y-3.767
X6.400Y-3.867
X6.400Y-4.017
X6.400Y-4.867
X6.400Y-4.967
X6.500Y-3.517
X6.500Y-3.767
X6.500Y-3.867
X6.500Y-4.017
X6.500Y-4.867
X6.500Y-4.967
X6.600Y-3.517
X6.600Y-3.767
X6.600Y-3.867
X6.600Y-4.017
X6.600Y-4.867
X6.600Y-4.967
X6.700Y-3.517
X6.700Y-4.017
X6.700Y-4.867
X6.700Y-4.967
X6.800Y-3.517
X6.800Y-4.017
X6.800Y-4.867
X6.800Y-4.967
X6.900Y-3.517
X6.900Y-4.017
X6.900Y-4.867
X6.900Y-4.967
X7.000Y-3.517
X7.000Y-4.017
X7.000Y-4.867
X7.000Y-4.967
X7.100Y-3.517
X7.100Y-4.017
X7.180Y-3.767
X7.180Y-3.867
X7.200Y-3.517
X7.200Y-4.017
X7.250Y-4.267
X7.250Y-4.367
X7.250Y-4.467
X7.250Y-4.567
X7.280Y-3.767
X7.280Y-3.867
X7.300Y-3.517
X7.300Y-4.017
X7.350Y-4.267
X7.350Y-4.367
X7.350Y-4.467
X7.350Y-4.567
X7.380Y-3.767
X7.380Y-3.867
X7.400Y-3.517
X7.400Y-4.017
T5
X3.900Y-3.317
X4.000Y-3.317
X4.100Y-3.317
X4.200Y-3.317
X4.325Y-3.317
X4.425Y-3.317
X4.525Y-3.317
X4.625Y-3.317
X4.750Y-3.317
X4.850Y-3.317
X4.950Y-3.317
X5.050Y-3.317
X5.300Y-3.317
X5.400Y-3.317
X5.500Y-3.317
X5.600Y-3.317
X6.100Y-3.317
X6.200Y-3.317
X6.300Y-3.317
X6.400Y-3.317
X6.850Y-3.317
X6.950Y-3.317
X7.050Y-3.317
X7.150Y-3.317
T6
X3.810Y-4.220
X3.810Y-4.417
X3.810Y-4.614
T7
X3.695Y-3.292
X3.695Y-4.992
X7.375Y-3.292
X7.375Y-4.992
T0
M30
