G04 (created by PCBNEW-RS274X (2012-apr-16-27)-stable) date Friday 15,March,2013 10:09:25 PM SGT*
G01*
G70*
G90*
%MOIN*%
G04 Gerber Fmt 3.4, Leading zero omitted, Abs format*
%FSLAX34Y34*%
G04 APERTURE LIST*
%ADD10C,0.006000*%
%ADD11C,0.075000*%
%ADD12R,0.080000X0.080000*%
%ADD13C,0.090000*%
%ADD14R,0.090000X0.090000*%
%ADD15O,0.090900X0.157800*%
%ADD16C,0.080000*%
%ADD17C,0.120000*%
%ADD18R,0.100000X0.080000*%
%ADD19R,0.075000X0.055000*%
%ADD20R,0.055000X0.075000*%
%ADD21O,0.082000X0.110000*%
%ADD22R,0.082000X0.110000*%
%ADD23R,0.080000X0.100000*%
G04 APERTURE END LIST*
G54D10*
G54D11*
X41900Y-39070D03*
X41900Y-37070D03*
X40700Y-39070D03*
X40700Y-37070D03*
G54D12*
X71800Y-38670D03*
X71800Y-37670D03*
X72800Y-38670D03*
X72800Y-37670D03*
X73800Y-38670D03*
X73800Y-37670D03*
X64000Y-38670D03*
X64000Y-37670D03*
X65000Y-38670D03*
X65000Y-37670D03*
X66000Y-38670D03*
X66000Y-37670D03*
X56000Y-38670D03*
X56000Y-37670D03*
X57000Y-38670D03*
X57000Y-37670D03*
X58000Y-38670D03*
X58000Y-37670D03*
X48000Y-38670D03*
X48000Y-37670D03*
G54D10*
G36*
X48600Y-39070D02*
X48600Y-38270D01*
X49400Y-38270D01*
X49400Y-39070D01*
X48600Y-39070D01*
X48600Y-39070D01*
G37*
G36*
X48600Y-38070D02*
X48600Y-37270D01*
X49400Y-37270D01*
X49400Y-38070D01*
X48600Y-38070D01*
X48600Y-38070D01*
G37*
G54D12*
X50000Y-38670D03*
X50000Y-37670D03*
G54D13*
X38000Y-37920D03*
X37000Y-37920D03*
G54D14*
X39000Y-37920D03*
G54D13*
X38000Y-35920D03*
X37000Y-35920D03*
G54D14*
X39000Y-35920D03*
G54D15*
X53000Y-33170D03*
X54000Y-33170D03*
X55000Y-33170D03*
X56000Y-33170D03*
X39000Y-33170D03*
X40000Y-33170D03*
X41000Y-33170D03*
X42000Y-33170D03*
X43250Y-33170D03*
X44250Y-33170D03*
X45250Y-33170D03*
X46250Y-33170D03*
X47500Y-33170D03*
X48500Y-33170D03*
X49500Y-33170D03*
X50500Y-33170D03*
X68500Y-33170D03*
X69500Y-33170D03*
X70500Y-33170D03*
X71500Y-33170D03*
X61000Y-33170D03*
X62000Y-33170D03*
X63000Y-33170D03*
X64000Y-33170D03*
G54D12*
X67000Y-40170D03*
G54D16*
X67000Y-35170D03*
X68000Y-40170D03*
X68000Y-35170D03*
X69000Y-40170D03*
X69000Y-35170D03*
X70000Y-40170D03*
X70000Y-35170D03*
X71000Y-40170D03*
X71000Y-35170D03*
X72000Y-40170D03*
X72000Y-35170D03*
X73000Y-40170D03*
X73000Y-35170D03*
X74000Y-40170D03*
X74000Y-35170D03*
G54D12*
X59000Y-40170D03*
G54D16*
X59000Y-35170D03*
X60000Y-40170D03*
X60000Y-35170D03*
X61000Y-40170D03*
X61000Y-35170D03*
X62000Y-40170D03*
X62000Y-35170D03*
X63000Y-40170D03*
X63000Y-35170D03*
X64000Y-40170D03*
X64000Y-35170D03*
X65000Y-40170D03*
X65000Y-35170D03*
X66000Y-40170D03*
X66000Y-35170D03*
G54D12*
X51000Y-40170D03*
G54D16*
X51000Y-35170D03*
X52000Y-40170D03*
X52000Y-35170D03*
X53000Y-40170D03*
X53000Y-35170D03*
X54000Y-40170D03*
X54000Y-35170D03*
X55000Y-40170D03*
X55000Y-35170D03*
X56000Y-40170D03*
X56000Y-35170D03*
X57000Y-40170D03*
X57000Y-35170D03*
X58000Y-40170D03*
X58000Y-35170D03*
G54D12*
X43000Y-40170D03*
G54D16*
X43000Y-35170D03*
X44000Y-40170D03*
X44000Y-35170D03*
X45000Y-40170D03*
X45000Y-35170D03*
X46000Y-40170D03*
X46000Y-35170D03*
X47000Y-40170D03*
X47000Y-35170D03*
X48000Y-40170D03*
X48000Y-35170D03*
X49000Y-40170D03*
X49000Y-35170D03*
X50000Y-40170D03*
X50000Y-35170D03*
X70000Y-48670D03*
X70000Y-49670D03*
X69000Y-48670D03*
X69000Y-49670D03*
X68000Y-48670D03*
X68000Y-49670D03*
G54D12*
X58000Y-49670D03*
G54D16*
X58000Y-48670D03*
X59000Y-49670D03*
X59000Y-48670D03*
X60000Y-49670D03*
X60000Y-48670D03*
X61000Y-49670D03*
X61000Y-48670D03*
X62000Y-49670D03*
X62000Y-48670D03*
X63000Y-49670D03*
X63000Y-48670D03*
X64000Y-49670D03*
X64000Y-48670D03*
X65000Y-49670D03*
X65000Y-48670D03*
X66000Y-49670D03*
X66000Y-48670D03*
X67000Y-49670D03*
X67000Y-48670D03*
G54D17*
X38100Y-46138D03*
X38100Y-44170D03*
X38100Y-42201D03*
G54D12*
X56500Y-46750D03*
G54D16*
X57500Y-46590D03*
X58500Y-46750D03*
X59500Y-46590D03*
X60500Y-46750D03*
X61500Y-46590D03*
G54D18*
X52000Y-45970D03*
X52000Y-44670D03*
X52000Y-43720D03*
X52000Y-42420D03*
G54D19*
X49000Y-48045D03*
X49000Y-47295D03*
G54D20*
X67975Y-39270D03*
X67225Y-39270D03*
G54D19*
X55050Y-45670D03*
X55050Y-44920D03*
X55975Y-43520D03*
X55975Y-44270D03*
G54D20*
X59975Y-39270D03*
X59225Y-39270D03*
G54D19*
X50000Y-48045D03*
X50000Y-47295D03*
G54D20*
X47375Y-45420D03*
X48125Y-45420D03*
G54D19*
X48000Y-48045D03*
X48000Y-47295D03*
X37250Y-39045D03*
X37250Y-39795D03*
G54D20*
X51975Y-39270D03*
X51225Y-39270D03*
X44000Y-39270D03*
X44750Y-39270D03*
G54D19*
X55050Y-44270D03*
X55050Y-43520D03*
G54D20*
X37625Y-40670D03*
X36875Y-40670D03*
X47375Y-44020D03*
X48125Y-44020D03*
X57250Y-41220D03*
X56500Y-41220D03*
X64375Y-46420D03*
X63625Y-46420D03*
G54D21*
X57500Y-45170D03*
X58500Y-45170D03*
X59500Y-45170D03*
X60500Y-45170D03*
X61500Y-45170D03*
X62500Y-45170D03*
X63500Y-45170D03*
X64500Y-45170D03*
X65500Y-45170D03*
X66500Y-45170D03*
X67500Y-45170D03*
X68500Y-45170D03*
X69500Y-45170D03*
G54D22*
X56500Y-45170D03*
G54D21*
X69500Y-42170D03*
X68500Y-42170D03*
X67500Y-42170D03*
X66500Y-42170D03*
X65500Y-42170D03*
X64500Y-42170D03*
X63500Y-42170D03*
X62500Y-42170D03*
X61500Y-42170D03*
X60500Y-42170D03*
X59500Y-42170D03*
X58500Y-42170D03*
X57500Y-42170D03*
X56500Y-42170D03*
G54D12*
X54000Y-50170D03*
G54D16*
X54000Y-49170D03*
G54D12*
X73500Y-45670D03*
G54D16*
X72500Y-45670D03*
X73500Y-44670D03*
X72500Y-44670D03*
X73500Y-43670D03*
X72500Y-43670D03*
X73500Y-42670D03*
X72500Y-42670D03*
G54D12*
X61000Y-34180D03*
G54D16*
X62000Y-34180D03*
X63000Y-34180D03*
X64000Y-34180D03*
G54D23*
X55350Y-49170D03*
X56650Y-49170D03*
G54D20*
X38125Y-38920D03*
X38875Y-38920D03*
X38875Y-39670D03*
X38125Y-39670D03*
M02*
