G04 (created by PCBNEW-RS274X (2012-apr-16-27)-stable) date Saturday 23,March,2013 11:14:18 PM SGT*
G01*
G70*
G90*
%MOIN*%
G04 Gerber Fmt 3.4, Leading zero omitted, Abs format*
%FSLAX34Y34*%
G04 APERTURE LIST*
%ADD10C,0.006000*%
%ADD11R,0.059100X0.059100*%
%ADD12C,0.059100*%
%ADD13R,0.060000X0.060000*%
%ADD14C,0.060000*%
%ADD15R,0.009800X0.060000*%
%ADD16O,0.009800X0.060000*%
%ADD17O,0.060000X0.009800*%
%ADD18R,0.020000X0.030000*%
%ADD19R,0.025000X0.045000*%
%ADD20R,0.045000X0.025000*%
%ADD21R,0.023600X0.015700*%
%ADD22R,0.015700X0.023600*%
%ADD23R,0.055100X0.174800*%
%ADD24R,0.031400X0.031400*%
%ADD25C,0.210000*%
%ADD26C,0.024000*%
%ADD27C,0.010000*%
%ADD28C,0.016000*%
%ADD29C,0.020000*%
%ADD30C,0.024000*%
G04 APERTURE END LIST*
G54D10*
G54D11*
X68050Y-44100D03*
G54D12*
X67050Y-44100D03*
G54D13*
X54630Y-39650D03*
G54D14*
X54470Y-38650D03*
X54630Y-37650D03*
X54470Y-36650D03*
X54630Y-35650D03*
X54470Y-34650D03*
G54D15*
X60926Y-33989D03*
G54D16*
X60729Y-33989D03*
X60532Y-33989D03*
X60335Y-33989D03*
X60138Y-33989D03*
X59942Y-33989D03*
X59745Y-33989D03*
X59548Y-33989D03*
X59351Y-33989D03*
X59154Y-33989D03*
X58957Y-33989D03*
X58761Y-33989D03*
X58564Y-33989D03*
X58367Y-33989D03*
X58170Y-33989D03*
X57973Y-33989D03*
G54D17*
X57075Y-34824D03*
X57075Y-35021D03*
X57075Y-35218D03*
X57075Y-35415D03*
X57075Y-35612D03*
X57075Y-35808D03*
X57075Y-36005D03*
X57075Y-36202D03*
X57075Y-36399D03*
X57075Y-36596D03*
X57075Y-36793D03*
X57075Y-36989D03*
X57075Y-37186D03*
X57075Y-37383D03*
X57075Y-37580D03*
X57075Y-37777D03*
G54D16*
X57973Y-38675D03*
X58170Y-38675D03*
X58367Y-38675D03*
X58564Y-38675D03*
X58761Y-38675D03*
X58957Y-38675D03*
X59154Y-38675D03*
X59351Y-38675D03*
X59548Y-38675D03*
X59745Y-38675D03*
X59942Y-38675D03*
X60138Y-38675D03*
X60335Y-38675D03*
X60532Y-38675D03*
X60729Y-38675D03*
X60926Y-38675D03*
G54D17*
X61761Y-37777D03*
X61761Y-37580D03*
X61761Y-37186D03*
X61768Y-37383D03*
X61761Y-36989D03*
X61761Y-36793D03*
X61761Y-36596D03*
X61761Y-36399D03*
X61761Y-36202D03*
X61761Y-36005D03*
X61761Y-35811D03*
X61761Y-35614D03*
X61761Y-35417D03*
X61761Y-35220D03*
X61761Y-35024D03*
X61761Y-34827D03*
G54D13*
X51050Y-29100D03*
G54D14*
X51050Y-28100D03*
X52050Y-29100D03*
X52050Y-28100D03*
X53050Y-29100D03*
X53050Y-28100D03*
X54050Y-29100D03*
X54050Y-28100D03*
X55050Y-29100D03*
X55050Y-28100D03*
X56050Y-29100D03*
X56050Y-28100D03*
X57050Y-29100D03*
X57050Y-28100D03*
X58050Y-29100D03*
X58050Y-28100D03*
X59050Y-29100D03*
X59050Y-28100D03*
X60050Y-29100D03*
X60050Y-28100D03*
X61050Y-29100D03*
X61050Y-28100D03*
X62050Y-29100D03*
X62050Y-28100D03*
X63050Y-29100D03*
X63050Y-28100D03*
G54D18*
X58425Y-30600D03*
X57675Y-30600D03*
X58425Y-31600D03*
X58050Y-30600D03*
X57675Y-31600D03*
G54D19*
X58350Y-32200D03*
X57750Y-32200D03*
G54D20*
X59150Y-30700D03*
X59150Y-31300D03*
G54D21*
X58890Y-33337D03*
X58890Y-32983D03*
X55350Y-38773D03*
X55350Y-39127D03*
X61750Y-33577D03*
X61750Y-33223D03*
X62200Y-33577D03*
X62200Y-33223D03*
X62650Y-33577D03*
X62650Y-33223D03*
X63100Y-33577D03*
X63100Y-33223D03*
X63550Y-33577D03*
X63550Y-33223D03*
X64000Y-33577D03*
X64000Y-33223D03*
X64450Y-33577D03*
X64450Y-33223D03*
X64900Y-33577D03*
X64900Y-33223D03*
X61340Y-40637D03*
X61340Y-40283D03*
G54D22*
X62773Y-36300D03*
X63127Y-36300D03*
X58367Y-39330D03*
X58013Y-39330D03*
G54D21*
X55700Y-36877D03*
X55700Y-36523D03*
G54D22*
X56197Y-35020D03*
X55843Y-35020D03*
G54D23*
X57450Y-41200D03*
X58434Y-41200D03*
X56466Y-41200D03*
G54D24*
X61300Y-39285D03*
X61300Y-39875D03*
G54D13*
X51550Y-35100D03*
G54D14*
X52550Y-35100D03*
X51550Y-36100D03*
X52550Y-36100D03*
X51550Y-37100D03*
X52550Y-37100D03*
X51550Y-38100D03*
X52550Y-38100D03*
X51550Y-39100D03*
X52550Y-39100D03*
X51550Y-40100D03*
X52550Y-40100D03*
X51550Y-41100D03*
X52550Y-41100D03*
X51550Y-42100D03*
X52550Y-42100D03*
X51550Y-43100D03*
X52550Y-43100D03*
X51550Y-44100D03*
X52550Y-44100D03*
G54D13*
X67550Y-40100D03*
G54D14*
X66550Y-40100D03*
X67550Y-39100D03*
X66550Y-39100D03*
X67550Y-38100D03*
X66550Y-38100D03*
X67550Y-37100D03*
X66550Y-37100D03*
X67550Y-36100D03*
X66550Y-36100D03*
G54D19*
X63200Y-36800D03*
X63800Y-36800D03*
G54D13*
X56550Y-45450D03*
G54D14*
X56550Y-44450D03*
X57550Y-45450D03*
X57550Y-44450D03*
X58550Y-45450D03*
X58550Y-44450D03*
X59550Y-45450D03*
X59550Y-44450D03*
X60550Y-45450D03*
X60550Y-44450D03*
X61550Y-45450D03*
X61550Y-44450D03*
X62550Y-45450D03*
X62550Y-44450D03*
X63550Y-45450D03*
X63550Y-44450D03*
G54D13*
X52550Y-32100D03*
G54D14*
X52550Y-31100D03*
X53550Y-32100D03*
X53550Y-31100D03*
X54550Y-32100D03*
X54550Y-31100D03*
X55550Y-32100D03*
X55550Y-31100D03*
G54D13*
X51050Y-31100D03*
G54D14*
X51050Y-30100D03*
G54D25*
X60302Y-42124D03*
G54D26*
X57725Y-36575D03*
X57700Y-35225D03*
X64450Y-33900D03*
X53700Y-35850D03*
X55300Y-34650D03*
X55350Y-35000D03*
X55450Y-35600D03*
X55200Y-36450D03*
X60860Y-38100D03*
X59625Y-33425D03*
X60590Y-39335D03*
X62080Y-40470D03*
X62260Y-40910D03*
X62305Y-41345D03*
X59745Y-40470D03*
X60000Y-40725D03*
X60195Y-39955D03*
X60450Y-40215D03*
X57620Y-39080D03*
X59740Y-34510D03*
X59875Y-33225D03*
X60880Y-30160D03*
X60060Y-34510D03*
X58150Y-37850D03*
X58600Y-37850D03*
X56500Y-38100D03*
X60390Y-34510D03*
X61170Y-29990D03*
X56490Y-37740D03*
X61750Y-33900D03*
X62200Y-33900D03*
X62650Y-33900D03*
X63100Y-33900D03*
X63550Y-33900D03*
X64000Y-33900D03*
X64400Y-37500D03*
X63800Y-37700D03*
X63600Y-37700D03*
X63600Y-37900D03*
X63600Y-38100D03*
X64400Y-37700D03*
X58250Y-37000D03*
X63800Y-37500D03*
X57250Y-31250D03*
X64000Y-37700D03*
X63800Y-38100D03*
X64000Y-38100D03*
X64000Y-37900D03*
X63800Y-37900D03*
X64200Y-37900D03*
X64000Y-37300D03*
X64200Y-37300D03*
X64200Y-37700D03*
X64200Y-38100D03*
X64400Y-37100D03*
X64400Y-37900D03*
X58500Y-36750D03*
X59500Y-36750D03*
X64400Y-37300D03*
X59150Y-32600D03*
X58850Y-39560D03*
X57250Y-31500D03*
X64200Y-37500D03*
X63600Y-37500D03*
X64000Y-37500D03*
X57250Y-32000D03*
X61500Y-38650D03*
X61500Y-38400D03*
X61750Y-38150D03*
X61750Y-38900D03*
X58250Y-36000D03*
X59150Y-32350D03*
X59400Y-32600D03*
X59750Y-36250D03*
X61750Y-38400D03*
X58250Y-36500D03*
X57000Y-32750D03*
X59500Y-36000D03*
X61750Y-38650D03*
X63600Y-37300D03*
X57000Y-31500D03*
X63800Y-37300D03*
X59750Y-36500D03*
X58900Y-32600D03*
X64400Y-38100D03*
X58900Y-32100D03*
X57250Y-32250D03*
X57000Y-31750D03*
X59500Y-36500D03*
X59250Y-36500D03*
X59500Y-36250D03*
X58500Y-36500D03*
X59150Y-31850D03*
X57000Y-32250D03*
X59750Y-36000D03*
X61500Y-38150D03*
X59400Y-32350D03*
X57250Y-32750D03*
X58250Y-36750D03*
X59250Y-36000D03*
X60000Y-36500D03*
X58900Y-32350D03*
X57000Y-33000D03*
X59250Y-36750D03*
X59150Y-32100D03*
X58250Y-36250D03*
X58500Y-36250D03*
X59400Y-31850D03*
X57250Y-32500D03*
X60000Y-36750D03*
X60000Y-36250D03*
X57250Y-33000D03*
X58500Y-37000D03*
X58500Y-37250D03*
X59250Y-36250D03*
X59400Y-32100D03*
X59750Y-36750D03*
X57000Y-32500D03*
X57000Y-32000D03*
X58900Y-31850D03*
X60000Y-36000D03*
X57250Y-31750D03*
G54D27*
X62675Y-36202D02*
X62773Y-36300D01*
X57700Y-35225D02*
X58175Y-35225D01*
X61761Y-36202D02*
X62675Y-36202D01*
X57700Y-35218D02*
X57075Y-35218D01*
X55835Y-36877D02*
X55700Y-36877D01*
G54D28*
X58425Y-32125D02*
X58425Y-31600D01*
G54D27*
X58957Y-38223D02*
X60963Y-36217D01*
G54D28*
X58350Y-32200D02*
X58425Y-32125D01*
G54D27*
X58710Y-39330D02*
X58367Y-39330D01*
X57075Y-36596D02*
X57704Y-36596D01*
G54D28*
X58350Y-32950D02*
X58350Y-32200D01*
G54D27*
X58782Y-35218D02*
X57700Y-35218D01*
X57075Y-36596D02*
X56116Y-36596D01*
X57075Y-35218D02*
X56395Y-35218D01*
X59154Y-33989D02*
X59154Y-33601D01*
X55175Y-37945D02*
X55175Y-37402D01*
X59154Y-34846D02*
X58782Y-35218D01*
X56395Y-35218D02*
X56197Y-35020D01*
X58957Y-38675D02*
X58957Y-39083D01*
X55175Y-37402D02*
X55700Y-36877D01*
X56116Y-36596D02*
X55835Y-36877D01*
X57700Y-35218D02*
X57700Y-35225D01*
X57704Y-36596D02*
X57725Y-36575D01*
X54470Y-38650D02*
X55227Y-38650D01*
X60963Y-36217D02*
X61761Y-36217D01*
G54D28*
X58350Y-32950D02*
X58737Y-33337D01*
G54D27*
X58175Y-35225D02*
X58957Y-36007D01*
X58957Y-39083D02*
X58710Y-39330D01*
X59154Y-33601D02*
X58890Y-33337D01*
X58367Y-39330D02*
X58367Y-38675D01*
X54470Y-38650D02*
X55175Y-37945D01*
X59154Y-33989D02*
X59154Y-34846D01*
G54D28*
X58737Y-33337D02*
X58890Y-33337D01*
G54D27*
X58957Y-38675D02*
X58957Y-38223D01*
X58957Y-36007D02*
X58957Y-38223D01*
X55227Y-38650D02*
X55350Y-38773D01*
X61761Y-36217D02*
X61761Y-36202D01*
G54D29*
X51050Y-32100D02*
X51800Y-32850D01*
X57675Y-30600D02*
X57675Y-30375D01*
G54D27*
X62200Y-33223D02*
X62650Y-33223D01*
X61750Y-33223D02*
X62200Y-33223D01*
G54D30*
X59840Y-31000D02*
X59540Y-30700D01*
G54D29*
X51800Y-32850D02*
X55800Y-32850D01*
G54D27*
X65423Y-33223D02*
X65400Y-33200D01*
G54D30*
X67550Y-40100D02*
X68050Y-40600D01*
G54D27*
X64450Y-33223D02*
X64900Y-33223D01*
G54D29*
X58425Y-30600D02*
X59050Y-30600D01*
X55800Y-32850D02*
X56240Y-32410D01*
G54D27*
X64900Y-33223D02*
X65423Y-33223D01*
G54D29*
X57120Y-30600D02*
X57675Y-30600D01*
G54D27*
X63550Y-33223D02*
X64000Y-33223D01*
G54D29*
X58425Y-30375D02*
X58425Y-30600D01*
G54D30*
X65400Y-33200D02*
X66100Y-33900D01*
X59150Y-30700D02*
X59540Y-30700D01*
X66100Y-33900D02*
X66350Y-33900D01*
G54D27*
X62650Y-33223D02*
X63100Y-33223D01*
G54D29*
X56240Y-32410D02*
X56240Y-31480D01*
X57675Y-30375D02*
X57850Y-30200D01*
X58250Y-30200D02*
X58425Y-30375D01*
G54D30*
X67850Y-40100D02*
X68250Y-39700D01*
G54D29*
X59050Y-30600D02*
X59150Y-30700D01*
G54D30*
X64675Y-32475D02*
X65400Y-33200D01*
X67850Y-40100D02*
X67550Y-40100D01*
X60715Y-32475D02*
X64675Y-32475D01*
G54D29*
X51050Y-31100D02*
X51050Y-32100D01*
G54D30*
X68250Y-39700D02*
X68250Y-35800D01*
G54D29*
X56240Y-31480D02*
X57120Y-30600D01*
G54D30*
X60715Y-32475D02*
X59840Y-31600D01*
X68050Y-40600D02*
X68050Y-44100D01*
X66350Y-33900D02*
X68250Y-35800D01*
X59840Y-31600D02*
X59840Y-31000D01*
G54D27*
X64000Y-33223D02*
X64450Y-33223D01*
X63100Y-33223D02*
X63550Y-33223D01*
G54D29*
X57850Y-30200D02*
X58250Y-30200D01*
G54D27*
X66550Y-36100D02*
X66550Y-35670D01*
X61080Y-33530D02*
X61200Y-33650D01*
X66550Y-35670D02*
X65250Y-34370D01*
X60729Y-33601D02*
X60800Y-33530D01*
X61420Y-34370D02*
X65250Y-34370D01*
X60729Y-33601D02*
X60729Y-33989D01*
X61200Y-34150D02*
X61420Y-34370D01*
X61200Y-33650D02*
X61200Y-34150D01*
X60800Y-33530D02*
X61080Y-33530D01*
X64450Y-33577D02*
X64450Y-33900D01*
X57973Y-33989D02*
X57973Y-33623D01*
X57768Y-33550D02*
X57520Y-33798D01*
X57973Y-33623D02*
X57900Y-33550D01*
X52852Y-33798D02*
X51550Y-35100D01*
X53700Y-35850D02*
X54470Y-36620D01*
X57520Y-33798D02*
X52852Y-33798D01*
X54470Y-36620D02*
X54470Y-36650D01*
X57900Y-33550D02*
X57768Y-33550D01*
X52550Y-34450D02*
X52550Y-35100D01*
X58170Y-34330D02*
X58000Y-34500D01*
X58000Y-34500D02*
X57900Y-34500D01*
X58170Y-34330D02*
X58170Y-33989D01*
X57380Y-33980D02*
X53020Y-33980D01*
X57900Y-34500D02*
X57380Y-33980D01*
X53020Y-33980D02*
X52550Y-34450D01*
X51030Y-34680D02*
X51030Y-35580D01*
X51030Y-35580D02*
X51550Y-36100D01*
X58367Y-33989D02*
X58367Y-33557D01*
X58130Y-33320D02*
X57740Y-33320D01*
X52100Y-33610D02*
X51030Y-34680D01*
X57740Y-33320D02*
X57450Y-33610D01*
X57450Y-33610D02*
X52100Y-33610D01*
X58367Y-33557D02*
X58130Y-33320D01*
X58210Y-33130D02*
X57630Y-33130D01*
X52380Y-36100D02*
X52550Y-36100D01*
X50840Y-36280D02*
X51160Y-36600D01*
X51160Y-36600D02*
X51880Y-36600D01*
X57630Y-33130D02*
X57340Y-33420D01*
X50840Y-34590D02*
X50840Y-36280D01*
X58564Y-33484D02*
X58210Y-33130D01*
X52010Y-33420D02*
X50840Y-34590D01*
X51880Y-36600D02*
X52380Y-36100D01*
X58564Y-33989D02*
X58564Y-33484D01*
X57340Y-33420D02*
X52010Y-33420D01*
X53050Y-36354D02*
X52804Y-36600D01*
X58418Y-34682D02*
X57824Y-34682D01*
X58761Y-33989D02*
X58761Y-34339D01*
X53050Y-34450D02*
X53050Y-36354D01*
X53338Y-34162D02*
X53050Y-34450D01*
X57824Y-34682D02*
X57304Y-34162D01*
X52200Y-36600D02*
X51700Y-37100D01*
X52804Y-36600D02*
X52200Y-36600D01*
X51700Y-37100D02*
X51550Y-37100D01*
X58761Y-34339D02*
X58418Y-34682D01*
X57304Y-34162D02*
X53338Y-34162D01*
X57748Y-34862D02*
X57746Y-34862D01*
X54950Y-34500D02*
X54950Y-34950D01*
X57748Y-34864D02*
X57748Y-34862D01*
X58511Y-34864D02*
X57748Y-34864D01*
X58957Y-34418D02*
X58511Y-34864D01*
X58957Y-34418D02*
X58957Y-33989D01*
X54750Y-35150D02*
X53522Y-35150D01*
X53522Y-35150D02*
X53232Y-35440D01*
X57746Y-34862D02*
X57228Y-34344D01*
X55106Y-34344D02*
X54950Y-34500D01*
X52600Y-37100D02*
X52550Y-37100D01*
X57228Y-34344D02*
X55106Y-34344D01*
X53232Y-36468D02*
X52600Y-37100D01*
X54950Y-34950D02*
X54750Y-35150D01*
X53232Y-35440D02*
X53232Y-36468D01*
X55424Y-34526D02*
X55300Y-34650D01*
X56828Y-34824D02*
X56530Y-34526D01*
X56530Y-34526D02*
X55424Y-34526D01*
X56828Y-34824D02*
X57075Y-34824D01*
X56454Y-34708D02*
X55642Y-34708D01*
X56767Y-35021D02*
X56454Y-34708D01*
X57075Y-35021D02*
X56767Y-35021D01*
X55642Y-34708D02*
X55350Y-35000D01*
X53050Y-38350D02*
X53050Y-36908D01*
X53414Y-36544D02*
X53414Y-35736D01*
X52050Y-38600D02*
X52800Y-38600D01*
X53800Y-35550D02*
X54400Y-36150D01*
X52800Y-38600D02*
X53050Y-38350D01*
X53600Y-35550D02*
X53800Y-35550D01*
X55150Y-35850D02*
X55150Y-35500D01*
X55862Y-35612D02*
X57075Y-35612D01*
X51550Y-39100D02*
X52050Y-38600D01*
X55350Y-35300D02*
X55550Y-35300D01*
X54400Y-36150D02*
X54850Y-36150D01*
X55550Y-35300D02*
X55862Y-35612D01*
X53050Y-36908D02*
X53414Y-36544D01*
X53414Y-35736D02*
X53600Y-35550D01*
X55150Y-35500D02*
X55350Y-35300D01*
X54850Y-36150D02*
X55150Y-35850D01*
X55658Y-35808D02*
X55450Y-35600D01*
X57075Y-35808D02*
X55658Y-35808D01*
X52050Y-39600D02*
X51550Y-40100D01*
X54925Y-36334D02*
X54925Y-36925D01*
X53250Y-39100D02*
X52750Y-39600D01*
X53632Y-37150D02*
X53250Y-37532D01*
X57075Y-36005D02*
X55254Y-36005D01*
X53250Y-37532D02*
X53250Y-39100D01*
X54925Y-36925D02*
X54700Y-37150D01*
X52750Y-39600D02*
X52050Y-39600D01*
X55254Y-36005D02*
X54925Y-36334D01*
X54700Y-37150D02*
X53632Y-37150D01*
X57075Y-36202D02*
X55448Y-36202D01*
X55448Y-36202D02*
X55200Y-36450D01*
X55675Y-39475D02*
X54550Y-40600D01*
X56187Y-36793D02*
X55675Y-37305D01*
X57075Y-36793D02*
X56187Y-36793D01*
X55675Y-37305D02*
X55675Y-39475D01*
X54550Y-40600D02*
X52050Y-40600D01*
X52050Y-40600D02*
X51550Y-41100D01*
X57075Y-36989D02*
X56249Y-36989D01*
X55857Y-39563D02*
X54638Y-40782D01*
X55857Y-37381D02*
X55857Y-39563D01*
X54638Y-40782D02*
X53218Y-40782D01*
X56249Y-36989D02*
X55857Y-37381D01*
X53218Y-40782D02*
X52900Y-41100D01*
X52900Y-41100D02*
X52550Y-41100D01*
X52050Y-41600D02*
X51550Y-42100D01*
X54082Y-41600D02*
X52050Y-41600D01*
X56039Y-39643D02*
X54082Y-41600D01*
X56039Y-37457D02*
X56039Y-39643D01*
X57075Y-37186D02*
X56310Y-37186D01*
X56310Y-37186D02*
X56039Y-37457D01*
X56221Y-37533D02*
X56371Y-37383D01*
X52882Y-42100D02*
X53200Y-41782D01*
X53200Y-41782D02*
X54168Y-41782D01*
X56371Y-37383D02*
X57075Y-37383D01*
X52550Y-42100D02*
X52882Y-42100D01*
X54168Y-41782D02*
X56221Y-39729D01*
X56221Y-39729D02*
X56221Y-37533D01*
X64967Y-33577D02*
X65565Y-34175D01*
X61382Y-33562D02*
X61382Y-34074D01*
X67550Y-36100D02*
X67550Y-36160D01*
X61150Y-33330D02*
X61382Y-33562D01*
X61483Y-34175D02*
X65565Y-34175D01*
X60710Y-33330D02*
X61150Y-33330D01*
X61382Y-34074D02*
X61483Y-34175D01*
X67550Y-36160D02*
X65565Y-34175D01*
X60532Y-33508D02*
X60532Y-33989D01*
X60532Y-33508D02*
X60710Y-33330D01*
X64900Y-33577D02*
X64967Y-33577D01*
X60926Y-38166D02*
X60860Y-38100D01*
X60926Y-38675D02*
X60926Y-38166D01*
X59548Y-33989D02*
X59548Y-33502D01*
X59625Y-33425D02*
X59548Y-33502D01*
X56300Y-30100D02*
X54550Y-30100D01*
X54550Y-30100D02*
X53550Y-31100D01*
X57050Y-29100D02*
X57050Y-29350D01*
X57050Y-29350D02*
X56300Y-30100D01*
X56550Y-30350D02*
X54800Y-30350D01*
X54550Y-30600D02*
X54800Y-30350D01*
X54550Y-30600D02*
X54550Y-31100D01*
X57800Y-29100D02*
X56550Y-30350D01*
X58050Y-29100D02*
X57800Y-29100D01*
X56050Y-29850D02*
X53800Y-29850D01*
X59050Y-28100D02*
X58550Y-28600D01*
X53800Y-29850D02*
X52550Y-31100D01*
X56550Y-29350D02*
X56050Y-29850D01*
X58550Y-28600D02*
X56800Y-28600D01*
X56550Y-28850D02*
X56550Y-29350D01*
X56800Y-28600D02*
X56550Y-28850D01*
X60590Y-39335D02*
X60532Y-39277D01*
X60532Y-39277D02*
X60532Y-38675D01*
X62027Y-37777D02*
X62150Y-37900D01*
X61761Y-37777D02*
X62027Y-37777D01*
X62080Y-40470D02*
X62150Y-40400D01*
X62150Y-37900D02*
X62150Y-40400D01*
X62260Y-40910D02*
X62332Y-40838D01*
X62332Y-37824D02*
X62332Y-40838D01*
X62088Y-37580D02*
X61761Y-37580D01*
X62088Y-37580D02*
X62332Y-37824D01*
X62149Y-37383D02*
X62514Y-37748D01*
X62514Y-41136D02*
X62514Y-37748D01*
X62305Y-41345D02*
X62514Y-41136D01*
X61768Y-37383D02*
X62149Y-37383D01*
X58050Y-44950D02*
X58550Y-45450D01*
X62696Y-37672D02*
X62696Y-42630D01*
X61862Y-43464D02*
X62696Y-42630D01*
X58050Y-44220D02*
X58806Y-43464D01*
X61761Y-37186D02*
X62210Y-37186D01*
X58050Y-44950D02*
X58050Y-44220D01*
X58806Y-43464D02*
X61862Y-43464D01*
X62210Y-37186D02*
X62696Y-37672D01*
X62271Y-36989D02*
X62878Y-37596D01*
X58550Y-44142D02*
X58550Y-44450D01*
X59046Y-43646D02*
X58550Y-44142D01*
X62878Y-42706D02*
X62878Y-37596D01*
X61761Y-36989D02*
X62271Y-36989D01*
X61938Y-43646D02*
X59046Y-43646D01*
X61938Y-43646D02*
X62878Y-42706D01*
X59050Y-44220D02*
X59442Y-43828D01*
X62014Y-43828D02*
X63060Y-42782D01*
X59050Y-44950D02*
X59050Y-44220D01*
X63060Y-37520D02*
X63060Y-42782D01*
X62333Y-36793D02*
X63060Y-37520D01*
X61761Y-36793D02*
X62333Y-36793D01*
X59050Y-44950D02*
X59550Y-45450D01*
X59442Y-43828D02*
X62014Y-43828D01*
X62394Y-36596D02*
X63242Y-37444D01*
X59550Y-44450D02*
X59990Y-44010D01*
X62090Y-44010D02*
X63242Y-42858D01*
X59990Y-44010D02*
X62090Y-44010D01*
X62394Y-36596D02*
X61761Y-36596D01*
X63242Y-37444D02*
X63242Y-42858D01*
X59745Y-40470D02*
X59745Y-38675D01*
X59942Y-40312D02*
X59942Y-38675D01*
X60000Y-40370D02*
X60000Y-40725D01*
X59942Y-40312D02*
X60000Y-40370D01*
X60138Y-38675D02*
X60138Y-39898D01*
X60138Y-39898D02*
X60195Y-39955D01*
X60450Y-39855D02*
X60450Y-40215D01*
X60335Y-39740D02*
X60335Y-38675D01*
X60335Y-39740D02*
X60450Y-39855D01*
X61761Y-36005D02*
X64469Y-36005D01*
X64760Y-43750D02*
X64760Y-44040D01*
X64760Y-44040D02*
X63850Y-44950D01*
X63050Y-44950D02*
X62550Y-45450D01*
X63850Y-44950D02*
X63050Y-44950D01*
X64760Y-36296D02*
X64760Y-43750D01*
X64469Y-36005D02*
X64760Y-36296D01*
X64760Y-43750D02*
X64760Y-43740D01*
X64533Y-35811D02*
X64942Y-36220D01*
X64942Y-36220D02*
X64942Y-44450D01*
X62050Y-45750D02*
X62050Y-44950D01*
X62050Y-44950D02*
X62550Y-44450D01*
X63850Y-45950D02*
X62250Y-45950D01*
X62250Y-45950D02*
X62050Y-45750D01*
X64942Y-44450D02*
X64942Y-44458D01*
X64942Y-44858D02*
X63850Y-45950D01*
X61761Y-35811D02*
X64533Y-35811D01*
X64942Y-44450D02*
X64942Y-44858D01*
X57840Y-39080D02*
X57620Y-39080D01*
X57973Y-38675D02*
X57973Y-38947D01*
X57973Y-38947D02*
X57840Y-39080D01*
X61255Y-39240D02*
X61300Y-39285D01*
X60860Y-39240D02*
X61255Y-39240D01*
X60729Y-38675D02*
X60729Y-39109D01*
X60729Y-39109D02*
X60860Y-39240D01*
X55350Y-39500D02*
X55350Y-39127D01*
X55200Y-39650D02*
X55350Y-39500D01*
X59745Y-33989D02*
X59745Y-34505D01*
X54630Y-39650D02*
X55200Y-39650D01*
X59745Y-34505D02*
X59740Y-34510D01*
X59942Y-33989D02*
X59942Y-33292D01*
X59942Y-33292D02*
X59875Y-33225D01*
X60050Y-29330D02*
X60050Y-29100D01*
X60138Y-33989D02*
X60138Y-34432D01*
X60138Y-34432D02*
X60060Y-34510D01*
X60880Y-30160D02*
X60050Y-29330D01*
X58832Y-39968D02*
X56732Y-39968D01*
X59154Y-38675D02*
X59154Y-39646D01*
X56466Y-40234D02*
X56466Y-41200D01*
X56732Y-39968D02*
X56466Y-40234D01*
X59154Y-39646D02*
X58832Y-39968D01*
X59351Y-38675D02*
X59351Y-39707D01*
X58434Y-40266D02*
X58434Y-41200D01*
X58550Y-40150D02*
X58434Y-40266D01*
X58908Y-40150D02*
X58550Y-40150D01*
X59351Y-39707D02*
X58908Y-40150D01*
X58564Y-38264D02*
X58150Y-37850D01*
X58564Y-38675D02*
X58564Y-38264D01*
X58761Y-38675D02*
X58761Y-38011D01*
X58761Y-38011D02*
X58600Y-37850D01*
X56500Y-38100D02*
X56823Y-37777D01*
X57075Y-37777D02*
X56823Y-37777D01*
X60335Y-34455D02*
X60390Y-34510D01*
X62050Y-29110D02*
X62050Y-29100D01*
X61170Y-29990D02*
X62050Y-29110D01*
X60335Y-33989D02*
X60335Y-34455D01*
X56650Y-37580D02*
X56490Y-37740D01*
X56650Y-37580D02*
X57075Y-37580D01*
X65124Y-37089D02*
X65913Y-37878D01*
X65124Y-36144D02*
X65124Y-37089D01*
X65913Y-37878D02*
X65913Y-38463D01*
X61761Y-35614D02*
X64594Y-35614D01*
X61750Y-33577D02*
X61750Y-33900D01*
X64594Y-35614D02*
X65124Y-36144D01*
X65913Y-38463D02*
X66550Y-39100D01*
X67050Y-38600D02*
X67550Y-39100D01*
X66095Y-38295D02*
X66400Y-38600D01*
X66400Y-38600D02*
X67050Y-38600D01*
X65306Y-36024D02*
X65306Y-37004D01*
X66095Y-37793D02*
X66095Y-38295D01*
X61761Y-35417D02*
X64699Y-35417D01*
X65306Y-37004D02*
X66095Y-37793D01*
X64699Y-35417D02*
X65306Y-36024D01*
X62200Y-33900D02*
X62200Y-33577D01*
X65488Y-36928D02*
X66550Y-37990D01*
X61761Y-35220D02*
X64780Y-35220D01*
X66550Y-37990D02*
X66550Y-38100D01*
X62650Y-33577D02*
X62650Y-33900D01*
X64780Y-35220D02*
X65488Y-35928D01*
X65488Y-35928D02*
X65488Y-36928D01*
X67050Y-37600D02*
X66440Y-37600D01*
X63100Y-33577D02*
X63100Y-33900D01*
X65670Y-35820D02*
X64874Y-35024D01*
X67550Y-38100D02*
X67050Y-37600D01*
X66440Y-37600D02*
X65670Y-36830D01*
X65670Y-36830D02*
X65670Y-35820D01*
X64874Y-35024D02*
X61761Y-35024D01*
X63550Y-33577D02*
X63550Y-33900D01*
X64987Y-34827D02*
X61761Y-34827D01*
X65880Y-35720D02*
X64987Y-34827D01*
X66500Y-37100D02*
X65880Y-36480D01*
X65880Y-36480D02*
X65880Y-35720D01*
X66550Y-37100D02*
X66500Y-37100D01*
X67550Y-37100D02*
X67050Y-36600D01*
X61100Y-34560D02*
X65060Y-34560D01*
X66300Y-36600D02*
X66070Y-36370D01*
X66070Y-36370D02*
X66070Y-35570D01*
X66070Y-35570D02*
X65060Y-34560D01*
X60926Y-34386D02*
X61100Y-34560D01*
X67050Y-36600D02*
X66300Y-36600D01*
X64000Y-33577D02*
X64000Y-33900D01*
X60926Y-34386D02*
X60926Y-33989D01*
X67075Y-39575D02*
X67075Y-40375D01*
X66075Y-39575D02*
X67075Y-39575D01*
X66050Y-39550D02*
X66075Y-39575D01*
X63800Y-37900D02*
X63800Y-37700D01*
X63800Y-36800D02*
X64200Y-36800D01*
X63600Y-37700D02*
X63600Y-37900D01*
X66050Y-39600D02*
X66050Y-39550D01*
X63800Y-37500D02*
X63800Y-37300D01*
X64000Y-38100D02*
X63800Y-38100D01*
X66550Y-40100D02*
X66050Y-39600D01*
X64200Y-37500D02*
X64200Y-37300D01*
X64400Y-37700D02*
X64400Y-37900D01*
X64200Y-37900D02*
X64200Y-37700D01*
X64000Y-37300D02*
X64000Y-37500D01*
X64400Y-38100D02*
X64200Y-38100D01*
X61750Y-40550D02*
X61750Y-38900D01*
G54D29*
X59150Y-31300D02*
X58950Y-31100D01*
G54D27*
X59150Y-31300D02*
X59150Y-31850D01*
X64200Y-36800D02*
X64200Y-36900D01*
X64400Y-37300D02*
X64400Y-37500D01*
X61340Y-40637D02*
X61663Y-40637D01*
X58010Y-39333D02*
X58010Y-39620D01*
X64200Y-36900D02*
X64400Y-37100D01*
X64000Y-37700D02*
X64000Y-37900D01*
X56050Y-40258D02*
X56158Y-40150D01*
X61663Y-40637D02*
X61750Y-40550D01*
X55843Y-35203D02*
X55843Y-35020D01*
X61500Y-38400D02*
X61500Y-38650D01*
X61750Y-38650D02*
X61750Y-38400D01*
X61750Y-38150D02*
X61500Y-38150D01*
X57870Y-39330D02*
X57645Y-39555D01*
X59548Y-38675D02*
X59548Y-39768D01*
X57000Y-33000D02*
X57250Y-33000D01*
X59133Y-32983D02*
X58890Y-32983D01*
G54D29*
X58250Y-31100D02*
X58050Y-30900D01*
G54D27*
X53550Y-27600D02*
X54550Y-27600D01*
X55550Y-28600D02*
X55550Y-27600D01*
X57250Y-31250D02*
X57250Y-31500D01*
X55050Y-29100D02*
X55550Y-28600D01*
X57050Y-32200D02*
X57000Y-32150D01*
X54550Y-27600D02*
X54550Y-28600D01*
X52025Y-42625D02*
X51550Y-43100D01*
X58900Y-40350D02*
X58966Y-40350D01*
X58800Y-42250D02*
X57550Y-42250D01*
X59250Y-36500D02*
X59500Y-36500D01*
X55824Y-36399D02*
X55700Y-36523D01*
X52075Y-42625D02*
X52025Y-42625D01*
X51550Y-44100D02*
X52550Y-43100D01*
X60000Y-36750D02*
X59750Y-36750D01*
X63600Y-37300D02*
X63600Y-37500D01*
X57000Y-32500D02*
X57250Y-32500D01*
X52550Y-43100D02*
X52075Y-42625D01*
G54D28*
X51840Y-33112D02*
X51652Y-33300D01*
G54D27*
X58900Y-40350D02*
X58900Y-42150D01*
X59500Y-36750D02*
X59250Y-36750D01*
X57550Y-42250D02*
X57450Y-42150D01*
X57200Y-32200D02*
X57000Y-32250D01*
X58013Y-39330D02*
X58010Y-39333D01*
X56550Y-27600D02*
X57050Y-28100D01*
X60550Y-28600D02*
X62550Y-28600D01*
X57250Y-32750D02*
X57000Y-32750D01*
X57521Y-36399D02*
X57075Y-36399D01*
X57250Y-32250D02*
X57200Y-32200D01*
G54D29*
X58950Y-31100D02*
X58250Y-31100D01*
X58890Y-32983D02*
X59150Y-32723D01*
G54D27*
X57050Y-28100D02*
X57550Y-27600D01*
X57075Y-35415D02*
X56055Y-35415D01*
X58824Y-39718D02*
X58972Y-39570D01*
X58013Y-39582D02*
X57877Y-39718D01*
X57645Y-39718D02*
X57877Y-39718D01*
X58055Y-36000D02*
X58250Y-36000D01*
X58900Y-42150D02*
X58800Y-42250D01*
X53050Y-28100D02*
X53550Y-27600D01*
X57350Y-42250D02*
X56150Y-42250D01*
X59351Y-33989D02*
X59351Y-33301D01*
G54D28*
X51652Y-33300D02*
X51000Y-33300D01*
G54D27*
X58013Y-39330D02*
X58013Y-39582D01*
X58010Y-39620D02*
X58790Y-39620D01*
X58966Y-40350D02*
X59548Y-39768D01*
X58790Y-39620D02*
X58850Y-39560D01*
X59750Y-36500D02*
X59750Y-36250D01*
X58500Y-36750D02*
X58500Y-37000D01*
X56624Y-39718D02*
X57645Y-39718D01*
X59550Y-27600D02*
X60550Y-28600D01*
X57100Y-31900D02*
X57250Y-32000D01*
X59500Y-36250D02*
X59250Y-36250D01*
X57000Y-32000D02*
X57100Y-31900D01*
X58500Y-36250D02*
X58500Y-36500D01*
X62550Y-28600D02*
X63050Y-29100D01*
G54D29*
X57850Y-31100D02*
X57350Y-31100D01*
X54630Y-37595D02*
X55325Y-36900D01*
X55325Y-36900D02*
X55325Y-36750D01*
X55325Y-36750D02*
X55552Y-36523D01*
X55552Y-36523D02*
X55700Y-36523D01*
X54630Y-37650D02*
X54630Y-37595D01*
G54D27*
X55550Y-27600D02*
X56550Y-27600D01*
X54550Y-28600D02*
X55050Y-29100D01*
X56158Y-40150D02*
X56292Y-40150D01*
X59900Y-35150D02*
X60250Y-35150D01*
X59351Y-34601D02*
X59900Y-35150D01*
X57450Y-42150D02*
X57350Y-42250D01*
X58900Y-31850D02*
X58900Y-32100D01*
X57450Y-41200D02*
X57450Y-42150D01*
X56050Y-42150D02*
X56050Y-40258D01*
X59150Y-32100D02*
X59400Y-31850D01*
X57880Y-35825D02*
X58055Y-36000D01*
X58900Y-32350D02*
X58900Y-32600D01*
X57877Y-39718D02*
X58824Y-39718D01*
X57750Y-32200D02*
X57050Y-32200D01*
X57075Y-35415D02*
X57455Y-35415D01*
G54D29*
X57250Y-31200D02*
X57250Y-32000D01*
X57350Y-31100D02*
X57250Y-31200D01*
G54D27*
X58013Y-39330D02*
X58000Y-39343D01*
G54D29*
X58050Y-30900D02*
X57850Y-31100D01*
G54D27*
X57880Y-35840D02*
X57880Y-35825D01*
X59351Y-33301D02*
X59230Y-33180D01*
X59750Y-36000D02*
X60000Y-36000D01*
X59230Y-33180D02*
X59230Y-33080D01*
X60000Y-36250D02*
X60000Y-36500D01*
G54D29*
X59150Y-32723D02*
X59150Y-31300D01*
G54D27*
X57250Y-31750D02*
X57000Y-31750D01*
G54D28*
X57750Y-32200D02*
X56820Y-32200D01*
G54D27*
X56292Y-40150D02*
X56724Y-39718D01*
X59150Y-32600D02*
X59150Y-32350D01*
G54D28*
X56820Y-32200D02*
X55908Y-33112D01*
G54D27*
X57455Y-35415D02*
X57880Y-35840D01*
X51550Y-43100D02*
X52550Y-44100D01*
X58972Y-39570D02*
X58972Y-39350D01*
X57000Y-32150D02*
X57000Y-31500D01*
X57075Y-36399D02*
X55824Y-36399D01*
X57550Y-27600D02*
X59550Y-27600D01*
X58250Y-36250D02*
X58250Y-37000D01*
X59351Y-33989D02*
X59351Y-34601D01*
X66542Y-40100D02*
X66550Y-40100D01*
X57521Y-36399D02*
X57880Y-36040D01*
X57645Y-39555D02*
X57645Y-39718D01*
G54D28*
X55908Y-33112D02*
X51840Y-33112D01*
G54D27*
X59400Y-32100D02*
X59400Y-32350D01*
X58013Y-39330D02*
X57870Y-39330D01*
X56150Y-42250D02*
X56050Y-42150D01*
X58250Y-36750D02*
X58250Y-36500D01*
X59230Y-33080D02*
X59133Y-32983D01*
X59250Y-36000D02*
X59500Y-36000D01*
X57880Y-35825D02*
X57880Y-36040D01*
X56055Y-35415D02*
X55843Y-35203D01*
X61300Y-39875D02*
X61300Y-40243D01*
X61300Y-40243D02*
X61340Y-40283D01*
X61761Y-36399D02*
X62455Y-36399D01*
X62856Y-36800D02*
X63200Y-36800D01*
X62455Y-36399D02*
X62856Y-36800D01*
G54D10*
G36*
X55412Y-36853D02*
X55019Y-37246D01*
X55017Y-37247D01*
X54965Y-37195D01*
X55078Y-37082D01*
X55080Y-37081D01*
X55081Y-37081D01*
X55128Y-37009D01*
X55145Y-36925D01*
X55145Y-36739D01*
X55257Y-36739D01*
X55332Y-36707D01*
X55332Y-36823D01*
X55400Y-36823D01*
X55400Y-36851D01*
X55412Y-36851D01*
X55412Y-36853D01*
X55412Y-36853D01*
G37*
G54D27*
X55412Y-36853D02*
X55019Y-37246D01*
X55017Y-37247D01*
X54965Y-37195D01*
X55078Y-37082D01*
X55080Y-37081D01*
X55081Y-37081D01*
X55128Y-37009D01*
X55145Y-36925D01*
X55145Y-36739D01*
X55257Y-36739D01*
X55332Y-36707D01*
X55332Y-36823D01*
X55400Y-36823D01*
X55400Y-36851D01*
X55412Y-36851D01*
X55412Y-36853D01*
G54D10*
G36*
X55818Y-36562D02*
X55759Y-36562D01*
X55759Y-36601D01*
X55641Y-36601D01*
X55641Y-36562D01*
X55582Y-36562D01*
X55582Y-36484D01*
X55641Y-36484D01*
X55641Y-36445D01*
X55759Y-36445D01*
X55759Y-36484D01*
X55818Y-36484D01*
X55818Y-36562D01*
X55818Y-36562D01*
G37*
G54D27*
X55818Y-36562D02*
X55759Y-36562D01*
X55759Y-36601D01*
X55641Y-36601D01*
X55641Y-36562D01*
X55582Y-36562D01*
X55582Y-36484D01*
X55641Y-36484D01*
X55641Y-36445D01*
X55759Y-36445D01*
X55759Y-36484D01*
X55818Y-36484D01*
X55818Y-36562D01*
G54D10*
G36*
X55921Y-35079D02*
X55882Y-35079D01*
X55882Y-35138D01*
X55804Y-35138D01*
X55804Y-35079D01*
X55765Y-35079D01*
X55765Y-34961D01*
X55804Y-34961D01*
X55804Y-34928D01*
X55882Y-34928D01*
X55882Y-34961D01*
X55921Y-34961D01*
X55921Y-35079D01*
X55921Y-35079D01*
G37*
G54D27*
X55921Y-35079D02*
X55882Y-35079D01*
X55882Y-35138D01*
X55804Y-35138D01*
X55804Y-35079D01*
X55765Y-35079D01*
X55765Y-34961D01*
X55804Y-34961D01*
X55804Y-34928D01*
X55882Y-34928D01*
X55882Y-34961D01*
X55921Y-34961D01*
X55921Y-35079D01*
G54D10*
G36*
X61309Y-35712D02*
X61286Y-35768D01*
X61286Y-35854D01*
X61308Y-35908D01*
X61286Y-35962D01*
X61286Y-35997D01*
X60963Y-35997D01*
X60962Y-35997D01*
X60945Y-36000D01*
X60879Y-36014D01*
X60807Y-36061D01*
X60805Y-36063D01*
X59177Y-37691D01*
X59177Y-36007D01*
X59176Y-36006D01*
X59177Y-36006D01*
X59173Y-35989D01*
X59160Y-35923D01*
X59159Y-35922D01*
X59113Y-35851D01*
X59110Y-35849D01*
X58699Y-35438D01*
X58777Y-35438D01*
X58782Y-35439D01*
X58782Y-35438D01*
X58866Y-35421D01*
X58938Y-35374D01*
X59310Y-35002D01*
X59357Y-34930D01*
X59374Y-34846D01*
X59375Y-34846D01*
X59374Y-34841D01*
X59374Y-34539D01*
X59451Y-34539D01*
X59451Y-34567D01*
X59495Y-34673D01*
X59576Y-34755D01*
X59682Y-34799D01*
X59797Y-34799D01*
X59899Y-34756D01*
X60002Y-34799D01*
X60117Y-34799D01*
X60223Y-34755D01*
X60224Y-34753D01*
X60226Y-34755D01*
X60332Y-34799D01*
X60447Y-34799D01*
X60553Y-34755D01*
X60635Y-34674D01*
X60679Y-34568D01*
X60679Y-34461D01*
X60686Y-34464D01*
X60721Y-34464D01*
X60723Y-34470D01*
X60770Y-34542D01*
X60944Y-34716D01*
X61016Y-34763D01*
X61100Y-34781D01*
X61100Y-34780D01*
X61104Y-34780D01*
X61287Y-34780D01*
X61286Y-34784D01*
X61286Y-34870D01*
X61309Y-34925D01*
X61286Y-34981D01*
X61286Y-35067D01*
X61308Y-35122D01*
X61286Y-35177D01*
X61286Y-35263D01*
X61309Y-35318D01*
X61286Y-35374D01*
X61286Y-35460D01*
X61309Y-35515D01*
X61286Y-35571D01*
X61286Y-35657D01*
X61309Y-35712D01*
X61309Y-35712D01*
G37*
G54D27*
X61309Y-35712D02*
X61286Y-35768D01*
X61286Y-35854D01*
X61308Y-35908D01*
X61286Y-35962D01*
X61286Y-35997D01*
X60963Y-35997D01*
X60962Y-35997D01*
X60945Y-36000D01*
X60879Y-36014D01*
X60807Y-36061D01*
X60805Y-36063D01*
X59177Y-37691D01*
X59177Y-36007D01*
X59176Y-36006D01*
X59177Y-36006D01*
X59173Y-35989D01*
X59160Y-35923D01*
X59159Y-35922D01*
X59113Y-35851D01*
X59110Y-35849D01*
X58699Y-35438D01*
X58777Y-35438D01*
X58782Y-35439D01*
X58782Y-35438D01*
X58866Y-35421D01*
X58938Y-35374D01*
X59310Y-35002D01*
X59357Y-34930D01*
X59374Y-34846D01*
X59375Y-34846D01*
X59374Y-34841D01*
X59374Y-34539D01*
X59451Y-34539D01*
X59451Y-34567D01*
X59495Y-34673D01*
X59576Y-34755D01*
X59682Y-34799D01*
X59797Y-34799D01*
X59899Y-34756D01*
X60002Y-34799D01*
X60117Y-34799D01*
X60223Y-34755D01*
X60224Y-34753D01*
X60226Y-34755D01*
X60332Y-34799D01*
X60447Y-34799D01*
X60553Y-34755D01*
X60635Y-34674D01*
X60679Y-34568D01*
X60679Y-34461D01*
X60686Y-34464D01*
X60721Y-34464D01*
X60723Y-34470D01*
X60770Y-34542D01*
X60944Y-34716D01*
X61016Y-34763D01*
X61100Y-34781D01*
X61100Y-34780D01*
X61104Y-34780D01*
X61287Y-34780D01*
X61286Y-34784D01*
X61286Y-34870D01*
X61309Y-34925D01*
X61286Y-34981D01*
X61286Y-35067D01*
X61308Y-35122D01*
X61286Y-35177D01*
X61286Y-35263D01*
X61309Y-35318D01*
X61286Y-35374D01*
X61286Y-35460D01*
X61309Y-35515D01*
X61286Y-35571D01*
X61286Y-35657D01*
X61309Y-35712D01*
G54D10*
G36*
X62011Y-40754D02*
X61971Y-40852D01*
X61971Y-40967D01*
X62005Y-41050D01*
X61708Y-41050D01*
X61708Y-40738D01*
X61646Y-40676D01*
X61399Y-40676D01*
X61399Y-40903D01*
X61460Y-40964D01*
X61508Y-40964D01*
X61599Y-40926D01*
X61669Y-40856D01*
X61707Y-40764D01*
X61708Y-40738D01*
X61708Y-41050D01*
X61150Y-41050D01*
X61150Y-40954D01*
X61172Y-40964D01*
X61220Y-40964D01*
X61281Y-40903D01*
X61281Y-40676D01*
X61222Y-40676D01*
X61222Y-40598D01*
X61281Y-40598D01*
X61281Y-40559D01*
X61399Y-40559D01*
X61399Y-40598D01*
X61646Y-40598D01*
X61708Y-40536D01*
X61707Y-40510D01*
X61669Y-40418D01*
X61640Y-40389D01*
X61640Y-40309D01*
X61628Y-40309D01*
X61628Y-40171D01*
X61605Y-40117D01*
X61627Y-40066D01*
X61627Y-39998D01*
X61627Y-39684D01*
X61601Y-39622D01*
X61559Y-39580D01*
X61601Y-39538D01*
X61627Y-39476D01*
X61627Y-39408D01*
X61627Y-39094D01*
X61601Y-39032D01*
X61553Y-38984D01*
X61491Y-38958D01*
X61423Y-38958D01*
X61141Y-38958D01*
X61141Y-38892D01*
X61141Y-38699D01*
X61146Y-38675D01*
X61146Y-38166D01*
X61145Y-38165D01*
X61149Y-38158D01*
X61149Y-38043D01*
X61105Y-37937D01*
X61024Y-37855D01*
X60918Y-37811D01*
X60803Y-37811D01*
X60697Y-37855D01*
X60615Y-37936D01*
X60571Y-38042D01*
X60571Y-38157D01*
X60591Y-38206D01*
X60575Y-38200D01*
X60489Y-38200D01*
X60433Y-38223D01*
X60378Y-38200D01*
X60292Y-38200D01*
X60236Y-38223D01*
X60181Y-38200D01*
X60095Y-38200D01*
X60040Y-38222D01*
X59985Y-38200D01*
X59899Y-38200D01*
X59843Y-38223D01*
X59788Y-38200D01*
X59742Y-38200D01*
X59713Y-38171D01*
X59618Y-38133D01*
X59572Y-38189D01*
X59572Y-38284D01*
X59563Y-38293D01*
X59548Y-38328D01*
X59533Y-38293D01*
X59524Y-38284D01*
X59524Y-38189D01*
X59478Y-38133D01*
X59383Y-38171D01*
X59353Y-38200D01*
X59308Y-38200D01*
X59280Y-38211D01*
X61054Y-36437D01*
X61286Y-36437D01*
X61286Y-36442D01*
X61309Y-36497D01*
X61286Y-36553D01*
X61286Y-36639D01*
X61309Y-36694D01*
X61286Y-36750D01*
X61286Y-36836D01*
X61308Y-36891D01*
X61286Y-36946D01*
X61286Y-37032D01*
X61309Y-37087D01*
X61286Y-37143D01*
X61286Y-37229D01*
X61312Y-37292D01*
X61293Y-37340D01*
X61293Y-37426D01*
X61312Y-37473D01*
X61286Y-37537D01*
X61286Y-37623D01*
X61309Y-37678D01*
X61286Y-37734D01*
X61286Y-37820D01*
X61319Y-37899D01*
X61379Y-37959D01*
X61458Y-37992D01*
X61544Y-37992D01*
X61736Y-37992D01*
X61761Y-37997D01*
X61930Y-37997D01*
X61930Y-40219D01*
X61917Y-40225D01*
X61835Y-40306D01*
X61791Y-40412D01*
X61791Y-40527D01*
X61835Y-40633D01*
X61916Y-40715D01*
X62011Y-40754D01*
X62011Y-40754D01*
G37*
G54D27*
X62011Y-40754D02*
X61971Y-40852D01*
X61971Y-40967D01*
X62005Y-41050D01*
X61708Y-41050D01*
X61708Y-40738D01*
X61646Y-40676D01*
X61399Y-40676D01*
X61399Y-40903D01*
X61460Y-40964D01*
X61508Y-40964D01*
X61599Y-40926D01*
X61669Y-40856D01*
X61707Y-40764D01*
X61708Y-40738D01*
X61708Y-41050D01*
X61150Y-41050D01*
X61150Y-40954D01*
X61172Y-40964D01*
X61220Y-40964D01*
X61281Y-40903D01*
X61281Y-40676D01*
X61222Y-40676D01*
X61222Y-40598D01*
X61281Y-40598D01*
X61281Y-40559D01*
X61399Y-40559D01*
X61399Y-40598D01*
X61646Y-40598D01*
X61708Y-40536D01*
X61707Y-40510D01*
X61669Y-40418D01*
X61640Y-40389D01*
X61640Y-40309D01*
X61628Y-40309D01*
X61628Y-40171D01*
X61605Y-40117D01*
X61627Y-40066D01*
X61627Y-39998D01*
X61627Y-39684D01*
X61601Y-39622D01*
X61559Y-39580D01*
X61601Y-39538D01*
X61627Y-39476D01*
X61627Y-39408D01*
X61627Y-39094D01*
X61601Y-39032D01*
X61553Y-38984D01*
X61491Y-38958D01*
X61423Y-38958D01*
X61141Y-38958D01*
X61141Y-38892D01*
X61141Y-38699D01*
X61146Y-38675D01*
X61146Y-38166D01*
X61145Y-38165D01*
X61149Y-38158D01*
X61149Y-38043D01*
X61105Y-37937D01*
X61024Y-37855D01*
X60918Y-37811D01*
X60803Y-37811D01*
X60697Y-37855D01*
X60615Y-37936D01*
X60571Y-38042D01*
X60571Y-38157D01*
X60591Y-38206D01*
X60575Y-38200D01*
X60489Y-38200D01*
X60433Y-38223D01*
X60378Y-38200D01*
X60292Y-38200D01*
X60236Y-38223D01*
X60181Y-38200D01*
X60095Y-38200D01*
X60040Y-38222D01*
X59985Y-38200D01*
X59899Y-38200D01*
X59843Y-38223D01*
X59788Y-38200D01*
X59742Y-38200D01*
X59713Y-38171D01*
X59618Y-38133D01*
X59572Y-38189D01*
X59572Y-38284D01*
X59563Y-38293D01*
X59548Y-38328D01*
X59533Y-38293D01*
X59524Y-38284D01*
X59524Y-38189D01*
X59478Y-38133D01*
X59383Y-38171D01*
X59353Y-38200D01*
X59308Y-38200D01*
X59280Y-38211D01*
X61054Y-36437D01*
X61286Y-36437D01*
X61286Y-36442D01*
X61309Y-36497D01*
X61286Y-36553D01*
X61286Y-36639D01*
X61309Y-36694D01*
X61286Y-36750D01*
X61286Y-36836D01*
X61308Y-36891D01*
X61286Y-36946D01*
X61286Y-37032D01*
X61309Y-37087D01*
X61286Y-37143D01*
X61286Y-37229D01*
X61312Y-37292D01*
X61293Y-37340D01*
X61293Y-37426D01*
X61312Y-37473D01*
X61286Y-37537D01*
X61286Y-37623D01*
X61309Y-37678D01*
X61286Y-37734D01*
X61286Y-37820D01*
X61319Y-37899D01*
X61379Y-37959D01*
X61458Y-37992D01*
X61544Y-37992D01*
X61736Y-37992D01*
X61761Y-37997D01*
X61930Y-37997D01*
X61930Y-40219D01*
X61917Y-40225D01*
X61835Y-40306D01*
X61791Y-40412D01*
X61791Y-40527D01*
X61835Y-40633D01*
X61916Y-40715D01*
X62011Y-40754D01*
G54D10*
G36*
X64540Y-43948D02*
X64175Y-44312D01*
X64175Y-36974D01*
X64175Y-36626D01*
X64174Y-36624D01*
X64174Y-36525D01*
X64136Y-36434D01*
X64066Y-36364D01*
X63974Y-36326D01*
X63924Y-36325D01*
X63862Y-36387D01*
X63862Y-36688D01*
X64113Y-36688D01*
X64175Y-36626D01*
X64175Y-36974D01*
X64113Y-36912D01*
X63862Y-36912D01*
X63862Y-37213D01*
X63924Y-37275D01*
X63974Y-37274D01*
X64066Y-37236D01*
X64136Y-37166D01*
X64174Y-37075D01*
X64174Y-36976D01*
X64175Y-36974D01*
X64175Y-44312D01*
X64092Y-44395D01*
X64066Y-44260D01*
X63984Y-44228D01*
X63772Y-44440D01*
X63772Y-44016D01*
X63740Y-43934D01*
X63528Y-43901D01*
X63360Y-43934D01*
X63328Y-44016D01*
X63550Y-44238D01*
X63772Y-44016D01*
X63772Y-44440D01*
X63762Y-44450D01*
X63833Y-44521D01*
X63624Y-44730D01*
X63618Y-44730D01*
X63550Y-44662D01*
X63482Y-44730D01*
X63476Y-44730D01*
X63267Y-44521D01*
X63338Y-44450D01*
X63116Y-44228D01*
X63034Y-44260D01*
X63019Y-44355D01*
X62949Y-44184D01*
X62817Y-44052D01*
X62650Y-43982D01*
X62644Y-43980D01*
X62457Y-43980D01*
X62414Y-43997D01*
X62650Y-43761D01*
X63395Y-43015D01*
X63397Y-43014D01*
X63398Y-43014D01*
X63445Y-42942D01*
X63462Y-42858D01*
X63462Y-37444D01*
X63445Y-37360D01*
X63398Y-37288D01*
X63395Y-37286D01*
X63304Y-37195D01*
X63359Y-37195D01*
X63421Y-37169D01*
X63452Y-37137D01*
X63464Y-37166D01*
X63534Y-37236D01*
X63626Y-37274D01*
X63676Y-37275D01*
X63738Y-37213D01*
X63738Y-36912D01*
X63675Y-36912D01*
X63675Y-36688D01*
X63738Y-36688D01*
X63738Y-36387D01*
X63676Y-36325D01*
X63626Y-36326D01*
X63534Y-36364D01*
X63464Y-36434D01*
X63454Y-36457D01*
X63454Y-36420D01*
X63393Y-36359D01*
X63166Y-36359D01*
X63166Y-36405D01*
X63088Y-36405D01*
X63088Y-36359D01*
X63049Y-36359D01*
X63049Y-36241D01*
X63088Y-36241D01*
X63088Y-36225D01*
X63166Y-36225D01*
X63166Y-36241D01*
X63393Y-36241D01*
X63409Y-36225D01*
X63454Y-36225D01*
X64377Y-36225D01*
X64540Y-36387D01*
X64540Y-43740D01*
X64540Y-43750D01*
X64540Y-43948D01*
X64540Y-43948D01*
G37*
G54D27*
X64540Y-43948D02*
X64175Y-44312D01*
X64175Y-36974D01*
X64175Y-36626D01*
X64174Y-36624D01*
X64174Y-36525D01*
X64136Y-36434D01*
X64066Y-36364D01*
X63974Y-36326D01*
X63924Y-36325D01*
X63862Y-36387D01*
X63862Y-36688D01*
X64113Y-36688D01*
X64175Y-36626D01*
X64175Y-36974D01*
X64113Y-36912D01*
X63862Y-36912D01*
X63862Y-37213D01*
X63924Y-37275D01*
X63974Y-37274D01*
X64066Y-37236D01*
X64136Y-37166D01*
X64174Y-37075D01*
X64174Y-36976D01*
X64175Y-36974D01*
X64175Y-44312D01*
X64092Y-44395D01*
X64066Y-44260D01*
X63984Y-44228D01*
X63772Y-44440D01*
X63772Y-44016D01*
X63740Y-43934D01*
X63528Y-43901D01*
X63360Y-43934D01*
X63328Y-44016D01*
X63550Y-44238D01*
X63772Y-44016D01*
X63772Y-44440D01*
X63762Y-44450D01*
X63833Y-44521D01*
X63624Y-44730D01*
X63618Y-44730D01*
X63550Y-44662D01*
X63482Y-44730D01*
X63476Y-44730D01*
X63267Y-44521D01*
X63338Y-44450D01*
X63116Y-44228D01*
X63034Y-44260D01*
X63019Y-44355D01*
X62949Y-44184D01*
X62817Y-44052D01*
X62650Y-43982D01*
X62644Y-43980D01*
X62457Y-43980D01*
X62414Y-43997D01*
X62650Y-43761D01*
X63395Y-43015D01*
X63397Y-43014D01*
X63398Y-43014D01*
X63445Y-42942D01*
X63462Y-42858D01*
X63462Y-37444D01*
X63445Y-37360D01*
X63398Y-37288D01*
X63395Y-37286D01*
X63304Y-37195D01*
X63359Y-37195D01*
X63421Y-37169D01*
X63452Y-37137D01*
X63464Y-37166D01*
X63534Y-37236D01*
X63626Y-37274D01*
X63676Y-37275D01*
X63738Y-37213D01*
X63738Y-36912D01*
X63675Y-36912D01*
X63675Y-36688D01*
X63738Y-36688D01*
X63738Y-36387D01*
X63676Y-36325D01*
X63626Y-36326D01*
X63534Y-36364D01*
X63464Y-36434D01*
X63454Y-36457D01*
X63454Y-36420D01*
X63393Y-36359D01*
X63166Y-36359D01*
X63166Y-36405D01*
X63088Y-36405D01*
X63088Y-36359D01*
X63049Y-36359D01*
X63049Y-36241D01*
X63088Y-36241D01*
X63088Y-36225D01*
X63166Y-36225D01*
X63166Y-36241D01*
X63393Y-36241D01*
X63409Y-36225D01*
X63454Y-36225D01*
X64377Y-36225D01*
X64540Y-36387D01*
X64540Y-43740D01*
X64540Y-43750D01*
X64540Y-43948D01*
G54D10*
G36*
X69300Y-46550D02*
X68540Y-46550D01*
X68540Y-39700D01*
X68540Y-35800D01*
X68518Y-35689D01*
X68455Y-35595D01*
X66555Y-33695D01*
X66461Y-33632D01*
X66350Y-33610D01*
X66220Y-33610D01*
X65605Y-32995D01*
X64880Y-32270D01*
X64786Y-32207D01*
X64675Y-32185D01*
X63599Y-32185D01*
X63599Y-29078D01*
X63566Y-28910D01*
X63520Y-28892D01*
X63520Y-28194D01*
X63520Y-28007D01*
X63449Y-27834D01*
X63317Y-27702D01*
X63144Y-27630D01*
X62957Y-27630D01*
X62784Y-27701D01*
X62652Y-27833D01*
X62580Y-28006D01*
X62580Y-28193D01*
X62651Y-28366D01*
X62783Y-28498D01*
X62948Y-28566D01*
X62860Y-28584D01*
X62828Y-28666D01*
X63050Y-28888D01*
X63272Y-28666D01*
X63240Y-28584D01*
X63144Y-28569D01*
X63316Y-28499D01*
X63448Y-28367D01*
X63520Y-28194D01*
X63520Y-28892D01*
X63484Y-28878D01*
X63262Y-29100D01*
X63484Y-29322D01*
X63566Y-29290D01*
X63599Y-29078D01*
X63599Y-32185D01*
X63272Y-32185D01*
X63272Y-29534D01*
X63050Y-29312D01*
X62838Y-29524D01*
X62838Y-29100D01*
X62616Y-28878D01*
X62534Y-28910D01*
X62520Y-28998D01*
X62520Y-28194D01*
X62520Y-28007D01*
X62449Y-27834D01*
X62317Y-27702D01*
X62144Y-27630D01*
X61957Y-27630D01*
X61784Y-27701D01*
X61652Y-27833D01*
X61580Y-28006D01*
X61580Y-28193D01*
X61651Y-28366D01*
X61783Y-28498D01*
X61956Y-28570D01*
X62143Y-28570D01*
X62316Y-28499D01*
X62448Y-28367D01*
X62520Y-28194D01*
X62520Y-28998D01*
X62519Y-29005D01*
X62449Y-28834D01*
X62317Y-28702D01*
X62144Y-28630D01*
X61957Y-28630D01*
X61784Y-28701D01*
X61735Y-28750D01*
X61520Y-28750D01*
X61520Y-28194D01*
X61520Y-28007D01*
X61449Y-27834D01*
X61317Y-27702D01*
X61144Y-27630D01*
X60957Y-27630D01*
X60784Y-27701D01*
X60652Y-27833D01*
X60583Y-27998D01*
X60566Y-27910D01*
X60484Y-27878D01*
X60272Y-28090D01*
X60272Y-27666D01*
X60240Y-27584D01*
X60028Y-27551D01*
X59860Y-27584D01*
X59828Y-27666D01*
X60050Y-27888D01*
X60272Y-27666D01*
X60272Y-28090D01*
X60262Y-28100D01*
X60484Y-28322D01*
X60566Y-28290D01*
X60580Y-28194D01*
X60651Y-28366D01*
X60783Y-28498D01*
X60956Y-28570D01*
X61143Y-28570D01*
X61316Y-28499D01*
X61448Y-28367D01*
X61520Y-28194D01*
X61520Y-28750D01*
X61365Y-28750D01*
X61317Y-28702D01*
X61144Y-28630D01*
X60957Y-28630D01*
X60784Y-28701D01*
X60735Y-28750D01*
X60365Y-28750D01*
X60317Y-28702D01*
X60151Y-28633D01*
X60240Y-28616D01*
X60272Y-28534D01*
X60050Y-28312D01*
X59838Y-28524D01*
X59838Y-28100D01*
X59616Y-27878D01*
X59534Y-27910D01*
X59519Y-28005D01*
X59449Y-27834D01*
X59317Y-27702D01*
X59144Y-27630D01*
X58957Y-27630D01*
X58784Y-27701D01*
X58652Y-27833D01*
X58580Y-28006D01*
X58580Y-28193D01*
X58599Y-28239D01*
X58458Y-28380D01*
X58435Y-28380D01*
X58448Y-28367D01*
X58520Y-28194D01*
X58520Y-28007D01*
X58449Y-27834D01*
X58317Y-27702D01*
X58144Y-27630D01*
X57957Y-27630D01*
X57784Y-27701D01*
X57652Y-27833D01*
X57583Y-27998D01*
X57566Y-27910D01*
X57484Y-27878D01*
X57272Y-28090D01*
X57272Y-27666D01*
X57240Y-27584D01*
X57028Y-27551D01*
X56860Y-27584D01*
X56828Y-27666D01*
X57050Y-27888D01*
X57272Y-27666D01*
X57272Y-28090D01*
X57262Y-28100D01*
X57333Y-28171D01*
X57124Y-28380D01*
X57118Y-28380D01*
X57050Y-28312D01*
X56982Y-28380D01*
X56976Y-28380D01*
X56850Y-28254D01*
X56850Y-28100D01*
X56838Y-28100D01*
X56616Y-27878D01*
X56534Y-27910D01*
X56519Y-28005D01*
X56449Y-27834D01*
X56317Y-27702D01*
X56144Y-27630D01*
X55957Y-27630D01*
X55784Y-27701D01*
X55652Y-27833D01*
X55580Y-28006D01*
X55580Y-28193D01*
X55651Y-28366D01*
X55700Y-28415D01*
X55700Y-28785D01*
X55652Y-28833D01*
X55583Y-28998D01*
X55566Y-28910D01*
X55520Y-28892D01*
X55520Y-28194D01*
X55520Y-28007D01*
X55449Y-27834D01*
X55317Y-27702D01*
X55144Y-27630D01*
X54957Y-27630D01*
X54784Y-27701D01*
X54652Y-27833D01*
X54580Y-28006D01*
X54580Y-28193D01*
X54651Y-28366D01*
X54783Y-28498D01*
X54948Y-28566D01*
X54860Y-28584D01*
X54828Y-28666D01*
X55050Y-28888D01*
X55272Y-28666D01*
X55240Y-28584D01*
X55144Y-28569D01*
X55316Y-28499D01*
X55448Y-28367D01*
X55520Y-28194D01*
X55520Y-28892D01*
X55484Y-28878D01*
X55312Y-29050D01*
X55000Y-29050D01*
X55000Y-29362D01*
X54838Y-29524D01*
X54838Y-29100D01*
X54616Y-28878D01*
X54534Y-28910D01*
X54520Y-28998D01*
X54520Y-28194D01*
X54520Y-28007D01*
X54449Y-27834D01*
X54317Y-27702D01*
X54144Y-27630D01*
X53957Y-27630D01*
X53784Y-27701D01*
X53652Y-27833D01*
X53583Y-27998D01*
X53566Y-27910D01*
X53484Y-27878D01*
X53272Y-28090D01*
X53272Y-27666D01*
X53240Y-27584D01*
X53028Y-27551D01*
X52860Y-27584D01*
X52828Y-27666D01*
X53050Y-27888D01*
X53272Y-27666D01*
X53272Y-28090D01*
X53262Y-28100D01*
X53484Y-28322D01*
X53566Y-28290D01*
X53580Y-28194D01*
X53651Y-28366D01*
X53783Y-28498D01*
X53956Y-28570D01*
X54143Y-28570D01*
X54316Y-28499D01*
X54448Y-28367D01*
X54520Y-28194D01*
X54520Y-28998D01*
X54519Y-29005D01*
X54449Y-28834D01*
X54317Y-28702D01*
X54144Y-28630D01*
X53957Y-28630D01*
X53784Y-28701D01*
X53652Y-28833D01*
X53580Y-29006D01*
X53580Y-29193D01*
X53651Y-29366D01*
X53783Y-29498D01*
X53956Y-29570D01*
X54143Y-29570D01*
X54316Y-29499D01*
X54448Y-29367D01*
X54516Y-29201D01*
X54534Y-29290D01*
X54616Y-29322D01*
X54838Y-29100D01*
X54838Y-29524D01*
X54828Y-29534D01*
X54860Y-29616D01*
X54949Y-29630D01*
X53800Y-29630D01*
X53799Y-29630D01*
X53782Y-29633D01*
X53716Y-29647D01*
X53644Y-29694D01*
X53642Y-29696D01*
X53520Y-29817D01*
X53520Y-29194D01*
X53520Y-29007D01*
X53449Y-28834D01*
X53317Y-28702D01*
X53151Y-28633D01*
X53240Y-28616D01*
X53272Y-28534D01*
X53050Y-28312D01*
X52838Y-28524D01*
X52838Y-28100D01*
X52616Y-27878D01*
X52534Y-27910D01*
X52519Y-28005D01*
X52449Y-27834D01*
X52317Y-27702D01*
X52144Y-27630D01*
X51957Y-27630D01*
X51784Y-27701D01*
X51652Y-27833D01*
X51580Y-28006D01*
X51580Y-28193D01*
X51651Y-28366D01*
X51783Y-28498D01*
X51956Y-28570D01*
X52143Y-28570D01*
X52316Y-28499D01*
X52448Y-28367D01*
X52516Y-28201D01*
X52534Y-28290D01*
X52616Y-28322D01*
X52838Y-28100D01*
X52838Y-28524D01*
X52828Y-28534D01*
X52860Y-28616D01*
X52955Y-28630D01*
X52784Y-28701D01*
X52652Y-28833D01*
X52580Y-29006D01*
X52580Y-29193D01*
X52651Y-29366D01*
X52783Y-29498D01*
X52956Y-29570D01*
X53143Y-29570D01*
X53316Y-29499D01*
X53448Y-29367D01*
X53520Y-29194D01*
X53520Y-29817D01*
X52689Y-30648D01*
X52644Y-30630D01*
X52520Y-30630D01*
X52520Y-29194D01*
X52520Y-29007D01*
X52449Y-28834D01*
X52317Y-28702D01*
X52144Y-28630D01*
X51957Y-28630D01*
X51784Y-28701D01*
X51652Y-28833D01*
X51580Y-29006D01*
X51580Y-29193D01*
X51651Y-29366D01*
X51783Y-29498D01*
X51956Y-29570D01*
X52143Y-29570D01*
X52316Y-29499D01*
X52448Y-29367D01*
X52520Y-29194D01*
X52520Y-30630D01*
X52457Y-30630D01*
X52284Y-30701D01*
X52152Y-30833D01*
X52080Y-31006D01*
X52080Y-31193D01*
X52151Y-31366D01*
X52283Y-31498D01*
X52456Y-31570D01*
X52643Y-31570D01*
X52816Y-31499D01*
X52948Y-31367D01*
X52955Y-31350D01*
X53144Y-31350D01*
X53151Y-31366D01*
X53283Y-31498D01*
X53456Y-31570D01*
X53643Y-31570D01*
X53816Y-31499D01*
X53948Y-31367D01*
X53955Y-31350D01*
X54144Y-31350D01*
X54151Y-31366D01*
X54283Y-31498D01*
X54456Y-31570D01*
X54643Y-31570D01*
X54816Y-31499D01*
X54948Y-31367D01*
X55016Y-31201D01*
X55034Y-31290D01*
X55116Y-31322D01*
X55288Y-31150D01*
X55550Y-31150D01*
X55550Y-30888D01*
X55772Y-30666D01*
X55740Y-30584D01*
X55650Y-30570D01*
X56545Y-30570D01*
X56550Y-30571D01*
X56550Y-30570D01*
X56634Y-30553D01*
X56706Y-30506D01*
X56850Y-30361D01*
X57748Y-29463D01*
X57783Y-29498D01*
X57956Y-29570D01*
X58143Y-29570D01*
X58316Y-29499D01*
X58448Y-29367D01*
X58520Y-29194D01*
X58520Y-29007D01*
X58449Y-28834D01*
X58435Y-28820D01*
X58545Y-28820D01*
X58550Y-28821D01*
X58550Y-28820D01*
X58634Y-28803D01*
X58706Y-28756D01*
X58910Y-28551D01*
X58956Y-28570D01*
X59143Y-28570D01*
X59316Y-28499D01*
X59448Y-28367D01*
X59516Y-28201D01*
X59534Y-28290D01*
X59616Y-28322D01*
X59838Y-28100D01*
X59838Y-28524D01*
X59828Y-28534D01*
X59860Y-28616D01*
X59955Y-28630D01*
X59784Y-28701D01*
X59652Y-28833D01*
X59580Y-29006D01*
X59580Y-29193D01*
X59651Y-29366D01*
X59783Y-29498D01*
X59956Y-29570D01*
X59978Y-29570D01*
X60591Y-30182D01*
X60591Y-30217D01*
X60635Y-30323D01*
X60716Y-30405D01*
X60822Y-30449D01*
X60937Y-30449D01*
X61043Y-30405D01*
X61125Y-30324D01*
X61143Y-30279D01*
X61227Y-30279D01*
X61333Y-30235D01*
X61415Y-30154D01*
X61459Y-30048D01*
X61459Y-30012D01*
X61917Y-29553D01*
X61956Y-29570D01*
X62100Y-29570D01*
X62143Y-29570D01*
X62316Y-29499D01*
X62448Y-29367D01*
X62516Y-29201D01*
X62534Y-29290D01*
X62616Y-29322D01*
X62838Y-29100D01*
X62838Y-29524D01*
X62828Y-29534D01*
X62860Y-29616D01*
X63072Y-29649D01*
X63240Y-29616D01*
X63272Y-29534D01*
X63272Y-32185D01*
X62100Y-32185D01*
X60835Y-32185D01*
X60130Y-31480D01*
X60130Y-31000D01*
X60108Y-30889D01*
X60045Y-30795D01*
X59745Y-30495D01*
X59651Y-30432D01*
X59540Y-30410D01*
X59520Y-30410D01*
X59520Y-29194D01*
X59520Y-29007D01*
X59449Y-28834D01*
X59317Y-28702D01*
X59144Y-28630D01*
X58957Y-28630D01*
X58784Y-28701D01*
X58652Y-28833D01*
X58580Y-29006D01*
X58580Y-29193D01*
X58651Y-29366D01*
X58783Y-29498D01*
X58956Y-29570D01*
X59143Y-29570D01*
X59316Y-29499D01*
X59448Y-29367D01*
X59520Y-29194D01*
X59520Y-30410D01*
X59420Y-30410D01*
X59409Y-30405D01*
X59341Y-30405D01*
X59234Y-30405D01*
X59153Y-30351D01*
X59050Y-30330D01*
X58685Y-30330D01*
X58674Y-30272D01*
X58674Y-30271D01*
X58616Y-30184D01*
X58441Y-30009D01*
X58353Y-29951D01*
X58250Y-29930D01*
X57850Y-29930D01*
X57746Y-29951D01*
X57659Y-30009D01*
X57484Y-30184D01*
X57426Y-30272D01*
X57414Y-30330D01*
X57120Y-30330D01*
X57016Y-30351D01*
X56929Y-30409D01*
X56850Y-30488D01*
X56106Y-31232D01*
X56079Y-31205D01*
X56099Y-31078D01*
X56066Y-30910D01*
X55984Y-30878D01*
X55762Y-31100D01*
X55833Y-31171D01*
X55754Y-31250D01*
X55550Y-31250D01*
X55500Y-31250D01*
X55500Y-31362D01*
X55328Y-31534D01*
X55360Y-31616D01*
X55455Y-31630D01*
X55284Y-31701D01*
X55152Y-31833D01*
X55080Y-32006D01*
X55080Y-32193D01*
X55151Y-32366D01*
X55283Y-32498D01*
X55456Y-32570D01*
X55500Y-32570D01*
X55500Y-32580D01*
X55020Y-32580D01*
X55020Y-32194D01*
X55020Y-32007D01*
X54949Y-31834D01*
X54817Y-31702D01*
X54644Y-31630D01*
X54457Y-31630D01*
X54284Y-31701D01*
X54152Y-31833D01*
X54080Y-32006D01*
X54080Y-32193D01*
X54151Y-32366D01*
X54283Y-32498D01*
X54456Y-32570D01*
X54643Y-32570D01*
X54816Y-32499D01*
X54948Y-32367D01*
X55020Y-32194D01*
X55020Y-32580D01*
X54020Y-32580D01*
X54020Y-32194D01*
X54020Y-32007D01*
X53949Y-31834D01*
X53817Y-31702D01*
X53644Y-31630D01*
X53457Y-31630D01*
X53284Y-31701D01*
X53152Y-31833D01*
X53080Y-32006D01*
X53080Y-32193D01*
X53151Y-32366D01*
X53283Y-32498D01*
X53456Y-32570D01*
X53643Y-32570D01*
X53816Y-32499D01*
X53948Y-32367D01*
X54020Y-32194D01*
X54020Y-32580D01*
X53020Y-32580D01*
X53020Y-32434D01*
X53020Y-32366D01*
X53020Y-31766D01*
X52994Y-31704D01*
X52946Y-31656D01*
X52884Y-31630D01*
X52816Y-31630D01*
X52216Y-31630D01*
X52154Y-31656D01*
X52106Y-31704D01*
X52080Y-31766D01*
X52080Y-31834D01*
X52080Y-32434D01*
X52106Y-32496D01*
X52154Y-32544D01*
X52216Y-32570D01*
X52284Y-32570D01*
X52884Y-32570D01*
X52946Y-32544D01*
X52994Y-32496D01*
X53020Y-32434D01*
X53020Y-32580D01*
X51911Y-32580D01*
X51320Y-31988D01*
X51320Y-31570D01*
X51384Y-31570D01*
X51446Y-31544D01*
X51494Y-31496D01*
X51520Y-31434D01*
X51520Y-31366D01*
X51520Y-30766D01*
X51520Y-30194D01*
X51520Y-30007D01*
X51520Y-29434D01*
X51520Y-29366D01*
X51520Y-28766D01*
X51520Y-28194D01*
X51520Y-28007D01*
X51449Y-27834D01*
X51317Y-27702D01*
X51144Y-27630D01*
X50957Y-27630D01*
X50784Y-27701D01*
X50652Y-27833D01*
X50580Y-28006D01*
X50580Y-28193D01*
X50651Y-28366D01*
X50783Y-28498D01*
X50956Y-28570D01*
X51143Y-28570D01*
X51316Y-28499D01*
X51448Y-28367D01*
X51520Y-28194D01*
X51520Y-28766D01*
X51494Y-28704D01*
X51446Y-28656D01*
X51384Y-28630D01*
X51316Y-28630D01*
X50716Y-28630D01*
X50654Y-28656D01*
X50606Y-28704D01*
X50580Y-28766D01*
X50580Y-28834D01*
X50580Y-29434D01*
X50606Y-29496D01*
X50654Y-29544D01*
X50716Y-29570D01*
X50784Y-29570D01*
X51384Y-29570D01*
X51446Y-29544D01*
X51494Y-29496D01*
X51520Y-29434D01*
X51520Y-30007D01*
X51449Y-29834D01*
X51317Y-29702D01*
X51144Y-29630D01*
X50957Y-29630D01*
X50784Y-29701D01*
X50652Y-29833D01*
X50580Y-30006D01*
X50580Y-30193D01*
X50651Y-30366D01*
X50783Y-30498D01*
X50956Y-30570D01*
X51143Y-30570D01*
X51316Y-30499D01*
X51448Y-30367D01*
X51520Y-30194D01*
X51520Y-30766D01*
X51494Y-30704D01*
X51446Y-30656D01*
X51384Y-30630D01*
X51316Y-30630D01*
X50716Y-30630D01*
X50654Y-30656D01*
X50606Y-30704D01*
X50580Y-30766D01*
X50580Y-30834D01*
X50580Y-31434D01*
X50606Y-31496D01*
X50654Y-31544D01*
X50716Y-31570D01*
X50780Y-31570D01*
X50780Y-32100D01*
X50801Y-32203D01*
X50859Y-32291D01*
X51607Y-33038D01*
X51609Y-33041D01*
X51696Y-33098D01*
X51697Y-33099D01*
X51800Y-33120D01*
X55800Y-33120D01*
X55903Y-33099D01*
X55991Y-33041D01*
X56150Y-32882D01*
X56431Y-32601D01*
X56489Y-32513D01*
X56510Y-32410D01*
X56510Y-31592D01*
X56850Y-31252D01*
X57232Y-30870D01*
X57455Y-30870D01*
X57479Y-30894D01*
X57541Y-30920D01*
X57609Y-30920D01*
X57768Y-30920D01*
X57809Y-30961D01*
X57901Y-30999D01*
X57938Y-31000D01*
X58000Y-30938D01*
X58000Y-30675D01*
X57950Y-30675D01*
X57950Y-30525D01*
X58000Y-30525D01*
X58000Y-30470D01*
X58100Y-30470D01*
X58100Y-30525D01*
X58150Y-30525D01*
X58150Y-30675D01*
X58100Y-30675D01*
X58100Y-30938D01*
X58162Y-31000D01*
X58199Y-30999D01*
X58291Y-30961D01*
X58332Y-30920D01*
X58359Y-30920D01*
X58559Y-30920D01*
X58621Y-30894D01*
X58645Y-30870D01*
X58759Y-30870D01*
X58781Y-30921D01*
X58812Y-30952D01*
X58784Y-30964D01*
X58714Y-31034D01*
X58676Y-31126D01*
X58675Y-31176D01*
X58737Y-31238D01*
X59038Y-31238D01*
X59038Y-31175D01*
X59262Y-31175D01*
X59262Y-31238D01*
X59375Y-31238D01*
X59375Y-31362D01*
X59262Y-31362D01*
X59262Y-31613D01*
X59324Y-31675D01*
X59326Y-31674D01*
X59425Y-31674D01*
X59516Y-31636D01*
X59550Y-31601D01*
X59572Y-31711D01*
X59635Y-31805D01*
X60510Y-32680D01*
X60604Y-32743D01*
X60715Y-32765D01*
X62100Y-32765D01*
X64555Y-32765D01*
X64765Y-32975D01*
X64748Y-32975D01*
X64686Y-33001D01*
X64684Y-33003D01*
X64666Y-33003D01*
X64664Y-33001D01*
X64602Y-32975D01*
X64534Y-32975D01*
X64298Y-32975D01*
X64236Y-33001D01*
X64234Y-33003D01*
X64216Y-33003D01*
X64214Y-33001D01*
X64152Y-32975D01*
X64084Y-32975D01*
X63848Y-32975D01*
X63786Y-33001D01*
X63784Y-33003D01*
X63766Y-33003D01*
X63764Y-33001D01*
X63702Y-32975D01*
X63634Y-32975D01*
X63398Y-32975D01*
X63336Y-33001D01*
X63334Y-33003D01*
X63316Y-33003D01*
X63314Y-33001D01*
X63252Y-32975D01*
X63184Y-32975D01*
X62948Y-32975D01*
X62886Y-33001D01*
X62884Y-33003D01*
X62866Y-33003D01*
X62864Y-33001D01*
X62802Y-32975D01*
X62734Y-32975D01*
X62498Y-32975D01*
X62436Y-33001D01*
X62434Y-33003D01*
X62416Y-33003D01*
X62414Y-33001D01*
X62352Y-32975D01*
X62284Y-32975D01*
X62100Y-32975D01*
X62048Y-32975D01*
X61986Y-33001D01*
X61984Y-33003D01*
X61966Y-33003D01*
X61964Y-33001D01*
X61902Y-32975D01*
X61834Y-32975D01*
X61598Y-32975D01*
X61536Y-33001D01*
X61488Y-33049D01*
X61462Y-33111D01*
X61462Y-33179D01*
X61462Y-33330D01*
X61306Y-33174D01*
X61234Y-33127D01*
X61150Y-33109D01*
X61145Y-33110D01*
X60710Y-33110D01*
X60709Y-33110D01*
X60692Y-33113D01*
X60626Y-33127D01*
X60554Y-33174D01*
X60552Y-33176D01*
X60376Y-33352D01*
X60329Y-33424D01*
X60311Y-33508D01*
X60312Y-33512D01*
X60312Y-33514D01*
X60292Y-33514D01*
X60236Y-33537D01*
X60181Y-33514D01*
X60162Y-33514D01*
X60162Y-33292D01*
X60161Y-33291D01*
X60162Y-33291D01*
X60161Y-33289D01*
X60161Y-33288D01*
X60164Y-33283D01*
X60164Y-33168D01*
X60120Y-33062D01*
X60039Y-32980D01*
X59933Y-32936D01*
X59818Y-32936D01*
X59712Y-32980D01*
X59630Y-33061D01*
X59598Y-33136D01*
X59568Y-33136D01*
X59462Y-33180D01*
X59380Y-33261D01*
X59336Y-33367D01*
X59336Y-33439D01*
X59303Y-33439D01*
X59178Y-33313D01*
X59178Y-33311D01*
X59190Y-33311D01*
X59190Y-33231D01*
X59219Y-33202D01*
X59257Y-33110D01*
X59258Y-33084D01*
X59258Y-32882D01*
X59257Y-32856D01*
X59219Y-32764D01*
X59149Y-32694D01*
X59058Y-32656D01*
X59010Y-32656D01*
X58949Y-32717D01*
X58949Y-32944D01*
X59196Y-32944D01*
X59258Y-32882D01*
X59258Y-33084D01*
X59196Y-33022D01*
X58949Y-33022D01*
X58949Y-33061D01*
X58831Y-33061D01*
X58831Y-33022D01*
X58776Y-33022D01*
X58772Y-33018D01*
X58772Y-32944D01*
X58831Y-32944D01*
X58831Y-32717D01*
X58770Y-32656D01*
X58722Y-32656D01*
X58657Y-32683D01*
X58600Y-32683D01*
X58600Y-32540D01*
X58619Y-32521D01*
X58645Y-32459D01*
X58645Y-32391D01*
X58645Y-32237D01*
X58656Y-32221D01*
X58675Y-32125D01*
X58675Y-31831D01*
X58695Y-31784D01*
X58695Y-31716D01*
X58695Y-31520D01*
X58714Y-31566D01*
X58784Y-31636D01*
X58875Y-31674D01*
X58974Y-31674D01*
X58976Y-31675D01*
X59038Y-31613D01*
X59038Y-31362D01*
X58737Y-31362D01*
X58691Y-31407D01*
X58669Y-31354D01*
X58621Y-31306D01*
X58559Y-31280D01*
X58491Y-31280D01*
X58291Y-31280D01*
X58229Y-31306D01*
X58181Y-31354D01*
X58155Y-31416D01*
X58155Y-31484D01*
X58155Y-31784D01*
X58167Y-31814D01*
X58129Y-31831D01*
X58097Y-31862D01*
X58086Y-31834D01*
X58050Y-31798D01*
X58050Y-31725D01*
X57945Y-31725D01*
X57945Y-31716D01*
X57945Y-31416D01*
X57919Y-31354D01*
X57871Y-31306D01*
X57809Y-31280D01*
X57741Y-31280D01*
X57541Y-31280D01*
X57479Y-31306D01*
X57431Y-31354D01*
X57405Y-31416D01*
X57405Y-31484D01*
X57405Y-31784D01*
X57422Y-31825D01*
X57414Y-31834D01*
X57376Y-31925D01*
X57376Y-32024D01*
X57375Y-32026D01*
X57437Y-32088D01*
X57688Y-32088D01*
X57688Y-31975D01*
X57812Y-31975D01*
X57812Y-32088D01*
X57875Y-32088D01*
X57875Y-32312D01*
X57812Y-32312D01*
X57812Y-32613D01*
X57874Y-32675D01*
X57924Y-32674D01*
X58016Y-32636D01*
X58086Y-32566D01*
X58097Y-32537D01*
X58100Y-32540D01*
X58100Y-32910D01*
X57688Y-32910D01*
X57688Y-32613D01*
X57688Y-32312D01*
X57437Y-32312D01*
X57375Y-32374D01*
X57376Y-32376D01*
X57376Y-32475D01*
X57414Y-32566D01*
X57484Y-32636D01*
X57576Y-32674D01*
X57626Y-32675D01*
X57688Y-32613D01*
X57688Y-32910D01*
X57634Y-32910D01*
X57630Y-32909D01*
X57546Y-32927D01*
X57474Y-32974D01*
X57472Y-32976D01*
X57248Y-33200D01*
X56850Y-33200D01*
X56150Y-33200D01*
X52010Y-33200D01*
X51926Y-33217D01*
X51854Y-33264D01*
X51852Y-33266D01*
X50684Y-34434D01*
X50637Y-34506D01*
X50619Y-34590D01*
X50620Y-34594D01*
X50620Y-36275D01*
X50619Y-36280D01*
X50637Y-36364D01*
X50684Y-36436D01*
X51002Y-36753D01*
X51004Y-36756D01*
X51046Y-36784D01*
X51075Y-36803D01*
X51076Y-36803D01*
X51160Y-36820D01*
X51165Y-36820D01*
X51152Y-36833D01*
X51080Y-37006D01*
X51080Y-37193D01*
X51151Y-37366D01*
X51283Y-37498D01*
X51300Y-37505D01*
X51300Y-37694D01*
X51284Y-37701D01*
X51152Y-37833D01*
X51080Y-38006D01*
X51080Y-38193D01*
X51151Y-38366D01*
X51283Y-38498D01*
X51300Y-38505D01*
X51300Y-38694D01*
X51284Y-38701D01*
X51152Y-38833D01*
X51080Y-39006D01*
X51080Y-39193D01*
X51151Y-39366D01*
X51283Y-39498D01*
X51300Y-39505D01*
X51300Y-39694D01*
X51284Y-39701D01*
X51152Y-39833D01*
X51080Y-40006D01*
X51080Y-40193D01*
X51151Y-40366D01*
X51283Y-40498D01*
X51300Y-40505D01*
X51300Y-40694D01*
X51284Y-40701D01*
X51152Y-40833D01*
X51080Y-41006D01*
X51080Y-41193D01*
X51151Y-41366D01*
X51283Y-41498D01*
X51300Y-41505D01*
X51300Y-41694D01*
X51284Y-41701D01*
X51152Y-41833D01*
X51080Y-42006D01*
X51080Y-42193D01*
X51151Y-42366D01*
X51283Y-42498D01*
X51448Y-42566D01*
X51360Y-42584D01*
X51328Y-42666D01*
X51550Y-42888D01*
X51772Y-42666D01*
X51740Y-42584D01*
X51644Y-42569D01*
X51816Y-42499D01*
X51948Y-42367D01*
X51955Y-42350D01*
X52144Y-42350D01*
X52151Y-42366D01*
X52283Y-42498D01*
X52448Y-42566D01*
X52360Y-42584D01*
X52328Y-42666D01*
X52550Y-42888D01*
X52772Y-42666D01*
X52740Y-42584D01*
X52644Y-42569D01*
X52800Y-42505D01*
X52816Y-42499D01*
X52948Y-42367D01*
X52977Y-42295D01*
X53038Y-42256D01*
X53291Y-42002D01*
X54163Y-42002D01*
X54168Y-42003D01*
X54168Y-42002D01*
X54252Y-41985D01*
X54324Y-41938D01*
X54725Y-41536D01*
X56150Y-40111D01*
X56374Y-39886D01*
X56376Y-39885D01*
X56377Y-39885D01*
X56424Y-39813D01*
X56441Y-39729D01*
X56441Y-38388D01*
X56442Y-38389D01*
X56557Y-38389D01*
X56663Y-38345D01*
X56745Y-38264D01*
X56789Y-38158D01*
X56789Y-38122D01*
X56850Y-38061D01*
X56914Y-37997D01*
X57075Y-37997D01*
X57099Y-37992D01*
X57378Y-37992D01*
X57457Y-37959D01*
X57517Y-37899D01*
X57550Y-37820D01*
X57550Y-37734D01*
X57526Y-37678D01*
X57550Y-37623D01*
X57550Y-37537D01*
X57526Y-37481D01*
X57550Y-37426D01*
X57550Y-37340D01*
X57526Y-37284D01*
X57550Y-37229D01*
X57550Y-37143D01*
X57526Y-37087D01*
X57550Y-37032D01*
X57550Y-36946D01*
X57527Y-36891D01*
X57550Y-36836D01*
X57550Y-36816D01*
X57557Y-36816D01*
X57561Y-36820D01*
X57667Y-36864D01*
X57782Y-36864D01*
X57888Y-36820D01*
X57970Y-36739D01*
X58014Y-36633D01*
X58014Y-36518D01*
X57970Y-36412D01*
X57889Y-36330D01*
X57783Y-36286D01*
X57668Y-36286D01*
X57625Y-36303D01*
X57625Y-36099D01*
X57527Y-36099D01*
X57550Y-36048D01*
X57550Y-35962D01*
X57526Y-35906D01*
X57550Y-35851D01*
X57550Y-35765D01*
X57529Y-35715D01*
X57625Y-35715D01*
X57625Y-35506D01*
X57642Y-35514D01*
X57757Y-35514D01*
X57863Y-35470D01*
X57888Y-35445D01*
X58083Y-35445D01*
X58737Y-36098D01*
X58737Y-37593D01*
X58658Y-37561D01*
X58543Y-37561D01*
X58437Y-37605D01*
X58374Y-37666D01*
X58314Y-37605D01*
X58208Y-37561D01*
X58093Y-37561D01*
X57987Y-37605D01*
X57905Y-37686D01*
X57861Y-37792D01*
X57861Y-37907D01*
X57905Y-38013D01*
X57986Y-38095D01*
X58092Y-38139D01*
X58127Y-38139D01*
X58188Y-38200D01*
X58127Y-38200D01*
X58071Y-38223D01*
X58016Y-38200D01*
X57930Y-38200D01*
X57851Y-38233D01*
X57791Y-38293D01*
X57758Y-38372D01*
X57758Y-38458D01*
X57758Y-38650D01*
X57753Y-38675D01*
X57753Y-38822D01*
X57678Y-38791D01*
X57563Y-38791D01*
X57457Y-38835D01*
X57375Y-38916D01*
X57331Y-39022D01*
X57331Y-39137D01*
X57375Y-39243D01*
X57456Y-39325D01*
X57562Y-39369D01*
X57677Y-39369D01*
X57685Y-39365D01*
X57685Y-39630D01*
X57765Y-39630D01*
X57794Y-39659D01*
X57886Y-39697D01*
X57912Y-39698D01*
X57974Y-39636D01*
X57974Y-39389D01*
X57935Y-39389D01*
X57935Y-39275D01*
X57942Y-39271D01*
X57974Y-39271D01*
X57974Y-39250D01*
X57996Y-39236D01*
X58019Y-39212D01*
X58052Y-39212D01*
X58052Y-39271D01*
X58091Y-39271D01*
X58091Y-39389D01*
X58052Y-39389D01*
X58052Y-39636D01*
X58114Y-39698D01*
X58140Y-39697D01*
X58232Y-39659D01*
X58261Y-39630D01*
X58341Y-39630D01*
X58341Y-39618D01*
X58479Y-39618D01*
X58541Y-39592D01*
X58583Y-39550D01*
X58705Y-39550D01*
X58710Y-39551D01*
X58710Y-39550D01*
X58794Y-39533D01*
X58866Y-39486D01*
X58934Y-39417D01*
X58934Y-39554D01*
X58740Y-39748D01*
X57974Y-39748D01*
X56850Y-39748D01*
X56732Y-39748D01*
X56648Y-39765D01*
X56576Y-39812D01*
X56574Y-39814D01*
X56310Y-40078D01*
X56263Y-40150D01*
X56261Y-40156D01*
X56157Y-40156D01*
X56150Y-40158D01*
X56095Y-40182D01*
X56047Y-40230D01*
X56021Y-40292D01*
X56021Y-40360D01*
X56021Y-42108D01*
X56047Y-42170D01*
X56095Y-42218D01*
X56150Y-42241D01*
X56157Y-42244D01*
X56225Y-42244D01*
X56775Y-42244D01*
X56837Y-42218D01*
X56885Y-42170D01*
X56911Y-42108D01*
X56911Y-42040D01*
X56911Y-40925D01*
X56962Y-40925D01*
X56987Y-40950D01*
X57150Y-40950D01*
X57313Y-40950D01*
X57587Y-40950D01*
X57750Y-40950D01*
X57913Y-40950D01*
X57938Y-40925D01*
X57989Y-40925D01*
X57989Y-42108D01*
X58015Y-42170D01*
X58063Y-42218D01*
X58125Y-42244D01*
X58193Y-42244D01*
X58225Y-42244D01*
X58743Y-42244D01*
X58805Y-42218D01*
X58853Y-42170D01*
X58879Y-42108D01*
X58879Y-42040D01*
X58879Y-40370D01*
X58903Y-40370D01*
X58908Y-40371D01*
X58908Y-40370D01*
X58992Y-40353D01*
X59064Y-40306D01*
X59504Y-39864D01*
X59506Y-39863D01*
X59507Y-39863D01*
X59525Y-39835D01*
X59525Y-40281D01*
X59500Y-40306D01*
X59456Y-40412D01*
X59456Y-40527D01*
X59500Y-40633D01*
X59581Y-40715D01*
X59687Y-40759D01*
X59711Y-40759D01*
X59711Y-40782D01*
X59755Y-40888D01*
X59836Y-40970D01*
X59869Y-40983D01*
X59613Y-41090D01*
X59270Y-41432D01*
X59084Y-41880D01*
X59083Y-42365D01*
X59268Y-42813D01*
X59610Y-43156D01*
X59821Y-43244D01*
X58810Y-43244D01*
X58806Y-43243D01*
X58722Y-43261D01*
X58650Y-43308D01*
X58648Y-43310D01*
X58225Y-43733D01*
X57975Y-43983D01*
X57975Y-41512D01*
X57913Y-41450D01*
X57587Y-41450D01*
X57587Y-42262D01*
X57649Y-42324D01*
X57774Y-42323D01*
X57866Y-42285D01*
X57936Y-42215D01*
X57974Y-42124D01*
X57974Y-42025D01*
X57975Y-41512D01*
X57975Y-43983D01*
X57894Y-44064D01*
X57868Y-44103D01*
X57817Y-44052D01*
X57644Y-43980D01*
X57457Y-43980D01*
X57313Y-44039D01*
X57313Y-42262D01*
X57313Y-41450D01*
X56987Y-41450D01*
X56925Y-41512D01*
X56926Y-42025D01*
X56926Y-42124D01*
X56964Y-42215D01*
X57034Y-42285D01*
X57126Y-42323D01*
X57251Y-42324D01*
X57313Y-42262D01*
X57313Y-44039D01*
X57284Y-44051D01*
X57152Y-44183D01*
X57080Y-44356D01*
X57080Y-44543D01*
X57151Y-44716D01*
X57283Y-44848D01*
X57456Y-44920D01*
X57643Y-44920D01*
X57816Y-44849D01*
X57830Y-44835D01*
X57830Y-44945D01*
X57829Y-44950D01*
X57847Y-45034D01*
X57894Y-45106D01*
X58098Y-45310D01*
X58080Y-45356D01*
X58080Y-45543D01*
X58151Y-45716D01*
X58283Y-45848D01*
X58456Y-45920D01*
X58643Y-45920D01*
X58816Y-45849D01*
X58948Y-45717D01*
X58955Y-45700D01*
X59144Y-45700D01*
X59151Y-45716D01*
X59283Y-45848D01*
X59456Y-45920D01*
X59643Y-45920D01*
X59816Y-45849D01*
X59948Y-45717D01*
X59955Y-45700D01*
X60144Y-45700D01*
X60151Y-45716D01*
X60283Y-45848D01*
X60456Y-45920D01*
X60643Y-45920D01*
X60816Y-45849D01*
X60948Y-45717D01*
X60955Y-45700D01*
X61144Y-45700D01*
X61151Y-45716D01*
X61283Y-45848D01*
X61456Y-45920D01*
X61643Y-45920D01*
X61816Y-45849D01*
X61844Y-45820D01*
X61847Y-45834D01*
X61894Y-45906D01*
X62092Y-46103D01*
X62094Y-46106D01*
X62150Y-46142D01*
X62165Y-46152D01*
X62166Y-46153D01*
X62232Y-46166D01*
X62249Y-46170D01*
X62249Y-46169D01*
X62250Y-46170D01*
X62650Y-46170D01*
X63845Y-46170D01*
X63850Y-46171D01*
X63850Y-46170D01*
X63934Y-46153D01*
X64006Y-46106D01*
X65095Y-45015D01*
X65097Y-45014D01*
X65098Y-45014D01*
X65145Y-44942D01*
X65162Y-44858D01*
X65162Y-44458D01*
X65162Y-44450D01*
X65162Y-37438D01*
X65693Y-37969D01*
X65693Y-38458D01*
X65692Y-38463D01*
X65710Y-38547D01*
X65757Y-38619D01*
X66098Y-38960D01*
X66080Y-39006D01*
X66080Y-39193D01*
X66151Y-39366D01*
X66283Y-39498D01*
X66448Y-39566D01*
X66360Y-39584D01*
X66328Y-39666D01*
X66550Y-39888D01*
X66763Y-39675D01*
X67135Y-39675D01*
X67106Y-39704D01*
X67080Y-39766D01*
X67080Y-39834D01*
X67080Y-39981D01*
X67066Y-39910D01*
X66984Y-39878D01*
X66762Y-40100D01*
X66984Y-40322D01*
X67066Y-40290D01*
X67080Y-40200D01*
X67080Y-40434D01*
X67106Y-40496D01*
X67154Y-40544D01*
X67216Y-40570D01*
X67284Y-40570D01*
X67600Y-40570D01*
X67610Y-40570D01*
X67760Y-40720D01*
X67760Y-43635D01*
X67721Y-43635D01*
X67659Y-43661D01*
X67611Y-43709D01*
X67600Y-43735D01*
X67585Y-43771D01*
X67585Y-43839D01*
X67585Y-44032D01*
X67561Y-43910D01*
X67479Y-43879D01*
X67271Y-44087D01*
X67271Y-43671D01*
X67240Y-43589D01*
X67029Y-43556D01*
X66860Y-43589D01*
X66829Y-43671D01*
X67050Y-43892D01*
X67271Y-43671D01*
X67271Y-44087D01*
X67258Y-44100D01*
X67479Y-44321D01*
X67561Y-44290D01*
X67585Y-44136D01*
X67585Y-44429D01*
X67600Y-44464D01*
X67611Y-44491D01*
X67659Y-44539D01*
X67721Y-44565D01*
X67789Y-44565D01*
X68379Y-44565D01*
X68441Y-44539D01*
X68489Y-44491D01*
X68515Y-44429D01*
X68515Y-44361D01*
X68515Y-43771D01*
X68489Y-43709D01*
X68441Y-43661D01*
X68379Y-43635D01*
X68340Y-43635D01*
X68340Y-40600D01*
X68318Y-40489D01*
X68255Y-40395D01*
X68110Y-40250D01*
X68455Y-39906D01*
X68455Y-39905D01*
X68518Y-39812D01*
X68518Y-39811D01*
X68521Y-39793D01*
X68539Y-39700D01*
X68540Y-39700D01*
X68540Y-46550D01*
X67600Y-46550D01*
X67271Y-46550D01*
X67271Y-44529D01*
X67050Y-44308D01*
X66842Y-44516D01*
X66842Y-44100D01*
X66772Y-44030D01*
X66772Y-40534D01*
X66550Y-40312D01*
X66338Y-40524D01*
X66338Y-40100D01*
X66116Y-39878D01*
X66034Y-39910D01*
X66001Y-40122D01*
X66034Y-40290D01*
X66116Y-40322D01*
X66338Y-40100D01*
X66338Y-40524D01*
X66328Y-40534D01*
X66360Y-40616D01*
X66572Y-40649D01*
X66740Y-40616D01*
X66772Y-40534D01*
X66772Y-44030D01*
X66621Y-43879D01*
X66539Y-43910D01*
X66506Y-44121D01*
X66539Y-44290D01*
X66621Y-44321D01*
X66842Y-44100D01*
X66842Y-44516D01*
X66829Y-44529D01*
X66860Y-44611D01*
X67071Y-44644D01*
X67240Y-44611D01*
X67271Y-44529D01*
X67271Y-46550D01*
X66575Y-46550D01*
X62650Y-46550D01*
X62150Y-46550D01*
X58250Y-46550D01*
X58020Y-46550D01*
X58020Y-45544D01*
X58020Y-45357D01*
X57949Y-45184D01*
X57817Y-45052D01*
X57644Y-44980D01*
X57457Y-44980D01*
X57284Y-45051D01*
X57152Y-45183D01*
X57080Y-45356D01*
X57080Y-45543D01*
X57151Y-45716D01*
X57283Y-45848D01*
X57456Y-45920D01*
X57643Y-45920D01*
X57816Y-45849D01*
X57948Y-45717D01*
X58020Y-45544D01*
X58020Y-46550D01*
X57020Y-46550D01*
X57020Y-45784D01*
X57020Y-45716D01*
X57020Y-45116D01*
X57020Y-44544D01*
X57020Y-44357D01*
X56949Y-44184D01*
X56817Y-44052D01*
X56644Y-43980D01*
X56457Y-43980D01*
X56284Y-44051D01*
X56152Y-44183D01*
X56150Y-44187D01*
X56080Y-44356D01*
X56080Y-44543D01*
X56150Y-44713D01*
X56151Y-44716D01*
X56283Y-44848D01*
X56456Y-44920D01*
X56643Y-44920D01*
X56816Y-44849D01*
X56948Y-44717D01*
X57020Y-44544D01*
X57020Y-45116D01*
X56994Y-45054D01*
X56946Y-45006D01*
X56884Y-44980D01*
X56816Y-44980D01*
X56216Y-44980D01*
X56154Y-45006D01*
X56150Y-45010D01*
X56106Y-45054D01*
X56080Y-45116D01*
X56080Y-45184D01*
X56080Y-45784D01*
X56106Y-45846D01*
X56150Y-45890D01*
X56154Y-45894D01*
X56216Y-45920D01*
X56284Y-45920D01*
X56884Y-45920D01*
X56946Y-45894D01*
X56994Y-45846D01*
X57020Y-45784D01*
X57020Y-46550D01*
X56750Y-46550D01*
X56150Y-46550D01*
X55550Y-46550D01*
X54725Y-46550D01*
X53775Y-46550D01*
X53099Y-46550D01*
X53099Y-44078D01*
X53099Y-43078D01*
X53066Y-42910D01*
X52984Y-42878D01*
X52800Y-43062D01*
X52762Y-43100D01*
X52800Y-43138D01*
X52984Y-43322D01*
X53066Y-43290D01*
X53099Y-43078D01*
X53099Y-44078D01*
X53066Y-43910D01*
X52984Y-43878D01*
X52800Y-44062D01*
X52772Y-44090D01*
X52772Y-43666D01*
X52746Y-43600D01*
X52772Y-43534D01*
X52550Y-43312D01*
X52338Y-43524D01*
X52338Y-43100D01*
X52116Y-42878D01*
X52050Y-42903D01*
X51984Y-42878D01*
X51762Y-43100D01*
X51984Y-43322D01*
X52050Y-43296D01*
X52116Y-43322D01*
X52338Y-43100D01*
X52338Y-43524D01*
X52328Y-43534D01*
X52353Y-43600D01*
X52328Y-43666D01*
X52550Y-43888D01*
X52772Y-43666D01*
X52772Y-44090D01*
X52762Y-44100D01*
X52800Y-44138D01*
X52984Y-44322D01*
X53066Y-44290D01*
X53099Y-44078D01*
X53099Y-46550D01*
X52800Y-46550D01*
X52772Y-46550D01*
X52772Y-44534D01*
X52550Y-44312D01*
X52338Y-44524D01*
X52338Y-44100D01*
X52116Y-43878D01*
X52050Y-43903D01*
X51984Y-43878D01*
X51772Y-44090D01*
X51772Y-43666D01*
X51746Y-43600D01*
X51772Y-43534D01*
X51550Y-43312D01*
X51338Y-43524D01*
X51338Y-43100D01*
X51116Y-42878D01*
X51034Y-42910D01*
X51001Y-43122D01*
X51034Y-43290D01*
X51116Y-43322D01*
X51338Y-43100D01*
X51338Y-43524D01*
X51328Y-43534D01*
X51353Y-43600D01*
X51328Y-43666D01*
X51550Y-43888D01*
X51772Y-43666D01*
X51772Y-44090D01*
X51762Y-44100D01*
X51984Y-44322D01*
X52050Y-44296D01*
X52116Y-44322D01*
X52338Y-44100D01*
X52338Y-44524D01*
X52328Y-44534D01*
X52360Y-44616D01*
X52572Y-44649D01*
X52740Y-44616D01*
X52772Y-44534D01*
X52772Y-46550D01*
X51772Y-46550D01*
X51772Y-44534D01*
X51550Y-44312D01*
X51338Y-44524D01*
X51338Y-44100D01*
X51116Y-43878D01*
X51034Y-43910D01*
X51001Y-44122D01*
X51034Y-44290D01*
X51116Y-44322D01*
X51338Y-44100D01*
X51338Y-44524D01*
X51328Y-44534D01*
X51360Y-44616D01*
X51572Y-44649D01*
X51740Y-44616D01*
X51772Y-44534D01*
X51772Y-46550D01*
X51350Y-46550D01*
X50300Y-46550D01*
X50300Y-27550D01*
X66000Y-27550D01*
X66000Y-32550D01*
X69300Y-32550D01*
X69300Y-46550D01*
X69300Y-46550D01*
G37*
G54D27*
X69300Y-46550D02*
X68540Y-46550D01*
X68540Y-39700D01*
X68540Y-35800D01*
X68518Y-35689D01*
X68455Y-35595D01*
X66555Y-33695D01*
X66461Y-33632D01*
X66350Y-33610D01*
X66220Y-33610D01*
X65605Y-32995D01*
X64880Y-32270D01*
X64786Y-32207D01*
X64675Y-32185D01*
X63599Y-32185D01*
X63599Y-29078D01*
X63566Y-28910D01*
X63520Y-28892D01*
X63520Y-28194D01*
X63520Y-28007D01*
X63449Y-27834D01*
X63317Y-27702D01*
X63144Y-27630D01*
X62957Y-27630D01*
X62784Y-27701D01*
X62652Y-27833D01*
X62580Y-28006D01*
X62580Y-28193D01*
X62651Y-28366D01*
X62783Y-28498D01*
X62948Y-28566D01*
X62860Y-28584D01*
X62828Y-28666D01*
X63050Y-28888D01*
X63272Y-28666D01*
X63240Y-28584D01*
X63144Y-28569D01*
X63316Y-28499D01*
X63448Y-28367D01*
X63520Y-28194D01*
X63520Y-28892D01*
X63484Y-28878D01*
X63262Y-29100D01*
X63484Y-29322D01*
X63566Y-29290D01*
X63599Y-29078D01*
X63599Y-32185D01*
X63272Y-32185D01*
X63272Y-29534D01*
X63050Y-29312D01*
X62838Y-29524D01*
X62838Y-29100D01*
X62616Y-28878D01*
X62534Y-28910D01*
X62520Y-28998D01*
X62520Y-28194D01*
X62520Y-28007D01*
X62449Y-27834D01*
X62317Y-27702D01*
X62144Y-27630D01*
X61957Y-27630D01*
X61784Y-27701D01*
X61652Y-27833D01*
X61580Y-28006D01*
X61580Y-28193D01*
X61651Y-28366D01*
X61783Y-28498D01*
X61956Y-28570D01*
X62143Y-28570D01*
X62316Y-28499D01*
X62448Y-28367D01*
X62520Y-28194D01*
X62520Y-28998D01*
X62519Y-29005D01*
X62449Y-28834D01*
X62317Y-28702D01*
X62144Y-28630D01*
X61957Y-28630D01*
X61784Y-28701D01*
X61735Y-28750D01*
X61520Y-28750D01*
X61520Y-28194D01*
X61520Y-28007D01*
X61449Y-27834D01*
X61317Y-27702D01*
X61144Y-27630D01*
X60957Y-27630D01*
X60784Y-27701D01*
X60652Y-27833D01*
X60583Y-27998D01*
X60566Y-27910D01*
X60484Y-27878D01*
X60272Y-28090D01*
X60272Y-27666D01*
X60240Y-27584D01*
X60028Y-27551D01*
X59860Y-27584D01*
X59828Y-27666D01*
X60050Y-27888D01*
X60272Y-27666D01*
X60272Y-28090D01*
X60262Y-28100D01*
X60484Y-28322D01*
X60566Y-28290D01*
X60580Y-28194D01*
X60651Y-28366D01*
X60783Y-28498D01*
X60956Y-28570D01*
X61143Y-28570D01*
X61316Y-28499D01*
X61448Y-28367D01*
X61520Y-28194D01*
X61520Y-28750D01*
X61365Y-28750D01*
X61317Y-28702D01*
X61144Y-28630D01*
X60957Y-28630D01*
X60784Y-28701D01*
X60735Y-28750D01*
X60365Y-28750D01*
X60317Y-28702D01*
X60151Y-28633D01*
X60240Y-28616D01*
X60272Y-28534D01*
X60050Y-28312D01*
X59838Y-28524D01*
X59838Y-28100D01*
X59616Y-27878D01*
X59534Y-27910D01*
X59519Y-28005D01*
X59449Y-27834D01*
X59317Y-27702D01*
X59144Y-27630D01*
X58957Y-27630D01*
X58784Y-27701D01*
X58652Y-27833D01*
X58580Y-28006D01*
X58580Y-28193D01*
X58599Y-28239D01*
X58458Y-28380D01*
X58435Y-28380D01*
X58448Y-28367D01*
X58520Y-28194D01*
X58520Y-28007D01*
X58449Y-27834D01*
X58317Y-27702D01*
X58144Y-27630D01*
X57957Y-27630D01*
X57784Y-27701D01*
X57652Y-27833D01*
X57583Y-27998D01*
X57566Y-27910D01*
X57484Y-27878D01*
X57272Y-28090D01*
X57272Y-27666D01*
X57240Y-27584D01*
X57028Y-27551D01*
X56860Y-27584D01*
X56828Y-27666D01*
X57050Y-27888D01*
X57272Y-27666D01*
X57272Y-28090D01*
X57262Y-28100D01*
X57333Y-28171D01*
X57124Y-28380D01*
X57118Y-28380D01*
X57050Y-28312D01*
X56982Y-28380D01*
X56976Y-28380D01*
X56850Y-28254D01*
X56850Y-28100D01*
X56838Y-28100D01*
X56616Y-27878D01*
X56534Y-27910D01*
X56519Y-28005D01*
X56449Y-27834D01*
X56317Y-27702D01*
X56144Y-27630D01*
X55957Y-27630D01*
X55784Y-27701D01*
X55652Y-27833D01*
X55580Y-28006D01*
X55580Y-28193D01*
X55651Y-28366D01*
X55700Y-28415D01*
X55700Y-28785D01*
X55652Y-28833D01*
X55583Y-28998D01*
X55566Y-28910D01*
X55520Y-28892D01*
X55520Y-28194D01*
X55520Y-28007D01*
X55449Y-27834D01*
X55317Y-27702D01*
X55144Y-27630D01*
X54957Y-27630D01*
X54784Y-27701D01*
X54652Y-27833D01*
X54580Y-28006D01*
X54580Y-28193D01*
X54651Y-28366D01*
X54783Y-28498D01*
X54948Y-28566D01*
X54860Y-28584D01*
X54828Y-28666D01*
X55050Y-28888D01*
X55272Y-28666D01*
X55240Y-28584D01*
X55144Y-28569D01*
X55316Y-28499D01*
X55448Y-28367D01*
X55520Y-28194D01*
X55520Y-28892D01*
X55484Y-28878D01*
X55312Y-29050D01*
X55000Y-29050D01*
X55000Y-29362D01*
X54838Y-29524D01*
X54838Y-29100D01*
X54616Y-28878D01*
X54534Y-28910D01*
X54520Y-28998D01*
X54520Y-28194D01*
X54520Y-28007D01*
X54449Y-27834D01*
X54317Y-27702D01*
X54144Y-27630D01*
X53957Y-27630D01*
X53784Y-27701D01*
X53652Y-27833D01*
X53583Y-27998D01*
X53566Y-27910D01*
X53484Y-27878D01*
X53272Y-28090D01*
X53272Y-27666D01*
X53240Y-27584D01*
X53028Y-27551D01*
X52860Y-27584D01*
X52828Y-27666D01*
X53050Y-27888D01*
X53272Y-27666D01*
X53272Y-28090D01*
X53262Y-28100D01*
X53484Y-28322D01*
X53566Y-28290D01*
X53580Y-28194D01*
X53651Y-28366D01*
X53783Y-28498D01*
X53956Y-28570D01*
X54143Y-28570D01*
X54316Y-28499D01*
X54448Y-28367D01*
X54520Y-28194D01*
X54520Y-28998D01*
X54519Y-29005D01*
X54449Y-28834D01*
X54317Y-28702D01*
X54144Y-28630D01*
X53957Y-28630D01*
X53784Y-28701D01*
X53652Y-28833D01*
X53580Y-29006D01*
X53580Y-29193D01*
X53651Y-29366D01*
X53783Y-29498D01*
X53956Y-29570D01*
X54143Y-29570D01*
X54316Y-29499D01*
X54448Y-29367D01*
X54516Y-29201D01*
X54534Y-29290D01*
X54616Y-29322D01*
X54838Y-29100D01*
X54838Y-29524D01*
X54828Y-29534D01*
X54860Y-29616D01*
X54949Y-29630D01*
X53800Y-29630D01*
X53799Y-29630D01*
X53782Y-29633D01*
X53716Y-29647D01*
X53644Y-29694D01*
X53642Y-29696D01*
X53520Y-29817D01*
X53520Y-29194D01*
X53520Y-29007D01*
X53449Y-28834D01*
X53317Y-28702D01*
X53151Y-28633D01*
X53240Y-28616D01*
X53272Y-28534D01*
X53050Y-28312D01*
X52838Y-28524D01*
X52838Y-28100D01*
X52616Y-27878D01*
X52534Y-27910D01*
X52519Y-28005D01*
X52449Y-27834D01*
X52317Y-27702D01*
X52144Y-27630D01*
X51957Y-27630D01*
X51784Y-27701D01*
X51652Y-27833D01*
X51580Y-28006D01*
X51580Y-28193D01*
X51651Y-28366D01*
X51783Y-28498D01*
X51956Y-28570D01*
X52143Y-28570D01*
X52316Y-28499D01*
X52448Y-28367D01*
X52516Y-28201D01*
X52534Y-28290D01*
X52616Y-28322D01*
X52838Y-28100D01*
X52838Y-28524D01*
X52828Y-28534D01*
X52860Y-28616D01*
X52955Y-28630D01*
X52784Y-28701D01*
X52652Y-28833D01*
X52580Y-29006D01*
X52580Y-29193D01*
X52651Y-29366D01*
X52783Y-29498D01*
X52956Y-29570D01*
X53143Y-29570D01*
X53316Y-29499D01*
X53448Y-29367D01*
X53520Y-29194D01*
X53520Y-29817D01*
X52689Y-30648D01*
X52644Y-30630D01*
X52520Y-30630D01*
X52520Y-29194D01*
X52520Y-29007D01*
X52449Y-28834D01*
X52317Y-28702D01*
X52144Y-28630D01*
X51957Y-28630D01*
X51784Y-28701D01*
X51652Y-28833D01*
X51580Y-29006D01*
X51580Y-29193D01*
X51651Y-29366D01*
X51783Y-29498D01*
X51956Y-29570D01*
X52143Y-29570D01*
X52316Y-29499D01*
X52448Y-29367D01*
X52520Y-29194D01*
X52520Y-30630D01*
X52457Y-30630D01*
X52284Y-30701D01*
X52152Y-30833D01*
X52080Y-31006D01*
X52080Y-31193D01*
X52151Y-31366D01*
X52283Y-31498D01*
X52456Y-31570D01*
X52643Y-31570D01*
X52816Y-31499D01*
X52948Y-31367D01*
X52955Y-31350D01*
X53144Y-31350D01*
X53151Y-31366D01*
X53283Y-31498D01*
X53456Y-31570D01*
X53643Y-31570D01*
X53816Y-31499D01*
X53948Y-31367D01*
X53955Y-31350D01*
X54144Y-31350D01*
X54151Y-31366D01*
X54283Y-31498D01*
X54456Y-31570D01*
X54643Y-31570D01*
X54816Y-31499D01*
X54948Y-31367D01*
X55016Y-31201D01*
X55034Y-31290D01*
X55116Y-31322D01*
X55288Y-31150D01*
X55550Y-31150D01*
X55550Y-30888D01*
X55772Y-30666D01*
X55740Y-30584D01*
X55650Y-30570D01*
X56545Y-30570D01*
X56550Y-30571D01*
X56550Y-30570D01*
X56634Y-30553D01*
X56706Y-30506D01*
X56850Y-30361D01*
X57748Y-29463D01*
X57783Y-29498D01*
X57956Y-29570D01*
X58143Y-29570D01*
X58316Y-29499D01*
X58448Y-29367D01*
X58520Y-29194D01*
X58520Y-29007D01*
X58449Y-28834D01*
X58435Y-28820D01*
X58545Y-28820D01*
X58550Y-28821D01*
X58550Y-28820D01*
X58634Y-28803D01*
X58706Y-28756D01*
X58910Y-28551D01*
X58956Y-28570D01*
X59143Y-28570D01*
X59316Y-28499D01*
X59448Y-28367D01*
X59516Y-28201D01*
X59534Y-28290D01*
X59616Y-28322D01*
X59838Y-28100D01*
X59838Y-28524D01*
X59828Y-28534D01*
X59860Y-28616D01*
X59955Y-28630D01*
X59784Y-28701D01*
X59652Y-28833D01*
X59580Y-29006D01*
X59580Y-29193D01*
X59651Y-29366D01*
X59783Y-29498D01*
X59956Y-29570D01*
X59978Y-29570D01*
X60591Y-30182D01*
X60591Y-30217D01*
X60635Y-30323D01*
X60716Y-30405D01*
X60822Y-30449D01*
X60937Y-30449D01*
X61043Y-30405D01*
X61125Y-30324D01*
X61143Y-30279D01*
X61227Y-30279D01*
X61333Y-30235D01*
X61415Y-30154D01*
X61459Y-30048D01*
X61459Y-30012D01*
X61917Y-29553D01*
X61956Y-29570D01*
X62100Y-29570D01*
X62143Y-29570D01*
X62316Y-29499D01*
X62448Y-29367D01*
X62516Y-29201D01*
X62534Y-29290D01*
X62616Y-29322D01*
X62838Y-29100D01*
X62838Y-29524D01*
X62828Y-29534D01*
X62860Y-29616D01*
X63072Y-29649D01*
X63240Y-29616D01*
X63272Y-29534D01*
X63272Y-32185D01*
X62100Y-32185D01*
X60835Y-32185D01*
X60130Y-31480D01*
X60130Y-31000D01*
X60108Y-30889D01*
X60045Y-30795D01*
X59745Y-30495D01*
X59651Y-30432D01*
X59540Y-30410D01*
X59520Y-30410D01*
X59520Y-29194D01*
X59520Y-29007D01*
X59449Y-28834D01*
X59317Y-28702D01*
X59144Y-28630D01*
X58957Y-28630D01*
X58784Y-28701D01*
X58652Y-28833D01*
X58580Y-29006D01*
X58580Y-29193D01*
X58651Y-29366D01*
X58783Y-29498D01*
X58956Y-29570D01*
X59143Y-29570D01*
X59316Y-29499D01*
X59448Y-29367D01*
X59520Y-29194D01*
X59520Y-30410D01*
X59420Y-30410D01*
X59409Y-30405D01*
X59341Y-30405D01*
X59234Y-30405D01*
X59153Y-30351D01*
X59050Y-30330D01*
X58685Y-30330D01*
X58674Y-30272D01*
X58674Y-30271D01*
X58616Y-30184D01*
X58441Y-30009D01*
X58353Y-29951D01*
X58250Y-29930D01*
X57850Y-29930D01*
X57746Y-29951D01*
X57659Y-30009D01*
X57484Y-30184D01*
X57426Y-30272D01*
X57414Y-30330D01*
X57120Y-30330D01*
X57016Y-30351D01*
X56929Y-30409D01*
X56850Y-30488D01*
X56106Y-31232D01*
X56079Y-31205D01*
X56099Y-31078D01*
X56066Y-30910D01*
X55984Y-30878D01*
X55762Y-31100D01*
X55833Y-31171D01*
X55754Y-31250D01*
X55550Y-31250D01*
X55500Y-31250D01*
X55500Y-31362D01*
X55328Y-31534D01*
X55360Y-31616D01*
X55455Y-31630D01*
X55284Y-31701D01*
X55152Y-31833D01*
X55080Y-32006D01*
X55080Y-32193D01*
X55151Y-32366D01*
X55283Y-32498D01*
X55456Y-32570D01*
X55500Y-32570D01*
X55500Y-32580D01*
X55020Y-32580D01*
X55020Y-32194D01*
X55020Y-32007D01*
X54949Y-31834D01*
X54817Y-31702D01*
X54644Y-31630D01*
X54457Y-31630D01*
X54284Y-31701D01*
X54152Y-31833D01*
X54080Y-32006D01*
X54080Y-32193D01*
X54151Y-32366D01*
X54283Y-32498D01*
X54456Y-32570D01*
X54643Y-32570D01*
X54816Y-32499D01*
X54948Y-32367D01*
X55020Y-32194D01*
X55020Y-32580D01*
X54020Y-32580D01*
X54020Y-32194D01*
X54020Y-32007D01*
X53949Y-31834D01*
X53817Y-31702D01*
X53644Y-31630D01*
X53457Y-31630D01*
X53284Y-31701D01*
X53152Y-31833D01*
X53080Y-32006D01*
X53080Y-32193D01*
X53151Y-32366D01*
X53283Y-32498D01*
X53456Y-32570D01*
X53643Y-32570D01*
X53816Y-32499D01*
X53948Y-32367D01*
X54020Y-32194D01*
X54020Y-32580D01*
X53020Y-32580D01*
X53020Y-32434D01*
X53020Y-32366D01*
X53020Y-31766D01*
X52994Y-31704D01*
X52946Y-31656D01*
X52884Y-31630D01*
X52816Y-31630D01*
X52216Y-31630D01*
X52154Y-31656D01*
X52106Y-31704D01*
X52080Y-31766D01*
X52080Y-31834D01*
X52080Y-32434D01*
X52106Y-32496D01*
X52154Y-32544D01*
X52216Y-32570D01*
X52284Y-32570D01*
X52884Y-32570D01*
X52946Y-32544D01*
X52994Y-32496D01*
X53020Y-32434D01*
X53020Y-32580D01*
X51911Y-32580D01*
X51320Y-31988D01*
X51320Y-31570D01*
X51384Y-31570D01*
X51446Y-31544D01*
X51494Y-31496D01*
X51520Y-31434D01*
X51520Y-31366D01*
X51520Y-30766D01*
X51520Y-30194D01*
X51520Y-30007D01*
X51520Y-29434D01*
X51520Y-29366D01*
X51520Y-28766D01*
X51520Y-28194D01*
X51520Y-28007D01*
X51449Y-27834D01*
X51317Y-27702D01*
X51144Y-27630D01*
X50957Y-27630D01*
X50784Y-27701D01*
X50652Y-27833D01*
X50580Y-28006D01*
X50580Y-28193D01*
X50651Y-28366D01*
X50783Y-28498D01*
X50956Y-28570D01*
X51143Y-28570D01*
X51316Y-28499D01*
X51448Y-28367D01*
X51520Y-28194D01*
X51520Y-28766D01*
X51494Y-28704D01*
X51446Y-28656D01*
X51384Y-28630D01*
X51316Y-28630D01*
X50716Y-28630D01*
X50654Y-28656D01*
X50606Y-28704D01*
X50580Y-28766D01*
X50580Y-28834D01*
X50580Y-29434D01*
X50606Y-29496D01*
X50654Y-29544D01*
X50716Y-29570D01*
X50784Y-29570D01*
X51384Y-29570D01*
X51446Y-29544D01*
X51494Y-29496D01*
X51520Y-29434D01*
X51520Y-30007D01*
X51449Y-29834D01*
X51317Y-29702D01*
X51144Y-29630D01*
X50957Y-29630D01*
X50784Y-29701D01*
X50652Y-29833D01*
X50580Y-30006D01*
X50580Y-30193D01*
X50651Y-30366D01*
X50783Y-30498D01*
X50956Y-30570D01*
X51143Y-30570D01*
X51316Y-30499D01*
X51448Y-30367D01*
X51520Y-30194D01*
X51520Y-30766D01*
X51494Y-30704D01*
X51446Y-30656D01*
X51384Y-30630D01*
X51316Y-30630D01*
X50716Y-30630D01*
X50654Y-30656D01*
X50606Y-30704D01*
X50580Y-30766D01*
X50580Y-30834D01*
X50580Y-31434D01*
X50606Y-31496D01*
X50654Y-31544D01*
X50716Y-31570D01*
X50780Y-31570D01*
X50780Y-32100D01*
X50801Y-32203D01*
X50859Y-32291D01*
X51607Y-33038D01*
X51609Y-33041D01*
X51696Y-33098D01*
X51697Y-33099D01*
X51800Y-33120D01*
X55800Y-33120D01*
X55903Y-33099D01*
X55991Y-33041D01*
X56150Y-32882D01*
X56431Y-32601D01*
X56489Y-32513D01*
X56510Y-32410D01*
X56510Y-31592D01*
X56850Y-31252D01*
X57232Y-30870D01*
X57455Y-30870D01*
X57479Y-30894D01*
X57541Y-30920D01*
X57609Y-30920D01*
X57768Y-30920D01*
X57809Y-30961D01*
X57901Y-30999D01*
X57938Y-31000D01*
X58000Y-30938D01*
X58000Y-30675D01*
X57950Y-30675D01*
X57950Y-30525D01*
X58000Y-30525D01*
X58000Y-30470D01*
X58100Y-30470D01*
X58100Y-30525D01*
X58150Y-30525D01*
X58150Y-30675D01*
X58100Y-30675D01*
X58100Y-30938D01*
X58162Y-31000D01*
X58199Y-30999D01*
X58291Y-30961D01*
X58332Y-30920D01*
X58359Y-30920D01*
X58559Y-30920D01*
X58621Y-30894D01*
X58645Y-30870D01*
X58759Y-30870D01*
X58781Y-30921D01*
X58812Y-30952D01*
X58784Y-30964D01*
X58714Y-31034D01*
X58676Y-31126D01*
X58675Y-31176D01*
X58737Y-31238D01*
X59038Y-31238D01*
X59038Y-31175D01*
X59262Y-31175D01*
X59262Y-31238D01*
X59375Y-31238D01*
X59375Y-31362D01*
X59262Y-31362D01*
X59262Y-31613D01*
X59324Y-31675D01*
X59326Y-31674D01*
X59425Y-31674D01*
X59516Y-31636D01*
X59550Y-31601D01*
X59572Y-31711D01*
X59635Y-31805D01*
X60510Y-32680D01*
X60604Y-32743D01*
X60715Y-32765D01*
X62100Y-32765D01*
X64555Y-32765D01*
X64765Y-32975D01*
X64748Y-32975D01*
X64686Y-33001D01*
X64684Y-33003D01*
X64666Y-33003D01*
X64664Y-33001D01*
X64602Y-32975D01*
X64534Y-32975D01*
X64298Y-32975D01*
X64236Y-33001D01*
X64234Y-33003D01*
X64216Y-33003D01*
X64214Y-33001D01*
X64152Y-32975D01*
X64084Y-32975D01*
X63848Y-32975D01*
X63786Y-33001D01*
X63784Y-33003D01*
X63766Y-33003D01*
X63764Y-33001D01*
X63702Y-32975D01*
X63634Y-32975D01*
X63398Y-32975D01*
X63336Y-33001D01*
X63334Y-33003D01*
X63316Y-33003D01*
X63314Y-33001D01*
X63252Y-32975D01*
X63184Y-32975D01*
X62948Y-32975D01*
X62886Y-33001D01*
X62884Y-33003D01*
X62866Y-33003D01*
X62864Y-33001D01*
X62802Y-32975D01*
X62734Y-32975D01*
X62498Y-32975D01*
X62436Y-33001D01*
X62434Y-33003D01*
X62416Y-33003D01*
X62414Y-33001D01*
X62352Y-32975D01*
X62284Y-32975D01*
X62100Y-32975D01*
X62048Y-32975D01*
X61986Y-33001D01*
X61984Y-33003D01*
X61966Y-33003D01*
X61964Y-33001D01*
X61902Y-32975D01*
X61834Y-32975D01*
X61598Y-32975D01*
X61536Y-33001D01*
X61488Y-33049D01*
X61462Y-33111D01*
X61462Y-33179D01*
X61462Y-33330D01*
X61306Y-33174D01*
X61234Y-33127D01*
X61150Y-33109D01*
X61145Y-33110D01*
X60710Y-33110D01*
X60709Y-33110D01*
X60692Y-33113D01*
X60626Y-33127D01*
X60554Y-33174D01*
X60552Y-33176D01*
X60376Y-33352D01*
X60329Y-33424D01*
X60311Y-33508D01*
X60312Y-33512D01*
X60312Y-33514D01*
X60292Y-33514D01*
X60236Y-33537D01*
X60181Y-33514D01*
X60162Y-33514D01*
X60162Y-33292D01*
X60161Y-33291D01*
X60162Y-33291D01*
X60161Y-33289D01*
X60161Y-33288D01*
X60164Y-33283D01*
X60164Y-33168D01*
X60120Y-33062D01*
X60039Y-32980D01*
X59933Y-32936D01*
X59818Y-32936D01*
X59712Y-32980D01*
X59630Y-33061D01*
X59598Y-33136D01*
X59568Y-33136D01*
X59462Y-33180D01*
X59380Y-33261D01*
X59336Y-33367D01*
X59336Y-33439D01*
X59303Y-33439D01*
X59178Y-33313D01*
X59178Y-33311D01*
X59190Y-33311D01*
X59190Y-33231D01*
X59219Y-33202D01*
X59257Y-33110D01*
X59258Y-33084D01*
X59258Y-32882D01*
X59257Y-32856D01*
X59219Y-32764D01*
X59149Y-32694D01*
X59058Y-32656D01*
X59010Y-32656D01*
X58949Y-32717D01*
X58949Y-32944D01*
X59196Y-32944D01*
X59258Y-32882D01*
X59258Y-33084D01*
X59196Y-33022D01*
X58949Y-33022D01*
X58949Y-33061D01*
X58831Y-33061D01*
X58831Y-33022D01*
X58776Y-33022D01*
X58772Y-33018D01*
X58772Y-32944D01*
X58831Y-32944D01*
X58831Y-32717D01*
X58770Y-32656D01*
X58722Y-32656D01*
X58657Y-32683D01*
X58600Y-32683D01*
X58600Y-32540D01*
X58619Y-32521D01*
X58645Y-32459D01*
X58645Y-32391D01*
X58645Y-32237D01*
X58656Y-32221D01*
X58675Y-32125D01*
X58675Y-31831D01*
X58695Y-31784D01*
X58695Y-31716D01*
X58695Y-31520D01*
X58714Y-31566D01*
X58784Y-31636D01*
X58875Y-31674D01*
X58974Y-31674D01*
X58976Y-31675D01*
X59038Y-31613D01*
X59038Y-31362D01*
X58737Y-31362D01*
X58691Y-31407D01*
X58669Y-31354D01*
X58621Y-31306D01*
X58559Y-31280D01*
X58491Y-31280D01*
X58291Y-31280D01*
X58229Y-31306D01*
X58181Y-31354D01*
X58155Y-31416D01*
X58155Y-31484D01*
X58155Y-31784D01*
X58167Y-31814D01*
X58129Y-31831D01*
X58097Y-31862D01*
X58086Y-31834D01*
X58050Y-31798D01*
X58050Y-31725D01*
X57945Y-31725D01*
X57945Y-31716D01*
X57945Y-31416D01*
X57919Y-31354D01*
X57871Y-31306D01*
X57809Y-31280D01*
X57741Y-31280D01*
X57541Y-31280D01*
X57479Y-31306D01*
X57431Y-31354D01*
X57405Y-31416D01*
X57405Y-31484D01*
X57405Y-31784D01*
X57422Y-31825D01*
X57414Y-31834D01*
X57376Y-31925D01*
X57376Y-32024D01*
X57375Y-32026D01*
X57437Y-32088D01*
X57688Y-32088D01*
X57688Y-31975D01*
X57812Y-31975D01*
X57812Y-32088D01*
X57875Y-32088D01*
X57875Y-32312D01*
X57812Y-32312D01*
X57812Y-32613D01*
X57874Y-32675D01*
X57924Y-32674D01*
X58016Y-32636D01*
X58086Y-32566D01*
X58097Y-32537D01*
X58100Y-32540D01*
X58100Y-32910D01*
X57688Y-32910D01*
X57688Y-32613D01*
X57688Y-32312D01*
X57437Y-32312D01*
X57375Y-32374D01*
X57376Y-32376D01*
X57376Y-32475D01*
X57414Y-32566D01*
X57484Y-32636D01*
X57576Y-32674D01*
X57626Y-32675D01*
X57688Y-32613D01*
X57688Y-32910D01*
X57634Y-32910D01*
X57630Y-32909D01*
X57546Y-32927D01*
X57474Y-32974D01*
X57472Y-32976D01*
X57248Y-33200D01*
X56850Y-33200D01*
X56150Y-33200D01*
X52010Y-33200D01*
X51926Y-33217D01*
X51854Y-33264D01*
X51852Y-33266D01*
X50684Y-34434D01*
X50637Y-34506D01*
X50619Y-34590D01*
X50620Y-34594D01*
X50620Y-36275D01*
X50619Y-36280D01*
X50637Y-36364D01*
X50684Y-36436D01*
X51002Y-36753D01*
X51004Y-36756D01*
X51046Y-36784D01*
X51075Y-36803D01*
X51076Y-36803D01*
X51160Y-36820D01*
X51165Y-36820D01*
X51152Y-36833D01*
X51080Y-37006D01*
X51080Y-37193D01*
X51151Y-37366D01*
X51283Y-37498D01*
X51300Y-37505D01*
X51300Y-37694D01*
X51284Y-37701D01*
X51152Y-37833D01*
X51080Y-38006D01*
X51080Y-38193D01*
X51151Y-38366D01*
X51283Y-38498D01*
X51300Y-38505D01*
X51300Y-38694D01*
X51284Y-38701D01*
X51152Y-38833D01*
X51080Y-39006D01*
X51080Y-39193D01*
X51151Y-39366D01*
X51283Y-39498D01*
X51300Y-39505D01*
X51300Y-39694D01*
X51284Y-39701D01*
X51152Y-39833D01*
X51080Y-40006D01*
X51080Y-40193D01*
X51151Y-40366D01*
X51283Y-40498D01*
X51300Y-40505D01*
X51300Y-40694D01*
X51284Y-40701D01*
X51152Y-40833D01*
X51080Y-41006D01*
X51080Y-41193D01*
X51151Y-41366D01*
X51283Y-41498D01*
X51300Y-41505D01*
X51300Y-41694D01*
X51284Y-41701D01*
X51152Y-41833D01*
X51080Y-42006D01*
X51080Y-42193D01*
X51151Y-42366D01*
X51283Y-42498D01*
X51448Y-42566D01*
X51360Y-42584D01*
X51328Y-42666D01*
X51550Y-42888D01*
X51772Y-42666D01*
X51740Y-42584D01*
X51644Y-42569D01*
X51816Y-42499D01*
X51948Y-42367D01*
X51955Y-42350D01*
X52144Y-42350D01*
X52151Y-42366D01*
X52283Y-42498D01*
X52448Y-42566D01*
X52360Y-42584D01*
X52328Y-42666D01*
X52550Y-42888D01*
X52772Y-42666D01*
X52740Y-42584D01*
X52644Y-42569D01*
X52800Y-42505D01*
X52816Y-42499D01*
X52948Y-42367D01*
X52977Y-42295D01*
X53038Y-42256D01*
X53291Y-42002D01*
X54163Y-42002D01*
X54168Y-42003D01*
X54168Y-42002D01*
X54252Y-41985D01*
X54324Y-41938D01*
X54725Y-41536D01*
X56150Y-40111D01*
X56374Y-39886D01*
X56376Y-39885D01*
X56377Y-39885D01*
X56424Y-39813D01*
X56441Y-39729D01*
X56441Y-38388D01*
X56442Y-38389D01*
X56557Y-38389D01*
X56663Y-38345D01*
X56745Y-38264D01*
X56789Y-38158D01*
X56789Y-38122D01*
X56850Y-38061D01*
X56914Y-37997D01*
X57075Y-37997D01*
X57099Y-37992D01*
X57378Y-37992D01*
X57457Y-37959D01*
X57517Y-37899D01*
X57550Y-37820D01*
X57550Y-37734D01*
X57526Y-37678D01*
X57550Y-37623D01*
X57550Y-37537D01*
X57526Y-37481D01*
X57550Y-37426D01*
X57550Y-37340D01*
X57526Y-37284D01*
X57550Y-37229D01*
X57550Y-37143D01*
X57526Y-37087D01*
X57550Y-37032D01*
X57550Y-36946D01*
X57527Y-36891D01*
X57550Y-36836D01*
X57550Y-36816D01*
X57557Y-36816D01*
X57561Y-36820D01*
X57667Y-36864D01*
X57782Y-36864D01*
X57888Y-36820D01*
X57970Y-36739D01*
X58014Y-36633D01*
X58014Y-36518D01*
X57970Y-36412D01*
X57889Y-36330D01*
X57783Y-36286D01*
X57668Y-36286D01*
X57625Y-36303D01*
X57625Y-36099D01*
X57527Y-36099D01*
X57550Y-36048D01*
X57550Y-35962D01*
X57526Y-35906D01*
X57550Y-35851D01*
X57550Y-35765D01*
X57529Y-35715D01*
X57625Y-35715D01*
X57625Y-35506D01*
X57642Y-35514D01*
X57757Y-35514D01*
X57863Y-35470D01*
X57888Y-35445D01*
X58083Y-35445D01*
X58737Y-36098D01*
X58737Y-37593D01*
X58658Y-37561D01*
X58543Y-37561D01*
X58437Y-37605D01*
X58374Y-37666D01*
X58314Y-37605D01*
X58208Y-37561D01*
X58093Y-37561D01*
X57987Y-37605D01*
X57905Y-37686D01*
X57861Y-37792D01*
X57861Y-37907D01*
X57905Y-38013D01*
X57986Y-38095D01*
X58092Y-38139D01*
X58127Y-38139D01*
X58188Y-38200D01*
X58127Y-38200D01*
X58071Y-38223D01*
X58016Y-38200D01*
X57930Y-38200D01*
X57851Y-38233D01*
X57791Y-38293D01*
X57758Y-38372D01*
X57758Y-38458D01*
X57758Y-38650D01*
X57753Y-38675D01*
X57753Y-38822D01*
X57678Y-38791D01*
X57563Y-38791D01*
X57457Y-38835D01*
X57375Y-38916D01*
X57331Y-39022D01*
X57331Y-39137D01*
X57375Y-39243D01*
X57456Y-39325D01*
X57562Y-39369D01*
X57677Y-39369D01*
X57685Y-39365D01*
X57685Y-39630D01*
X57765Y-39630D01*
X57794Y-39659D01*
X57886Y-39697D01*
X57912Y-39698D01*
X57974Y-39636D01*
X57974Y-39389D01*
X57935Y-39389D01*
X57935Y-39275D01*
X57942Y-39271D01*
X57974Y-39271D01*
X57974Y-39250D01*
X57996Y-39236D01*
X58019Y-39212D01*
X58052Y-39212D01*
X58052Y-39271D01*
X58091Y-39271D01*
X58091Y-39389D01*
X58052Y-39389D01*
X58052Y-39636D01*
X58114Y-39698D01*
X58140Y-39697D01*
X58232Y-39659D01*
X58261Y-39630D01*
X58341Y-39630D01*
X58341Y-39618D01*
X58479Y-39618D01*
X58541Y-39592D01*
X58583Y-39550D01*
X58705Y-39550D01*
X58710Y-39551D01*
X58710Y-39550D01*
X58794Y-39533D01*
X58866Y-39486D01*
X58934Y-39417D01*
X58934Y-39554D01*
X58740Y-39748D01*
X57974Y-39748D01*
X56850Y-39748D01*
X56732Y-39748D01*
X56648Y-39765D01*
X56576Y-39812D01*
X56574Y-39814D01*
X56310Y-40078D01*
X56263Y-40150D01*
X56261Y-40156D01*
X56157Y-40156D01*
X56150Y-40158D01*
X56095Y-40182D01*
X56047Y-40230D01*
X56021Y-40292D01*
X56021Y-40360D01*
X56021Y-42108D01*
X56047Y-42170D01*
X56095Y-42218D01*
X56150Y-42241D01*
X56157Y-42244D01*
X56225Y-42244D01*
X56775Y-42244D01*
X56837Y-42218D01*
X56885Y-42170D01*
X56911Y-42108D01*
X56911Y-42040D01*
X56911Y-40925D01*
X56962Y-40925D01*
X56987Y-40950D01*
X57150Y-40950D01*
X57313Y-40950D01*
X57587Y-40950D01*
X57750Y-40950D01*
X57913Y-40950D01*
X57938Y-40925D01*
X57989Y-40925D01*
X57989Y-42108D01*
X58015Y-42170D01*
X58063Y-42218D01*
X58125Y-42244D01*
X58193Y-42244D01*
X58225Y-42244D01*
X58743Y-42244D01*
X58805Y-42218D01*
X58853Y-42170D01*
X58879Y-42108D01*
X58879Y-42040D01*
X58879Y-40370D01*
X58903Y-40370D01*
X58908Y-40371D01*
X58908Y-40370D01*
X58992Y-40353D01*
X59064Y-40306D01*
X59504Y-39864D01*
X59506Y-39863D01*
X59507Y-39863D01*
X59525Y-39835D01*
X59525Y-40281D01*
X59500Y-40306D01*
X59456Y-40412D01*
X59456Y-40527D01*
X59500Y-40633D01*
X59581Y-40715D01*
X59687Y-40759D01*
X59711Y-40759D01*
X59711Y-40782D01*
X59755Y-40888D01*
X59836Y-40970D01*
X59869Y-40983D01*
X59613Y-41090D01*
X59270Y-41432D01*
X59084Y-41880D01*
X59083Y-42365D01*
X59268Y-42813D01*
X59610Y-43156D01*
X59821Y-43244D01*
X58810Y-43244D01*
X58806Y-43243D01*
X58722Y-43261D01*
X58650Y-43308D01*
X58648Y-43310D01*
X58225Y-43733D01*
X57975Y-43983D01*
X57975Y-41512D01*
X57913Y-41450D01*
X57587Y-41450D01*
X57587Y-42262D01*
X57649Y-42324D01*
X57774Y-42323D01*
X57866Y-42285D01*
X57936Y-42215D01*
X57974Y-42124D01*
X57974Y-42025D01*
X57975Y-41512D01*
X57975Y-43983D01*
X57894Y-44064D01*
X57868Y-44103D01*
X57817Y-44052D01*
X57644Y-43980D01*
X57457Y-43980D01*
X57313Y-44039D01*
X57313Y-42262D01*
X57313Y-41450D01*
X56987Y-41450D01*
X56925Y-41512D01*
X56926Y-42025D01*
X56926Y-42124D01*
X56964Y-42215D01*
X57034Y-42285D01*
X57126Y-42323D01*
X57251Y-42324D01*
X57313Y-42262D01*
X57313Y-44039D01*
X57284Y-44051D01*
X57152Y-44183D01*
X57080Y-44356D01*
X57080Y-44543D01*
X57151Y-44716D01*
X57283Y-44848D01*
X57456Y-44920D01*
X57643Y-44920D01*
X57816Y-44849D01*
X57830Y-44835D01*
X57830Y-44945D01*
X57829Y-44950D01*
X57847Y-45034D01*
X57894Y-45106D01*
X58098Y-45310D01*
X58080Y-45356D01*
X58080Y-45543D01*
X58151Y-45716D01*
X58283Y-45848D01*
X58456Y-45920D01*
X58643Y-45920D01*
X58816Y-45849D01*
X58948Y-45717D01*
X58955Y-45700D01*
X59144Y-45700D01*
X59151Y-45716D01*
X59283Y-45848D01*
X59456Y-45920D01*
X59643Y-45920D01*
X59816Y-45849D01*
X59948Y-45717D01*
X59955Y-45700D01*
X60144Y-45700D01*
X60151Y-45716D01*
X60283Y-45848D01*
X60456Y-45920D01*
X60643Y-45920D01*
X60816Y-45849D01*
X60948Y-45717D01*
X60955Y-45700D01*
X61144Y-45700D01*
X61151Y-45716D01*
X61283Y-45848D01*
X61456Y-45920D01*
X61643Y-45920D01*
X61816Y-45849D01*
X61844Y-45820D01*
X61847Y-45834D01*
X61894Y-45906D01*
X62092Y-46103D01*
X62094Y-46106D01*
X62150Y-46142D01*
X62165Y-46152D01*
X62166Y-46153D01*
X62232Y-46166D01*
X62249Y-46170D01*
X62249Y-46169D01*
X62250Y-46170D01*
X62650Y-46170D01*
X63845Y-46170D01*
X63850Y-46171D01*
X63850Y-46170D01*
X63934Y-46153D01*
X64006Y-46106D01*
X65095Y-45015D01*
X65097Y-45014D01*
X65098Y-45014D01*
X65145Y-44942D01*
X65162Y-44858D01*
X65162Y-44458D01*
X65162Y-44450D01*
X65162Y-37438D01*
X65693Y-37969D01*
X65693Y-38458D01*
X65692Y-38463D01*
X65710Y-38547D01*
X65757Y-38619D01*
X66098Y-38960D01*
X66080Y-39006D01*
X66080Y-39193D01*
X66151Y-39366D01*
X66283Y-39498D01*
X66448Y-39566D01*
X66360Y-39584D01*
X66328Y-39666D01*
X66550Y-39888D01*
X66763Y-39675D01*
X67135Y-39675D01*
X67106Y-39704D01*
X67080Y-39766D01*
X67080Y-39834D01*
X67080Y-39981D01*
X67066Y-39910D01*
X66984Y-39878D01*
X66762Y-40100D01*
X66984Y-40322D01*
X67066Y-40290D01*
X67080Y-40200D01*
X67080Y-40434D01*
X67106Y-40496D01*
X67154Y-40544D01*
X67216Y-40570D01*
X67284Y-40570D01*
X67600Y-40570D01*
X67610Y-40570D01*
X67760Y-40720D01*
X67760Y-43635D01*
X67721Y-43635D01*
X67659Y-43661D01*
X67611Y-43709D01*
X67600Y-43735D01*
X67585Y-43771D01*
X67585Y-43839D01*
X67585Y-44032D01*
X67561Y-43910D01*
X67479Y-43879D01*
X67271Y-44087D01*
X67271Y-43671D01*
X67240Y-43589D01*
X67029Y-43556D01*
X66860Y-43589D01*
X66829Y-43671D01*
X67050Y-43892D01*
X67271Y-43671D01*
X67271Y-44087D01*
X67258Y-44100D01*
X67479Y-44321D01*
X67561Y-44290D01*
X67585Y-44136D01*
X67585Y-44429D01*
X67600Y-44464D01*
X67611Y-44491D01*
X67659Y-44539D01*
X67721Y-44565D01*
X67789Y-44565D01*
X68379Y-44565D01*
X68441Y-44539D01*
X68489Y-44491D01*
X68515Y-44429D01*
X68515Y-44361D01*
X68515Y-43771D01*
X68489Y-43709D01*
X68441Y-43661D01*
X68379Y-43635D01*
X68340Y-43635D01*
X68340Y-40600D01*
X68318Y-40489D01*
X68255Y-40395D01*
X68110Y-40250D01*
X68455Y-39906D01*
X68455Y-39905D01*
X68518Y-39812D01*
X68518Y-39811D01*
X68521Y-39793D01*
X68539Y-39700D01*
X68540Y-39700D01*
X68540Y-46550D01*
X67600Y-46550D01*
X67271Y-46550D01*
X67271Y-44529D01*
X67050Y-44308D01*
X66842Y-44516D01*
X66842Y-44100D01*
X66772Y-44030D01*
X66772Y-40534D01*
X66550Y-40312D01*
X66338Y-40524D01*
X66338Y-40100D01*
X66116Y-39878D01*
X66034Y-39910D01*
X66001Y-40122D01*
X66034Y-40290D01*
X66116Y-40322D01*
X66338Y-40100D01*
X66338Y-40524D01*
X66328Y-40534D01*
X66360Y-40616D01*
X66572Y-40649D01*
X66740Y-40616D01*
X66772Y-40534D01*
X66772Y-44030D01*
X66621Y-43879D01*
X66539Y-43910D01*
X66506Y-44121D01*
X66539Y-44290D01*
X66621Y-44321D01*
X66842Y-44100D01*
X66842Y-44516D01*
X66829Y-44529D01*
X66860Y-44611D01*
X67071Y-44644D01*
X67240Y-44611D01*
X67271Y-44529D01*
X67271Y-46550D01*
X66575Y-46550D01*
X62650Y-46550D01*
X62150Y-46550D01*
X58250Y-46550D01*
X58020Y-46550D01*
X58020Y-45544D01*
X58020Y-45357D01*
X57949Y-45184D01*
X57817Y-45052D01*
X57644Y-44980D01*
X57457Y-44980D01*
X57284Y-45051D01*
X57152Y-45183D01*
X57080Y-45356D01*
X57080Y-45543D01*
X57151Y-45716D01*
X57283Y-45848D01*
X57456Y-45920D01*
X57643Y-45920D01*
X57816Y-45849D01*
X57948Y-45717D01*
X58020Y-45544D01*
X58020Y-46550D01*
X57020Y-46550D01*
X57020Y-45784D01*
X57020Y-45716D01*
X57020Y-45116D01*
X57020Y-44544D01*
X57020Y-44357D01*
X56949Y-44184D01*
X56817Y-44052D01*
X56644Y-43980D01*
X56457Y-43980D01*
X56284Y-44051D01*
X56152Y-44183D01*
X56150Y-44187D01*
X56080Y-44356D01*
X56080Y-44543D01*
X56150Y-44713D01*
X56151Y-44716D01*
X56283Y-44848D01*
X56456Y-44920D01*
X56643Y-44920D01*
X56816Y-44849D01*
X56948Y-44717D01*
X57020Y-44544D01*
X57020Y-45116D01*
X56994Y-45054D01*
X56946Y-45006D01*
X56884Y-44980D01*
X56816Y-44980D01*
X56216Y-44980D01*
X56154Y-45006D01*
X56150Y-45010D01*
X56106Y-45054D01*
X56080Y-45116D01*
X56080Y-45184D01*
X56080Y-45784D01*
X56106Y-45846D01*
X56150Y-45890D01*
X56154Y-45894D01*
X56216Y-45920D01*
X56284Y-45920D01*
X56884Y-45920D01*
X56946Y-45894D01*
X56994Y-45846D01*
X57020Y-45784D01*
X57020Y-46550D01*
X56750Y-46550D01*
X56150Y-46550D01*
X55550Y-46550D01*
X54725Y-46550D01*
X53775Y-46550D01*
X53099Y-46550D01*
X53099Y-44078D01*
X53099Y-43078D01*
X53066Y-42910D01*
X52984Y-42878D01*
X52800Y-43062D01*
X52762Y-43100D01*
X52800Y-43138D01*
X52984Y-43322D01*
X53066Y-43290D01*
X53099Y-43078D01*
X53099Y-44078D01*
X53066Y-43910D01*
X52984Y-43878D01*
X52800Y-44062D01*
X52772Y-44090D01*
X52772Y-43666D01*
X52746Y-43600D01*
X52772Y-43534D01*
X52550Y-43312D01*
X52338Y-43524D01*
X52338Y-43100D01*
X52116Y-42878D01*
X52050Y-42903D01*
X51984Y-42878D01*
X51762Y-43100D01*
X51984Y-43322D01*
X52050Y-43296D01*
X52116Y-43322D01*
X52338Y-43100D01*
X52338Y-43524D01*
X52328Y-43534D01*
X52353Y-43600D01*
X52328Y-43666D01*
X52550Y-43888D01*
X52772Y-43666D01*
X52772Y-44090D01*
X52762Y-44100D01*
X52800Y-44138D01*
X52984Y-44322D01*
X53066Y-44290D01*
X53099Y-44078D01*
X53099Y-46550D01*
X52800Y-46550D01*
X52772Y-46550D01*
X52772Y-44534D01*
X52550Y-44312D01*
X52338Y-44524D01*
X52338Y-44100D01*
X52116Y-43878D01*
X52050Y-43903D01*
X51984Y-43878D01*
X51772Y-44090D01*
X51772Y-43666D01*
X51746Y-43600D01*
X51772Y-43534D01*
X51550Y-43312D01*
X51338Y-43524D01*
X51338Y-43100D01*
X51116Y-42878D01*
X51034Y-42910D01*
X51001Y-43122D01*
X51034Y-43290D01*
X51116Y-43322D01*
X51338Y-43100D01*
X51338Y-43524D01*
X51328Y-43534D01*
X51353Y-43600D01*
X51328Y-43666D01*
X51550Y-43888D01*
X51772Y-43666D01*
X51772Y-44090D01*
X51762Y-44100D01*
X51984Y-44322D01*
X52050Y-44296D01*
X52116Y-44322D01*
X52338Y-44100D01*
X52338Y-44524D01*
X52328Y-44534D01*
X52360Y-44616D01*
X52572Y-44649D01*
X52740Y-44616D01*
X52772Y-44534D01*
X52772Y-46550D01*
X51772Y-46550D01*
X51772Y-44534D01*
X51550Y-44312D01*
X51338Y-44524D01*
X51338Y-44100D01*
X51116Y-43878D01*
X51034Y-43910D01*
X51001Y-44122D01*
X51034Y-44290D01*
X51116Y-44322D01*
X51338Y-44100D01*
X51338Y-44524D01*
X51328Y-44534D01*
X51360Y-44616D01*
X51572Y-44649D01*
X51740Y-44616D01*
X51772Y-44534D01*
X51772Y-46550D01*
X51350Y-46550D01*
X50300Y-46550D01*
X50300Y-27550D01*
X66000Y-27550D01*
X66000Y-32550D01*
X69300Y-32550D01*
X69300Y-46550D01*
M02*
