M48
INCH,TZ
T1C0.012
T2C0.032
T3C0.032
T4C0.040
T5C0.120
%
G90
G05
T1
X53700Y-35850
X55200Y-36450
X55300Y-34650
X55350Y-35000
X55450Y-35600
X56490Y-37740
X56500Y-38100
X57000Y-31500
X57000Y-31750
X57000Y-32000
X57000Y-32250
X57000Y-32500
X57000Y-32750
X57000Y-33000
X57250Y-31250
X57250Y-31500
X57250Y-31750
X57250Y-32000
X57250Y-32250
X57250Y-32500
X57250Y-32750
X57250Y-33000
X57620Y-39080
X57700Y-35225
X57725Y-36575
X58150Y-37850
X58250Y-36000
X58250Y-36250
X58250Y-36500
X58250Y-36750
X58250Y-37000
X58500Y-36250
X58500Y-36500
X58500Y-36750
X58500Y-37000
X58500Y-37250
X58600Y-37850
X58850Y-39560
X58900Y-31850
X58900Y-32100
X58900Y-32350
X58900Y-32600
X59150Y-31850
X59150Y-32100
X59150Y-32350
X59150Y-32600
X59250Y-36000
X59250Y-36250
X59250Y-36500
X59250Y-36750
X59400Y-31850
X59400Y-32100
X59400Y-32350
X59400Y-32600
X59500Y-36000
X59500Y-36250
X59500Y-36500
X59500Y-36750
X59625Y-33425
X59740Y-34510
X59745Y-40470
X59750Y-36000
X59750Y-36250
X59750Y-36500
X59750Y-36750
X59875Y-33225
X60000Y-36000
X60000Y-36250
X60000Y-36500
X60000Y-36750
X60000Y-40725
X60060Y-34510
X60195Y-39955
X60390Y-34510
X60450Y-40215
X60590Y-39335
X60860Y-38100
X60880Y-30160
X61170Y-29990
X61500Y-38150
X61500Y-38400
X61500Y-38650
X61750Y-33900
X61750Y-38150
X61750Y-38400
X61750Y-38650
X61750Y-38900
X62080Y-40470
X62200Y-33900
X62260Y-40910
X62305Y-41345
X62650Y-33900
X63100Y-33900
X63550Y-33900
X63600Y-37300
X63600Y-37500
X63600Y-37700
X63600Y-37900
X63600Y-38100
X63800Y-37300
X63800Y-37500
X63800Y-37700
X63800Y-37900
X63800Y-38100
X64000Y-33900
X64000Y-37300
X64000Y-37500
X64000Y-37700
X64000Y-37900
X64000Y-38100
X64200Y-37300
X64200Y-37500
X64200Y-37700
X64200Y-37900
X64200Y-38100
X64400Y-37100
X64400Y-37300
X64400Y-37500
X64400Y-37700
X64400Y-37900
X64400Y-38100
X64450Y-33900
T2
X67050Y-44100
X68050Y-44100
T3
X51050Y-29100
X51550Y-35100
X56550Y-45450
X67550Y-40100
T4
X51050Y-28100
X51050Y-30100
X51050Y-31100
X51550Y-36100
X51550Y-37100
X51550Y-38100
X51550Y-39100
X51550Y-40100
X51550Y-41100
X51550Y-42100
X51550Y-43100
X51550Y-44100
X52050Y-28100
X52050Y-29100
X52550Y-31100
X52550Y-32100
X52550Y-35100
X52550Y-36100
X52550Y-37100
X52550Y-38100
X52550Y-39100
X52550Y-40100
X52550Y-41100
X52550Y-42100
X52550Y-43100
X52550Y-44100
X53050Y-28100
X53050Y-29100
X53550Y-31100
X53550Y-32100
X54050Y-28100
X54050Y-29100
X54470Y-34650
X54470Y-36650
X54470Y-38650
X54550Y-31100
X54550Y-32100
X54630Y-35650
X54630Y-37650
X54630Y-39650
X55050Y-28100
X55050Y-29100
X55550Y-31100
X55550Y-32100
X56050Y-28100
X56050Y-29100
X56550Y-44450
X57050Y-28100
X57050Y-29100
X57550Y-44450
X57550Y-45450
X58050Y-28100
X58050Y-29100
X58550Y-44450
X58550Y-45450
X59050Y-28100
X59050Y-29100
X59550Y-44450
X59550Y-45450
X60050Y-28100
X60050Y-29100
X60550Y-44450
X60550Y-45450
X61050Y-28100
X61050Y-29100
X61550Y-44450
X61550Y-45450
X62050Y-28100
X62050Y-29100
X62550Y-44450
X62550Y-45450
X63050Y-28100
X63050Y-29100
X63550Y-44450
X63550Y-45450
X66550Y-36100
X66550Y-37100
X66550Y-38100
X66550Y-39100
X66550Y-40100
X67550Y-36100
X67550Y-37100
X67550Y-38100
X67550Y-39100
T5
X60302Y-42124
T0
M30
